<?xml version="1.0" encoding="utf-8"?>
<!-- Generator: Adobe Illustrator 23.1.0, SVG Export Plug-In . SVG Version: 6.00 Build 0)  -->
<svg version="1.1" id="Слой_1" xmlns="http://www.w3.org/2000/svg" xmlns:xlink="http://www.w3.org/1999/xlink" x="0px" y="0px"
	 viewBox="0 0 321.2 590.3" style="enable-background:new 0 0 321.2 590.3;" xml:space="preserve">
<style type="text/css">
	.st0{fill:url(#SVGID_1_);}
	.st1{fill:#FFFFFF;}
	.st2{fill:url(#SVGID_2_);}
	.st3{fill:#666666;}
	.st4{fill:none;}
	.st5{fill:#006ACD;}
	.st6{fill:#B3B3B3;}
	.st7{fill:#B7BCBC;}
	.st8{fill:#1A1B6F;}
	.st9{fill:#15155A;}
	.st10{fill:#E51408;}
	.st11{fill:#F0120A;}
	.st12{fill:#CC1009;}
	.st13{fill:#FA0F0C;}
	.st14{fill:#A60D0A;}
	.st15{fill:url(#SVGID_3_);}
	.st16{fill:url(#SVGID-2_1_);}
	.st17{clip-path:url(#SVGID_5_);}
	.st18{fill:url(#SVGID-3_1_);}
	.st19{fill:url(#SVGID_6_);}
	.st20{fill:#008BF4;}
	.st21{fill:#00AEEF;}
	.st22{fill:url(#SVGID_7_);}
	.st23{fill:url(#SVGID_8_);}
</style>
<title>screen-matches</title>
<linearGradient id="SVGID_1_" gradientUnits="userSpaceOnUse" x1="-14.2979" y1="348.75" x2="306.8021" y2="348.75" gradientTransform="matrix(1 0 0 1 14.37 -213.2)">
	<stop  offset="0" style="stop-color:#0055CF"/>
	<stop  offset="1" style="stop-color:#00BBEE"/>
</linearGradient>
<path class="st0" d="M0.1,0v271.1c124.6-10.8,169.7-120.6,294.6-120.6c8.9,0,17.7,0.5,26.5,1.6V0H0.1z"/>
<image style="overflow:visible;opacity:0.32;enable-background:new    ;" width="351" height="566" xlink:href="C3D7881.png"  transform="matrix(0.9972 0 0 0.9972 0 25.9516)">
</image>
<path class="st1" d="M287.6,550.5H33.5c-4.6,0-8.3-3.7-8.3-8.3c0,0,0,0,0,0V73.6c0-4.6,3.7-8.3,8.3-8.3c0,0,0,0,0,0h254.1
	c4.6,0,8.3,3.7,8.3,8.3c0,0,0,0,0,0v468.6C295.9,546.8,292.2,550.5,287.6,550.5C287.6,550.5,287.6,550.5,287.6,550.5z"/>
<image style="overflow:visible;opacity:0.32;enable-background:new    ;" width="280" height="215" xlink:href="C3D7883.png"  transform="matrix(1 0 0 1 13.7921 242.65)">
</image>
<path class="st1" d="M247.4,417.6H58.6c-3.4,0.1-6.3-2.5-6.4-5.9V288.5c0.1-3.4,3-6,6.4-5.9h188.8c3.4-0.1,6.3,2.5,6.4,5.9v123.2
	C253.9,415,251,417.6,247.4,417.6"/>
<linearGradient id="SVGID_2_" gradientUnits="userSpaceOnUse" x1="111.7632" y1="636.561" x2="172.7932" y2="566.371" gradientTransform="matrix(1 0 0 1 14.37 -213.2)">
	<stop  offset="0" style="stop-color:#0099FF"/>
	<stop  offset="1" style="stop-color:#5DBBFB"/>
</linearGradient>
<path class="st2" d="M221.9,407.7H84.7c-8.5,0-15.5-6.9-15.5-15.4c0,0,0-0.1,0-0.1l0,0c0-8.5,6.9-15.5,15.4-15.5c0,0,0.1,0,0.1,0
	h137.1c8.5,0,15.5,6.9,15.5,15.4c0,0,0,0.1,0,0.1l0,0C237.3,400.7,230.4,407.7,221.9,407.7C221.9,407.7,221.9,407.7,221.9,407.7z"/>
<path class="st1" d="M118.7,395.7h-1V390h1V395.7z M121.2,395.7l-2.4-3l2.2-2.7h1.1l-2.2,2.7l2.5,3.1h-1.2L121.2,395.7z"/>
<path class="st1" d="M122.7,390h1l1.7,4.4l1.7-4.4h1l-2.5,6.3c-0.1,0.4-0.4,0.9-0.7,1.2c-0.2,0.2-0.6,0.4-0.9,0.4h-0.3v-0.8
	c0.2,0,0.5-0.1,0.7-0.2c0.2-0.2,0.3-0.4,0.4-0.6l0.3-0.6L122.7,390z"/>
<path class="st1" d="M134.3,390v5.7h-1v-4.8h-2.9v4.8h-1V390H134.3z"/>
<path class="st1" d="M141.1,390v5.7h-1v-4.3l-2.9,4.3h-1V390h1v4.3l2.9-4.3H141.1z"/>
<path class="st1" d="M142.4,390h4.5v0.9h-1.8v4.8h-1v-4.8h-1.8V390H142.4z"/>
<path class="st1" d="M150.7,392c0.5,0,1,0.2,1.4,0.5c0.4,0.3,0.6,0.8,0.5,1.3c0,0.5-0.2,0.9-0.5,1.3c-0.4,0.3-0.9,0.5-1.4,0.5h-2.4
	v-5.7h1v2h1.4V392z M150.7,394.8c0.6,0,1-0.4,1-1s-0.4-1-1-1h-1.4v1.9h1.4V394.8z"/>
<path class="st1" d="M157.8,391.1c0.1-0.2,0.3-0.3,0.5-0.5l0.6-0.3c0.2-0.1,0.5-0.2,0.8-0.2c0.3,0,0.7,0.1,1,0.2
	c0.3,0.1,0.6,0.3,0.8,0.6c0.2,0.3,0.4,0.6,0.6,0.9c0.3,0.7,0.3,1.5,0,2.2c-0.1,0.3-0.3,0.7-0.6,0.9c-0.2,0.2-0.5,0.4-0.8,0.6
	c-0.3,0.1-0.7,0.2-1,0.2c-0.3,0-0.7-0.1-1-0.2c-0.3-0.2-0.6-0.4-0.9-0.7c-0.3-0.3-0.5-0.7-0.6-1.1c-0.1-0.5-0.2-1-0.2-1.5
	c0-0.7,0.1-1.4,0.2-2.1c0.3-1.1,1.1-1.9,2.2-2.2c0.7-0.2,1.5-0.3,2.2-0.3v0.9c-0.6,0-1.1,0.1-1.7,0.2c-0.4,0.1-0.8,0.3-1.1,0.5
	c-0.3,0.2-0.5,0.5-0.6,0.8C157.9,390.3,157.8,390.7,157.8,391.1z M159.6,394.9c0.2,0,0.4,0,0.6-0.1c0.2-0.1,0.4-0.2,0.5-0.4
	c0.2-0.2,0.3-0.4,0.4-0.6c0.1-0.5,0.1-1.1,0-1.6c-0.1-0.2-0.2-0.4-0.4-0.6c-0.1-0.2-0.3-0.3-0.5-0.4c-0.4-0.1-0.8-0.1-1.2,0
	c-0.5,0.2-0.8,0.5-1,1c-0.1,0.3-0.1,0.5-0.1,0.8c0,0.3,0,0.5,0.1,0.8c0.1,0.2,0.2,0.4,0.4,0.6c0.2,0.2,0.4,0.3,0.6,0.4
	C159.2,394.8,159.4,394.9,159.6,394.9L159.6,394.9z"/>
<path class="st1" d="M168.7,390v5.7h-1v-4.3l-2.9,4.3h-1V390h1v4.3l2.9-4.3H168.7z"/>
<path class="st1" d="M175.1,390v5.7h-1v-4.9h-2l-0.2,3.1c0,0.5-0.2,1-0.5,1.4c-0.3,0.3-0.7,0.5-1.2,0.5h-0.3V395h0.1
	c0.5,0.1,0.9-0.3,1-0.8c0-0.1,0-0.1,0-0.2l0.3-3.9h3.8V390z"/>
<path class="st1" d="M181.8,394.2c-0.1,0.2-0.2,0.4-0.4,0.6c-0.1,0.2-0.3,0.4-0.5,0.5c-0.2,0.2-0.5,0.3-0.7,0.4
	c-0.3,0.1-0.5,0.1-0.8,0.1c-0.3,0-0.7-0.1-1-0.2c-0.3-0.1-0.7-0.3-0.9-0.6l-0.6-0.9c-0.3-0.8-0.3-1.6,0-2.4c0.1-0.4,0.3-0.7,0.6-0.9
	c0.2-0.3,0.5-0.5,0.8-0.6c0.6-0.3,1.4-0.3,2,0c0.3,0.1,0.6,0.3,0.8,0.6c0.2,0.3,0.4,0.6,0.5,0.9c0.1,0.4,0.2,0.8,0.2,1.2v0.4h-4.1
	c0,0.2,0.1,0.4,0.2,0.6c0.1,0.2,0.2,0.4,0.4,0.5c0.1,0.2,0.3,0.3,0.5,0.3c0.2,0.1,0.4,0.1,0.6,0.1c0.2,0,0.3,0,0.5-0.1
	c0.2,0,0.3-0.1,0.4-0.2c0.1-0.1,0.2-0.1,0.3-0.2s0.1-0.2,0.2-0.2h1V394.2z M179.3,390.8c-0.2,0-0.4,0-0.6,0.1
	c-0.2,0.1-0.3,0.2-0.5,0.3c-0.2,0.1-0.3,0.3-0.4,0.5c-0.1,0.2-0.2,0.5-0.2,0.7h3.1c0-0.4-0.2-0.9-0.5-1.2
	C180,390.9,179.6,390.8,179.3,390.8z"/>
<path class="st1" d="M182.8,390h4.5v0.9h-1.8v4.8h-1v-4.8h-1.8V390H182.8z"/>
<path class="st1" d="M190.9,392c0.5,0,1,0.2,1.4,0.5c0.7,0.7,0.7,1.9,0,2.6c-0.4,0.3-0.9,0.5-1.4,0.5h-2.2v-5.7h1v2h1.2V392z
	 M190.9,394.8c0.6,0,1-0.4,1-1s-0.4-1-1-1h-1.3v1.9h1.3V394.8z M194.8,390v5.7h-1V390H194.8z"/>
<path class="st1" d="M149.4,22.8c0-0.5-0.2-0.8-0.5-0.8c-0.8,0-1.9,2.4-2.5,5.2C148,26.3,149.2,24.7,149.4,22.8 M128.8,45.9
	c0,0.6,0.2,1.7,0.9,1.7c2.8,0,6.5-7.6,6.6-13.6C131.3,37.5,128.8,42.4,128.8,45.9 M154.7,20.1h3l-1.5,5.2l2.3-0.6l1.3-4.6h2.8
	l-2.3,7.8l3.7-5l0.8-2.8h2.6l-1.6,5.5c-0.1,0.2-0.4,1.4-0.1,1.4s1-1.3,1.8-2.7c0.8-1.4,1.4-2.8,2-4.2h2.7l-1.3,4.7l3.4-4.7h23.8
	l-57.5,24.8l1.1-3.9l45.1-18.6H178l-0.9,2.9l-2.8,0.9l1.1-3.8H174l-3.9,5.1l-2.4,0.8c0.1-1.2,0.3-2.5,0.6-3.7l-1.1,2.1
	c-0.9,1.7-1.7,3-3,3c-1,0-1.5-0.9-1.5-2.2c0-0.5,0.1-0.9,0.2-1.4l-3.7,4.9l-3,1l1.5-5.4l-2.3,0.6l-1.6,5.6l-3.3,1.1l1.5-5.2
	l-3.3,4.3c-1.4,1.8-2.9,2.8-4,2.8c-2.2,0-2.5-3.7-2.3-5.2c-1.2,0.6-1.7,0.8-2.1,1c0.5,8-7.5,19-12.7,19c-1.6,0-2.8-1.2-2.8-4
	c0-4.1,3.1-10.2,11.3-14.9c-0.1-1.5-0.8-2.9-1.8-3.9v-0.2c2.8-2.2,4.9-4.6,4.9-6.8c0-0.8-0.6-1.4-1.4-1.4c-0.1,0-0.1,0-0.2,0
	c-1.6,0-3.6,1.9-4.7,3.6h-0.6l0.9-3.1c1.8-2.3,4.4-3.7,7.3-3.8c1.9,0,3.5,0.7,3.5,3c0,2.7-2.3,5.5-5.8,7.6c0.8,0.9,1.3,1.9,1.6,3.1
	c0.8-0.4,1.7-0.9,2.6-1.3c1-4.9,4.5-8.7,7.5-8.7c1.1-0.2,2.1,0.6,2.3,1.7c0,0.2,0,0.4,0,0.5c0,2.9-2.7,5.2-6.5,7.2
	c-0.1,0.5-0.1,1-0.1,1.5c0,1.3,0.3,2,0.8,2c0.3,0,0.7-0.3,1.2-0.8l5.1-6.1L154.7,20.1"/>
<path class="st3" d="M245.6,181.9c0-0.2,0.1-0.3,0.2-0.4c0.2-0.2,0.6-0.3,0.8,0s0.3,0.6,0,0.8s-0.6,0.3-0.8,0c0,0,0,0,0,0
	C245.6,182.2,245.6,182.1,245.6,181.9z"/>
<rect x="47.2" y="158.6" class="st4" width="226.3" height="69"/>
<path class="st3" d="M62.6,158.6l-2.6,6c-0.2,0.5-0.5,0.9-0.8,1.3c-0.3,0.3-0.6,0.4-1,0.4c-0.2,0-0.3,0-0.4-0.1s-0.1,0-0.2-0.1v-0.8
	H58c0.2,0,0.4-0.1,0.6-0.2c0.2-0.1,0.3-0.4,0.4-0.6l0.2-0.5l-2.5-5.5h1.1l1.9,4.3l1.9-4.3h1L62.6,158.6z"/>
<path class="st3" d="M66.1,163.4c0.1,0.1,0.3,0.2,0.4,0.3c0.1,0.1,0.2,0.2,0.3,0.4c0.1,0.2,0.1,0.3,0.1,0.5c0,0.2,0,0.4-0.1,0.6
	c-0.1,0.2-0.2,0.4-0.4,0.5c-0.2,0.1-0.4,0.3-0.6,0.3s-0.5,0.1-0.8,0.1c-0.5,0-1-0.2-1.4-0.5c-0.3-0.3-0.5-0.7-0.6-1.2h0.9
	c0,0.2,0.1,0.4,0.3,0.6c0.2,0.2,0.4,0.2,0.8,0.2c0.2,0,0.5-0.1,0.7-0.2c0.3-0.2,0.4-0.5,0.2-0.8c-0.1-0.1-0.1-0.2-0.2-0.2
	c-0.2-0.1-0.5-0.2-0.7-0.2h-0.5V163H65c0.2,0,0.4-0.1,0.6-0.2c0.2-0.1,0.2-0.3,0.2-0.5c0-0.2-0.1-0.4-0.2-0.5
	c-0.2-0.1-0.4-0.2-0.6-0.2c-0.2,0-0.5,0.1-0.7,0.2c-0.1,0.2-0.2,0.3-0.3,0.5h-0.9c0-0.5,0.2-0.9,0.5-1.2c0.4-0.3,0.9-0.5,1.4-0.5
	c0.2,0,0.5,0,0.7,0.1l0.6,0.3c0.2,0.1,0.3,0.3,0.4,0.5c0.1,0.2,0.1,0.4,0.1,0.6c0,0.2,0,0.4-0.1,0.5c-0.1,0.1-0.1,0.3-0.2,0.4
	C66.3,163.3,66.2,163.4,66.1,163.4z"/>
<path class="st3" d="M72.7,160.8v5.4h-0.9v-2.3H69v2.3h-0.9v-5.4H69v2.2h2.8v-2.2H72.7z"/>
<path class="st3" d="M76.3,160.7c0.3,0,0.6,0.1,0.8,0.2c0.2,0.1,0.5,0.2,0.6,0.4c0.2,0.2,0.3,0.4,0.4,0.6c0.1,0.2,0.2,0.5,0.1,0.7
	v3.6h-0.7l-0.2-0.6c-0.1,0.1-0.3,0.2-0.4,0.3c-0.1,0.1-0.3,0.2-0.5,0.2c-0.2,0-0.4,0.1-0.7,0.1c-0.2,0-0.5,0-0.7-0.1
	c-0.2-0.1-0.4-0.2-0.6-0.4c-0.2-0.1-0.3-0.3-0.4-0.5c-0.1-0.2-0.1-0.4-0.1-0.6c0-0.2,0.1-0.5,0.2-0.7c0.1-0.2,0.3-0.4,0.5-0.6
	c0.3-0.2,0.6-0.3,1-0.4c0.6-0.1,1.1-0.1,1.7-0.1v-0.3c0-0.3-0.1-0.5-0.3-0.7c-0.2-0.2-0.5-0.3-0.8-0.3c-0.2,0-0.5,0.1-0.7,0.2
	c-0.2,0.1-0.3,0.4-0.3,0.6h-1c0-0.2,0.1-0.4,0.2-0.6c0.1-0.2,0.2-0.4,0.4-0.5c0.2-0.1,0.4-0.3,0.6-0.3
	C75.7,160.8,76,160.7,76.3,160.7z M75.8,165.4c0.2,0,0.5,0,0.7-0.1c0.2-0.1,0.3-0.2,0.5-0.3c0.1-0.1,0.2-0.3,0.3-0.4
	c0.1-0.1,0.1-0.3,0.1-0.5v-0.4c-0.4,0-0.9,0-1.3,0.1c-0.3,0.1-0.6,0.1-0.8,0.2c-0.2,0.1-0.3,0.2-0.4,0.3c-0.1,0.1-0.1,0.3-0.1,0.4
	c0,0.2,0.1,0.3,0.2,0.5C75.2,165.4,75.5,165.4,75.8,165.4L75.8,165.4z"/>
<path class="st3" d="M83.1,163.4c0.3,0.2,0.5,0.4,0.7,0.7c0.1,0.2,0.1,0.4,0.1,0.6c0,0.4-0.1,0.8-0.4,1.1c-0.3,0.3-0.7,0.4-1.1,0.4
	h-2.6v-5.4h2.4c0.2,0,0.4,0,0.6,0.1c0.4,0.1,0.7,0.4,0.8,0.8c0.1,0.2,0.1,0.4,0.1,0.6c0,0.2,0,0.4-0.1,0.5c-0.1,0.1-0.1,0.2-0.2,0.3
	S83.3,163.3,83.1,163.4z M80.7,161.6v1.4h1.4c0.2,0,0.4-0.1,0.6-0.2c0.2-0.1,0.2-0.3,0.2-0.5c0-0.2-0.1-0.4-0.2-0.5
	c-0.2-0.1-0.4-0.2-0.6-0.2H80.7z M82.3,165.4c0.4,0,0.7-0.3,0.7-0.7c0,0,0,0,0,0c0-0.1,0-0.2-0.1-0.3c-0.1-0.1-0.1-0.2-0.2-0.2
	s-0.2-0.1-0.3-0.2c-0.1-0.1-0.2-0.1-0.3-0.1h-1.6v1.5H82.3z"/>
<path class="st3" d="M87.3,160.7c0.3,0,0.6,0.1,0.8,0.2c0.2,0.1,0.5,0.2,0.6,0.4c0.2,0.2,0.3,0.4,0.4,0.6c0.1,0.2,0.2,0.5,0.1,0.7
	v3.6h-0.7l-0.2-0.6c-0.1,0.1-0.3,0.2-0.4,0.3c-0.1,0.1-0.3,0.2-0.5,0.2c-0.2,0-0.4,0.1-0.7,0.1c-0.2,0-0.5,0-0.7-0.1
	c-0.2-0.1-0.4-0.2-0.6-0.4c-0.2-0.1-0.3-0.3-0.4-0.5c-0.1-0.2-0.1-0.4-0.1-0.6c0-0.2,0.1-0.5,0.2-0.7c0.1-0.2,0.3-0.4,0.5-0.6
	c0.3-0.2,0.6-0.3,1-0.4c0.6-0.1,1.1-0.1,1.7-0.1v-0.3c0-0.3-0.1-0.5-0.3-0.7c-0.2-0.2-0.5-0.3-0.8-0.3c-0.2,0-0.5,0.1-0.7,0.2
	c-0.2,0.1-0.3,0.4-0.3,0.6h-1c0-0.2,0.1-0.4,0.2-0.6c0.1-0.2,0.2-0.4,0.4-0.5c0.2-0.1,0.4-0.3,0.6-0.3
	C86.7,160.8,87,160.7,87.3,160.7z M86.8,165.4c0.2,0,0.5,0,0.7-0.1c0.2-0.1,0.3-0.2,0.5-0.3c0.1-0.1,0.2-0.3,0.3-0.4
	c0.1-0.1,0.1-0.3,0.1-0.5v-0.4c-0.4,0-0.9,0-1.3,0.1c-0.3,0.1-0.6,0.1-0.8,0.2c-0.2,0.1-0.3,0.2-0.4,0.3c-0.1,0.1-0.1,0.3-0.1,0.4
	c0,0.2,0.1,0.3,0.2,0.5C86.2,165.4,86.5,165.4,86.8,165.4L86.8,165.4z"/>
<path class="st3" d="M95.4,160.8v5.4h-0.9v-4l-2.8,4h-0.9v-5.4h0.9v4l2.8-4H95.4z M93.1,160c-0.4,0-0.7-0.1-1-0.4
	c-0.2-0.3-0.4-0.6-0.5-0.9h0.7c0,0.4,0.3,0.7,0.7,0.7c0,0,0,0,0,0c0.2,0,0.3-0.1,0.5-0.2s0.2-0.3,0.2-0.5h0.7c0,0.4-0.2,0.7-0.5,0.9
	C93.7,159.9,93.4,160,93.1,160z"/>
<path class="st3" d="M96.3,160.8h4.3v0.8h-1.7v4.6H98v-4.6h-1.7V160.8z"/>
<path class="st3" d="M105.9,164.8l-0.3,0.6c-0.1,0.2-0.3,0.3-0.5,0.5s-0.4,0.2-0.6,0.3c-0.3,0.1-0.5,0.1-0.8,0.1
	c-0.3,0-0.7-0.1-1-0.2c-0.3-0.1-0.6-0.3-0.8-0.6c-0.2-0.3-0.4-0.6-0.5-0.9c-0.3-0.7-0.3-1.5,0-2.2c0.1-0.3,0.3-0.6,0.5-0.9
	c0.2-0.2,0.5-0.4,0.8-0.6c0.3-0.2,0.6-0.2,0.9-0.2c0.3,0,0.6,0.1,0.9,0.2c0.3,0.1,0.6,0.3,0.8,0.5c0.3,0.2,0.5,0.5,0.5,0.9
	c0.1,0.4,0.2,0.7,0.2,1.1v0.4h-3.9c0,0.2,0.1,0.4,0.2,0.6c0.1,0.2,0.2,0.4,0.4,0.5c0.1,0.1,0.3,0.2,0.5,0.3c0.2,0.1,0.4,0.1,0.6,0.1
	c0.2,0,0.3,0,0.5-0.1c0.2-0.1,0.3-0.1,0.4-0.2s0.2-0.1,0.3-0.2l0.2-0.2h0.7L105.9,164.8z M103.6,161.6c-0.2,0-0.4,0-0.5,0.1
	c-0.2,0.1-0.3,0.2-0.4,0.3c-0.2,0.1-0.3,0.3-0.3,0.5c0,0.2-0.2,0.4-0.2,0.6h2.9c0-0.4-0.2-0.8-0.5-1.1
	C104.3,161.7,103.9,161.6,103.6,161.6z"/>
<path class="st3" d="M114.5,163.5c0,0.4-0.1,0.7-0.2,1.1c-0.1,0.3-0.3,0.6-0.5,0.9c-0.2,0.3-0.5,0.5-0.8,0.6c-0.3,0.2-0.7,0.2-1,0.2
	c-0.3,0-0.7-0.1-1-0.2c-0.3-0.1-0.6-0.3-0.8-0.6c-0.2-0.3-0.4-0.6-0.5-0.9c-0.3-0.7-0.3-1.5,0-2.2c0.1-0.3,0.3-0.6,0.5-0.9
	c0.2-0.2,0.5-0.4,0.8-0.6c0.3-0.2,0.7-0.2,1-0.2c0.3,0,0.7,0.1,1,0.2c0.3,0.1,0.6,0.3,0.8,0.6c0.2,0.3,0.4,0.6,0.5,0.9
	C114.4,162.8,114.5,163.1,114.5,163.5z M110.4,163.5c0,0.3,0,0.5,0.1,0.8c0.1,0.2,0.2,0.4,0.4,0.6c0.1,0.2,0.3,0.3,0.5,0.4
	c0.4,0.1,0.8,0.1,1.2,0c0.2-0.1,0.4-0.2,0.5-0.4c0.1-0.2,0.3-0.4,0.4-0.6c0.1-0.5,0.1-1.1,0-1.6c-0.1-0.2-0.2-0.4-0.4-0.6
	c-0.1-0.2-0.3-0.3-0.5-0.4c-0.4-0.1-0.8-0.1-1.2,0c-0.2,0.1-0.4,0.2-0.5,0.4c-0.1,0.2-0.3,0.4-0.4,0.6
	C110.4,163,110.4,163.2,110.4,163.5z"/>
<path class="st3" d="M122.8,160.8v5.4h-0.9v-4.6h-2.8v4.6h-0.9v-5.4H122.8z"/>
<path class="st3" d="M125.3,161.4c0.1-0.1,0.2-0.2,0.4-0.3c0.1-0.1,0.3-0.2,0.5-0.2c0.2,0,0.4-0.1,0.7-0.1c0.3,0,0.7,0.1,1,0.2
	c0.3,0.1,0.6,0.3,0.8,0.6c0.2,0.3,0.4,0.6,0.5,0.9c0.3,0.7,0.3,1.5,0,2.2c-0.1,0.3-0.3,0.6-0.5,0.9c-0.2,0.3-0.5,0.5-0.8,0.6
	c-0.3,0.2-0.7,0.2-1,0.2c-0.2,0-0.5,0-0.7-0.1c-0.2-0.1-0.3-0.2-0.5-0.2c-0.2-0.1-0.3-0.2-0.4-0.4v2.6h-0.9v-7.5h0.7L125.3,161.4z
	 M125.2,163.5c0,0.3,0,0.5,0.1,0.8c0.1,0.2,0.2,0.4,0.4,0.6c0.1,0.2,0.3,0.3,0.5,0.4c0.4,0.1,0.8,0.1,1.2,0c0.2-0.1,0.4-0.2,0.5-0.4
	c0.2-0.2,0.3-0.4,0.4-0.6c0.1-0.5,0.1-1.1,0-1.6c-0.1-0.2-0.2-0.4-0.4-0.6c-0.1-0.2-0.3-0.3-0.5-0.4c-0.4-0.1-0.8-0.1-1.2,0
	c-0.2,0.1-0.4,0.2-0.5,0.4c-0.1,0.2-0.3,0.4-0.4,0.6C125.2,163,125.2,163.2,125.2,163.5L125.2,163.5z"/>
<path class="st3" d="M135,164.8l-0.3,0.6c-0.1,0.2-0.3,0.3-0.5,0.5s-0.4,0.2-0.6,0.3c-0.3,0.1-0.5,0.1-0.8,0.1c-0.3,0-0.7-0.1-1-0.2
	c-0.3-0.1-0.6-0.3-0.8-0.6c-0.2-0.3-0.4-0.6-0.5-0.9c-0.3-0.7-0.3-1.5,0-2.2c0.1-0.3,0.3-0.6,0.5-0.9c0.2-0.2,0.5-0.4,0.8-0.6
	c0.3-0.2,0.6-0.2,0.9-0.2c0.3,0,0.6,0.1,0.9,0.2c0.3,0.1,0.6,0.3,0.8,0.5c0.3,0.2,0.5,0.5,0.5,0.9c0.1,0.4,0.2,0.7,0.2,1.1v0.4h-3.8
	c0,0.2,0.1,0.4,0.2,0.6c0.1,0.2,0.2,0.4,0.4,0.5c0.1,0.1,0.3,0.2,0.5,0.3c0.2,0.1,0.4,0.1,0.6,0.1c0.2,0,0.3,0,0.5-0.1
	c0.2-0.1,0.3-0.1,0.4-0.2s0.2-0.1,0.3-0.2l0.2-0.2h0.6L135,164.8z M132.7,161.6c-0.2,0-0.4,0-0.5,0.1c-0.2,0.1-0.3,0.2-0.4,0.3
	c-0.2,0.1-0.3,0.3-0.3,0.5c0,0.2-0.2,0.4-0.2,0.6h2.9c0-0.4-0.2-0.8-0.5-1.1C133.4,161.7,133,161.6,132.7,161.6L132.7,161.6z"/>
<path class="st3" d="M141.2,165.4v2.2h-0.8v-1.3h-4v1.3h-0.8v-2.2h0.3l0.3-0.3c0.1-0.1,0.2-0.2,0.2-0.4c0-0.2,0.1-0.3,0.1-0.5
	l0.4-3.4h3.5v4.6L141.2,165.4z M137.5,164.2c0,0.2-0.1,0.3-0.1,0.5c0,0.2-0.1,0.3-0.2,0.4c-0.1,0.1-0.2,0.2-0.2,0.3h2.6v-3.7h-1.8
	L137.5,164.2z"/>
<path class="st3" d="M144.4,161.6c-0.2,0-0.4,0-0.6,0.1c-0.2,0.1-0.4,0.2-0.5,0.4c-0.1,0.2-0.3,0.4-0.4,0.6c-0.1,0.5-0.1,1.1,0,1.6
	c0.1,0.2,0.2,0.4,0.4,0.6c0.1,0.2,0.3,0.3,0.5,0.4c0.2,0.1,0.4,0.1,0.6,0.1c0.2,0,0.3,0,0.5-0.1c0.2-0.1,0.3-0.1,0.4-0.3
	c0.1-0.1,0.2-0.2,0.3-0.4c0.1-0.1,0.2-0.2,0.2-0.4h0.9c-0.1,0.3-0.2,0.5-0.3,0.8s-0.3,0.4-0.5,0.6c-0.2,0.2-0.4,0.3-0.7,0.4
	c-0.3,0.1-0.5,0.2-0.8,0.2c-0.3,0-0.7-0.1-1-0.2c-0.3-0.1-0.6-0.3-0.8-0.6c-0.2-0.3-0.4-0.6-0.5-0.9c-0.3-0.7-0.3-1.5,0-2.2
	c0.1-0.3,0.3-0.6,0.5-0.9c0.2-0.2,0.5-0.4,0.8-0.6c0.3-0.2,0.7-0.2,1-0.2c0.3,0,0.6,0.1,0.8,0.2c0.3,0.1,0.5,0.2,0.7,0.4
	c0.2,0.2,0.4,0.4,0.5,0.6c0.1,0.3,0.2,0.5,0.3,0.8h-0.9c0-0.2-0.1-0.3-0.2-0.4c-0.1-0.1-0.2-0.3-0.3-0.4s-0.3-0.2-0.4-0.3
	C144.7,161.6,144.5,161.6,144.4,161.6z"/>
<path class="st3" d="M147.2,160.8h4.3v0.8h-1.7v4.6h-0.9v-4.6h-1.7L147.2,160.8L147.2,160.8z"/>
<path class="st3" d="M157.1,163.5c0,0.4-0.1,0.7-0.2,1.1c-0.1,0.3-0.3,0.6-0.5,0.9c-0.2,0.3-0.5,0.5-0.8,0.6c-0.3,0.2-0.7,0.2-1,0.2
	c-0.3,0-0.7-0.1-1-0.2c-0.3-0.1-0.6-0.3-0.8-0.6c-0.2-0.3-0.4-0.6-0.5-0.9c-0.3-0.7-0.3-1.5,0-2.2c0.1-0.3,0.3-0.6,0.5-0.9
	c0.2-0.2,0.5-0.4,0.8-0.6c0.3-0.2,0.7-0.2,1-0.2c0.3,0,0.7,0.1,1,0.2c0.3,0.1,0.6,0.3,0.8,0.6c0.2,0.3,0.4,0.6,0.5,0.9
	C157,162.7,157.1,163.1,157.1,163.5z M153,163.5c0,0.3,0,0.5,0.1,0.8c0.1,0.2,0.2,0.4,0.4,0.6c0.1,0.2,0.3,0.3,0.5,0.4
	c0.4,0.1,0.8,0.1,1.2,0c0.2-0.1,0.4-0.2,0.5-0.4c0.1-0.2,0.3-0.4,0.4-0.6c0.1-0.5,0.1-1.1,0-1.6c-0.1-0.2-0.2-0.4-0.4-0.6
	c-0.1-0.2-0.3-0.3-0.5-0.4c-0.4-0.1-0.8-0.1-1.2,0c-0.2,0.1-0.4,0.2-0.5,0.4c-0.1,0.2-0.3,0.4-0.4,0.6C153,163,153,163.2,153,163.5z
	"/>
<path class="st3" d="M160.2,164.3l-1.2,1.9h-1l1.3-2c-0.4-0.2-0.7-0.4-0.9-0.8c-0.1-0.2-0.2-0.5-0.2-0.8c0-0.5,0.2-0.9,0.5-1.3
	c0.4-0.4,0.9-0.6,1.4-0.5h2.3v5.4h-0.9v-1.9L160.2,164.3z M160,161.6c-0.3,0-0.5,0.1-0.7,0.3c-0.3,0.2-0.4,0.7-0.1,1.1
	c0,0.1,0.1,0.1,0.1,0.1c0.2,0.2,0.4,0.3,0.7,0.3h1.4v-1.8H160z"/>
<path class="st3" d="M170.4,167.5v-1.3h-6.5v-5.4h0.9v4.6h2v-4.6h0.9v4.6h2v-4.6h0.9v4.6h0.7v2.2h-0.9L170.4,167.5z"/>
<path class="st3" d="M176.8,160.8v5.4h-0.9v-4l-2.8,4h-0.9v-5.4h0.9v4l2.8-4H176.8z"/>
<path class="st3" d="M180.6,163.4l1.9,2.8h-1l-1.4-2.1l-1.4,2.1h-1l1.9-2.8l-1.8-2.6h1l1.3,2l1.3-2h1L180.6,163.4z"/>
<path class="st3" d="M188.4,166.2l-1.6-3.4v3.4h-0.9v-5.4h0.8l2,4.2l2-4.2h0.8v5.4h-0.9v-3.4l-1.6,3.4H188.4z"/>
<path class="st3" d="M195.1,160.7c0.3,0,0.6,0.1,0.8,0.2c0.2,0.1,0.5,0.2,0.6,0.4c0.2,0.2,0.3,0.4,0.4,0.6c0.1,0.2,0.2,0.5,0.1,0.7
	v3.6h-0.7l-0.2-0.6c-0.1,0.1-0.3,0.2-0.4,0.3c-0.1,0.1-0.3,0.2-0.5,0.2c-0.2,0-0.4,0.1-0.7,0.1c-0.2,0-0.5,0-0.7-0.1
	c-0.2-0.1-0.4-0.2-0.6-0.4c-0.2-0.1-0.3-0.3-0.4-0.5c-0.1-0.2-0.1-0.4-0.1-0.6c0-0.2,0.1-0.5,0.2-0.7c0.1-0.2,0.3-0.4,0.5-0.6
	c0.3-0.2,0.6-0.3,1-0.4c0.6-0.1,1.1-0.1,1.7-0.1v-0.3c0-0.3-0.1-0.5-0.3-0.7c-0.2-0.2-0.5-0.3-0.8-0.3c-0.2,0-0.5,0.1-0.7,0.2
	c-0.2,0.1-0.3,0.4-0.3,0.6h-1c0-0.2,0.1-0.4,0.2-0.6c0.1-0.2,0.2-0.4,0.4-0.5c0.2-0.1,0.4-0.3,0.6-0.3
	C194.5,160.8,194.8,160.7,195.1,160.7z M194.6,165.4c0.2,0,0.5,0,0.7-0.1c0.2-0.1,0.3-0.2,0.5-0.3c0.1-0.1,0.2-0.3,0.3-0.4
	c0.1-0.1,0.1-0.3,0.1-0.5v-0.4c-0.4,0-0.9,0-1.3,0.1c-0.3,0.1-0.6,0.1-0.8,0.2c-0.2,0.1-0.3,0.2-0.4,0.3c-0.1,0.1-0.1,0.3-0.1,0.4
	c0,0.2,0.1,0.3,0.2,0.5C194,165.4,194.3,165.4,194.6,165.4L194.6,165.4z"/>
<path class="st3" d="M198,160.8h4.3v0.8h-1.7v4.6h-0.9v-4.6H198L198,160.8L198,160.8z"/>
<path class="st3" d="M207.4,160.8v5.4h-0.9v-2c-0.1,0.1-0.3,0.1-0.4,0.2c-0.2,0-0.3,0.1-0.5,0.1c-0.2,0-0.4,0.1-0.7,0.1
	c-0.3,0-0.5,0-0.8-0.1c-0.2-0.1-0.4-0.2-0.6-0.4c-0.2-0.2-0.3-0.4-0.4-0.6c-0.1-0.3-0.1-0.5-0.1-0.8v-1.9h0.9v1.8
	c0,0.3,0.1,0.6,0.3,0.8c0.2,0.2,0.6,0.3,0.9,0.3c0.2,0,0.4,0,0.5-0.1c0.1-0.1,0.3-0.1,0.4-0.1c0.1-0.1,0.3-0.1,0.4-0.2v-2.5H207.4z"
	/>
<path class="st3" d="M211,160.7c0.3,0,0.6,0.1,0.8,0.2c0.2,0.1,0.5,0.2,0.6,0.4c0.2,0.2,0.3,0.4,0.4,0.6c0.1,0.2,0.2,0.5,0.1,0.7
	v3.6h-0.7l-0.2-0.6c-0.1,0.1-0.3,0.2-0.4,0.3c-0.1,0.1-0.3,0.2-0.5,0.2c-0.2,0-0.4,0.1-0.7,0.1c-0.2,0-0.5,0-0.7-0.1
	c-0.2-0.1-0.4-0.2-0.6-0.4c-0.2-0.1-0.3-0.3-0.4-0.5c-0.1-0.2-0.1-0.4-0.1-0.6c0-0.2,0.1-0.5,0.2-0.7c0.1-0.2,0.3-0.4,0.5-0.6
	c0.3-0.2,0.6-0.3,1-0.4c0.6-0.1,1.1-0.1,1.7-0.1v-0.3c0-0.3-0.1-0.5-0.3-0.7c-0.2-0.2-0.5-0.3-0.8-0.3c-0.2,0-0.5,0.1-0.7,0.2
	c-0.2,0.1-0.3,0.4-0.3,0.6h-1c0-0.2,0.1-0.4,0.2-0.6c0.1-0.2,0.2-0.4,0.4-0.5c0.2-0.1,0.4-0.3,0.6-0.3
	C210.4,160.8,210.7,160.7,211,160.7z M210.6,165.4c0.2,0,0.5,0,0.7-0.1c0.2-0.1,0.3-0.2,0.5-0.3c0.1-0.1,0.2-0.3,0.3-0.4
	c0.1-0.1,0.1-0.3,0.1-0.5v-0.4c-0.4,0-0.9,0-1.3,0.1c-0.3,0.1-0.6,0.1-0.8,0.2c-0.2,0.1-0.3,0.2-0.4,0.3c-0.1,0.1-0.1,0.3-0.1,0.4
	c0,0.2,0.1,0.3,0.2,0.5C210,165.4,210.3,165.4,210.6,165.4L210.6,165.4z"/>
<path class="st3" d="M216.8,163.4l1.9,2.8h-1l-1.4-2.1l-1.4,2.1h-1l1.9-2.8l-1.8-2.6h1l1.3,2l1.3-2h1L216.8,163.4z"/>
<path class="st3" d="M223,166.2h-0.9v-5.4h0.9V166.2z M225.3,166.2l-2.3-2.8l2-2.6h1l-2,2.5l2.3,2.9L225.3,166.2z"/>
<path class="st3" d="M231.7,163.5c0,0.4-0.1,0.7-0.2,1.1c-0.1,0.3-0.3,0.6-0.5,0.9c-0.2,0.3-0.5,0.5-0.8,0.6c-0.3,0.2-0.7,0.2-1,0.2
	c-0.3,0-0.7-0.1-1-0.2c-0.3-0.1-0.6-0.3-0.8-0.6c-0.2-0.3-0.4-0.6-0.5-0.9c-0.3-0.7-0.3-1.5,0-2.2c0.1-0.3,0.3-0.6,0.5-0.9
	c0.2-0.2,0.5-0.4,0.8-0.6c0.3-0.2,0.7-0.2,1-0.2c0.3,0,0.7,0.1,1,0.2c0.3,0.1,0.6,0.3,0.8,0.6c0.2,0.3,0.4,0.6,0.5,0.9
	C231.6,162.7,231.7,163.1,231.7,163.5z M227.6,163.5c0,0.3,0,0.5,0.1,0.8c0.1,0.2,0.2,0.4,0.4,0.6c0.1,0.2,0.3,0.3,0.5,0.4
	c0.4,0.1,0.8,0.1,1.2,0c0.2-0.1,0.4-0.2,0.5-0.4c0.1-0.2,0.3-0.4,0.4-0.6c0.1-0.5,0.1-1.1,0-1.6c-0.1-0.2-0.2-0.4-0.4-0.6
	c-0.1-0.2-0.3-0.3-0.5-0.4c-0.4-0.1-0.8-0.1-1.2,0c-0.2,0.1-0.4,0.2-0.5,0.4c-0.1,0.2-0.3,0.4-0.4,0.6
	C227.6,163,227.6,163.2,227.6,163.5z"/>
<path class="st3" d="M235.4,166.2l-1.6-3.4v3.4h-0.9v-5.4h0.8l2,4.2l2-4.2h0.8v5.4h-0.9v-3.4l-1.6,3.4H235.4z"/>
<path class="st3" d="M242.2,160.7c0.3,0,0.6,0.1,0.8,0.2c0.2,0.1,0.5,0.2,0.6,0.4c0.2,0.2,0.3,0.4,0.4,0.6c0.1,0.2,0.2,0.5,0.1,0.7
	v3.6h-0.7l-0.2-0.6c-0.1,0.1-0.3,0.2-0.4,0.3c-0.1,0.1-0.3,0.2-0.5,0.2c-0.2,0-0.4,0.1-0.7,0.1c-0.2,0-0.5,0-0.7-0.1
	c-0.2-0.1-0.4-0.2-0.6-0.4c-0.2-0.1-0.3-0.3-0.4-0.5c-0.1-0.2-0.1-0.4-0.1-0.6c0-0.2,0.1-0.5,0.2-0.7c0.1-0.2,0.3-0.4,0.5-0.6
	c0.3-0.2,0.6-0.3,1-0.4c0.6-0.1,1.1-0.1,1.7-0.1v-0.3c0-0.3-0.1-0.5-0.3-0.7c-0.2-0.2-0.5-0.3-0.8-0.3c-0.2,0-0.5,0.1-0.7,0.2
	c-0.2,0.1-0.3,0.4-0.3,0.6h-1c0-0.2,0.1-0.4,0.2-0.6c0.1-0.2,0.2-0.4,0.4-0.5c0.2-0.1,0.4-0.3,0.6-0.3
	C241.6,160.8,241.9,160.7,242.2,160.7z M241.7,165.4c0.2,0,0.5,0,0.7-0.1c0.2-0.1,0.3-0.2,0.5-0.3c0.1-0.1,0.2-0.3,0.3-0.4
	c0.1-0.1,0.1-0.3,0.1-0.5v-0.4c-0.4,0-0.9,0-1.3,0.1c-0.3,0.1-0.6,0.1-0.8,0.2c-0.2,0.1-0.3,0.2-0.4,0.3c-0.1,0.1-0.1,0.3-0.1,0.4
	c0,0.2,0.1,0.3,0.2,0.5C241.1,165.4,241.4,165.4,241.7,165.4L241.7,165.4z"/>
<path class="st3" d="M250.3,160.8v5.4h-0.9v-2.3h-2.8v2.3h-0.9v-5.4h0.9v2.2h2.8v-2.2H250.3z"/>
<path class="st3" d="M256.7,165.4v2.2h-0.8v-1.3h-4v1.3h-0.8v-2.2h0.3l0.3-0.3c0.1-0.1,0.2-0.2,0.2-0.4c0-0.2,0.1-0.3,0.1-0.5
	l0.4-3.4h3.5v4.6L256.7,165.4z M253,164.2c0,0.2-0.1,0.3-0.1,0.5c0,0.2-0.1,0.3-0.2,0.4c-0.1,0.1-0.2,0.2-0.2,0.3h2.6v-3.7h-1.8
	L253,164.2z"/>
<path class="st3" d="M259.8,162.7c0.5,0,1,0.2,1.4,0.5c0.4,0.3,0.6,0.8,0.5,1.3c0,0.5-0.2,0.9-0.5,1.3c-0.4,0.4-0.9,0.6-1.4,0.5
	h-2.1v-5.5h0.9v1.9H259.8z M259.8,165.4c0.3,0,0.5-0.1,0.7-0.3c0.3-0.2,0.4-0.7,0.1-1.1c0-0.1-0.1-0.1-0.1-0.1
	c-0.2-0.2-0.4-0.3-0.7-0.3h-1.2v1.8H259.8z M263.4,160.8v5.4h-0.9v-5.4L263.4,160.8z"/>
<path class="st3" d="M72.1,175.2v5.4h-0.9v-4l-2.8,4h-0.9v-5.4h0.9v4l2.8-4H72.1z"/>
<path class="st3" d="M80.8,175.2v5.4h-0.9V176h-2.8v4.6h-0.9v-5.4H80.8z"/>
<path class="st3" d="M87.1,177.9c0,0.4-0.1,0.7-0.2,1.1c-0.1,0.3-0.3,0.6-0.5,0.9c-0.2,0.3-0.5,0.5-0.8,0.6c-0.3,0.2-0.7,0.2-1,0.2
	c-0.3,0-0.7-0.1-1-0.2c-0.3-0.1-0.6-0.3-0.8-0.6c-0.2-0.3-0.4-0.6-0.5-0.9c-0.3-0.7-0.3-1.5,0-2.2c0.1-0.3,0.3-0.6,0.5-0.9
	c0.2-0.2,0.5-0.4,0.8-0.6c0.3-0.2,0.7-0.2,1-0.2c0.3,0,0.7,0.1,1,0.2c0.3,0.1,0.6,0.3,0.8,0.6c0.2,0.3,0.4,0.6,0.5,0.9
	C87,177.2,87.1,177.5,87.1,177.9z M82.9,177.9c0,0.3,0,0.5,0.1,0.8c0.1,0.2,0.2,0.4,0.4,0.6c0.1,0.2,0.3,0.3,0.5,0.4
	c0.4,0.1,0.8,0.1,1.2,0c0.2-0.1,0.4-0.2,0.5-0.4c0.1-0.2,0.3-0.4,0.4-0.6c0.1-0.5,0.1-1.1,0-1.6c-0.1-0.2-0.2-0.4-0.4-0.6
	c-0.1-0.2-0.3-0.3-0.5-0.4c-0.4-0.1-0.8-0.1-1.2,0c-0.2,0.1-0.4,0.2-0.5,0.4c-0.1,0.2-0.3,0.4-0.4,0.6S82.9,177.6,82.9,177.9z"/>
<path class="st3" d="M89.2,180.6h-0.9v-5.4h0.9V180.6z M91.4,180.6l-2.3-2.8l2-2.6h1l-2,2.5l2.3,2.9L91.4,180.6z"/>
<path class="st3" d="M92.6,175.2h1l1.6,4.1l1.6-4.1h1l-2.3,5.9c-0.1,0.4-0.4,0.9-0.7,1.2c-0.2,0.2-0.6,0.3-0.9,0.3h-0.3v-0.8
	c0.4,0,0.8-0.3,0.9-0.7l0.2-0.6L92.6,175.2z"/>
<path class="st3" d="M103.2,175.2v5.4h-0.9V176h-2.8v4.6h-0.9v-5.4H103.2z"/>
<path class="st3" d="M106.8,175.1c0.3,0,0.6,0.1,0.8,0.2c0.2,0.1,0.5,0.2,0.6,0.4c0.2,0.2,0.3,0.4,0.4,0.6c0.1,0.2,0.2,0.5,0.1,0.7
	v3.6H108l-0.2-0.6c-0.1,0.1-0.3,0.2-0.4,0.3c-0.1,0.1-0.3,0.2-0.5,0.2c-0.2,0-0.4,0.1-0.7,0.1c-0.2,0-0.5,0-0.7-0.1
	c-0.2-0.1-0.4-0.2-0.6-0.4c-0.2-0.1-0.3-0.3-0.4-0.5c-0.1-0.2-0.1-0.4-0.1-0.6c0-0.2,0.1-0.5,0.2-0.7c0.1-0.2,0.3-0.4,0.5-0.6
	c0.3-0.2,0.6-0.3,1-0.4c0.6-0.1,1.1-0.1,1.7-0.1v-0.3c0-0.3-0.1-0.5-0.3-0.7c-0.2-0.2-0.5-0.3-0.8-0.3c-0.2,0-0.5,0.1-0.7,0.2
	c-0.2,0.1-0.3,0.4-0.3,0.6h-1c0-0.2,0.1-0.4,0.2-0.6c0.1-0.2,0.2-0.4,0.4-0.5c0.2-0.1,0.4-0.3,0.6-0.3
	C106.2,175.2,106.5,175.1,106.8,175.1z M106.3,179.8c0.2,0,0.5,0,0.7-0.1c0.2-0.1,0.3-0.2,0.5-0.3c0.1-0.1,0.2-0.3,0.3-0.4
	c0.1-0.1,0.1-0.3,0.1-0.5v-0.4c-0.4,0-0.9,0-1.3,0.1c-0.3,0.1-0.6,0.1-0.8,0.2c-0.2,0.1-0.3,0.2-0.4,0.3c-0.1,0.1-0.1,0.3-0.1,0.4
	c0,0.2,0.1,0.3,0.2,0.5C105.7,179.8,106,179.8,106.3,179.8z"/>
<path class="st3" d="M114.9,175.2v5.4H114v-4l-2.8,4h-0.9v-5.4h0.9v4l2.8-4H114.9z M112.6,174.4c-0.4,0-0.7-0.1-1-0.4
	c-0.2-0.3-0.4-0.6-0.5-0.9h0.7c0,0.4,0.3,0.7,0.7,0.7c0,0,0,0,0,0c0.2,0,0.3-0.1,0.5-0.2s0.2-0.3,0.2-0.5h0.7c0,0.4-0.2,0.7-0.5,0.9
	C113.2,174.3,112.9,174.4,112.6,174.4L112.6,174.4z"/>
<path class="st3" d="M115.8,175.2h4.3v0.8h-1.7v4.6h-0.9V176h-1.7L115.8,175.2z"/>
<path class="st3" d="M125.4,179.2l-0.3,0.6c-0.1,0.2-0.3,0.3-0.5,0.5s-0.4,0.2-0.6,0.3c-0.3,0.1-0.5,0.1-0.8,0.1
	c-0.3,0-0.7-0.1-1-0.2c-0.3-0.1-0.6-0.3-0.8-0.6c-0.2-0.3-0.4-0.6-0.5-0.9c-0.3-0.7-0.3-1.5,0-2.2c0.1-0.3,0.3-0.6,0.5-0.9
	c0.2-0.2,0.5-0.4,0.8-0.6c0.3-0.2,0.6-0.2,0.9-0.2c0.3,0,0.6,0.1,0.9,0.2c0.3,0.1,0.6,0.3,0.8,0.5c0.3,0.2,0.5,0.5,0.5,0.9
	c0.1,0.4,0.2,0.7,0.2,1.1v0.4h-3.8c0,0.2,0.1,0.4,0.2,0.6c0.1,0.2,0.2,0.4,0.4,0.5c0.1,0.1,0.3,0.2,0.5,0.3c0.2,0.1,0.4,0.1,0.6,0.1
	c0.2,0,0.3,0,0.5-0.1c0.2-0.1,0.3-0.1,0.4-0.2s0.2-0.1,0.3-0.2l0.2-0.2h0.6L125.4,179.2z M123.2,176c-0.2,0-0.4,0-0.5,0.1
	c-0.2,0.1-0.3,0.2-0.4,0.3c-0.2,0.1-0.3,0.3-0.3,0.5c0,0.2-0.2,0.4-0.2,0.6h2.9C124.7,176.7,124,176,123.2,176L123.2,176z"/>
<path class="st3" d="M129.9,176.3c0.1-0.2,0.3-0.3,0.4-0.4c0.2-0.1,0.4-0.2,0.6-0.3c0.3-0.1,0.5-0.1,0.8-0.1c0.3,0,0.6,0.1,0.9,0.2
	c0.3,0.1,0.6,0.3,0.8,0.6c0.2,0.2,0.4,0.5,0.5,0.8c0.1,0.3,0.2,0.7,0.2,1c0,0.3-0.1,0.7-0.2,1c-0.1,0.3-0.3,0.6-0.5,0.8
	c-0.2,0.2-0.5,0.4-0.8,0.6c-0.3,0.2-0.7,0.2-1,0.2c-0.3,0-0.7-0.1-1-0.2c-0.3-0.1-0.6-0.3-0.8-0.6c-0.2-0.3-0.4-0.6-0.6-1
	c-0.2-0.4-0.2-0.9-0.2-1.4c0-0.7,0.1-1.3,0.2-2c0.1-0.5,0.3-1,0.7-1.3c0.4-0.4,0.9-0.6,1.4-0.8c0.7-0.2,1.4-0.3,2.1-0.3v0.8
	c-0.5,0-1.1,0.1-1.6,0.2c-0.4,0.1-0.8,0.3-1.1,0.5c-0.3,0.2-0.5,0.5-0.6,0.8C130,175.7,130,175.9,129.9,176.3z M131.7,179.8
	c0.2,0,0.4,0,0.6-0.1c0.2-0.1,0.4-0.2,0.5-0.4c0.1-0.2,0.3-0.3,0.3-0.6s0.1-0.5,0.1-0.7c0-0.2,0-0.5-0.1-0.7l-0.3-0.6
	c-0.1-0.2-0.3-0.3-0.5-0.4c-0.4-0.1-0.8-0.1-1.2,0c-0.2,0.1-0.4,0.2-0.5,0.4c-0.1,0.2-0.3,0.3-0.4,0.6c-0.1,0.2-0.1,0.5-0.1,0.7
	c0,0.2,0,0.5,0.1,0.7c0.1,0.2,0.2,0.4,0.4,0.6c0.1,0.2,0.3,0.3,0.5,0.4C131.3,179.8,131.5,179.8,131.7,179.8z"/>
<path class="st3" d="M139.9,175.2v5.4H139v-4l-2.8,4h-0.9v-5.4h0.9v4l2.8-4H139.9z"/>
<path class="st3" d="M145.6,175.2v5.4h-0.9V176h-2l-0.2,2.9c0,0.5-0.2,1-0.5,1.3c-0.3,0.3-0.7,0.5-1.1,0.5h-0.3v-0.9h0.1
	c0.6,0,0.9-0.3,1-1l0.3-3.7L145.6,175.2L145.6,175.2z"/>
<path class="st3" d="M151.6,179.2l-0.3,0.6c-0.1,0.2-0.3,0.3-0.5,0.5s-0.4,0.2-0.6,0.3c-0.3,0.1-0.5,0.1-0.8,0.1
	c-0.3,0-0.7-0.1-1-0.2c-0.3-0.1-0.6-0.3-0.8-0.6c-0.2-0.3-0.4-0.6-0.5-0.9c-0.3-0.7-0.3-1.5,0-2.2c0.1-0.3,0.3-0.6,0.5-0.9
	c0.2-0.2,0.5-0.4,0.8-0.6c0.3-0.2,0.6-0.2,0.9-0.2c0.3,0,0.6,0.1,0.9,0.2c0.3,0.1,0.6,0.3,0.8,0.5c0.3,0.2,0.5,0.5,0.5,0.9
	c0.1,0.4,0.2,0.7,0.2,1.1v0.4h-3.8c0,0.2,0.1,0.4,0.2,0.6c0.1,0.2,0.2,0.4,0.4,0.5c0.1,0.1,0.3,0.2,0.5,0.3c0.2,0.1,0.4,0.1,0.6,0.1
	c0.2,0,0.3,0,0.5-0.1c0.2-0.1,0.3-0.1,0.4-0.2s0.2-0.1,0.3-0.2l0.2-0.2h0.6L151.6,179.2z M149.3,176c-0.2,0-0.4,0-0.5,0.1
	c-0.2,0.1-0.3,0.2-0.4,0.3c-0.2,0.1-0.3,0.3-0.3,0.5c0,0.2-0.2,0.4-0.2,0.6h2.9c0-0.4-0.2-0.8-0.5-1.1
	C150,176.1,149.6,176,149.3,176z"/>
<path class="st3" d="M152.3,175.2h4.3v0.8h-1.7v4.6H154V176h-1.7L152.3,175.2L152.3,175.2z"/>
<path class="st3" d="M159.6,177.1c0.5,0,1,0.2,1.4,0.5c0.4,0.3,0.6,0.8,0.5,1.3c0,0.5-0.2,0.9-0.5,1.3c-0.4,0.4-0.9,0.6-1.4,0.5
	h-2.1v-5.4h0.9v1.9h1.2L159.6,177.1z M159.6,179.8c0.3,0,0.5-0.1,0.7-0.3c0.3-0.2,0.4-0.7,0.1-1.1c0-0.1-0.1-0.1-0.1-0.1
	c-0.2-0.2-0.4-0.3-0.7-0.3h-1.2v1.8H159.6z M163.2,175.2v5.4h-0.9v-5.4H163.2z"/>
<path class="st3" d="M171.9,175.2v5.4H171v-2.3h-2.8v2.3h-0.9v-5.4h0.9v2.2h2.8v-2.2H171.9z"/>
<path class="st3" d="M175.5,175.1c0.3,0,0.6,0.1,0.8,0.2c0.2,0.1,0.5,0.2,0.6,0.4c0.2,0.2,0.3,0.4,0.4,0.6c0.1,0.2,0.2,0.5,0.1,0.7
	v3.6h-0.7l-0.2-0.6c-0.1,0.1-0.3,0.2-0.4,0.3c-0.1,0.1-0.3,0.2-0.5,0.2c-0.2,0-0.4,0.1-0.7,0.1c-0.2,0-0.5,0-0.7-0.1
	c-0.2-0.1-0.4-0.2-0.6-0.4c-0.2-0.1-0.3-0.3-0.4-0.5c-0.1-0.2-0.1-0.4-0.1-0.6c0-0.2,0.1-0.5,0.2-0.7c0.1-0.2,0.3-0.4,0.5-0.6
	c0.3-0.2,0.6-0.3,1-0.4c0.6-0.1,1.1-0.1,1.7-0.1v-0.3c0-0.3-0.1-0.5-0.3-0.7c-0.2-0.2-0.5-0.3-0.8-0.3c-0.2,0-0.5,0.1-0.7,0.2
	c-0.2,0.1-0.3,0.4-0.3,0.6h-1c0-0.2,0.1-0.4,0.2-0.6c0.1-0.2,0.2-0.4,0.4-0.5c0.2-0.1,0.4-0.3,0.6-0.3
	C174.9,175.2,175.2,175.1,175.5,175.1z M175,179.8c0.2,0,0.5,0,0.7-0.1c0.2-0.1,0.3-0.2,0.5-0.3c0.1-0.1,0.2-0.3,0.3-0.4
	c0.1-0.1,0.1-0.3,0.1-0.5v-0.4c-0.4,0-0.9,0-1.3,0.1c-0.3,0.1-0.6,0.1-0.8,0.2c-0.2,0.1-0.3,0.2-0.4,0.3c-0.1,0.1-0.1,0.3-0.1,0.4
	c0,0.2,0.1,0.3,0.2,0.5C174.4,179.7,174.7,179.8,175,179.8z"/>
<path class="st3" d="M186.2,175.2v5.4h-0.9v-4l-2.8,4h-0.9v-5.4h0.9v4l2.8-4H186.2z"/>
<path class="st3" d="M191.2,176h-2.6v4.6h-0.9v-5.4h3.5V176z"/>
<path class="st3" d="M193,175.8c0.1-0.1,0.2-0.2,0.4-0.3c0.1-0.1,0.3-0.2,0.5-0.2c0.2,0,0.4-0.1,0.7-0.1c0.3,0,0.7,0.1,1,0.2
	c0.3,0.1,0.6,0.3,0.8,0.6c0.2,0.3,0.4,0.6,0.5,0.9c0.3,0.7,0.3,1.5,0,2.2c-0.1,0.3-0.3,0.6-0.5,0.9c-0.2,0.3-0.5,0.5-0.8,0.6
	c-0.3,0.2-0.7,0.2-1,0.2c-0.2,0-0.5,0-0.7-0.1c-0.2-0.1-0.3-0.2-0.5-0.2c-0.2-0.1-0.3-0.2-0.4-0.4v2.6h-0.9v-7.3h0.7L193,175.8z
	 M192.9,177.9c0,0.3,0,0.5,0.1,0.8c0.1,0.2,0.2,0.4,0.4,0.6c0.1,0.2,0.3,0.3,0.5,0.4c0.4,0.1,0.8,0.1,1.2,0c0.2-0.1,0.4-0.2,0.5-0.4
	c0.2-0.2,0.3-0.4,0.4-0.6c0.1-0.5,0.1-1.1,0-1.6c-0.1-0.2-0.2-0.4-0.4-0.6c-0.1-0.2-0.3-0.3-0.5-0.4c-0.4-0.1-0.8-0.1-1.2,0
	c-0.2,0.1-0.4,0.2-0.5,0.4c-0.1,0.2-0.3,0.4-0.4,0.6S192.9,177.6,192.9,177.9L192.9,177.9z"/>
<path class="st3" d="M200.5,177.1c0.5,0,1,0.2,1.4,0.5c0.4,0.3,0.6,0.8,0.5,1.3c0,0.5-0.2,0.9-0.5,1.3c-0.4,0.4-0.9,0.6-1.4,0.5
	h-2.1v-5.4h0.9v1.9h1.2L200.5,177.1z M200.5,179.8c0.3,0,0.5-0.1,0.7-0.3c0.3-0.2,0.4-0.7,0.1-1.1c0-0.1-0.1-0.1-0.1-0.1
	c-0.2-0.2-0.4-0.3-0.7-0.3h-1.2v1.8H200.5z M204.1,175.2v5.4h-0.9v-5.4H204.1z"/>
<path class="st3" d="M210.1,179.8h-0.9l-1.3-1.9l1.3-1.9h0.9l-1.3,1.9L210.1,179.8z M212.3,179.8h-0.9l-1.3-1.9l1.3-1.9h0.9
	l-1.3,1.9L212.3,179.8z"/>
<path class="st3" d="M213.1,175.1c0-0.3,0.1-0.6,0.2-0.8c0.1-0.3,0.3-0.5,0.5-0.7c0.2-0.2,0.4-0.3,0.7-0.4c0.3-0.1,0.6-0.2,0.9-0.2
	c0.3,0,0.6,0.1,0.9,0.2c0.3,0.1,0.5,0.3,0.7,0.5c0.2,0.2,0.4,0.4,0.5,0.7c0.1,0.3,0.2,0.5,0.2,0.8c0,0.2-0.1,0.5-0.2,0.7
	c-0.1,0.2-0.2,0.4-0.4,0.5c-0.1,0.2-0.3,0.3-0.5,0.4c0.2,0.1,0.4,0.2,0.6,0.4c0.2,0.1,0.4,0.4,0.4,0.6c0.1,0.3,0.2,0.6,0.2,0.9
	c0,0.3-0.1,0.6-0.2,0.8c-0.1,0.3-0.3,0.5-0.5,0.7c-0.2,0.2-0.5,0.4-0.8,0.5c-0.6,0.3-1.4,0.3-2,0c-0.3-0.1-0.5-0.2-0.8-0.4
	c-0.2-0.2-0.4-0.4-0.5-0.7c-0.1-0.3-0.2-0.5-0.3-0.8h1c0,0.4,0.2,0.7,0.5,0.9c0.3,0.3,0.7,0.4,1.1,0.4c0.4,0.1,0.8-0.1,1.1-0.4
	c0.2-0.3,0.4-0.6,0.4-0.9c0-0.3-0.1-0.7-0.4-0.9c-0.3-0.2-0.7-0.4-1.1-0.4h-0.6v-0.8h0.5c0.4,0,0.8-0.1,1-0.4
	c0.2-0.2,0.4-0.6,0.4-0.9c0-0.3-0.1-0.7-0.4-0.9c-0.3-0.2-0.6-0.4-1-0.4c-0.4,0-0.8,0.1-1,0.4c-0.2,0.2-0.4,0.6-0.4,0.9h-0.7V175.1z
	"/>
<path class="st3" d="M223.7,179.2l-0.3,0.6c-0.1,0.2-0.3,0.3-0.5,0.5s-0.4,0.2-0.6,0.3c-0.3,0.1-0.5,0.1-0.8,0.1
	c-0.3,0-0.7-0.1-1-0.2c-0.3-0.1-0.6-0.3-0.8-0.6c-0.2-0.3-0.4-0.6-0.5-0.9c-0.3-0.7-0.3-1.5,0-2.2c0.1-0.3,0.3-0.6,0.5-0.9
	c0.2-0.2,0.5-0.4,0.8-0.6c0.3-0.2,0.6-0.2,0.9-0.2c0.3,0,0.6,0.1,0.9,0.2c0.3,0.1,0.6,0.3,0.8,0.5c0.3,0.2,0.5,0.5,0.5,0.9
	c0.1,0.4,0.2,0.7,0.2,1.1v0.4H220c0,0.2,0.1,0.4,0.2,0.6c0.1,0.2,0.2,0.4,0.4,0.5c0.1,0.1,0.3,0.2,0.5,0.3c0.2,0.1,0.4,0.1,0.6,0.1
	c0.2,0,0.3,0,0.5-0.1c0.2-0.1,0.3-0.1,0.4-0.2s0.2-0.1,0.3-0.2l0.2-0.2h0.6L223.7,179.2z M221.5,176c-0.2,0-0.4,0-0.5,0.1
	c-0.2,0.1-0.3,0.2-0.4,0.3c-0.2,0.1-0.3,0.3-0.3,0.5c0,0.2-0.2,0.4-0.2,0.6h2.9C223,176.7,222.3,176,221.5,176L221.5,176z"/>
<path class="st3" d="M229.6,175.2v5.4h-0.9v-2.3h-2.8v2.3H225v-5.4h0.9v2.2h2.8v-2.2H229.6z"/>
<path class="st3" d="M235.7,175.2v5.4h-0.9v-4l-2.8,4h-0.9v-5.4h0.9v4l2.8-4H235.7z"/>
<path class="st3" d="M236.7,175.2h4.3v0.8h-1.7v4.6h-0.9V176h-1.7L236.7,175.2L236.7,175.2z"/>
<path class="st3" d="M243.9,175.1c0.3,0,0.6,0.1,0.8,0.2c0.2,0.1,0.5,0.2,0.6,0.4c0.2,0.2,0.3,0.4,0.4,0.6c0.1,0.2,0.2,0.5,0.1,0.7
	v3.6h-0.7l-0.2-0.6c-0.1,0.1-0.3,0.2-0.4,0.3c-0.1,0.1-0.3,0.2-0.5,0.2c-0.2,0-0.4,0.1-0.7,0.1c-0.2,0-0.5,0-0.7-0.1
	c-0.2-0.1-0.4-0.2-0.6-0.4c-0.2-0.1-0.3-0.3-0.4-0.5c-0.1-0.2-0.1-0.4-0.1-0.6c0-0.2,0.1-0.5,0.2-0.7c0.1-0.2,0.3-0.4,0.5-0.6
	c0.3-0.2,0.6-0.3,1-0.4c0.6-0.1,1.1-0.1,1.7-0.1v-0.3c0-0.3-0.1-0.5-0.3-0.7c-0.2-0.2-0.5-0.3-0.8-0.3c-0.2,0-0.5,0.1-0.7,0.2
	c-0.2,0.1-0.3,0.4-0.3,0.6h-1c0-0.2,0.1-0.4,0.2-0.6c0.1-0.2,0.2-0.4,0.4-0.5c0.2-0.1,0.4-0.3,0.6-0.3
	C243.3,175.2,243.6,175.1,243.9,175.1z M243.5,179.8c0.2,0,0.5,0,0.7-0.1c0.2-0.1,0.3-0.2,0.5-0.3c0.1-0.1,0.2-0.3,0.3-0.4
	c0.1-0.1,0.1-0.3,0.1-0.5v-0.4c-0.4,0-0.9,0-1.3,0.1c-0.3,0.1-0.6,0.1-0.8,0.2c-0.2,0.1-0.3,0.2-0.4,0.3c-0.1,0.1-0.1,0.3-0.1,0.4
	c0,0.2,0.1,0.3,0.2,0.5C242.9,179.8,243.2,179.8,243.5,179.8L243.5,179.8z"/>
<path class="st3" d="M248.4,177.9l-1.3-1.9h0.9l1.3,1.9l-1.3,1.9h-0.9L248.4,177.9z M250.7,177.9l-1.3-1.9h0.9l1.3,1.9l-1.3,1.9
	h-0.9L250.7,177.9z"/>
<path class="st3" d="M252.4,180.1c0-0.2,0.1-0.3,0.2-0.4c0.2-0.2,0.6-0.3,0.8,0s0.3,0.6,0,0.8s-0.6,0.3-0.8,0c0,0,0,0,0,0
	C252.4,180.4,252.4,180.3,252.4,180.1z"/>
<path class="st5" d="M62.2,83.5h4v19.3h-4.4v-9.6l-4.4,9.6h-2.8l-4.4-9.6v9.6h-4.4V83.5h4l6.3,13.6L62.2,83.5z"/>
<path class="st5" d="M73.9,99.1l-1.2,3.7h-4.6L75,83.5h4.6l6.9,19.3h-4.6l-1.2-3.7H73.9z M79.4,95.3l-2.2-6.5l-2.1,6.5H79.4z"/>
<path class="st5" d="M96.6,102.7h-4.4V87.8h-5.5v-4.3h15.4v4.3h-5.5V102.7z"/>
<path class="st5" d="M119.5,83.5v19.3h-4.4v-6.4c-0.4,0.2-0.8,0.4-1.2,0.5c-0.4,0.1-0.8,0.3-1.3,0.4c-0.5,0.1-1.1,0.2-1.6,0.2
	c-1,0-1.9-0.2-2.8-0.5c-0.8-0.3-1.6-0.8-2.2-1.4c-0.6-0.6-1.1-1.4-1.4-2.2c-0.3-0.9-0.5-1.8-0.5-2.8v-7h4.4v6.7
	c-0.2,1.6,0.9,3,2.5,3.2c0.2,0,0.5,0,0.7,0c0.4,0,0.9,0,1.3-0.1l1.1-0.3c0.4-0.1,0.7-0.3,1-0.5v-9L119.5,83.5L119.5,83.5z"/>
<path class="st5" d="M127.8,83.5V95l7.8-11.5h4v19.3h-4.5V91.3l-7.8,11.5h-4V83.5H127.8z"/>
<path class="st5" d="M56.4,127.7l-6.3-8.6v8.6h-4.4v-19.3h4.4v8.3l5.8-8.3h5l-6.8,9.5l7.2,9.8H56.4z"/>
<path class="st5" d="M81.2,118.1c0,1.3-0.2,2.7-0.7,3.9c-0.5,1.1-1.2,2.2-2,3.1c-0.9,0.9-1.9,1.6-3,2.1c-2.4,0.9-5,0.9-7.4,0
	c-1.1-0.5-2.2-1.2-3-2.1c-0.9-0.9-1.5-1.9-2-3.1c-0.5-1.2-0.7-2.6-0.7-3.9c0-1.3,0.2-2.6,0.7-3.8c0.5-1.1,1.2-2.2,2-3.1
	c0.9-0.9,1.9-1.6,3-2.1c2.4-0.9,5-0.9,7.4,0c1.1,0.5,2.2,1.2,3,2.1c0.9,0.9,1.5,1.9,2,3.1C80.9,115.5,81.1,116.8,81.2,118.1z
	 M76.8,118.1c0-0.8-0.1-1.5-0.4-2.2c-0.5-1.3-1.5-2.3-2.7-2.8c-0.6-0.3-1.3-0.4-2-0.4c-0.7,0-1.4,0.1-2,0.4
	c-0.6,0.3-1.1,0.7-1.6,1.1c-0.5,0.5-0.9,1.1-1.1,1.7c-0.5,1.4-0.5,3,0,4.4c0.5,1.3,1.5,2.3,2.7,2.8c0.6,0.3,1.3,0.4,2,0.4
	c0.7,0,1.4-0.1,2-0.4c0.6-0.3,1.1-0.7,1.6-1.1c0.5-0.5,0.8-1.1,1.1-1.7C76.6,119.6,76.7,118.8,76.8,118.1z"/>
<path class="st5" d="M100.6,108.5h4v19.3h-4.5v-9.6l-4.4,9.6h-2.8l-4.4-9.6v9.6h-4.4v-19.3h4l6.3,13.6L100.6,108.5z"/>
<path class="st5" d="M112.2,124.1l-1.2,3.7h-4.6l6.9-19.3h4.6l6.9,19.3h-4.6l-1.2-3.7H112.2z M117.7,120.3l-2.1-6.4l-2.1,6.4H117.7z
	"/>
<path class="st5" d="M142.8,108.5v19.3h-4.4v-7.6h-7.3v7.6h-4.4v-19.3h4.4v7.3h7.3v-7.3H142.8z"/>
<path class="st5" d="M164.3,123.5v7.9h-4.4v-3.7h-10.7v3.7h-4.4v-7.9h1.2c0.3-0.1,0.7-0.3,0.9-0.6c0.3-0.3,0.5-0.6,0.7-0.9
	c0.3-0.4,0.4-1,0.4-1.5l1.4-11.9h12.8v15L164.3,123.5L164.3,123.5z M157.7,112.8h-4.6l-0.9,7.6c-0.1,0.5-0.2,1-0.4,1.5
	c-0.1,0.3-0.3,0.6-0.5,0.9c-0.1,0.2-0.4,0.5-0.6,0.6h7V112.8z"/>
<path class="st5" d="M166.8,127.7v-19.3h4.4v6.1h2.9c1,0,1.9,0.2,2.8,0.5c0.8,0.3,1.6,0.8,2.2,1.4c0.6,0.6,1.1,1.3,1.4,2.1
	c0.7,1.7,0.7,3.5,0,5.2c-0.3,0.8-0.8,1.5-1.4,2.1c-0.6,0.6-1.4,1.1-2.2,1.4c-0.9,0.3-1.8,0.5-2.8,0.5H166.8z M171.2,118.9v4.6h2.9
	c0.6,0,1.3-0.2,1.7-0.7c0.4-0.4,0.7-1,0.7-1.6c0-0.6-0.2-1.2-0.7-1.6c-0.4-0.5-1.1-0.7-1.7-0.7L171.2,118.9z M187.2,127.7h-4.4
	v-19.3h4.4V127.7z"/>
<path class="st6" d="M66.9,291.2v7.3h-1.4v-5.9h-3.1v5.9h-1.3v-7.3H66.9z"/>
<path class="st6" d="M71.7,291.2c0.3,0,0.7,0.1,1,0.2c0.6,0.2,1.1,0.7,1.3,1.3c0.3,0.6,0.3,1.2,0,1.8c-0.2,0.6-0.7,1.1-1.3,1.3
	c-0.3,0.1-0.7,0.2-1,0.2h-1.3v2.4H69v-7.3h2.7V291.2z M71.7,294.7c0.1,0,0.3,0,0.4-0.1c0.1-0.1,0.2-0.1,0.3-0.2s0.2-0.2,0.2-0.3
	c0.1-0.3,0.1-0.5,0-0.8c-0.1-0.1-0.1-0.2-0.2-0.3s-0.2-0.2-0.3-0.2c-0.1-0.1-0.3-0.1-0.4-0.1h-1.3v2.2h1.3L71.7,294.7z"/>
<path class="st6" d="M81,297.1v1.3h-5.1v-7.3h5v1.3h-3.6v1.6h3.3v1.3h-3.3v1.7H81L81,297.1z"/>
<path class="st6" d="M89.1,297.1v2.7h-1.4v-1.4h-4.4v1.4h-1.4v-2.7h0.4c0.1-0.1,0.2-0.1,0.4-0.3c0.1-0.1,0.2-0.2,0.3-0.4
	c0.1-0.2,0.1-0.4,0.2-0.6l0.6-4.7h4.6v5.9h0.7V297.1z M87,292.5h-2l-0.4,3.4c0,0.2-0.1,0.4-0.1,0.6s-0.1,0.3-0.2,0.4
	s-0.2,0.2-0.2,0.3h3v-4.7L87,292.5z"/>
<path class="st6" d="M91.6,294.8c0,0.3,0.1,0.7,0.2,1c0.3,0.5,0.7,0.9,1.2,1.2c0.3,0.1,0.5,0.2,0.8,0.2c0.2,0,0.5,0,0.7-0.1
	c0.2-0.1,0.3-0.2,0.5-0.3c0.2-0.1,0.3-0.3,0.4-0.4s0.2-0.3,0.2-0.5H97c-0.1,0.3-0.2,0.7-0.4,1c-0.2,0.3-0.4,0.6-0.7,0.8
	c-0.3,0.2-0.7,0.4-1,0.6c-0.4,0.1-0.8,0.2-1.2,0.2c-0.5,0-1-0.1-1.4-0.3c-0.4-0.2-0.8-0.5-1.1-0.8c-0.3-0.3-0.6-0.8-0.8-1.2
	c-0.2-0.5-0.3-1-0.3-1.5c0-1,0.4-1.9,1.1-2.6c0.3-0.3,0.7-0.6,1.1-0.8c0.4-0.2,0.9-0.3,1.4-0.3c0.4,0,0.8,0.1,1.2,0.2
	c0.4,0.1,0.7,0.3,1,0.6c0.3,0.2,0.5,0.5,0.7,0.8c0.2,0.3,0.3,0.6,0.4,1h-1.4c0-0.2-0.1-0.3-0.2-0.5c-0.1-0.2-0.2-0.3-0.4-0.4
	c-0.2-0.1-0.3-0.2-0.5-0.3c-0.2-0.1-0.5-0.1-0.7-0.1c-0.3,0-0.6,0.1-0.8,0.2c-0.3,0.1-0.5,0.3-0.7,0.5c-0.2,0.2-0.3,0.5-0.5,0.7
	S91.6,294.4,91.6,294.8z"/>
<path class="st6" d="M98.1,291.2h5.6v1.3h-2.1v5.9h-1.4v-5.9h-2.1V291.2z"/>
<path class="st6" d="M111.5,294.8c0,0.5-0.1,1-0.3,1.5c-0.2,0.4-0.5,0.8-0.8,1.2c-0.3,0.3-0.7,0.6-1.1,0.8c-0.4,0.2-0.9,0.3-1.4,0.3
	c-0.5,0-1-0.1-1.4-0.3c-0.4-0.2-0.8-0.5-1.1-0.8c-0.3-0.3-0.6-0.8-0.8-1.2c-0.2-0.5-0.3-1-0.3-1.5c0-1,0.4-1.9,1.1-2.6
	c0.3-0.3,0.7-0.6,1.1-0.8c0.4-0.2,0.9-0.3,1.4-0.3c0.5,0,1,0.1,1.4,0.3c0.4,0.1,0.8,0.4,1.1,0.8c0.3,0.3,0.6,0.8,0.8,1.2
	C111.4,293.8,111.5,294.3,111.5,294.8z M105.9,294.8c0,0.3,0.1,0.7,0.2,1c0.3,0.5,0.7,0.9,1.2,1.2c0.3,0.1,0.5,0.2,0.8,0.2
	c0.3,0,0.6-0.1,0.8-0.2c0.3-0.1,0.5-0.3,0.7-0.5c0.2-0.2,0.3-0.5,0.5-0.7c0.2-0.3,0.3-0.7,0.2-1c0-0.3-0.1-0.7-0.2-1
	c-0.3-0.5-0.7-0.9-1.2-1.2c-0.3-0.1-0.5-0.2-0.8-0.2c-0.3,0-0.6,0.1-0.8,0.2c-0.3,0.1-0.5,0.3-0.7,0.5c-0.2,0.2-0.3,0.5-0.5,0.7
	C105.9,294.1,105.8,294.5,105.9,294.8z"/>
<path class="st6" d="M114.2,298.4h-1.6l1.7-2.9c-0.5-0.3-0.9-0.7-1.2-1.2c-0.2-0.3-0.2-0.7-0.2-1c0-0.3,0.1-0.6,0.2-0.9
	c0.1-0.3,0.3-0.5,0.5-0.7c0.2-0.2,0.5-0.4,0.8-0.5c0.3-0.1,0.7-0.2,1-0.2h2.8v7.3h-1.4v-2.5h-1L114.2,298.4z M116.8,292.5h-1.4
	c-0.6,0-1,0.4-1,1s0.4,1,1,1h1.4V292.5z"/>
<path class="st6" d="M128.6,291.2v5.9h0.8v2.7h-1.3v-1.4h-7.8v-7.3h1.4v5.9h2.1v-5.9h1.4v5.9h2.1v-5.9L128.6,291.2L128.6,291.2z"/>
<path class="st6" d="M135.4,298.4v-4.8l-3.2,4.8H131v-7.3h1.4v4.8l3.2-4.8h1.2v7.3H135.4z"/>
<path class="st6" d="M144,297.1v1.3h-5.1v-7.3h5v1.3h-3.6v1.6h3.3v1.3h-3.3v1.7h3.7L144,297.1z"/>
<path class="st6" d="M156.3,291.2v7.3h-1.4v-4l-1.8,4h-1l-1.8-4v4h-1.4v-7.3h1.2l2.5,5.4l2.5-5.4H156.3z"/>
<path class="st6" d="M159,298.4h-1.4l2.7-7.3h1.3l2.7,7.3h-1.4l-0.5-1.5h-2.8L159,298.4z M161.8,295.7l-0.9-2.7l-0.9,2.7H161.8z"/>
<path class="st6" d="M164.4,291.2h5.6v1.3h-2.1v5.9h-1.4v-5.9h-2.1V291.2z"/>
<path class="st6" d="M177,291.2v7.3h-1.4V296c-0.2,0.1-0.3,0.2-0.5,0.2s-0.3,0.1-0.5,0.2s-0.4,0.1-0.6,0.1c-0.3,0-0.7-0.1-1-0.2
	c-0.6-0.2-1.1-0.7-1.3-1.3c-0.1-0.4-0.2-0.7-0.2-1.1v-2.7h1.4v2.6c0,0.9,0.4,1.3,1.3,1.3c0.2,0,0.4,0,0.6-0.1c0.2,0,0.3-0.1,0.5-0.1
	s0.3-0.1,0.4-0.2v-3.5L177,291.2z"/>
<path class="st6" d="M183.5,298.4v-4.8l-3.2,4.8h-1.2v-7.3h1.4v4.8l3.2-4.8h1.2v7.3H183.5z"/>
<path d="M126.1,321.9c0-0.3,0.1-0.5,0.2-0.8c0.1-0.2,0.3-0.4,0.4-0.6c0.2-0.2,0.4-0.3,0.7-0.4c0.3-0.1,0.6-0.1,0.9-0.1
	c0.3,0,0.6,0.1,0.9,0.2c0.3,0.1,0.5,0.2,0.7,0.4c0.2,0.2,0.3,0.4,0.4,0.6c0.1,0.2,0.2,0.5,0.2,0.7c0,0.2,0,0.4-0.1,0.6
	c-0.1,0.2-0.2,0.3-0.3,0.4c-0.1,0.1-0.3,0.2-0.4,0.3c0.2,0.1,0.4,0.2,0.5,0.4c0.2,0.1,0.3,0.3,0.4,0.5c0.1,0.2,0.2,0.5,0.2,0.8
	c0,0.2-0.1,0.5-0.2,0.7c-0.1,0.2-0.3,0.4-0.5,0.6c-0.2,0.2-0.4,0.3-0.7,0.4c-0.3,0.1-0.7,0.2-1,0.2c-0.6,0.1-1.2-0.1-1.6-0.5
	c-0.2-0.2-0.4-0.4-0.5-0.6c-0.1-0.2-0.2-0.5-0.2-0.8h1c0.1,0.3,0.2,0.5,0.4,0.7c0.2,0.2,0.6,0.3,0.9,0.3c0.4,0,0.7-0.1,1-0.3
	c0.4-0.4,0.4-1,0-1.4c-0.3-0.2-0.6-0.3-1-0.3h-0.5V323h0.5c0.3,0,0.7-0.1,0.9-0.3c0.4-0.4,0.4-1,0-1.4c-0.2-0.2-0.6-0.3-0.9-0.3
	c-0.3,0-0.6,0.1-0.8,0.3c-0.2,0.2-0.3,0.5-0.3,0.8h-1.2V321.9z"/>
<path d="M136.8,325.6v0.9h-4.5v-6.6h4.4v0.9h-3.4v1.8h3.1v1h-3.1v2L136.8,325.6z"/>
<path d="M143.7,320v6.6h-1v-2.9h-3.1v2.9h-1V320h1v2.8h3.1V320H143.7z"/>
<path d="M149.9,326.6v-4.7l-3.2,4.7h-0.8V320h1v4.7l3.2-4.7h0.8v6.6H149.9z"/>
<path d="M152.3,320h5v0.9h-2v5.7h-1v-5.7h-2V320z"/>
<path d="M162.3,322.4c0,0.2-0.1,0.3-0.2,0.4c-0.1,0.1-0.2,0.2-0.4,0.2c-0.3,0-0.6-0.2-0.6-0.6c0-0.3,0.2-0.6,0.6-0.6
	c0.2,0,0.4,0.1,0.5,0.2C162.2,322.1,162.3,322.2,162.3,322.4z M162.3,326.1c0,0.2-0.1,0.3-0.2,0.4c-0.1,0.1-0.2,0.2-0.4,0.2
	c-0.3,0-0.6-0.2-0.6-0.6c0-0.3,0.2-0.6,0.6-0.6c0.2,0,0.4,0.1,0.5,0.2C162.3,325.8,162.3,325.9,162.3,326.1L162.3,326.1z"/>
<path d="M172.4,325.6v2.3h-0.9v-1.3h-4.7V320h1v5.7h2.9V320h1v5.7h0.7V325.6z"/>
<path d="M174.5,323.3c0,0.3,0.1,0.7,0.2,1c0.1,0.3,0.3,0.6,0.5,0.8c0.2,0.2,0.4,0.4,0.7,0.5c0.3,0.1,0.5,0.2,0.8,0.2
	c0.2,0,0.5,0,0.7-0.1c0.2-0.1,0.3-0.2,0.5-0.3c0.2-0.1,0.3-0.3,0.4-0.5c0.1-0.2,0.2-0.3,0.2-0.5h1.1c-0.1,0.3-0.2,0.6-0.4,0.9
	c-0.2,0.3-0.4,0.5-0.6,0.7c-0.2,0.2-0.6,0.4-0.9,0.5c-0.3,0.1-0.7,0.2-1,0.2c-0.4,0-0.8-0.1-1.2-0.3c-0.4-0.2-0.7-0.4-1-0.7
	c-0.3-0.3-0.5-0.7-0.7-1.1c-0.4-0.8-0.4-1.8,0-2.6c0.2-0.4,0.4-0.8,0.7-1.1c0.3-0.3,0.6-0.5,1-0.7c0.4-0.2,0.8-0.3,1.2-0.3
	c0.3,0,0.7,0.1,1,0.2c0.3,0.1,0.6,0.3,0.8,0.5c0.2,0.2,0.4,0.5,0.6,0.7c0.2,0.3,0.3,0.6,0.4,0.9h-1.1c-0.1-0.2-0.1-0.4-0.2-0.6
	c-0.1-0.2-0.2-0.4-0.4-0.5c-0.2-0.1-0.3-0.2-0.5-0.3c-0.2-0.1-0.5-0.1-0.7-0.1c-0.3,0-0.5,0.1-0.8,0.2c-0.3,0.1-0.5,0.3-0.7,0.5
	c-0.2,0.2-0.4,0.5-0.5,0.8C174.6,322.6,174.5,322.9,174.5,323.3z"/>
<path d="M184.8,326.6l-2.6-3.1v3.1h-1V320h1v3.1l2.4-3.1h1.2l-2.7,3.3l2.9,3.4L184.8,326.6L184.8,326.6z"/>
<path d="M187.5,326.6h-1.1l2.5-6.6h0.8l2.5,6.6h-1.1l-0.6-1.5h-2.4L187.5,326.6z M190.4,324.1l-1-2.6l-0.9,2.6H190.4z"/>
<path class="st7" d="M103,353.7c0,0.3,0,0.5,0.1,0.8c0.1,0.2,0.2,0.5,0.4,0.6c0.2,0.2,0.4,0.3,0.6,0.4c0.2,0.1,0.5,0.1,0.7,0.1
	c0.2,0,0.4,0,0.6-0.1c0.2-0.1,0.3-0.1,0.5-0.2s0.2-0.2,0.3-0.3c0.1-0.1,0.2-0.2,0.2-0.4h1.2c-0.1,0.3-0.2,0.6-0.4,0.8
	c-0.2,0.3-0.4,0.5-0.6,0.7c-0.2,0.2-0.5,0.4-0.8,0.5c-0.3,0.1-0.7,0.2-1,0.2c-0.4,0-0.7-0.1-1.1-0.2c-0.4-0.1-0.7-0.4-0.9-0.7
	c-0.3-0.3-0.5-0.6-0.6-1c-0.2-0.4-0.2-0.8-0.2-1.2c0-0.4,0.1-0.8,0.2-1.2c0.2-0.3,0.4-0.7,0.6-1c0.3-0.3,0.6-0.5,0.9-0.7
	c0.3-0.2,0.7-0.2,1.1-0.2c0.3,0,0.7,0.1,1,0.2c0.3,0.1,0.6,0.3,0.8,0.5c0.2,0.2,0.4,0.4,0.6,0.7c0.2,0.2,0.3,0.5,0.3,0.8h-1.2
	c0-0.2-0.1-0.3-0.2-0.4l-0.3-0.3c-0.1-0.1-0.2-0.2-0.4-0.2c-0.1,0-0.4-0.1-0.6-0.1c-0.2,0-0.5,0-0.7,0.1c-0.5,0.2-0.8,0.5-1,1
	C103.1,353.1,103,353.4,103,353.7z"/>
<path class="st7" d="M112.7,356.8v-4l-2.7,4h-1v-6.1h1.2v4l2.7-4h1v6.1H112.7z"/>
<path class="st7" d="M118.2,353c0.3,0,0.5,0,0.8,0.1c0.2,0.1,0.5,0.2,0.6,0.4s0.3,0.4,0.4,0.6c0.1,0.2,0.1,0.5,0.1,0.7
	c0,0.3,0,0.5-0.1,0.8c-0.2,0.5-0.5,0.8-1,1c-0.3,0.1-0.5,0.1-0.8,0.1h-2.6v-6.1h4.1v1.1h-3v1.2L118.2,353L118.2,353z M116.8,354v1.7
	h1.4c0.2,0,0.4-0.1,0.6-0.2c0.2-0.1,0.2-0.4,0.2-0.6c0-0.2-0.1-0.4-0.2-0.6c-0.2-0.2-0.4-0.2-0.6-0.2L116.8,354L116.8,354z"/>
<path class="st7" d="M126.2,350.6l-2.1,4.7c-0.1,0.3-0.2,0.5-0.4,0.7c-0.1,0.2-0.2,0.4-0.4,0.5c-0.2,0.1-0.3,0.2-0.5,0.3
	c-0.2,0.1-0.4,0.1-0.6,0.1h-0.6v-1h0.4c0.2,0,0.4-0.1,0.5-0.2c0.1-0.1,0.2-0.2,0.3-0.4l0.1-0.2l-2-4.4h1.2l1.4,3.1l1.4-3.1h1.3
	L126.2,350.6z"/>
<path class="st7" d="M129.6,350.6c0.3,0,0.6,0.1,0.8,0.2c0.2,0.1,0.5,0.2,0.7,0.4c0.2,0.2,0.3,0.4,0.4,0.7c0.1,0.2,0.2,0.5,0.2,0.8
	c0,0.3-0.1,0.5-0.2,0.8c-0.1,0.2-0.3,0.5-0.4,0.7c-0.2,0.2-0.4,0.3-0.7,0.4c-0.3,0.1-0.5,0.2-0.8,0.2h-1.1v2h-1.2v-6.1h2.3V350.6z
	 M129.6,353.6c0.1,0,0.3,0,0.4-0.1c0.1,0,0.2-0.1,0.3-0.2c0.1-0.1,0.2-0.2,0.2-0.3s0.1-0.2,0.1-0.4c0-0.1,0-0.3-0.1-0.4
	c0-0.1-0.1-0.2-0.2-0.3c-0.1-0.1-0.2-0.2-0.3-0.2s-0.2-0.1-0.4-0.1h-1.1v1.8h1.1V353.6z"/>
<path class="st7" d="M136.3,356.8h-1.2l2.3-6.1h1.1l2.3,6.1h-1.2l-0.4-1.3h-2.3L136.3,356.8z M138.7,354.4l-0.8-2.2l-0.8,2.2H138.7z
	"/>
<path class="st7" d="M144.1,350.6c0.3,0,0.6,0.1,0.8,0.2c0.2,0.1,0.5,0.2,0.7,0.4c0.2,0.2,0.3,0.4,0.4,0.7c0.1,0.2,0.2,0.5,0.2,0.8
	c0,0.3-0.1,0.5-0.2,0.8c-0.1,0.2-0.3,0.5-0.4,0.7c-0.2,0.2-0.4,0.3-0.7,0.4c-0.3,0.1-0.5,0.2-0.8,0.2H143v2h-1.2v-6.1h2.3V350.6z
	 M144.1,353.6c0.1,0,0.3,0,0.4-0.1c0.1,0,0.2-0.1,0.3-0.2c0.1-0.1,0.2-0.2,0.2-0.3s0.1-0.2,0.1-0.4c0-0.1,0-0.3-0.1-0.4
	c0-0.1-0.1-0.2-0.2-0.3c-0.1-0.1-0.2-0.2-0.3-0.2s-0.2-0.1-0.4-0.1H143v1.8h1.1V353.6z"/>
<path class="st7" d="M151.9,355.7v1.1h-4.3v-6.1h4.2v1.1h-3.1v1.3h2.8v1.1h-2.8v1.5H151.9z"/>
<path class="st7" d="M158.3,350.6v6.1h-1.2v-2.6h-2.6v2.6h-1.2v-6.1h1.2v2.4h2.6v-2.4H158.3z"/>
<path class="st7" d="M160.6,356.8h-1.2l2.3-6.1h1.1l2.3,6.1h-1.2l-0.4-1.3h-2.3L160.6,356.8z M163,354.4l-0.8-2.2l-0.8,2.2H163z"/>
<path class="st7" d="M166.4,355.6c0.2,0,0.3,0.1,0.4,0.2c0.1,0.1,0.2,0.3,0.2,0.5c0,0.2,0,0.5-0.1,0.7c-0.1,0.2-0.2,0.3-0.3,0.5
	s-0.3,0.2-0.4,0.3l-0.2-0.2c0.1,0,0.1-0.1,0.2-0.2s0.1-0.1,0.1-0.2s0.1-0.2,0.1-0.3c-0.2,0-0.3-0.1-0.4-0.2
	c-0.2-0.2-0.3-0.5-0.1-0.7c0,0,0.1-0.1,0.1-0.1C166.1,355.6,166.2,355.6,166.4,355.6z"/>
<path class="st7" d="M173.2,350.6v6.1H172v-4.6l-0.7,0.5l-0.6-0.9l1.6-1.1H173.2z"/>
<path class="st7" d="M178.8,355.7v1.1h-4.1V356l2.2-2.3c0.1-0.1,0.2-0.2,0.3-0.4c0.1-0.1,0.2-0.2,0.2-0.4c0-0.2,0.1-0.3,0.1-0.4
	c0-0.2-0.1-0.4-0.2-0.6c-0.2-0.1-0.5-0.2-0.7-0.2c-0.2,0-0.5,0.1-0.7,0.2c-0.2,0.2-0.2,0.4-0.2,0.6h-1.2c0-0.3,0-0.6,0.2-0.8
	c0.1-0.2,0.2-0.4,0.4-0.6c0.2-0.2,0.4-0.3,0.7-0.4c0.3-0.1,0.6-0.1,0.9-0.1c0.3,0,0.6,0,0.9,0.1c0.3,0.1,0.5,0.2,0.7,0.4
	c0.2,0.2,0.3,0.4,0.4,0.6c0.1,0.2,0.1,0.5,0.1,0.7c0,0.2-0.1,0.5-0.2,0.7c-0.1,0.2-0.2,0.4-0.4,0.6l-0.6,0.6l-1.3,1.4L178.8,355.7z"
	/>
<path class="st7" d="M180,356.2c0-0.2,0.1-0.3,0.2-0.4c0.1-0.1,0.2-0.2,0.4-0.2c0.2,0,0.3,0.1,0.4,0.2c0.2,0.2,0.2,0.6,0,0.8
	c-0.1,0.1-0.2,0.1-0.4,0.2C180.3,356.8,180,356.5,180,356.2L180,356.2z"/>
<path class="st7" d="M187.6,353.7c0,0.4-0.1,0.9-0.2,1.3c-0.1,0.4-0.3,0.7-0.5,1c-0.2,0.3-0.5,0.5-0.8,0.6c-0.3,0.1-0.7,0.2-1,0.2
	c-0.3,0-0.7-0.1-1-0.2c-0.3-0.1-0.6-0.3-0.8-0.6c-0.2-0.3-0.4-0.6-0.5-1c-0.3-0.8-0.3-1.8,0-2.6c0.1-0.4,0.3-0.7,0.5-1
	c0.2-0.3,0.5-0.5,0.8-0.6c0.3-0.1,0.7-0.2,1-0.2c0.3,0,0.7,0.1,1,0.2c0.3,0.1,0.6,0.3,0.8,0.6c0.2,0.3,0.4,0.6,0.5,1
	C187.5,352.8,187.6,353.3,187.6,353.7z M183.7,353.7c0,0.3,0,0.6,0.1,0.9c0.1,0.2,0.2,0.4,0.3,0.6c0.1,0.2,0.3,0.3,0.4,0.4
	c0.3,0.1,0.7,0.1,1,0c0.2-0.1,0.3-0.2,0.4-0.4l0.3-0.6c0.1-0.3,0.1-0.6,0.1-0.9c0-0.3,0-0.6-0.1-0.9c-0.1-0.2-0.2-0.4-0.3-0.6
	c-0.1-0.2-0.3-0.3-0.4-0.4c-0.3-0.1-0.7-0.1-1,0c-0.2,0.1-0.3,0.2-0.4,0.4l-0.3,0.6C183.7,353.1,183.7,353.4,183.7,353.7z"/>
<path class="st7" d="M191,350.6c0.3,0,0.6,0.1,0.9,0.2c0.5,0.3,0.9,0.7,1.2,1.2c0.1,0.3,0.2,0.5,0.2,0.8c0,0.2,0,0.4-0.1,0.6
	c-0.1,0.2-0.1,0.4-0.2,0.5s-0.2,0.3-0.3,0.5s-0.1,0.2-0.2,0.3s-0.2,0.3-0.3,0.4s-0.2,0.3-0.3,0.4s-0.2,0.3-0.3,0.4l-0.6,0.9h-1.2
	l1.3-1.9c-0.3,0-0.6,0-0.9-0.1c-0.3-0.1-0.5-0.2-0.7-0.4c-0.2-0.2-0.4-0.4-0.5-0.7c-0.1-0.3-0.2-0.6-0.2-0.9c0-0.3,0.1-0.6,0.2-0.8
	c0.1-0.3,0.3-0.5,0.5-0.7c0.2-0.2,0.5-0.4,0.7-0.5C190.4,350.6,190.7,350.6,191,350.6z M192.1,352.7c0-0.2,0-0.3-0.1-0.4
	s-0.1-0.3-0.2-0.4s-0.2-0.2-0.3-0.2s-0.3-0.1-0.4-0.1c-0.1,0-0.3,0-0.4,0.1c-0.1,0.1-0.2,0.1-0.3,0.2c-0.1,0.1-0.2,0.2-0.2,0.4
	c-0.1,0.1-0.1,0.3-0.1,0.4c0,0.2,0,0.3,0.1,0.4s0.1,0.3,0.2,0.4s0.2,0.2,0.3,0.2s0.3,0.1,0.4,0.1c0.1,0,0.3,0,0.4-0.1
	c0.1-0.1,0.2-0.1,0.3-0.2c0.1-0.1,0.2-0.2,0.2-0.4C192,353,192.1,352.9,192.1,352.7z"/>
<path class="st7" d="M194.3,356.2c0-0.2,0.1-0.3,0.2-0.4c0.1-0.1,0.2-0.2,0.4-0.2c0.2,0,0.3,0.1,0.4,0.2c0.2,0.2,0.2,0.6,0,0.8
	c-0.1,0.1-0.2,0.1-0.4,0.2C194.6,356.8,194.3,356.5,194.3,356.2L194.3,356.2z"/>
<path class="st7" d="M200.9,355.7v1.1h-4.1V356l2.2-2.3c0.1-0.1,0.2-0.2,0.3-0.4c0.1-0.1,0.2-0.2,0.2-0.4c0-0.2,0.1-0.3,0.1-0.4
	c0-0.2-0.1-0.4-0.2-0.6c-0.2-0.1-0.5-0.2-0.7-0.2c-0.2,0-0.5,0.1-0.7,0.2c-0.2,0.2-0.2,0.4-0.2,0.6h-1.2c0-0.3,0-0.6,0.2-0.8
	c0.1-0.2,0.2-0.4,0.4-0.6c0.2-0.2,0.4-0.3,0.7-0.4c0.3-0.1,0.6-0.1,0.9-0.1c0.3,0,0.6,0,0.9,0.1c0.3,0.1,0.5,0.2,0.7,0.4
	c0.2,0.2,0.3,0.4,0.4,0.6c0.1,0.2,0.1,0.5,0.1,0.7c0,0.2-0.1,0.5-0.2,0.7c-0.1,0.2-0.2,0.4-0.4,0.6l-0.6,0.6l-1.3,1.4L200.9,355.7z"
	/>
<path class="st7" d="M207.3,353.7c0,0.4-0.1,0.9-0.2,1.3c-0.1,0.4-0.3,0.7-0.5,1c-0.2,0.3-0.5,0.5-0.8,0.6c-0.3,0.1-0.7,0.2-1,0.2
	c-0.3,0-0.7-0.1-1-0.2c-0.3-0.1-0.6-0.3-0.8-0.6c-0.2-0.3-0.4-0.6-0.5-1c-0.3-0.8-0.3-1.8,0-2.6c0.1-0.4,0.3-0.7,0.5-1
	c0.2-0.3,0.5-0.5,0.8-0.6c0.3-0.1,0.7-0.2,1-0.2c0.3,0,0.7,0.1,1,0.2c0.3,0.1,0.6,0.3,0.8,0.6c0.2,0.3,0.4,0.6,0.5,1
	C207.2,352.8,207.3,353.3,207.3,353.7z M203.4,353.7c0,0.3,0,0.6,0.1,0.9c0.1,0.2,0.2,0.4,0.3,0.6c0.1,0.2,0.3,0.3,0.4,0.4
	c0.3,0.1,0.7,0.1,1,0c0.2-0.1,0.3-0.2,0.4-0.4l0.3-0.6c0.1-0.3,0.1-0.6,0.1-0.9c0-0.3,0-0.6-0.1-0.9c-0.1-0.2-0.2-0.4-0.3-0.6
	c-0.1-0.2-0.3-0.3-0.4-0.4c-0.3-0.1-0.7-0.1-1,0c-0.2,0.1-0.3,0.2-0.4,0.4l-0.3,0.6C203.4,353.1,203.4,353.4,203.4,353.7z"/>
<path class="st7" d="M210.8,350.6v6.1h-1.2v-4.6l-0.7,0.5l-0.6-0.9l1.6-1.1H210.8z"/>
<path class="st7" d="M214.4,350.6c0.3,0,0.6,0.1,0.9,0.2c0.5,0.3,0.9,0.7,1.2,1.2c0.1,0.3,0.2,0.5,0.2,0.8c0,0.2,0,0.4-0.1,0.6
	c-0.1,0.2-0.1,0.4-0.2,0.5s-0.2,0.3-0.3,0.5s-0.1,0.2-0.2,0.3s-0.2,0.3-0.3,0.4s-0.2,0.3-0.3,0.4s-0.2,0.3-0.3,0.4l-0.6,0.9h-1.2
	l1.3-1.9c-0.3,0-0.6,0-0.9-0.1c-0.3-0.1-0.5-0.2-0.7-0.4c-0.2-0.2-0.4-0.4-0.5-0.7c-0.1-0.3-0.2-0.6-0.2-0.9c0-0.3,0.1-0.6,0.2-0.8
	c0.1-0.3,0.3-0.5,0.5-0.7c0.2-0.2,0.5-0.4,0.7-0.5C213.8,350.6,214.1,350.6,214.4,350.6z M215.5,352.7c0-0.2,0-0.3-0.1-0.4
	s-0.1-0.3-0.2-0.4s-0.2-0.2-0.3-0.2s-0.3-0.1-0.4-0.1c-0.1,0-0.3,0-0.4,0.1c-0.1,0.1-0.2,0.1-0.3,0.2c-0.1,0.1-0.2,0.2-0.2,0.4
	c-0.1,0.1-0.1,0.3-0.1,0.4c0,0.2,0,0.3,0.1,0.4s0.1,0.3,0.2,0.4s0.2,0.2,0.3,0.2s0.3,0.1,0.4,0.1c0.1,0,0.3,0,0.4-0.1
	c0.1-0.1,0.2-0.1,0.3-0.2c0.1-0.1,0.2-0.2,0.2-0.4C215.5,353,215.5,352.9,215.5,352.7L215.5,352.7z"/>
<path class="st8" d="M235.7,313.6l-0.1-0.5h-1.5c-2.3-0.4-4.4-1.5-6.1-3.1l-0.1-0.1l-0.2-0.2l-0.1-0.1l-0.2-0.2l-0.1-0.1l-0.2-0.2
	l3.8-3c0.2-0.1,0.3-0.3,0.4-0.4c0.1-0.1,0.1-0.2,0.1-0.3V305c0-0.1-0.1-0.2-0.2-0.3s-0.2-0.1-0.3-0.2c-0.2-0.1-0.4-0.1-0.6-0.1
	l-5-0.2l-1.8-4.7c-0.1-0.2-0.2-0.3-0.3-0.5c-0.1-0.1-0.2-0.2-0.3-0.2s-0.2-0.1-0.4-0.1c-0.1,0-0.3,0-0.4,0.1c-0.1,0-0.2,0.1-0.3,0.2
	c-0.1,0.2-0.2,0.3-0.3,0.5l-1.8,4.7l-5,0.2c-0.2,0-0.4,0.1-0.6,0.1s-0.2,0.1-0.3,0.2s-0.2,0.2-0.2,0.3s-0.1,0.3,0,0.4
	s0.1,0.2,0.1,0.3c0.1,0.2,0.2,0.3,0.4,0.4l3.8,3l-0.2,0.2l-0.2,0.2l-0.2,0.2l-0.1,0.1c-1.7,1.6-3.8,2.7-6.1,3.1h-1.4l-0.1,0.5
	c-0.4,2.4-0.7,4.9-0.7,7.4l0,0v4.3c0,0.1,0,0.2,0.1,0.3v0.3c0,0.1,0,0.2,0.1,0.3v0.2c0,0.1,0,0.2,0.1,0.3v0.2c0,0.1,0.1,0.2,0.1,0.3
	v0.1l0.1,0.1c0,0.1,0.1,0.2,0.1,0.3v0.2c0,0.1,0.1,0.2,0.1,0.3v0.2c0,0.1,0.1,0.2,0.1,0.3v0.1l0,0c0,0.1,0.1,0.2,0.2,0.3v0.3
	c0,0.1,0.1,0.2,0.1,0.3l0.1,0.1c0.1,0.1,0.1,0.2,0.2,0.3v0.3l0.1,0.3l0.1,0.1v0.1c0.1,0.1,0.1,0.2,0.2,0.3l0.1,0.1
	c0.1,0.1,0.1,0.2,0.2,0.3l0.1,0.1c0.1,0.1,0.1,0.2,0.2,0.3v0.1l0,0c0.1,0.1,0.1,0.2,0.2,0.3l0.1,0.1l0.2,0.2l0,0
	c0.1,0.1,0.1,0.2,0.2,0.3l0.1,0.1c0.1,0.1,0.1,0.2,0.2,0.3v0.1l0,0c0.1,0.1,0.2,0.2,0.2,0.3l0.1,0.1l0.2,0.2l0,0l0.2,0.3l0.1,0.1
	l0.2,0.2l0.1,0.1l0.2,0.2l0,0l0.1,0.1l0,0l0.2,0.2l0.1,0.1l0.2,0.2l0.1,0.1l0.3,0.2l0.1,0.1l0.2,0.2h0.1l0.3,0.2l0.1,0.1l0.2,0.2
	l0.1,0.1l0.2,0.2h0.1l0.2,0.2h0.1l0.2,0.2l0.1,0.1l0.2,0.1h0.1l0.2,0.2h0.1l0.2,0.1h0.1l0.2,0.1l0.1,0.1l0.2,0.1l0.3,0.2h0.1
	l0.2,0.1l0.1,0.1l0.2,0.1l0.1,0.1l0.2,0.1h0.2l0.1,0.1h0.1l0.1,0.1h0.1l0.1,0.1h0.1l0.1,0.1h0.4l0.2,0.1l0.2,0.1l0.1,0.1h0.1
	l0.2,0.1c0.1,0.1,0.3,0.1,0.4,0.1l0.2,0.1l0.2-0.1c0.1,0,0.3,0,0.4-0.1l0.2-0.1h0.1l0.2-0.1l0.2-0.1l0.2-0.1h0.6l0.2-0.1l0.1-0.1
	l0.1-0.1l0.2-0.1h0.1l0.2-0.1l0.1-0.1l0.1-0.1l0.3-0.2l0.1-0.1l0.1-0.1l0.3-0.2l0.2-0.1h0.1l0.2-0.1h0.1l0.2-0.2h0.1l0.2-0.1h0.2
	l0.2-0.2h0.1l0.2-0.2h0.1l0.2-0.2l0,0l0.2-0.2l0.1-0.1l0.2-0.2l0.1-0.1l0.2-0.2l0.1-0.1l0.2-0.2l0.1-0.1l0.2-0.2h0.1l0.2-0.2
	l0.1-0.1l0.2-0.2l0.1-0.1l0.2-0.2l0.1-0.1l0.2-0.3l0.1-0.1l0.2-0.3l0,0l0.1-0.1l0.2-0.2l0.1-0.1v-0.1c0.1-0.1,0.2-0.2,0.2-0.3
	l0.1-0.1c0.1-0.1,0.1-0.2,0.2-0.3l0.1-0.1c0.1-0.1,0.1-0.2,0.2-0.3l0,0V332c0.1-0.1,0.1-0.2,0.2-0.3l0,0v-0.1
	c0.1-0.1,0.1-0.2,0.2-0.3l0,0l0.2-0.3l0.1-0.1v-0.1c0.1-0.1,0.1-0.2,0.2-0.3l0.1-0.2c0.1-0.1,0.1-0.2,0.2-0.3l0.1-0.2
	c0.1-0.1,0.1-0.2,0.2-0.3v-0.2l0.1-0.3l0.1-0.1v-0.1c0.1-0.1,0.1-0.2,0.1-0.3v-0.2l0.1-0.3l0.1-0.1v-0.1c0-0.1,0.1-0.2,0.1-0.3l0,0
	v-0.2c0-0.1,0.1-0.2,0.1-0.3l0,0v-0.2l0.1-0.3v-0.3c0-0.1,0.1-0.2,0.1-0.3v-0.2c0-0.1,0.1-0.2,0.1-0.3v-0.2c0-0.1,0-0.2,0.1-0.3V321
	l0,0C236.4,320.7,236.4,317.4,235.7,313.6L235.7,313.6z"/>
<path class="st9" d="M223.8,324.7c1.3,0.1,2.6,0.4,3.8,0.9h0.1l0.2,0.1c0.1,0,0.2,0.1,0.3,0.1l0,0c0.1,0.1,0.2,0.1,0.3,0.2
	c0.2,0.2,0.5,0.3,0.7,0.4h0.1c1.3,0.9,2.5,2,3.4,3.3l0.1,0.1c1.3-2.7,2-5.6,2-8.6c0-2.4-0.2-4.8-0.7-7.1l-0.6-0.1
	c-2.3-0.5-4.5-1.6-6.2-3.3l-0.1-0.1l-0.2-0.2l-0.1-0.1l1.1,3.8c0.2,0.6-0.1,0.8-0.6,0.5l-4.5-3v12.9
	C223.1,324.7,223.5,324.7,223.8,324.7L223.8,324.7z"/>
<path class="st1" d="M234.7,321.3c0,3-0.6,5.9-2,8.6l-0.1-0.1c-0.9-1.3-2-2.5-3.4-3.3h-0.1c-0.2-0.2-0.5-0.3-0.7-0.4
	c-0.1-0.1-0.2-0.1-0.3-0.2l0,0c-0.1,0-0.2-0.1-0.3-0.1l-0.2-0.1h-0.1c-1.2-0.5-2.5-0.8-3.8-0.9c-1.7-0.1-3.4,0.1-5,0.8
	c-2.4,0.9-4.4,2.6-5.7,4.8l0,0c-1.5-2.8-2.2-5.9-2.2-9c0-2.4,0.2-4.8,0.7-7.1l0.6-0.1c2.3-0.5,4.5-1.6,6.2-3.3l0.1-0.1l0.2-0.2
	l0.1-0.1l-1,3.8c-0.2,0.6,0.1,0.8,0.6,0.5l4.5-3l4.5,3c0.5,0.3,0.8,0.1,0.6-0.5l-1.1-3.8l0.1,0.1l0.2,0.2l0.1,0.1
	c1.7,1.7,3.9,2.8,6.2,3.3l0.6,0.1C234.4,316.6,234.6,319,234.7,321.3L234.7,321.3z M232,330.9c-0.1,0.3-0.3,0.5-0.5,0.7l-0.4,0.5
	l-0.3,0.3l0,0c-0.1,0-0.3,0-0.4-0.1l0,0c-1.2-0.3-2.4-0.9-3.5-1.6c-1.2-0.8-2.3-1.7-3.2-2.9c-0.1-0.2-0.3-0.4-0.4-0.6
	c0.8-0.1,1.5-0.1,2.3-0.1c2.3,0.1,4.5,1.1,6.2,2.7l0,0l0.4,0.4l0,0L232,330.9L232,330.9z M223.1,325.9c0.4-0.4,1-0.5,1.5-0.4
	c0.3,0,0.7,0.1,1,0.2h0.1l0.2,0.1l0,0c1,0.3,2,0.7,2.9,1.3c0.3,0.2,0.7,0.4,1,0.7c-1.3-0.6-2.7-1-4.2-1.1c-0.9-0.1-1.8,0-2.7,0.1
	C222.9,326.4,222.9,326.1,223.1,325.9L223.1,325.9z M228.9,334.5l-0.6,0.5c-0.2,0.2-0.4,0.3-0.6,0.5c-0.9,0.7-1.9,1.4-3,2l0,0
	c-0.2-0.6-0.4-1.2-0.6-1.7c-0.9-2.5-2-4.9-3.3-7.2c-0.1-0.2-0.2-0.3-0.3-0.5c0.7-0.2,1.4-0.4,2.1-0.5c0.1,0.3,0.3,0.6,0.5,0.9
	c0.9,1.2,2.1,2.2,3.4,3c1.2,0.8,2.5,1.3,3.8,1.7h0.1C229.8,333.6,229.3,334,228.9,334.5L228.9,334.5z M224.1,337.8
	c-0.4,0.2-0.8,0.4-1.3,0.6l0,0c-0.1,0-0.2-0.1-0.3-0.1c-1.7-0.8-3.4-1.8-4.9-3c-0.1-0.1-0.2-0.2-0.3-0.2V335
	c0.5-1.8,0.6-3.6,0.2-5.4c0.7-0.5,1.5-0.9,2.3-1.2c0.1,0.2,0.3,0.4,0.4,0.6c1.3,2.2,2.4,4.6,3.3,7L224.1,337.8L224.1,337.8z
	 M222.4,326.9c-0.8,0.1-1.5,0.3-2.3,0.6c-0.4-0.5-0.8-0.9-1.3-1.3c0.1,0,0.2-0.1,0.3-0.1c1.1-0.5,2.4-0.7,3.6-0.7l-0.2,0.2
	C222.2,326,222.2,326.5,222.4,326.9z M216.2,328h-0.3c0.6-0.5,1.2-1,1.9-1.3h0.1c0.2,0,0.7,0.2,1.4,1.1c-0.8,0.3-1.5,0.7-2.2,1.1
	C217,328.5,216.6,328.1,216.2,328L216.2,328z M216.7,334.6L216.7,334.6c-0.8-0.7-1.6-1.5-2.2-2.3l0,0c0.7-0.9,1.5-1.6,2.4-2.2
	C217.1,331.6,217.1,333.1,216.7,334.6z M214.2,331.6L214.2,331.6l-0.1,0.1l-0.1-0.1c-0.2-0.2-0.3-0.5-0.5-0.7v-0.1l0.1-0.1l0,0
	c0.2-0.4,0.5-0.7,0.7-1.1c0.6-0.7,1.1-1.1,1.6-1h0.1c0.3,0.1,0.5,0.3,0.6,0.6C215.7,329.9,214.9,330.7,214.2,331.6L214.2,331.6z
	 M235.1,313.7H234c-2.4-0.4-4.6-1.5-6.4-3.2l-0.1-0.1l-0.2-0.2l-0.1-0.1l-0.1-0.3l-0.1-0.1l-0.2-0.2v-0.1l-0.2-0.3l-0.1-0.1v-0.1
	l4.2-3.4c0.5-0.4,0.4-0.7-0.2-0.7l-5.4-0.3l-1.9-5.1c-0.1-0.3-0.3-0.4-0.4-0.4s-0.3,0.1-0.4,0.4l-1.9,5.1l-5.4,0.3
	c-0.6,0-0.7,0.4-0.2,0.7l4.2,3.4v0.1l-0.1,0.1l-0.2,0.3l-0.1,0.1l-0.2,0.2l-0.1,0.1l-0.2,0.2l-0.1,0.1l-0.2,0.2l-0.1,0.1
	c-1.7,1.7-4,2.8-6.4,3.2h-1c-0.4,2.4-0.7,4.8-0.7,7.2l0,0v3.2c0,0.1,0,0.2,0.1,0.3v0.2c0,0.1,0,0.2,0.1,0.3v0.2
	c0,0.1,0.1,0.2,0.1,0.3l0.1,0.2c0,0.1,0.1,0.2,0.1,0.3l0.1,0.2c0,0.1,0.1,0.2,0.1,0.3l0.1,0.2c0,0.1,0.1,0.2,0.1,0.3v0.2
	c0,0.1,0.1,0.2,0.1,0.3l0.1,0.1c0,0.1,0.1,0.2,0.1,0.3l0.1,0.1c0.1,0.1,0.1,0.2,0.1,0.3l0.1,0.1c0,0.1,0.1,0.2,0.1,0.3l0.1,0.1
	c0.1,0.1,0.1,0.2,0.2,0.3l0.1,0.1c0.1,0.1,0.1,0.2,0.2,0.3l0.1,0.1c0.1,0.1,0.1,0.2,0.2,0.3l0.1,0.1c0.1,0.1,0.1,0.2,0.2,0.3
	l0.1,0.1c0.1,0.1,0.1,0.2,0.2,0.3l0.1,0.1c0.1,0.1,0.1,0.2,0.2,0.3l0.1,0.1c0.1,0.1,0.1,0.2,0.2,0.3l0.1,0.1
	c0.1,0.1,0.1,0.2,0.2,0.3l0.1,0.1c0.1,0.1,0.1,0.2,0.2,0.3l0.1,0.1l0.2,0.3l0.1,0.1l0.2,0.3l0.1,0.1l0.2,0.3l0.1,0.1l0.2,0.2
	l0.1,0.1l0.2,0.2l0.1,0.1l0.2,0.2l0.1,0.1l0.2,0.2l0.1,0.1l0.2,0.2h0.1l0.2,0.2h0.1l0.2,0.2h0.1l0.2,0.2h0.1l0.2,0.2h0.1l0.2,0.2
	h0.1l0.2,0.2h0.1l0.2,0.2h0.1l0.2,0.1h0.1l0.2,0.1h0.1l0.2,0.1h0.1l0.2,0.1h0.1l0.2,0.1h0.1l0.2,0.1h0.1l0.2,0.1h0.1l0.2,0.1h0.1
	l0.2,0.1h0.1l0.2,0.1h0.1l0.1,0.1h0.1l0.1,0.1h1.1c0.2,0.1,0.4,0.1,0.6,0h1.1l0.1-0.1h0.1l0.1-0.1h0.1l0.1-0.1h0.1l0.2-0.1h0.1
	l0.2-0.1h0.1l0.2-0.1h0.1l0.2-0.1h0.1l0.2-0.1h0.1l0.2-0.1h0.1l0.2-0.1h0.1l0.2-0.1h0.1l0.2-0.1h0.1l0.2-0.2h0.1l0.2-0.2h0.1
	l0.2-0.2h0.1l0.2-0.2h0.1l0.2-0.2h0.1l0.3-0.2h0.1l0.2-0.2h0.1l0.2-0.2l0.1-0.1l0.2-0.2l0.1-0.1l0.2-0.2l0.1-0.1l0.2-0.2l0.1-0.1
	l0.2-0.2l0.1-0.1l0.2-0.3l0.1-0.1l0.2-0.3l0.1-0.1l0.2-0.3l0.1-0.1c0.1-0.1,0.1-0.2,0.2-0.3l0.1-0.1c0.1-0.1,0.1-0.2,0.2-0.3
	l0.1-0.1c0.1-0.1,0.1-0.2,0.2-0.3l0.1-0.1c0.1-0.1,0.1-0.2,0.2-0.3l0.1-0.1c0.1-0.1,0.1-0.2,0.2-0.3l0.1-0.1
	c0.1-0.1,0.1-0.2,0.2-0.3l0.1-0.1c0.1-0.1,0.1-0.2,0.2-0.3l0.1-0.1c0.1-0.1,0.1-0.2,0.2-0.3l0.1-0.1c0.1-0.1,0.1-0.2,0.2-0.3
	l0.1-0.1c0-0.1,0.1-0.2,0.1-0.3l0.1-0.1c0.1-0.1,0.1-0.2,0.2-0.3l0.1-0.1c0-0.1,0.1-0.2,0.1-0.3l0.1-0.1c0-0.1,0.1-0.2,0.1-0.3
	l0.1-0.2c0-0.1,0.1-0.2,0.1-0.3l0.1-0.2c0-0.1,0.1-0.2,0.1-0.3l0.1-0.2c0-0.1,0.1-0.2,0.1-0.3v-0.2c0-0.1,0-0.2,0.1-0.3l0.1-0.2
	c0-0.1,0-0.2,0.1-0.3v-0.2c0-0.1,0-0.2,0.1-0.3v-0.2c0-0.1,0-0.3,0.1-0.4v-2.6l0,0C235.8,320.7,235.8,317.4,235.1,313.7L235.1,313.7
	z"/>
<path class="st10" d="M226.5,331.4c-1.3-0.8-2.4-1.8-3.4-3c-0.2-0.3-0.4-0.6-0.5-0.9c-0.7,0.1-1.4,0.3-2.1,0.5
	c0.1,0.2,0.2,0.3,0.3,0.5c1.4,2.3,2.5,4.7,3.3,7.2c0.2,0.6,0.4,1.2,0.6,1.7l0,0c1.1-0.6,2.1-1.3,3-2c0.2-0.2,0.4-0.3,0.6-0.5
	l0.6-0.5l1.4-1.4h-0.1C228.9,332.7,227.6,332.1,226.5,331.4L226.5,331.4z M218,326.6L218,326.6c-0.7,0.4-1.4,0.8-2,1.3h0.3
	c0.5,0.1,0.8,0.5,1,0.9c0.7-0.4,1.4-0.8,2.2-1.1C219.1,327.2,218.5,326.8,218,326.6L218,326.6z M232.2,330.6L232.2,330.6
	c-0.1-0.2-0.3-0.3-0.4-0.5l0,0c-1.6-1.7-3.8-2.7-6.2-2.7c-0.8-0.1-1.5,0-2.3,0.1c0.1,0.2,0.2,0.4,0.4,0.6c0.9,1.2,2,2.1,3.2,2.9
	c1.1,0.7,2.3,1.2,3.5,1.6l0,0c0.1,0.1,0.3,0.1,0.4,0.1l0,0l0.3-0.3l0.4-0.5c0.2-0.3,0.4-0.5,0.5-0.7L232.2,330.6L232.2,330.6z
	 M220.2,329c-0.1-0.2-0.3-0.4-0.4-0.6c-0.8,0.3-1.6,0.7-2.3,1.2c0.4,1.8,0.3,3.6-0.2,5.4v0.1c0.1,0.1,0.2,0.2,0.3,0.2
	c1.5,1.2,3.1,2.2,4.9,3c0.1,0,0.2,0.1,0.3,0.1l0,0c0.5-0.2,0.9-0.4,1.3-0.6l-0.6-1.8C222.7,333.5,221.6,331.2,220.2,329L220.2,329z
	 M225.7,326.7c1.5,0.1,2.9,0.5,4.2,1.1c-0.3-0.3-0.6-0.5-1-0.7c-0.9-0.5-1.9-1-2.9-1.3l0,0l-0.2-0.1h-0.1c-0.3-0.1-0.7-0.1-1-0.2
	c-0.8-0.1-1.3,0.1-1.5,0.4c-0.1,0.3-0.1,0.6-0.1,0.9C223.9,326.7,224.8,326.6,225.7,326.7L225.7,326.7z M220.1,327.5
	c0.7-0.3,1.5-0.5,2.3-0.6c-0.1-0.4-0.1-0.9,0.2-1.3l0.2-0.2c-1.2,0-2.4,0.3-3.6,0.7c-0.1,0-0.2,0.1-0.3,0.1
	C219.2,326.5,219.6,326.9,220.1,327.5L220.1,327.5z M216.7,329.3c-0.1-0.2-0.4-0.5-0.6-0.6H216c-0.6,0.1-1.2,0.5-1.6,1
	c-0.3,0.4-0.5,0.7-0.7,1.1l0,0l-0.1,0.1v0.1c0.1,0.2,0.3,0.4,0.5,0.7l0.1,0.1l0.1-0.1C214.9,330.7,215.7,329.9,216.7,329.3
	L216.7,329.3z M214.5,332.2L214.5,332.2c0.6,0.9,1.3,1.7,2.1,2.4h0.1c0.4-1.5,0.5-3.1,0.2-4.6C216,330.6,215.2,331.4,214.5,332.2
	L214.5,332.2z"/>
<polygon class="st11" points="222.8,300.3 220.9,305.3 222.8,307.8 "/>
<polygon class="st12" points="222.8,300.3 224.6,305.3 222.8,307.8 "/>
<polygon class="st12" points="215.6,305.5 219.7,308.8 222.8,307.8 "/>
<polygon class="st13" points="215.6,305.5 220.9,305.3 222.8,307.8 "/>
<polygon class="st14" points="229.9,305.5 225.8,308.8 222.8,307.8 "/>
<polygon class="st11" points="229.9,305.5 224.6,305.3 222.8,307.8 "/>
<polygon class="st14" points="218.3,313.9 222.8,311 222.8,307.8 "/>
<polygon class="st11" points="218.3,313.9 219.7,308.8 222.8,307.8 "/>
<polygon class="st11" points="227.2,313.9 222.8,311 222.8,307.8 "/>
<polygon class="st12" points="227.2,313.9 225.8,308.8 222.8,307.8 "/>
<path class="st10" d="M227.7,316.5H226l-1.4,2v-2h-1.5v6h1.4v-2.4l1.6,2.4h1.7l-2.1-3.3L227.7,316.5L227.7,316.5z M215.4,316.4
	c-0.8,0-1.5,0.4-1.9,1.1c-0.4,0.6-0.5,1.4-0.5,2.1c0,0.7,0.1,1.4,0.4,2.1c0.3,0.7,1,1.1,1.8,1.1c0.6,0,1.2-0.2,1.6-0.7
	c0.4-0.4,0.6-1,0.7-1.6v-0.3h-1.4v0.2c-0.1,0.8-0.5,0.9-0.9,0.9c-0.2,0-0.4-0.1-0.6-0.5c-0.1-0.4-0.1-0.7-0.1-1.1
	c0-1.2,0.4-1.9,0.9-1.9c0.2,0,0.5,0.1,0.6,0.3c0.1,0.2,0.1,0.3,0.2,0.5v0.2h1.4v-0.3c0-0.6-0.2-1.2-0.6-1.6
	C216.5,316.6,215.9,316.4,215.4,316.4L215.4,316.4z M220.8,318.9c-0.6-0.1-0.8-0.2-0.9-0.2c-0.3-0.1-0.4-0.2-0.4-0.5
	s0.1-0.5,0.6-0.5c0.4,0,0.7,0.3,0.7,0.7c0,0,0,0,0,0v0.3h1.4v-0.4c0-0.4-0.1-0.8-0.3-1.1c-0.4-0.6-1-0.9-1.7-0.8
	c-0.5,0-1,0.2-1.4,0.5c-0.4,0.4-0.6,0.9-0.5,1.4c-0.1,0.7,0.3,1.4,1,1.6c0.1,0,0.3,0.1,1,0.3c0.2,0.1,0.4,0.1,0.6,0.2
	c0.2,0.2,0.3,0.5,0.1,0.7c0,0-0.1,0.1-0.1,0.1c-0.1,0.1-0.3,0.1-0.5,0.1c-0.4,0-0.7-0.3-0.7-0.7c0,0,0,0,0,0v-0.3h-1.6v0.3
	c0,0.5,0.2,1.1,0.6,1.4c0.4,0.4,0.9,0.6,1.4,0.6c1.9,0,2.2-1.1,2.2-2.1c0-0.5-0.2-0.9-0.5-1.2C221.5,319.1,221.1,319,220.8,318.9
	L220.8,318.9z M230,319.9l0.2-0.9l0.3,0.9H230z M230.8,316.5h-1.5l-1.4,6h1.5l0.3-1.2h1.2l0.4,1.2h1.5L230.8,316.5z"/>
<path class="st1" d="M217.2,320.4c0,0.6-0.2,1.1-0.6,1.5c-0.4,0.4-0.9,0.6-1.4,0.6c-0.7,0-1.3-0.3-1.6-0.9c-0.3-0.6-0.4-1.3-0.3-2
	c0-0.7,0.2-1.3,0.5-1.9c0.3-0.6,1-1,1.7-1c0.5,0,1,0.2,1.3,0.6c0.3,0.4,0.5,0.9,0.5,1.4h-0.9c0-0.2-0.1-0.5-0.2-0.7
	c-0.2-0.3-0.5-0.4-0.8-0.4c-0.7,0-1.1,0.7-1.2,2.1c0,0.4,0,0.8,0.1,1.2c0.2,0.5,0.4,0.7,0.8,0.7c0.7,0,1-0.4,1.1-1.2L217.2,320.4z"
	/>
<path class="st1" d="M222.1,320.6c0,1.2-0.7,1.8-2,1.8c-0.5,0-0.9-0.2-1.2-0.5c-0.3-0.4-0.5-0.8-0.5-1.3h0.9c0,0.6,0.4,1,1,1
	c0.2,0,0.5-0.1,0.7-0.2c0.2-0.1,0.3-0.4,0.3-0.6c0-0.2-0.1-0.5-0.3-0.6c-0.2-0.2-0.4-0.3-0.7-0.3c-0.4,0-0.7-0.1-1-0.3
	c-0.6-0.2-0.8-0.7-0.8-1.4c0-0.5,0.2-0.9,0.5-1.2c0.4-0.3,0.8-0.5,1.3-0.4c0.6-0.1,1.2,0.2,1.5,0.7c0.2,0.3,0.3,0.6,0.3,0.9v0.1h-1
	c0-0.6-0.4-1-1-1c-0.6,0-0.8,0.2-0.8,0.7c0,0.3,0.2,0.6,0.5,0.7c0.1,0,0.4,0.1,0.9,0.2c0.4,0.1,0.7,0.3,1,0.5
	C221.9,319.7,222.1,320.2,222.1,320.6L222.1,320.6z"/>
<polygon class="st1" points="224.3,322.2 223.4,322.2 223.4,316.7 224.3,316.7 224.3,318.9 224.6,318.9 226.1,316.7 227.2,316.7 
	225.4,319.2 227.4,322.2 226.3,322.2 224.7,319.8 224.3,319.8 "/>
<path class="st1" d="M230.9,320.2l-0.7-2.1l-0.4,2.1H230.9z M232.5,322.2h-1l-0.4-1.2h-1.6l-0.3,1.2h-1l1.3-5.5h1.1L232.5,322.2z"/>
<linearGradient id="SVGID_3_" gradientUnits="userSpaceOnUse" x1="194.8221" y1="474.65" x2="256.6021" y2="474.65" gradientTransform="matrix(1 0 0 1 14.37 -213.2)">
	<stop  offset="0" style="stop-color:#58A3F2"/>
	<stop  offset="1" style="stop-color:#1A73E6"/>
</linearGradient>
<path id="SVGID" class="st15" d="M266.9,232.1c0.1,0.5,0.2,1.1,0.2,1.6v48.8c0.1,2.7-2.1,4.9-4.8,5H210c-0.2,0-0.5,0-0.7-0.1
	c0.7,2,2.5,3.4,4.6,3.4h52.2c2.7,0,4.9-2.2,4.9-5c0,0,0,0,0,0v-48.7C271,234.7,269.3,232.6,266.9,232.1z"/>
<linearGradient id="SVGID-2_1_" gradientUnits="userSpaceOnUse" x1="190.9021" y1="451.05" x2="253.9021" y2="451.05" gradientTransform="matrix(1 0 0 1 14.37 -213.2)">
	<stop  offset="0" style="stop-color:#76CAFF"/>
	<stop  offset="1" style="stop-color:#2699F0"/>
</linearGradient>
<path id="SVGID-2" class="st16" d="M256.3,242.4c-1.5,0-2.8-1.3-2.8-2.8c0-1.5,1.3-2.8,2.8-2.8c1.5,0,2.8,1.3,2.8,2.8c0,0,0,0,0,0
	c0,1.5-1.2,2.8-2.7,2.8C256.4,242.4,256.3,242.4,256.3,242.4z M217.8,242.4c-1.5,0-2.8-1.3-2.8-2.8l0,0c0-1.5,1.3-2.8,2.8-2.8
	c1.5,0,2.8,1.3,2.8,2.8l0,0C220.5,241.1,219.3,242.4,217.8,242.4z M268.1,233.8c-0.7-2-2.6-3.4-4.7-3.4h-53.1c-2.8,0-5,2.2-5,5v9.9
	h63v-9.9C268.3,234.9,268.2,234.3,268.1,233.8z"/>
<g>
	<defs>
		<path id="SVGID_4_" d="M256.3,242.4c-1.5,0-2.8-1.3-2.8-2.8c0-1.5,1.3-2.8,2.8-2.8c1.5,0,2.8,1.3,2.8,2.8c0,0,0,0,0,0
			c0,1.5-1.2,2.8-2.7,2.8C256.4,242.4,256.3,242.4,256.3,242.4z M217.8,242.4c-1.5,0-2.8-1.3-2.8-2.8l0,0c0-1.5,1.3-2.8,2.8-2.8
			c1.5,0,2.8,1.3,2.8,2.8l0,0C220.5,241.1,219.3,242.4,217.8,242.4z M268.1,233.8c-0.7-2-2.6-3.4-4.7-3.4h-53.1c-2.8,0-5,2.2-5,5
			v9.9h63v-9.9C268.3,234.9,268.2,234.3,268.1,233.8z"/>
	</defs>
	<clipPath id="SVGID_5_">
		<use xlink:href="#SVGID_4_"  style="overflow:visible;"/>
	</clipPath>
	<g class="st17">
		
			<linearGradient id="SVGID-3_1_" gradientUnits="userSpaceOnUse" x1="190.9021" y1="451.1" x2="253.9021" y2="451.1" gradientTransform="matrix(1 0 0 1 14.37 -213.2)">
			<stop  offset="0" style="stop-color:#76CAFF"/>
			<stop  offset="1" style="stop-color:#2699F0"/>
		</linearGradient>
		<rect id="SVGID-3" x="205.3" y="230.5" class="st18" width="63" height="14.8"/>
	</g>
</g>
<path class="st1" d="M256.3,236.9c1.5,0,2.8,1.3,2.8,2.8s-1.3,2.8-2.8,2.8c-1.5,0-2.8-1.3-2.8-2.8
	C253.5,238.2,254.7,236.9,256.3,236.9z"/>
<path class="st1" d="M217.8,236.9c1.5,0,2.8,1.3,2.8,2.8c0,1.5-1.3,2.8-2.8,2.8c-1.5,0-2.8-1.3-2.8-2.8c0-1.5,1.2-2.8,2.7-2.8
	C217.7,236.9,217.7,236.9,217.8,236.9z"/>
<linearGradient id="SVGID_6_" gradientUnits="userSpaceOnUse" x1="190.9221" y1="480.15" x2="253.9221" y2="480.15" gradientTransform="matrix(1 0 0 1 14.37 -213.2)">
	<stop  offset="0" style="stop-color:#DAF0FF"/>
	<stop  offset="1" style="stop-color:#B4E5FB"/>
</linearGradient>
<path class="st19" d="M209.3,245.3h-3.9v38.3c0,2.4,1.8,4.5,4.2,4.9c0.2,0,0.5,0.1,0.8,0.1h53.1c2.7,0,4.9-2.2,4.9-4.9v-38.3h-59.1
	V245.3z"/>
<path class="st7" d="M221.1,253c0,0.9-0.8,1.7-1.7,1.7c-0.9,0-1.7-0.8-1.7-1.7c0-0.9,0.8-1.7,1.7-1.7l0,0c0.9,0,1.7,0.7,1.7,1.6
	C221.1,252.9,221.1,253,221.1,253z"/>
<path class="st7" d="M228.2,253c0,0.9-0.8,1.7-1.7,1.7c-0.9,0-1.7-0.8-1.7-1.7c0-0.9,0.8-1.7,1.7-1.7l0,0c0.9,0,1.7,0.7,1.7,1.6
	C228.2,252.9,228.2,253,228.2,253z"/>
<path class="st7" d="M235.3,253c0,0.9-0.8,1.7-1.7,1.7c-0.9,0-1.7-0.8-1.7-1.7c0-0.9,0.8-1.7,1.7-1.7l0,0c0.9,0,1.7,0.7,1.7,1.6
	C235.3,252.9,235.3,253,235.3,253z"/>
<path class="st7" d="M242.3,253c0,0.9-0.8,1.7-1.7,1.7c-0.9,0-1.7-0.8-1.7-1.7c0-0.9,0.8-1.7,1.7-1.7l0,0c0.9-0.1,1.6,0.6,1.7,1.5
	C242.3,252.8,242.3,252.9,242.3,253z"/>
<path class="st7" d="M249.4,253c0,0.9-0.8,1.7-1.7,1.7c-0.9,0-1.7-0.8-1.7-1.7c0-0.9,0.8-1.7,1.7-1.7l0,0c0.9,0,1.7,0.7,1.7,1.6
	C249.4,252.9,249.4,253,249.4,253z"/>
<path class="st7" d="M256.5,253c0,0.9-0.8,1.7-1.7,1.7c-0.9,0-1.7-0.8-1.7-1.7c0-0.9,0.8-1.7,1.7-1.7l0,0c0.9,0,1.7,0.7,1.7,1.6
	C256.5,252.9,256.5,253,256.5,253z"/>
<path class="st7" d="M221.1,259.4c0,0.9-0.8,1.7-1.7,1.7s-1.7-0.8-1.7-1.7c0-0.9,0.8-1.7,1.7-1.7C220.3,257.7,221,258.5,221.1,259.4
	z"/>
<path class="st7" d="M228.2,259.4c0,0.9-0.8,1.7-1.7,1.7s-1.7-0.8-1.7-1.7c0-0.9,0.8-1.7,1.7-1.7
	C227.4,257.7,228.1,258.5,228.2,259.4z"/>
<path class="st7" d="M235.3,259.4c0,0.9-0.8,1.7-1.7,1.7s-1.7-0.8-1.7-1.7c0-0.9,0.8-1.7,1.7-1.7
	C234.5,257.7,235.2,258.5,235.3,259.4z"/>
<path class="st7" d="M242.3,259.4c0,0.9-0.8,1.7-1.7,1.7s-1.7-0.8-1.7-1.7c0-0.9,0.8-1.7,1.7-1.7
	C241.5,257.7,242.3,258.4,242.3,259.4C242.3,259.4,242.3,259.4,242.3,259.4z"/>
<path class="st7" d="M249.4,259.4c0,0.9-0.8,1.7-1.7,1.7s-1.7-0.8-1.7-1.7c0-0.9,0.8-1.7,1.7-1.7
	C248.6,257.7,249.3,258.5,249.4,259.4z"/>
<path class="st7" d="M256.5,259.4c0,0.9-0.8,1.7-1.7,1.7s-1.7-0.8-1.7-1.7c0-0.9,0.8-1.7,1.7-1.7
	C255.7,257.7,256.4,258.5,256.5,259.4z"/>
<path class="st7" d="M221.1,265.9c0,0.9-0.8,1.7-1.7,1.7s-1.7-0.8-1.7-1.7c0-0.9,0.8-1.7,1.7-1.7C220.3,264.2,221,265,221.1,265.9z"
	/>
<path class="st7" d="M228.2,265.9c0,0.9-0.8,1.7-1.7,1.7s-1.7-0.8-1.7-1.7c0-0.9,0.8-1.7,1.7-1.7C227.4,264.2,228.1,265,228.2,265.9
	z"/>
<path class="st7" d="M235.3,265.9c0,0.9-0.8,1.7-1.7,1.7s-1.7-0.8-1.7-1.7c0-0.9,0.8-1.7,1.7-1.7C234.5,264.2,235.2,265,235.3,265.9
	z"/>
<path class="st7" d="M242.3,265.9c0,0.9-0.8,1.7-1.7,1.7s-1.7-0.8-1.7-1.7c0-0.9,0.8-1.7,1.7-1.7
	C241.5,264.2,242.3,264.9,242.3,265.9C242.3,265.9,242.3,265.9,242.3,265.9z"/>
<path class="st7" d="M249.4,265.9c0,0.9-0.8,1.7-1.7,1.7s-1.7-0.8-1.7-1.7c0-0.9,0.8-1.7,1.7-1.7C248.6,264.2,249.3,265,249.4,265.9
	z"/>
<path class="st7" d="M256.5,265.9c0,0.9-0.8,1.7-1.7,1.7s-1.7-0.8-1.7-1.7c0-0.9,0.8-1.7,1.7-1.7C255.7,264.2,256.4,265,256.5,265.9
	z"/>
<path class="st7" d="M221.1,272.4c0,0.9-0.8,1.7-1.7,1.7s-1.7-0.8-1.7-1.7c0-0.9,0.8-1.7,1.7-1.7C220.3,270.7,221,271.5,221.1,272.4
	z"/>
<path class="st7" d="M228.2,272.4c0,0.9-0.8,1.7-1.7,1.7s-1.7-0.8-1.7-1.7c0-0.9,0.8-1.7,1.7-1.7
	C227.4,270.7,228.1,271.5,228.2,272.4z"/>
<path class="st7" d="M235.3,272.4c0,0.9-0.8,1.7-1.7,1.7s-1.7-0.8-1.7-1.7c0-0.9,0.8-1.7,1.7-1.7
	C234.5,270.7,235.2,271.5,235.3,272.4z"/>
<path class="st7" d="M242.3,272.4c0,0.9-0.8,1.7-1.7,1.7s-1.7-0.8-1.7-1.7c0-0.9,0.8-1.7,1.7-1.7
	C241.5,270.7,242.3,271.4,242.3,272.4C242.3,272.4,242.3,272.4,242.3,272.4z"/>
<path class="st7" d="M249.4,272.4c0,0.9-0.8,1.7-1.7,1.7s-1.7-0.8-1.7-1.7c0-0.9,0.8-1.7,1.7-1.7
	C248.6,270.7,249.3,271.5,249.4,272.4z"/>
<path class="st7" d="M256.5,272.4c0,0.9-0.8,1.7-1.7,1.7s-1.7-0.8-1.7-1.7c0-0.9,0.8-1.7,1.7-1.7
	C255.7,270.7,256.4,271.5,256.5,272.4z"/>
<path class="st20" d="M229.5,259.4H229c0,1.4-1.1,2.5-2.5,2.5s-2.5-1.1-2.5-2.5s1.1-2.5,2.5-2.5c1.4,0,2.5,1.1,2.5,2.5c0,0,0,0,0,0
	h1c0-2-1.6-3.6-3.6-3.6s-3.6,1.6-3.6,3.6s1.6,3.6,3.6,3.6c2,0,3.6-1.6,3.6-3.6c0,0,0,0,0,0H229.5z"/>
<path class="st21" d="M83.2,316.3c0-0.4-0.1-0.6-0.4-0.6c-0.6,0-1.5,1.9-1.9,4C82.2,319,83,317.8,83.2,316.3 M67.3,334
	c0,0.5,0.2,1.3,0.7,1.3c2.2,0,5-5.8,5.1-10.4C69.3,327.5,67.3,331.3,67.3,334 M87.3,314.3h2.3l-1.1,4l1.8-0.5l1-3.5h2.1l-1.7,5.9
	l2.9-3.8l0.6-2.1h2l-1.2,4.2c-0.1,0.2-0.3,1-0.1,1c0.6-0.6,1.1-1.3,1.4-2.1c0.6-1,1.1-2.1,1.5-3.2h2.1l-1,3.6l2.7-3.6H121
	l-44.3,18.9l0.9-3l34.8-14.2h-6.8l-0.7,2.2l-2.2,0.7l0.9-2.9h-1.1l-3,3.9l-1.9,0.6c0.1-0.9,0.3-1.9,0.5-2.8l-0.9,1.6
	c-0.7,1.3-1.3,2.3-2.3,2.3c-0.8,0-1.1-0.7-1.1-1.7c0-0.3,0.1-0.7,0.1-1l-2.8,3.8l-2.3,0.8l1.2-4.1l-1.8,0.5l-1.2,4.3l-2.6,0.8l1.1-4
	l-2.6,3.3c-1.1,1.4-2.2,2.2-3.1,2.2c-1.7,0-2-2.9-1.8-4c-0.6,0.2-1.1,0.5-1.6,0.8c0.4,6.1-5.8,14.6-9.8,14.6c-1.2,0-2.2-0.9-2.2-3.1
	c0-3.2,2.4-7.8,8.8-11.4c-0.1-1.1-0.6-2.2-1.4-3v-0.1c2.2-1.7,3.8-3.5,3.8-5.2c0-0.6-0.4-1.1-1-1.1c-0.1,0-0.1,0-0.2,0
	c-1.2,0-2.8,1.5-3.6,2.7h-0.4l0.7-2.4c1.4-1.8,3.5-2.9,5.7-2.9c1.5,0,2.7,0.6,2.7,2.3c0,2.1-1.8,4.2-4.4,5.8c0.6,0.7,1,1.5,1.3,2.3
	c0.6-0.3,1.3-0.7,2-1c0.8-3.8,3.4-6.6,5.8-6.6c0.8-0.1,1.6,0.5,1.7,1.3c0,0.1,0,0.2,0,0.4c0,2.2-2.1,4-5,5.5
	c-0.1,0.4-0.1,0.7-0.1,1.1c0,1,0.2,1.5,0.6,1.5c0.4,0,0.7-0.3,0.9-0.6l3.9-4.6L87.3,314.3z"/>
<image style="overflow:visible;opacity:0.65;enable-background:new    ;" width="62" height="62" xlink:href="C3D7886.png"  transform="matrix(0.9839 0 0 0.9839 165.7021 230.39)">
</image>
<linearGradient id="SVGID_7_" gradientUnits="userSpaceOnUse" x1="166.7721" y1="474.4" x2="196.5021" y2="474.4" gradientTransform="matrix(1 0 0 1 14.37 -213.2)">
	<stop  offset="0" style="stop-color:#25BC86"/>
	<stop  offset="1" style="stop-color:#0BADB9"/>
</linearGradient>
<circle class="st22" cx="196" cy="261.2" r="14.9"/>
<g id="Check-2">
	
		<linearGradient id="SVGID_8_" gradientUnits="userSpaceOnUse" x1="173.4321" y1="474.35" x2="189.8321" y2="474.35" gradientTransform="matrix(1 0 0 1 14.37 -213.2)">
		<stop  offset="0" style="stop-color:#E4FFFF"/>
		<stop  offset="1" style="stop-color:#84CFBD"/>
	</linearGradient>
	<polygon class="st23" points="194,261.4 191.1,258.2 187.8,261.4 187.8,261.4 193.9,267.5 204.2,257.2 201.9,254.8 	"/>
</g>
</svg>
