<?xml version="1.0" encoding="utf-8"?>
<!-- Generator: Adobe Illustrator 23.1.0, SVG Export Plug-In . SVG Version: 6.00 Build 0)  -->
<svg version="1.1" id="Слой_1" xmlns="http://www.w3.org/2000/svg" xmlns:xlink="http://www.w3.org/1999/xlink" x="0px" y="0px"
	 viewBox="0 0 319.5 592.8" style="enable-background:new 0 0 319.5 592.8;" xml:space="preserve">
<style type="text/css">
	.st0{fill:url(#SVGID_1_);}
	.st1{fill:#FFFFFF;}
	.st2{clip-path:url(#SVGID_3_);}
	.st3{clip-path:url(#SVGID_5_);}
	.st4{clip-path:url(#SVGID_7_);}
	.st5{clip-path:url(#SVGID_9_);}
	.st6{clip-path:url(#SVGID_11_);}
	.st7{clip-path:url(#SVGID_13_);}
	.st8{clip-path:url(#SVGID_15_);}
	.st9{clip-path:url(#SVGID_17_);}
	.st10{clip-path:url(#SVGID_19_);}
	.st11{clip-path:url(#SVGID_21_);}
	.st12{clip-path:url(#SVGID_23_);}
	.st13{clip-path:url(#SVGID_25_);}
	.st14{clip-path:url(#SVGID_27_);}
	.st15{clip-path:url(#SVGID_29_);}
	.st16{clip-path:url(#SVGID_31_);}
	.st17{clip-path:url(#SVGID_33_);}
	.st18{clip-path:url(#SVGID_35_);}
	.st19{fill:#F75911;}
	.st20{fill:#376DA6;}
	.st21{fill:#00A0F4;}
	.st22{fill:url(#SVGID_36_);}
	.st23{fill:url(#SVGID_37_);}
	.st24{fill:#006ACD;}
	.st25{fill:none;}
	.st26{fill:#666666;}
	.st27{fill:#B3B3B3;}
	.st28{fill:#999999;}
	.st29{fill:#E5E5E5;}
	.st30{clip-path:url(#SVGID_39_);}
	.st31{clip-path:url(#SVGID_41_);}
	.st32{fill:url(#SVGID_42_);}
	.st33{display:none;fill:#00A0F4;}
	.st34{fill:url(#SVGID_43_);}
	.st35{fill:url(#SVGID_44_);}
</style>
<title>sceen-team</title>
<linearGradient id="SVGID_1_" gradientUnits="userSpaceOnUse" x1="-15.8" y1="349.25" x2="304.7" y2="349.25" gradientTransform="matrix(1 0 0 1 15.8 -213.7)">
	<stop  offset="0" style="stop-color:#0055CF"/>
	<stop  offset="1" style="stop-color:#00BBEE"/>
</linearGradient>
<path class="st0" d="M0,0v271.1c124.3-10.8,169.3-120.6,294-120.6c8.9,0,17.7,0.5,26.5,1.6V0H0z"/>
<image style="overflow:visible;opacity:0.32;enable-background:new    ;" width="351" height="564" xlink:href="FB7DDFDD.png"  transform="matrix(1 0 0 1 -14.87 29.89)">
</image>
<path class="st1" d="M287.1,553.4H33c-4.6,0-8.3-3.7-8.3-8.3c0,0,0,0,0,0V76.5c0-4.6,3.7-8.3,8.3-8.3c0,0,0,0,0,0h254.1
	c4.6,0,8.3,3.7,8.3,8.3c0,0,0,0,0,0v468.6C295.4,549.7,291.7,553.4,287.1,553.4C287.1,553.4,287.1,553.4,287.1,553.4z"/>
<image style="overflow:visible;opacity:0.32;enable-background:new    ;" width="311" height="246" xlink:href="FB7DDFDF.png"  transform="matrix(0.9959 0 0 0.9959 5.7821 221.89)">
</image>
<path class="st1" d="M268.8,427.8H52.1c-4.1,0-7.4-3.2-7.4-7.3v-152c0-4.1,3.3-7.3,7.4-7.3h216.7c4.1,0,7.4,3.2,7.4,7.3v152
	C276.2,424.6,272.9,427.8,268.8,427.8"/>
<g>
	<defs>
		<path id="SVGID_2_" d="M81.5,304.6c0,7.6-6.1,13.7-13.7,13.7s-13.7-6.1-13.7-13.7c0-7.6,6.1-13.7,13.7-13.7
			C75.3,290.9,81.5,297,81.5,304.6C81.5,304.5,81.5,304.6,81.5,304.6z"/>
	</defs>
	<clipPath id="SVGID_3_">
		<use xlink:href="#SVGID_2_"  style="overflow:visible;"/>
	</clipPath>
	<g class="st2">
		
			<image style="overflow:visible;enable-background:new    ;" width="124" height="128" xlink:href="FB7DDFDA.png"  transform="matrix(0.2182 0 0 0.2182 54.5 290.7336)">
		</image>
	</g>
</g>
<image style="overflow:visible;opacity:0.48;enable-background:new    ;" width="80" height="78" xlink:href="FB7DDFDB.png"  transform="matrix(0.9872 0 0 0.9872 209.6628 205.89)">
</image>
<g>
	<defs>
		<path id="SVGID_4_" d="M239.2,256.4c0.3,1.8,0.3,3.6,0.1,5.4c-3.3-1.8-6-4.5-7.8-7.8c1.6,0.8,3.3,1.4,5.1,1.9
			C237.5,256.1,238.4,256.3,239.2,256.4L239.2,256.4z"/>
	</defs>
	<clipPath id="SVGID_5_">
		<use xlink:href="#SVGID_4_"  style="overflow:visible;"/>
	</clipPath>
	<g class="st3">
		<g>
			<defs>
				
					<rect id="SVGID_6_" x="232.7" y="253.2" transform="matrix(0.2463 -0.9692 0.9692 0.2463 -72.4853 422.6026)" width="5.6" height="9.4"/>
			</defs>
			<clipPath id="SVGID_7_">
				<use xlink:href="#SVGID_6_"  style="overflow:visible;"/>
			</clipPath>
			<g class="st4">
				
					<image style="overflow:visible;enable-background:new    ;" width="28" height="18" xlink:href="FB7DDFE5.png"  transform="matrix(0.39 0.1 0.1 -0.39 229.06 260.41)">
				</image>
			</g>
		</g>
	</g>
</g>
<g>
	<defs>
		<path id="SVGID_8_" d="M239,255.3c-2.9-0.5-5.7-1.4-8.2-2.9l0,0c-1.5-3.6-2-7.6-1.3-11.4c3.4,2.7,6.2,6.1,8,10
			C238.2,252.4,238.7,253.8,239,255.3L239,255.3z"/>
	</defs>
	<clipPath id="SVGID_9_">
		<use xlink:href="#SVGID_8_"  style="overflow:visible;"/>
	</clipPath>
	<g class="st5">
		<g>
			<defs>
				
					<rect id="SVGID_10_" x="228.2" y="241.9" transform="matrix(0.2463 -0.9692 0.9692 0.2463 -64.1831 414.0569)" width="11.8" height="12.8"/>
			</defs>
			<clipPath id="SVGID_11_">
				<use xlink:href="#SVGID_10_"  style="overflow:visible;"/>
			</clipPath>
			<g class="st6">
				
					<image style="overflow:visible;enable-background:new    ;" width="40" height="34" xlink:href="FB7DDFE7.png"  transform="matrix(0.39 0.1 0.1 -0.39 225.14 253.33)">
				</image>
			</g>
		</g>
	</g>
</g>
<g>
	<defs>
		<path id="SVGID_12_" d="M247.7,256.1c1.3,2.7,2.8,5.4,4.4,7.9c-2.7,0.4-5.4,0.3-8-0.4c-1.3-0.3-2.5-0.8-3.7-1.3
			c0.3-1.9,0.3-3.9,0-5.8C242.8,256.8,245.3,256.7,247.7,256.1L247.7,256.1z"/>
	</defs>
	<clipPath id="SVGID_13_">
		<use xlink:href="#SVGID_12_"  style="overflow:visible;"/>
	</clipPath>
	<g class="st7">
		<g>
			<defs>
				
					<rect id="SVGID_14_" x="242.1" y="253.4" transform="matrix(0.2463 -0.9692 0.9692 0.2463 -66.4269 434.6153)" width="8.2" height="13.2"/>
			</defs>
			<clipPath id="SVGID_15_">
				<use xlink:href="#SVGID_14_"  style="overflow:visible;"/>
			</clipPath>
			<g class="st8">
				
					<image style="overflow:visible;enable-background:new    ;" width="40" height="24" xlink:href="FB7DDFEA.png"  transform="matrix(0.39 0.1 0.1 -0.39 237.61 263.09)">
				</image>
			</g>
		</g>
	</g>
</g>
<g>
	<defs>
		<path id="SVGID_16_" d="M262.6,258.8c-2.6,2.5-5.9,4.3-9.5,5.1c-1.7-2.6-3.1-5.2-4.4-8c2.7-0.8,5.3-2,7.6-3.6
			C258.1,254.7,260.3,256.9,262.6,258.8z"/>
	</defs>
	<clipPath id="SVGID_17_">
		<use xlink:href="#SVGID_16_"  style="overflow:visible;"/>
	</clipPath>
	<g class="st9">
		<g>
			<defs>
				
					<rect id="SVGID_18_" x="249.4" y="251.1" transform="matrix(0.2463 -0.9692 0.9692 0.2463 -57.7796 442.1853)" width="12" height="14.2"/>
			</defs>
			<clipPath id="SVGID_19_">
				<use xlink:href="#SVGID_18_"  style="overflow:visible;"/>
			</clipPath>
			<g class="st10">
				
					<image style="overflow:visible;enable-background:new    ;" width="40" height="34" xlink:href="FB7DDFEB.png"  transform="matrix(0.39 0.1 0.1 -0.39 245.93 263.06)">
				</image>
			</g>
		</g>
	</g>
</g>
<g>
	<defs>
		<path id="SVGID_20_" d="M267.6,237.9c1.3,3.7,1.5,7.6,0.5,11.4c-0.8,3.2-2.4,6.2-4.7,8.7c-2.4-1.8-4.4-4-6.2-6.4
			C261.8,248,265.4,243.3,267.6,237.9L267.6,237.9z"/>
	</defs>
	<clipPath id="SVGID_21_">
		<use xlink:href="#SVGID_20_"  style="overflow:visible;"/>
	</clipPath>
	<g class="st11">
		<g>
			<defs>
				
					<rect id="SVGID_22_" x="253.2" y="242.4" transform="matrix(0.2463 -0.9692 0.9692 0.2463 -41.2382 441.7748)" width="20.5" height="10"/>
			</defs>
			<clipPath id="SVGID_23_">
				<use xlink:href="#SVGID_22_"  style="overflow:visible;"/>
			</clipPath>
			<g class="st12">
				
					<image style="overflow:visible;enable-background:new    ;" width="32" height="55" xlink:href="FB7DDFED.png"  transform="matrix(0.39 0.1 0.1 -0.39 254.81 256.97)">
				</image>
			</g>
		</g>
	</g>
</g>
<g>
	<defs>
		<path id="SVGID_24_" d="M253.8,225.3c5.9,1.5,10.7,5.6,13.2,11.2c-2.1,5.7-5.7,10.6-10.5,14.3c-1.7-2.6-2.9-5.4-3.6-8.4
			c-1.5-5.7-1.5-11.6-0.1-17.3C253.1,225.1,253.5,225.2,253.8,225.3z"/>
	</defs>
	<clipPath id="SVGID_25_">
		<use xlink:href="#SVGID_24_"  style="overflow:visible;"/>
	</clipPath>
	<g class="st13">
		<g>
			<defs>
				
					<rect id="SVGID_26_" x="245.9" y="230.4" transform="matrix(0.2463 -0.9692 0.9692 0.2463 -36.9398 429.8048)" width="24" height="16.6"/>
			</defs>
			<clipPath id="SVGID_27_">
				<use xlink:href="#SVGID_26_"  style="overflow:visible;"/>
			</clipPath>
			<g class="st14">
				
					<image style="overflow:visible;enable-background:new    ;" width="48" height="64" xlink:href="59315AF6.png"  transform="matrix(0.39 0.1 0.1 -0.39 245.65 249.16)">
				</image>
			</g>
		</g>
	</g>
</g>
<g>
	<defs>
		<path id="SVGID_28_" d="M251.9,242.6c0.7,3.1,2,6.1,3.8,8.8c-2.2,1.6-4.8,2.8-7.4,3.5c-1.2-2.6-2.3-5.2-3.2-7.9
			c-2.2-6.7-3.5-13.7-3.8-20.8c3.3-1.4,6.9-1.9,10.5-1.3C250.8,228.4,250,234.6,251.9,242.6L251.9,242.6z"/>
	</defs>
	<clipPath id="SVGID_29_">
		<use xlink:href="#SVGID_28_"  style="overflow:visible;"/>
	</clipPath>
	<g class="st15">
		<g>
			<defs>
				
					<rect id="SVGID_30_" x="233.3" y="229.3" transform="matrix(0.2463 -0.9692 0.9692 0.2463 -44.8523 421.1314)" width="30" height="20.2"/>
			</defs>
			<clipPath id="SVGID_31_">
				<use xlink:href="#SVGID_30_"  style="overflow:visible;"/>
			</clipPath>
			<g class="st16">
				
					<image style="overflow:visible;enable-background:new    ;" width="56" height="78" xlink:href="59315AF1.png"  transform="matrix(0.39 0.1 0.1 -0.39 233.67 252.37)">
				</image>
			</g>
		</g>
	</g>
</g>
<g>
	<defs>
		<path id="SVGID_32_" d="M240.2,226.7c0.3,7,1.6,14,3.8,20.7c0.9,2.7,2,5.3,3.2,7.8c-2.3,0.4-4.7,0.5-7.1,0.3
			c-0.4-1.7-1-3.3-1.7-4.9c-1.9-4.2-4.9-7.9-8.7-10.7v-0.3C231.1,234,235,229.2,240.2,226.7L240.2,226.7z"/>
	</defs>
	<clipPath id="SVGID_33_">
		<use xlink:href="#SVGID_32_"  style="overflow:visible;"/>
	</clipPath>
	<g class="st17">
		<g>
			<defs>
				
					<rect id="SVGID_34_" x="226.1" y="230.6" transform="matrix(0.2463 -0.9692 0.9692 0.2463 -52.594 414.3004)" width="27.9" height="20.8"/>
			</defs>
			<clipPath id="SVGID_35_">
				<use xlink:href="#SVGID_34_"  style="overflow:visible;"/>
			</clipPath>
			<g class="st18">
				
					<image style="overflow:visible;enable-background:new    ;" width="56" height="72" xlink:href="59315AF2.png"  transform="matrix(0.39 0.1 0.1 -0.39 225.34 252.59)">
				</image>
			</g>
		</g>
	</g>
</g>
<path class="st19" d="M256.6,250.7c4.8-3.7,8.4-8.6,10.5-14.3c0.2,0.5,0.4,0.9,0.6,1.4c-2.2,5.4-5.8,10.1-10.4,13.7
	C257,251.3,256.8,251,256.6,250.7L256.6,250.7z"/>
<path class="st19" d="M257.2,251.6c1.8,2.4,3.8,4.6,6.2,6.4l-0.8,0.8c-2.3-1.9-4.5-4.1-6.3-6.5C256.6,252,256.9,251.8,257.2,251.6
	L257.2,251.6z"/>
<path class="st19" d="M256.6,250.7l0.6,0.9l-0.9,0.6l-0.6-0.9C256,251.2,256.4,251,256.6,250.7L256.6,250.7z"/>
<path class="st19" d="M255.7,251.4l0.6,0.9c-2.3,1.6-4.9,2.8-7.6,3.6c-0.1-0.3-0.3-0.7-0.5-1C250.9,254.2,253.4,253,255.7,251.4z"/>
<path class="st19" d="M253.2,263.8c-0.4,0.1-0.8,0.1-1.1,0.2c-1.6-2.5-3.1-5.2-4.4-7.9c0.1,0,0.3-0.1,0.4-0.1s0.4-0.1,0.6-0.2
	C250,258.6,251.5,261.2,253.2,263.8z"/>
<path class="st19" d="M251.9,242.6c-1.6-5.8-1.6-11.9-0.1-17.7c0.4,0,0.7,0.1,1.1,0.2c-1.5,5.7-1.5,11.6,0.1,17.3
	c0.7,3,1.9,5.8,3.6,8.4l-0.9,0.6C254,248.7,252.7,245.7,251.9,242.6L251.9,242.6z"/>
<path class="st19" d="M248.1,256c-0.1,0-0.3,0.1-0.4,0.1c-0.1-0.3-0.3-0.7-0.5-1c0.2,0,0.4-0.1,0.6-0.1s0.3-0.1,0.4-0.1
	c0.2,0.3,0.3,0.7,0.5,1C248.5,255.9,248.3,256,248.1,256z"/>
<path class="st19" d="M247.2,255.1c0.2,0.3,0.3,0.7,0.5,1c-2.4,0.5-4.9,0.7-7.3,0.4c-0.1-0.4-0.1-0.7-0.2-1.1
	C242.5,255.7,244.9,255.6,247.2,255.1z"/>
<path class="st19" d="M240.3,256.5c0.3,1.9,0.3,3.9,0,5.8c-0.3-0.2-0.7-0.3-1-0.5c0.2-1.8,0.2-3.6-0.1-5.4
	C239.6,256.4,240,256.5,240.3,256.5z"/>
<path class="st19" d="M240.1,255.4c0.1,0.4,0.2,0.7,0.2,1.1c-0.4,0-0.7-0.1-1.1-0.1c-0.1-0.4-0.1-0.7-0.2-1.1
	C239.4,255.3,239.7,255.4,240.1,255.4z"/>
<path class="st19" d="M239.2,256.4c-0.8-0.1-1.7-0.3-2.5-0.5c-1.8-0.4-3.5-1.1-5.1-1.9l0,0c-0.3-0.5-0.6-1.1-0.8-1.7
	c2.5,1.4,5.3,2.4,8.2,2.9C239.1,255.6,239.2,256,239.2,256.4L239.2,256.4z"/>
<path class="st19" d="M229.7,239.8c3.8,2.8,6.8,6.4,8.7,10.7c0.8,1.6,1.3,3.2,1.7,4.9c-0.4,0-0.7-0.1-1.1-0.2
	c-0.4-1.5-0.9-2.9-1.5-4.3c-1.8-3.9-4.6-7.4-8-10C229.5,240.5,229.6,240.2,229.7,239.8L229.7,239.8z"/>
<path class="st19" d="M245.1,247c0.9,2.7,2,5.3,3.2,7.9c-0.1,0-0.3,0.1-0.4,0.1c-0.2,0.1-0.4,0.1-0.6,0.1c-1.2-2.5-2.3-5.1-3.2-7.8
	c-2.2-6.7-3.5-13.7-3.8-20.7c0.3-0.2,0.7-0.3,1-0.5C241.6,233.2,242.8,240.2,245.1,247z"/>
<path class="st20" d="M238.2,235.1l0.3,0.3c-0.2-0.1-0.3-0.3-0.4-0.5L238.2,235.1L238.2,235.1z"/>
<path class="st21" d="M238.4,235.4c-0.2-0.1-0.3-0.3-0.4-0.5l-0.1-0.1l-0.1-0.2l-0.1-0.1c-0.1-0.2-0.3-0.3-0.4-0.5
	c-0.3-0.4-0.6-0.8-0.8-1.2c-0.1-0.2-0.3-0.5-0.4-0.7c-0.4-0.7-0.7-1.4-0.9-2.2c-1.3-4-1.3-8.9-0.1-14.6c0.1-0.3,0.1-0.6,0.2-1
	s0.3-1.1,0.4-1.6c0.2-0.9,0.5-1.8,0.7-2.7l-1.2-0.4c-2.7,9.7-3.2,17.8,0,23.3c0.7,1.2,1.5,2.2,2.5,3.1c0.3,0.3,0.6,0.5,0.9,0.8v-1.1
	L238.4,235.4z"/>
<path class="st1" d="M235.3,214.4c0.1-0.5,0.3-1.1,0.4-1.6C235.6,213.3,235.5,213.9,235.3,214.4z"/>
<linearGradient id="SVGID_36_" gradientUnits="userSpaceOnUse" x1="173.74" y1="444.41" x2="218.09" y2="444.41" gradientTransform="matrix(1 0 0 1 18.16 -201.16)">
	<stop  offset="0" style="stop-color:#8BCCFF"/>
	<stop  offset="1" style="stop-color:#B4E5FB"/>
</linearGradient>
<path class="st22" d="M235.3,209.6l-7.1-2.4c-2.8,8.5-6.9,14.4-15.1,17.1c-8.1-2.6-12.3-8.5-15.1-17l-7.1,2.5
	c2.8,9.7,3.3,17.8,0.1,23.3l0.1,46.2l44.2-0.1l-0.1-46.2C232.1,227.4,232.5,219.3,235.3,209.6z"/>
<path class="st1" d="M226.9,206.7l1.3,0.4c-2.8,8.5-6.9,14.4-15.1,17.1c-8.1-2.6-12.3-8.5-15.1-17l1.3-0.5
	c2.7,8.4,6.8,13.9,13.8,16.3C220.1,220.7,224.2,215.2,226.9,206.7z"/>
<linearGradient id="SVGID_37_" gradientUnits="userSpaceOnUse" x1="182.15" y1="416.01" x2="209.73" y2="416.01" gradientTransform="matrix(1 0 0 1 18.16 -201.16)">
	<stop  offset="0" style="stop-color:#62B2FF"/>
	<stop  offset="1" style="stop-color:#98CBFB"/>
</linearGradient>
<path class="st23" d="M226.9,206.7c-2.7,8.5-6.7,14-13.7,16.3c-7-2.3-11.1-7.8-13.8-16.3c2.8,1.5,8.1,2.8,13.8,2.7
	c2.7,0,5.4-0.3,8-0.8C223.2,208.3,225.1,207.6,226.9,206.7z"/>
<path class="st1" d="M189.6,233.3l0.1-0.2L189.6,233.3z"/>
<path class="st24" d="M237.8,236.1c-1-0.9-1.8-1.9-2.5-3.1l0.1,46.2h3.4l-0.1-42.3C238.4,236.6,238.1,236.3,237.8,236.1z"/>
<path class="st24" d="M188.5,236.2c-0.3,0.3-0.6,0.5-0.9,0.8l0.1,42.3h3.4l-0.1-46.2C190.4,234.3,189.5,235.3,188.5,236.2z"/>
<path class="st21" d="M190.9,209.7l-1.2,0.4c2.4,8.4,3,15,1.3,20.1l0,0c-0.1,0.2-0.1,0.4-0.2,0.6s-0.1,0.3-0.2,0.4l-0.1,0.2
	l-0.3,0.6l-0.3,0.6c-0.1,0.1-0.1,0.3-0.2,0.4v0.1l-0.1,0.2l0,0c-0.1,0.1-0.2,0.3-0.3,0.4c-0.1,0.2-0.2,0.4-0.4,0.5l0,0
	c-0.1,0.2-0.3,0.3-0.4,0.5c-0.3,0.3-0.6,0.7-0.9,1v1.1c0.3-0.2,0.6-0.5,0.9-0.8c1-0.9,1.9-2,2.5-3.2
	C194.2,227.5,193.7,219.4,190.9,209.7z"/>
<path class="st24" d="M216.6,237.9l0.1,20.9h3.3v3.9h-11.6v-3.9h3.3v-15.4l-2.2,2.3l-2.6-2.8l4.8-5H216.6z"/>
<rect x="47.1" y="138.7" class="st25" width="226.3" height="95.4"/>
<path class="st26" d="M62.7,138.7v7.6h-1v-6.7H58v6.7h-1v-7.6H62.7z"/>
<path class="st26" d="M69.2,143.6c0,0.4-0.1,0.7-0.2,1.1c-0.1,0.3-0.3,0.6-0.5,0.9c-0.2,0.3-0.5,0.5-0.8,0.6c-0.3,0.2-0.7,0.2-1,0.2
	c-0.3,0-0.7-0.1-1-0.2c-0.3-0.1-0.6-0.3-0.8-0.6c-0.2-0.3-0.4-0.6-0.5-0.9c-0.3-0.7-0.3-1.5,0-2.2c0.1-0.3,0.3-0.6,0.5-0.9
	c0.2-0.2,0.5-0.4,0.8-0.6c0.3-0.2,0.7-0.2,1-0.2c0.3,0,0.7,0.1,1,0.2c0.3,0.1,0.6,0.3,0.8,0.6c0.2,0.3,0.4,0.6,0.5,0.9
	C69.1,142.9,69.2,143.2,69.2,143.6z M65,143.6c0,0.3,0,0.5,0.1,0.8c0.1,0.2,0.2,0.4,0.4,0.6c0.1,0.2,0.3,0.3,0.5,0.4
	c0.4,0.1,0.8,0.1,1.2,0c0.2-0.1,0.4-0.2,0.5-0.4c0.1-0.2,0.3-0.4,0.4-0.6c0.1-0.5,0.1-1.1,0-1.6c-0.1-0.2-0.2-0.4-0.4-0.6
	c-0.1-0.2-0.3-0.3-0.5-0.4c-0.4-0.1-0.8-0.1-1.2,0c-0.2,0.1-0.4,0.2-0.5,0.4c-0.1,0.2-0.3,0.4-0.4,0.6S65,143.3,65,143.6z"/>
<path class="st26" d="M74.6,140.9v5.4h-0.9v-4.6h-2l-0.2,2.9c0,0.5-0.2,1-0.5,1.3c-0.3,0.3-0.7,0.5-1.1,0.5h-0.3v-0.8h0.1
	c0.6,0,0.9-0.3,1-1l0.3-3.7L74.6,140.9z"/>
<path class="st26" d="M75.5,140.9h1l1.6,4.1l1.6-4.1h1l-2.3,5.9c-0.1,0.4-0.4,0.9-0.7,1.2c-0.2,0.2-0.6,0.3-0.9,0.3h-0.3v-0.7
	c0.4,0,0.8-0.3,0.9-0.7l0.2-0.6L75.5,140.9z"/>
<path class="st26" d="M85.7,140.9v5.4h-0.9v-2c-0.1,0.1-0.3,0.1-0.4,0.2c-0.2,0-0.3,0.1-0.5,0.1c-0.2,0-0.4,0.1-0.7,0.1
	c-0.3,0-0.5,0-0.8-0.1c-0.2-0.1-0.4-0.2-0.6-0.4c-0.2-0.2-0.3-0.4-0.4-0.6c-0.1-0.3-0.1-0.5-0.1-0.8V141h0.9v1.8
	c0,0.3,0.1,0.6,0.3,0.8c0.2,0.2,0.6,0.3,0.9,0.3c0.2,0,0.4,0,0.5-0.1c0.1-0.1,0.3-0.1,0.4-0.1c0.1-0.1,0.3-0.1,0.4-0.2V141
	L85.7,140.9L85.7,140.9z"/>
<path class="st26" d="M89.3,140.8c0.3,0,0.6,0.1,0.8,0.2c0.2,0.1,0.5,0.2,0.6,0.4c0.2,0.2,0.3,0.4,0.4,0.6c0.1,0.2,0.2,0.5,0.1,0.7
	v3.6h-0.7l-0.2-0.6c-0.1,0.1-0.3,0.2-0.4,0.3c-0.1,0.1-0.3,0.2-0.5,0.2c-0.2,0-0.4,0.1-0.7,0.1c-0.2,0-0.5,0-0.7-0.1
	c-0.2-0.1-0.4-0.2-0.6-0.4c-0.2-0.1-0.3-0.3-0.4-0.5c-0.1-0.2-0.1-0.4-0.1-0.6c0-0.2,0.1-0.5,0.2-0.7c0.1-0.2,0.3-0.4,0.5-0.6
	c0.3-0.2,0.6-0.3,1-0.4c0.6-0.1,1.1-0.1,1.7-0.1v-0.3c0-0.3-0.1-0.5-0.3-0.7c-0.2-0.2-0.5-0.3-0.8-0.3c-0.2,0-0.5,0.1-0.7,0.2
	c-0.2,0.1-0.3,0.4-0.3,0.6h-1c0-0.2,0.1-0.4,0.2-0.6c0.1-0.2,0.2-0.4,0.4-0.5c0.2-0.1,0.4-0.3,0.6-0.3
	C88.7,140.9,89,140.8,89.3,140.8z M88.8,145.5c0.2,0,0.5,0,0.7-0.1c0.2-0.1,0.3-0.2,0.5-0.3c0.1-0.1,0.2-0.3,0.3-0.4
	c0.1-0.1,0.1-0.3,0.1-0.5v-0.4c-0.4,0-0.9,0-1.3,0.1c-0.3,0.1-0.6,0.1-0.8,0.2c-0.2,0.1-0.3,0.2-0.4,0.3c-0.1,0.1-0.1,0.3-0.1,0.4
	c0,0.2,0.1,0.3,0.2,0.5C88.2,145.4,88.5,145.5,88.8,145.5z"/>
<path class="st26" d="M97.4,140.9v5.4h-0.9v-4l-2.8,4h-0.9v-5.4h0.9v4l2.8-4H97.4z M95.1,140.1c-0.4,0-0.7-0.1-1-0.4
	c-0.2-0.3-0.4-0.6-0.5-0.9h0.7c0,0.4,0.3,0.7,0.7,0.7c0,0,0,0,0,0c0.2,0,0.3-0.1,0.5-0.2s0.2-0.3,0.2-0.5h0.7c0,0.4-0.2,0.7-0.5,0.9
	C95.7,140,95.4,140.1,95.1,140.1z"/>
<path class="st26" d="M98.4,140.9h4.3v0.8H101v4.6h-0.9v-4.6h-1.7L98.4,140.9z"/>
<path class="st26" d="M108,144.9l-0.3,0.6c-0.1,0.2-0.3,0.3-0.5,0.5s-0.4,0.2-0.6,0.3c-0.3,0.1-0.5,0.1-0.8,0.1
	c-0.3,0-0.7-0.1-1-0.2c-0.3-0.1-0.6-0.3-0.8-0.6c-0.2-0.3-0.4-0.6-0.5-0.9c-0.3-0.7-0.3-1.5,0-2.2c0.1-0.3,0.3-0.6,0.5-0.9
	c0.2-0.2,0.5-0.4,0.8-0.6c0.3-0.2,0.6-0.2,0.9-0.2c0.3,0,0.6,0.1,0.9,0.2c0.3,0.1,0.6,0.3,0.8,0.5c0.3,0.2,0.5,0.5,0.5,0.9
	c0.1,0.4,0.2,0.7,0.2,1.1v0.4h-3.8c0,0.2,0.1,0.4,0.2,0.6c0.1,0.2,0.2,0.4,0.4,0.5c0.1,0.1,0.3,0.2,0.5,0.3c0.2,0.1,0.4,0.1,0.6,0.1
	c0.2,0,0.3,0,0.5-0.1c0.2-0.1,0.3-0.1,0.4-0.2s0.2-0.1,0.3-0.2l0.2-0.2h0.6L108,144.9z M105.7,141.7c-0.2,0-0.4,0-0.5,0.1
	c-0.2,0.1-0.3,0.2-0.4,0.3c-0.2,0.1-0.3,0.3-0.3,0.5c0,0.2-0.2,0.4-0.2,0.6h2.9c0-0.4-0.2-0.8-0.5-1.1
	C106.4,141.8,106.1,141.7,105.7,141.7L105.7,141.7z"/>
<path class="st26" d="M112.5,142c0.1-0.2,0.3-0.3,0.4-0.4c0.2-0.1,0.4-0.2,0.6-0.3c0.3-0.1,0.5-0.1,0.8-0.1c0.3,0,0.6,0.1,0.9,0.2
	c0.3,0.1,0.6,0.3,0.8,0.6c0.2,0.2,0.4,0.5,0.5,0.8c0.1,0.3,0.2,0.7,0.2,1c0,0.3-0.1,0.7-0.2,1c-0.1,0.3-0.3,0.6-0.5,0.8
	c-0.2,0.2-0.5,0.4-0.8,0.6c-0.3,0.2-0.7,0.2-1,0.2c-0.3,0-0.7-0.1-1-0.2c-0.3-0.1-0.6-0.3-0.8-0.6c-0.2-0.3-0.4-0.6-0.6-1
	c-0.2-0.4-0.2-0.9-0.2-1.4c0-0.7,0.1-1.3,0.2-2c0.1-0.5,0.3-1,0.7-1.3c0.4-0.4,0.9-0.6,1.4-0.8c0.7-0.2,1.4-0.3,2.1-0.3v0.8
	c-0.5,0-1.1,0.1-1.6,0.2c-0.4,0.1-0.8,0.3-1.1,0.5c-0.3,0.2-0.5,0.5-0.6,0.8C112.6,141.4,112.5,141.7,112.5,142z M114.2,145.5
	c0.2,0,0.4,0,0.6-0.1c0.2-0.1,0.4-0.2,0.5-0.4c0.1-0.2,0.3-0.3,0.3-0.6s0.1-0.5,0.1-0.7c0-0.2,0-0.5-0.1-0.7l-0.3-0.6
	c-0.1-0.2-0.3-0.3-0.5-0.4c-0.4-0.1-0.8-0.1-1.2,0c-0.2,0.1-0.4,0.2-0.5,0.4c-0.1,0.2-0.3,0.3-0.4,0.6c-0.1,0.2-0.1,0.5-0.1,0.7
	c0,0.2,0,0.5,0.1,0.7c0.1,0.2,0.2,0.4,0.4,0.6c0.1,0.2,0.3,0.3,0.5,0.4C113.8,145.5,114,145.5,114.2,145.5z"/>
<path class="st26" d="M120,142.8c0.5,0,1,0.2,1.4,0.5c0.4,0.3,0.6,0.8,0.5,1.3c0,0.5-0.2,0.9-0.5,1.3c-0.4,0.4-0.9,0.6-1.4,0.5h-2.1
	V141h0.9v1.9h1.2L120,142.8z M120,145.5c0.3,0,0.5-0.1,0.7-0.3c0.3-0.2,0.4-0.7,0.1-1.1c0-0.1-0.1-0.1-0.1-0.1
	c-0.2-0.2-0.4-0.3-0.7-0.3h-1.2v1.8H120z M123.6,140.9v5.4h-0.9v-5.4L123.6,140.9z"/>
<path class="st26" d="M127.3,141.7c-0.2,0-0.4,0-0.6,0.1c-0.2,0.1-0.4,0.2-0.5,0.4c-0.1,0.2-0.3,0.4-0.4,0.6c-0.1,0.5-0.1,1.1,0,1.6
	c0.1,0.2,0.2,0.4,0.4,0.6c0.1,0.2,0.3,0.3,0.5,0.4c0.2,0.1,0.4,0.1,0.6,0.1c0.2,0,0.3,0,0.5-0.1c0.2-0.1,0.3-0.1,0.4-0.3
	c0.1-0.1,0.2-0.2,0.3-0.4c0.1-0.1,0.2-0.2,0.2-0.4h0.9c-0.1,0.3-0.2,0.5-0.3,0.8s-0.3,0.4-0.5,0.6c-0.2,0.2-0.4,0.3-0.7,0.4
	c-0.3,0.1-0.5,0.2-0.8,0.2c-0.3,0-0.7-0.1-1-0.2c-0.3-0.1-0.6-0.3-0.8-0.6c-0.2-0.3-0.4-0.6-0.5-0.9c-0.3-0.7-0.3-1.5,0-2.2
	c0.1-0.3,0.3-0.6,0.5-0.9c0.2-0.2,0.5-0.4,0.8-0.6c0.3-0.2,0.7-0.2,1-0.2c0.3,0,0.6,0.1,0.8,0.2c0.3,0.1,0.5,0.2,0.7,0.4
	c0.2,0.2,0.4,0.4,0.5,0.6c0.1,0.3,0.2,0.5,0.3,0.8h-0.9c0-0.2-0.1-0.3-0.2-0.4c-0.1-0.1-0.2-0.3-0.3-0.4s-0.3-0.2-0.4-0.3
	C127.6,141.7,127.5,141.7,127.3,141.7z"/>
<path class="st26" d="M130.2,140.9h4.3v0.8h-1.7v4.6h-0.9v-4.6h-1.7L130.2,140.9L130.2,140.9z"/>
<path class="st26" d="M136.3,141.5c0.1-0.1,0.2-0.2,0.4-0.3c0.1-0.1,0.3-0.2,0.5-0.2c0.2,0,0.4-0.1,0.7-0.1c0.3,0,0.7,0.1,1,0.2
	c0.3,0.1,0.6,0.3,0.8,0.6c0.2,0.3,0.4,0.6,0.5,0.9c0.3,0.7,0.3,1.5,0,2.2c-0.1,0.3-0.3,0.6-0.5,0.9c-0.2,0.3-0.5,0.5-0.8,0.6
	c-0.3,0.2-0.7,0.2-1,0.2c-0.2,0-0.5,0-0.7-0.1c-0.2-0.1-0.3-0.2-0.5-0.2c-0.2-0.1-0.3-0.2-0.4-0.4v2.6h-0.9v-7.3h0.7L136.3,141.5z
	 M136.2,143.6c0,0.3,0,0.5,0.1,0.8c0.1,0.2,0.2,0.4,0.4,0.6c0.1,0.2,0.3,0.3,0.5,0.4c0.4,0.1,0.8,0.1,1.2,0c0.2-0.1,0.4-0.2,0.5-0.4
	c0.2-0.2,0.3-0.4,0.4-0.6c0.1-0.5,0.1-1.1,0-1.6c-0.1-0.2-0.2-0.4-0.4-0.6c-0.1-0.2-0.3-0.3-0.5-0.4c-0.4-0.1-0.8-0.1-1.2,0
	c-0.2,0.1-0.4,0.2-0.5,0.4c-0.1,0.2-0.3,0.4-0.4,0.6C136.2,143.1,136.2,143.3,136.2,143.6L136.2,143.6z"/>
<path class="st26" d="M143.7,142.8c0.5,0,1,0.2,1.4,0.5c0.4,0.3,0.6,0.8,0.5,1.3c0,0.5-0.2,0.9-0.5,1.3c-0.4,0.4-0.9,0.6-1.4,0.5
	h-2.1V141h0.9v1.9h1.2L143.7,142.8z M143.7,145.5c0.3,0,0.5-0.1,0.7-0.3c0.3-0.2,0.4-0.7,0.1-1.1c0-0.1-0.1-0.1-0.1-0.1
	c-0.2-0.2-0.4-0.3-0.7-0.3h-1.2v1.8H143.7z M147.3,140.9v5.4h-0.9v-5.4L147.3,140.9z"/>
<path class="st26" d="M153.4,140.9v5.4h-0.9v-4l-2.8,4h-0.9v-5.4h0.9v4l2.8-4H153.4z M151.2,140.1c-0.4,0-0.7-0.1-1-0.4
	c-0.2-0.3-0.4-0.6-0.5-0.9h0.7c0,0.4,0.3,0.7,0.7,0.7c0,0,0,0,0,0c0.2,0,0.3-0.1,0.5-0.2s0.2-0.3,0.2-0.5h0.7c0,0.4-0.2,0.7-0.5,0.9
	C151.8,140,151.5,140.1,151.2,140.1z"/>
<path class="st26" d="M162.4,145.5v2.2h-0.8v-1.4h-4v1.3h-0.8v-2.2h0.3l0.3-0.3c0.1-0.1,0.2-0.2,0.2-0.4c0-0.2,0.1-0.3,0.1-0.5
	l0.4-3.4h3.5v4.6L162.4,145.5L162.4,145.5z M158.7,144.3c0,0.2-0.1,0.3-0.1,0.5c0,0.2-0.1,0.3-0.2,0.4c-0.1,0.1-0.2,0.2-0.2,0.3h2.6
	v-3.7H159L158.7,144.3z"/>
<path class="st26" d="M168.1,143.6c0,0.4-0.1,0.7-0.2,1.1c-0.1,0.3-0.3,0.6-0.5,0.9c-0.2,0.3-0.5,0.5-0.8,0.6
	c-0.3,0.2-0.7,0.2-1,0.2c-0.3,0-0.7-0.1-1-0.2c-0.3-0.1-0.6-0.3-0.8-0.6c-0.2-0.3-0.4-0.6-0.5-0.9c-0.3-0.7-0.3-1.5,0-2.2
	c0.1-0.3,0.3-0.6,0.5-0.9c0.2-0.2,0.5-0.4,0.8-0.6c0.3-0.2,0.7-0.2,1-0.2c0.3,0,0.7,0.1,1,0.2c0.3,0.1,0.6,0.3,0.8,0.6
	c0.2,0.3,0.4,0.6,0.5,0.9C168.1,142.8,168.1,143.2,168.1,143.6z M164,143.6c0,0.3,0,0.5,0.1,0.8c0.1,0.2,0.2,0.4,0.4,0.6
	c0.1,0.2,0.3,0.3,0.5,0.4c0.4,0.1,0.8,0.1,1.2,0c0.2-0.1,0.4-0.2,0.5-0.4c0.1-0.2,0.3-0.4,0.4-0.6c0.1-0.5,0.1-1.1,0-1.6
	c-0.1-0.2-0.2-0.4-0.4-0.6c-0.1-0.2-0.3-0.3-0.5-0.4c-0.4-0.1-0.8-0.1-1.2,0c-0.2,0.1-0.4,0.2-0.5,0.4c-0.1,0.2-0.3,0.4-0.4,0.6
	C164,143.1,164,143.3,164,143.6L164,143.6z"/>
<path class="st26" d="M171.5,141.7c-0.2,0-0.4,0-0.6,0.1c-0.2,0.1-0.4,0.2-0.5,0.4c-0.1,0.2-0.3,0.4-0.4,0.6c-0.1,0.5-0.1,1.1,0,1.6
	c0.1,0.2,0.2,0.4,0.4,0.6c0.1,0.2,0.3,0.3,0.5,0.4c0.2,0.1,0.4,0.1,0.6,0.1c0.2,0,0.3,0,0.5-0.1c0.2-0.1,0.3-0.1,0.4-0.3
	c0.1-0.1,0.2-0.2,0.3-0.4c0.1-0.1,0.2-0.2,0.2-0.4h0.9c-0.1,0.3-0.2,0.5-0.3,0.8s-0.3,0.4-0.5,0.6c-0.2,0.2-0.4,0.3-0.7,0.4
	c-0.3,0.1-0.5,0.2-0.8,0.2c-0.3,0-0.7-0.1-1-0.2c-0.3-0.1-0.6-0.3-0.8-0.6c-0.2-0.3-0.4-0.6-0.5-0.9c-0.3-0.7-0.3-1.5,0-2.2
	c0.1-0.3,0.3-0.6,0.5-0.9c0.2-0.2,0.5-0.4,0.8-0.6c0.3-0.2,0.7-0.2,1-0.2c0.3,0,0.6,0.1,0.8,0.2c0.3,0.1,0.5,0.2,0.7,0.4
	c0.2,0.2,0.4,0.4,0.5,0.6c0.1,0.3,0.2,0.5,0.3,0.8h-0.9c0-0.2-0.1-0.3-0.2-0.4c-0.1-0.1-0.2-0.3-0.3-0.4s-0.3-0.2-0.4-0.3
	C171.9,141.7,171.7,141.7,171.5,141.7z"/>
<path class="st26" d="M174.4,140.9h4.3v0.8H177v4.6h-1v-4.6h-1.7L174.4,140.9L174.4,140.9z"/>
<path class="st26" d="M178.9,140.9h1l1.6,4.1l1.6-4.1h1l-2.3,5.9c-0.1,0.4-0.4,0.9-0.7,1.2c-0.2,0.2-0.6,0.3-0.9,0.3h-0.3v-0.7
	c0.4,0,0.8-0.3,0.9-0.7l0.2-0.6L178.9,140.9z"/>
<path class="st26" d="M189.5,140.9v5.4h-0.9v-4.6h-2.8v4.6H185v-5.4H189.5z"/>
<path class="st26" d="M194.6,146.3h-0.9v-5.4h0.9V146.3z M196.8,146.3l-2.3-2.8l2-2.6h1l-2,2.5l2.3,2.9L196.8,146.3z"/>
<path class="st26" d="M205.8,140.9v5.4h-0.9v-4l-2.8,4h-0.9v-5.4h0.9v4l2.8-4H205.8z"/>
<path class="st26" d="M211.9,140.9v5.4H211V144h-2.8v2.3h-0.9v-5.4h0.9v2.2h2.8v-2.2H211.9z"/>
<path class="st26" d="M216.5,146c-0.1,0.1-0.2,0.1-0.3,0.2s-0.2,0.1-0.4,0.1s-0.3,0.1-0.4,0.1c-0.3,0-0.6-0.1-0.9-0.2
	c-0.3-0.1-0.5-0.3-0.7-0.5c-0.2-0.2-0.4-0.6-0.5-0.9c-0.3-0.8-0.3-1.6,0-2.4c0.1-0.3,0.3-0.6,0.5-0.9c0.2-0.3,0.4-0.4,0.7-0.5
	c0.3-0.1,0.6-0.2,0.9-0.2c0.2,0,0.3,0,0.4,0.1c0.1,0.1,0.3,0.1,0.4,0.1c0.1,0.1,0.2,0.1,0.3,0.2v-2.5h0.9v2.5
	c0.1-0.1,0.2-0.1,0.3-0.2s0.2-0.1,0.4-0.1s0.3-0.1,0.5-0.1c0.3,0,0.6,0.1,0.9,0.2c0.3,0.1,0.5,0.3,0.7,0.5c0.2,0.2,0.4,0.6,0.5,0.9
	c0.1,0.4,0.2,0.8,0.2,1.2c0,0.4-0.1,0.8-0.2,1.2c-0.1,0.3-0.3,0.6-0.5,0.9c-0.2,0.3-0.4,0.4-0.7,0.5c-0.3,0.1-0.6,0.2-0.9,0.2
	c-0.2,0-0.3,0-0.5-0.1c-0.1-0.1-0.3-0.1-0.4-0.1c-0.1-0.1-0.2-0.1-0.3-0.2v2.3h-0.9V146z M216.5,142.2l-0.3-0.3
	c-0.1-0.1-0.2-0.1-0.3-0.2c-0.1-0.1-0.3-0.1-0.4-0.1c-0.4,0-0.8,0.2-1,0.5c-0.5,0.9-0.5,2.1,0,3c0.2,0.3,0.6,0.5,1,0.5
	c0.2,0,0.3,0,0.4-0.1s0.3-0.1,0.3-0.2l0.3-0.3V142.2z M217.4,145l0.3,0.3c0.1,0.1,0.2,0.1,0.3,0.2c0.1,0.1,0.3,0.1,0.4,0.1
	c0.4,0,0.8-0.2,1-0.5c0.5-0.9,0.5-2.1,0-3c-0.2-0.3-0.6-0.5-1-0.5c-0.2,0-0.3,0-0.5,0.1c-0.1,0-0.2,0.1-0.3,0.2l-0.3,0.3v2.8
	L217.4,145z"/>
<path class="st26" d="M226.6,143.6c0,0.4-0.1,0.7-0.2,1.1c-0.1,0.3-0.3,0.6-0.5,0.9c-0.2,0.3-0.5,0.5-0.8,0.6
	c-0.3,0.2-0.7,0.2-1,0.2c-0.3,0-0.7-0.1-1-0.2c-0.3-0.1-0.6-0.3-0.8-0.6c-0.2-0.3-0.4-0.6-0.5-0.9c-0.3-0.7-0.3-1.5,0-2.2
	c0.1-0.3,0.3-0.6,0.5-0.9c0.2-0.2,0.5-0.4,0.8-0.6c0.3-0.2,0.7-0.2,1-0.2c0.3,0,0.7,0.1,1,0.2c0.3,0.1,0.6,0.3,0.8,0.6
	c0.2,0.3,0.4,0.6,0.5,0.9C226.5,142.9,226.6,143.2,226.6,143.6z M222.4,143.6c0,0.3,0,0.5,0.1,0.8c0.1,0.2,0.2,0.4,0.4,0.6
	c0.1,0.2,0.3,0.3,0.5,0.4c0.4,0.1,0.8,0.1,1.2,0c0.2-0.1,0.4-0.2,0.5-0.4c0.1-0.2,0.3-0.4,0.4-0.6c0.1-0.5,0.1-1.1,0-1.6
	c-0.1-0.2-0.2-0.4-0.4-0.6c-0.1-0.2-0.3-0.3-0.5-0.4c-0.4-0.1-0.8-0.1-1.2,0c-0.2,0.1-0.4,0.2-0.5,0.4c-0.1,0.2-0.3,0.4-0.4,0.6
	S222.4,143.3,222.4,143.6z"/>
<path class="st26" d="M228.7,141.5c0.1-0.1,0.2-0.2,0.4-0.3c0.1-0.1,0.3-0.2,0.5-0.2c0.2,0,0.4-0.1,0.7-0.1c0.3,0,0.7,0.1,1,0.2
	c0.3,0.1,0.6,0.3,0.8,0.6c0.2,0.3,0.4,0.6,0.5,0.9c0.3,0.7,0.3,1.5,0,2.2c-0.1,0.3-0.3,0.6-0.5,0.9c-0.2,0.3-0.5,0.5-0.8,0.6
	c-0.3,0.2-0.7,0.2-1,0.2c-0.2,0-0.5,0-0.7-0.1c-0.2-0.1-0.3-0.2-0.5-0.2c-0.2-0.1-0.3-0.2-0.4-0.4v2.6h-0.9v-7.3h0.7L228.7,141.5z
	 M228.6,143.6c0,0.3,0,0.5,0.1,0.8c0.1,0.2,0.2,0.4,0.4,0.6c0.1,0.2,0.3,0.3,0.5,0.4c0.4,0.1,0.8,0.1,1.2,0c0.2-0.1,0.4-0.2,0.5-0.4
	c0.2-0.2,0.3-0.4,0.4-0.6c0.1-0.5,0.1-1.1,0-1.6c-0.1-0.2-0.2-0.4-0.4-0.6c-0.1-0.2-0.3-0.3-0.5-0.4c-0.4-0.1-0.8-0.1-1.2,0
	c-0.2,0.1-0.4,0.2-0.5,0.4c-0.1,0.2-0.3,0.4-0.4,0.6C228.6,143.1,228.6,143.3,228.6,143.6z"/>
<path class="st26" d="M236.5,146.3l-1.6-3.4v3.4H234v-5.4h0.8l2,4.2l2-4.2h0.8v5.4h-0.9v-3.4l-1.6,3.4H236.5z"/>
<path class="st26" d="M243.3,140.8c0.3,0,0.6,0.1,0.8,0.2c0.2,0.1,0.5,0.2,0.6,0.4c0.2,0.2,0.3,0.4,0.4,0.6c0.1,0.2,0.2,0.5,0.1,0.7
	v3.6h-0.7l-0.2-0.6c-0.1,0.1-0.3,0.2-0.4,0.3c-0.1,0.1-0.3,0.2-0.5,0.2c-0.2,0-0.4,0.1-0.7,0.1c-0.2,0-0.5,0-0.7-0.1
	c-0.2-0.1-0.4-0.2-0.6-0.4c-0.2-0.1-0.3-0.3-0.4-0.5c-0.1-0.2-0.1-0.4-0.1-0.6c0-0.2,0.1-0.5,0.2-0.7c0.1-0.2,0.3-0.4,0.5-0.6
	c0.3-0.2,0.6-0.3,1-0.4c0.6-0.1,1.1-0.1,1.7-0.1v-0.3c0-0.3-0.1-0.5-0.3-0.7c-0.2-0.2-0.5-0.3-0.8-0.3c-0.2,0-0.5,0.1-0.7,0.2
	c-0.2,0.1-0.3,0.4-0.3,0.6h-1c0-0.2,0.1-0.4,0.2-0.6c0.1-0.2,0.2-0.4,0.4-0.5c0.2-0.1,0.4-0.3,0.6-0.3
	C242.7,140.9,243,140.8,243.3,140.8z M242.8,145.5c0.2,0,0.5,0,0.7-0.1c0.2-0.1,0.3-0.2,0.5-0.3c0.1-0.1,0.2-0.3,0.3-0.4
	c0.1-0.1,0.1-0.3,0.1-0.5v-0.4c-0.4,0-0.9,0-1.3,0.1c-0.3,0.1-0.6,0.1-0.8,0.2c-0.2,0.1-0.3,0.2-0.4,0.3c-0.1,0.1-0.1,0.3-0.1,0.4
	c0,0.2,0.1,0.3,0.2,0.5C242.2,145.5,242.5,145.5,242.8,145.5z"/>
<path class="st26" d="M252,145.5v2.2h-0.8v-1.4h-4.3v-5.4h0.9v4.6h2.6v-4.6h0.9v4.6L252,145.5z"/>
<path class="st26" d="M257.5,140.9v5.4h-0.9v-4l-2.8,4H253v-5.4h0.9v4l2.8-4H257.5z"/>
<path class="st26" d="M263.6,140.9v5.4h-0.9v-4l-2.8,4H259v-5.4h0.9v4l2.8-4H263.6z"/>
<path class="st26" d="M115.7,158c0,0.4-0.1,0.7-0.2,1.1c-0.1,0.3-0.3,0.6-0.5,0.9c-0.2,0.3-0.5,0.5-0.8,0.6c-0.3,0.2-0.7,0.2-1,0.2
	c-0.3,0-0.7-0.1-1-0.2c-0.3-0.1-0.6-0.3-0.8-0.6c-0.2-0.3-0.4-0.6-0.5-0.9c-0.3-0.7-0.3-1.5,0-2.2c0.1-0.3,0.3-0.6,0.5-0.9
	c0.2-0.2,0.5-0.4,0.8-0.6c0.3-0.2,0.7-0.2,1-0.2c0.3,0,0.7,0.1,1,0.2c0.3,0.1,0.6,0.3,0.8,0.6c0.2,0.3,0.4,0.6,0.5,0.9
	C115.7,157.2,115.7,157.6,115.7,158z M111.6,158c0,0.3,0,0.5,0.1,0.8c0.1,0.2,0.2,0.4,0.4,0.6c0.1,0.2,0.3,0.3,0.5,0.4
	c0.4,0.1,0.8,0.1,1.2,0c0.2-0.1,0.4-0.2,0.5-0.4c0.1-0.2,0.3-0.4,0.4-0.6c0.1-0.5,0.1-1.1,0-1.6c-0.1-0.2-0.2-0.4-0.4-0.6
	c-0.1-0.2-0.3-0.3-0.5-0.4c-0.4-0.1-0.8-0.1-1.2,0c-0.2,0.1-0.4,0.2-0.5,0.4c-0.1,0.2-0.3,0.4-0.4,0.6
	C111.6,157.5,111.6,157.7,111.6,158z"/>
<path class="st26" d="M117.5,156.4c0.1-0.2,0.3-0.3,0.4-0.4c0.2-0.1,0.4-0.2,0.6-0.3c0.3-0.1,0.5-0.1,0.8-0.1c0.3,0,0.6,0.1,0.9,0.2
	c0.3,0.1,0.6,0.3,0.8,0.6c0.2,0.2,0.4,0.5,0.5,0.8c0.1,0.3,0.2,0.7,0.2,1c0,0.3-0.1,0.7-0.2,1c-0.1,0.3-0.3,0.6-0.5,0.8
	c-0.2,0.2-0.5,0.4-0.8,0.6c-0.3,0.2-0.7,0.2-1,0.2c-0.3,0-0.7-0.1-1-0.2c-0.3-0.1-0.6-0.3-0.8-0.6c-0.2-0.3-0.4-0.6-0.6-1
	c-0.2-0.4-0.2-0.9-0.2-1.4c0-0.7,0.1-1.3,0.2-2c0.1-0.5,0.3-1,0.7-1.3c0.4-0.4,0.9-0.6,1.4-0.8c0.7-0.2,1.4-0.3,2.1-0.3v0.8
	c-0.5,0-1.1,0.1-1.6,0.2c-0.4,0.1-0.8,0.3-1.1,0.5c-0.3,0.2-0.5,0.5-0.6,0.8C117.6,155.8,117.6,156,117.5,156.4z M119.3,159.9
	c0.2,0,0.4,0,0.6-0.1c0.2-0.1,0.4-0.2,0.5-0.4c0.1-0.2,0.3-0.3,0.3-0.6s0.1-0.5,0.1-0.7c0-0.2,0-0.5-0.1-0.7l-0.3-0.6
	c-0.1-0.2-0.3-0.3-0.5-0.4c-0.4-0.1-0.8-0.1-1.2,0c-0.2,0.1-0.4,0.2-0.5,0.4c-0.1,0.2-0.3,0.3-0.4,0.6c-0.1,0.2-0.1,0.5-0.1,0.7
	c0,0.2,0,0.5,0.1,0.7c0.1,0.2,0.2,0.4,0.4,0.6c0.1,0.2,0.3,0.3,0.5,0.4C118.9,159.9,119.1,159.9,119.3,159.9z"/>
<path class="st26" d="M130.1,155.3v5.4h-0.9v-4l-2.8,4h-0.9v-5.4h0.9v4l2.8-4H130.1z"/>
<path class="st26" d="M135.1,156.2h-2.6v4.6h-0.9v-5.5h3.5V156.2z"/>
<path class="st26" d="M136.9,155.9c0.1-0.1,0.2-0.2,0.4-0.3c0.1-0.1,0.3-0.2,0.5-0.2c0.2,0,0.4-0.1,0.7-0.1c0.3,0,0.7,0.1,1,0.2
	c0.3,0.1,0.6,0.3,0.8,0.6c0.2,0.3,0.4,0.6,0.5,0.9c0.3,0.7,0.3,1.5,0,2.2c-0.1,0.3-0.3,0.6-0.5,0.9c-0.2,0.3-0.5,0.5-0.8,0.6
	c-0.3,0.2-0.7,0.2-1,0.2c-0.2,0-0.5,0-0.7-0.1c-0.2-0.1-0.3-0.2-0.5-0.2c-0.2-0.1-0.3-0.2-0.4-0.4v2.6H136v-7.5h0.7L136.9,155.9z
	 M136.8,158c0,0.3,0,0.5,0.1,0.8c0.1,0.2,0.2,0.4,0.4,0.6c0.1,0.2,0.3,0.3,0.5,0.4c0.4,0.1,0.8,0.1,1.2,0c0.2-0.1,0.4-0.2,0.5-0.4
	c0.2-0.2,0.3-0.4,0.4-0.6c0.1-0.5,0.1-1.1,0-1.6c-0.1-0.2-0.2-0.4-0.4-0.6c-0.1-0.2-0.3-0.3-0.5-0.4c-0.4-0.1-0.8-0.1-1.2,0
	c-0.2,0.1-0.4,0.2-0.5,0.4c-0.1,0.2-0.3,0.4-0.4,0.6C136.8,157.5,136.8,157.7,136.8,158L136.8,158z"/>
<path class="st26" d="M146.9,158c0,0.4-0.1,0.7-0.2,1.1c-0.1,0.3-0.3,0.6-0.5,0.9c-0.2,0.3-0.5,0.5-0.8,0.6c-0.3,0.2-0.7,0.2-1,0.2
	c-0.3,0-0.7-0.1-1-0.2c-0.3-0.1-0.6-0.3-0.8-0.6c-0.2-0.3-0.4-0.6-0.5-0.9c-0.3-0.7-0.3-1.5,0-2.2c0.1-0.3,0.3-0.6,0.5-0.9
	c0.2-0.2,0.5-0.4,0.8-0.6c0.3-0.2,0.7-0.2,1-0.2c0.3,0,0.7,0.1,1,0.2c0.3,0.1,0.6,0.3,0.8,0.6c0.2,0.3,0.4,0.6,0.5,0.9
	C146.9,157.2,147,157.6,146.9,158z M142.8,158c0,0.3,0,0.5,0.1,0.8c0.1,0.2,0.2,0.4,0.4,0.6c0.1,0.2,0.3,0.3,0.5,0.4
	c0.4,0.1,0.8,0.1,1.2,0c0.2-0.1,0.4-0.2,0.5-0.4c0.1-0.2,0.3-0.4,0.4-0.6c0.1-0.5,0.1-1.1,0-1.6c-0.1-0.2-0.2-0.4-0.4-0.6
	c-0.1-0.2-0.3-0.3-0.5-0.4c-0.4-0.1-0.8-0.1-1.2,0c-0.2,0.1-0.4,0.2-0.5,0.4c-0.1,0.2-0.3,0.4-0.4,0.6
	C142.8,157.5,142.8,157.7,142.8,158L142.8,158z"/>
<path class="st26" d="M149,160.7h-0.9v-5.4h0.9V160.7z M151.3,160.7l-2.3-2.8l2-2.6h1l-2,2.5l2.3,2.9L151.3,160.7z"/>
<path class="st26" d="M155.1,155.2c0.3,0,0.6,0.1,0.8,0.2c0.2,0.1,0.5,0.2,0.6,0.4c0.2,0.2,0.3,0.4,0.4,0.6c0.1,0.2,0.2,0.5,0.1,0.7
	v3.6h-0.7l-0.2-0.6c-0.1,0.1-0.3,0.2-0.4,0.3c-0.1,0.1-0.3,0.2-0.5,0.2c-0.2,0-0.4,0.1-0.7,0.1c-0.2,0-0.5,0-0.7-0.1
	c-0.2-0.1-0.4-0.2-0.6-0.4c-0.2-0.1-0.3-0.3-0.4-0.5c-0.1-0.2-0.1-0.4-0.1-0.6c0-0.2,0.1-0.5,0.2-0.7c0.1-0.2,0.3-0.4,0.5-0.6
	c0.3-0.2,0.6-0.3,1-0.4c0.6-0.1,1.1-0.1,1.7-0.1V157c0-0.3-0.1-0.5-0.3-0.7c-0.2-0.2-0.5-0.3-0.8-0.3c-0.2,0-0.5,0.1-0.7,0.2
	c-0.2,0.1-0.3,0.4-0.3,0.6h-1c0-0.2,0.1-0.4,0.2-0.6c0.1-0.2,0.2-0.4,0.4-0.5c0.2-0.1,0.4-0.3,0.6-0.3
	C154.5,155.3,154.8,155.2,155.1,155.2z M154.6,159.9c0.2,0,0.5,0,0.7-0.1c0.2-0.1,0.3-0.2,0.5-0.3c0.1-0.1,0.2-0.3,0.3-0.4
	c0.1-0.1,0.1-0.3,0.1-0.5v-0.4c-0.4,0-0.9,0-1.3,0.1c-0.3,0.1-0.6,0.1-0.8,0.2c-0.2,0.1-0.3,0.2-0.4,0.3c-0.1,0.1-0.1,0.3-0.1,0.4
	c0,0.2,0.1,0.3,0.2,0.5C154,159.8,154.3,159.9,154.6,159.9L154.6,159.9z"/>
<path class="st26" d="M160.9,157.9l1.9,2.8h-1l-1.4-2.1l-1.4,2.1h-1l1.9-2.8l-1.9-2.6h1l1.3,2l1.3-2h1L160.9,157.9z"/>
<path class="st26" d="M167.1,160.7h-0.9v-5.4h0.9V160.7z M169.3,160.7l-2.3-2.8l2-2.6h1l-2,2.5l2.3,2.9L169.3,160.7z"/>
<path class="st26" d="M175.8,158c0,0.4-0.1,0.7-0.2,1.1c-0.1,0.3-0.3,0.6-0.5,0.9c-0.2,0.3-0.5,0.5-0.8,0.6c-0.3,0.2-0.7,0.2-1,0.2
	c-0.3,0-0.7-0.1-1-0.2c-0.3-0.1-0.6-0.3-0.8-0.6c-0.2-0.3-0.4-0.6-0.5-0.9c-0.3-0.7-0.3-1.5,0-2.2c0.1-0.3,0.3-0.6,0.5-0.9
	c0.2-0.2,0.5-0.4,0.8-0.6c0.3-0.2,0.7-0.2,1-0.2c0.3,0,0.7,0.1,1,0.2c0.3,0.1,0.6,0.3,0.8,0.6c0.2,0.3,0.4,0.6,0.5,0.9
	C175.7,157.3,175.8,157.6,175.8,158z M171.7,158c0,0.3,0,0.5,0.1,0.8c0.1,0.2,0.2,0.4,0.4,0.6c0.1,0.2,0.3,0.3,0.5,0.4
	c0.4,0.1,0.8,0.1,1.2,0c0.2-0.1,0.4-0.2,0.5-0.4c0.1-0.2,0.3-0.4,0.4-0.6c0.1-0.5,0.1-1.1,0-1.6c-0.1-0.2-0.2-0.4-0.4-0.6
	c-0.1-0.2-0.3-0.3-0.5-0.4c-0.4-0.1-0.8-0.1-1.2,0c-0.2,0.1-0.4,0.2-0.5,0.4c-0.1,0.2-0.3,0.4-0.4,0.6
	C171.7,157.5,171.7,157.7,171.7,158L171.7,158z"/>
<path class="st26" d="M179.5,160.7l-1.6-3.4v3.4H177v-5.4h0.8l2,4.2l2-4.2h0.8v5.4h-0.9v-3.4l-1.6,3.4H179.5z"/>
<path class="st26" d="M186.2,155.2c0.3,0,0.6,0.1,0.8,0.2c0.2,0.1,0.5,0.2,0.6,0.4c0.2,0.2,0.3,0.4,0.4,0.6c0.1,0.2,0.2,0.5,0.1,0.7
	v3.6h-0.7l-0.2-0.6c-0.1,0.1-0.3,0.2-0.4,0.3c-0.1,0.1-0.3,0.2-0.5,0.2c-0.2,0-0.4,0.1-0.7,0.1c-0.2,0-0.5,0-0.7-0.1
	c-0.2-0.1-0.4-0.2-0.6-0.4c-0.2-0.1-0.3-0.3-0.4-0.5c-0.1-0.2-0.1-0.4-0.1-0.6c0-0.2,0.1-0.5,0.2-0.7c0.1-0.2,0.3-0.4,0.5-0.6
	c0.3-0.2,0.6-0.3,1-0.4c0.6-0.1,1.1-0.1,1.7-0.1V157c0-0.3-0.1-0.5-0.3-0.7c-0.2-0.2-0.5-0.3-0.8-0.3c-0.2,0-0.5,0.1-0.7,0.2
	c-0.2,0.1-0.3,0.4-0.3,0.6h-1c0-0.2,0.1-0.4,0.2-0.6c0.1-0.2,0.2-0.4,0.4-0.5c0.2-0.1,0.4-0.3,0.6-0.3
	C185.6,155.3,185.9,155.2,186.2,155.2z M185.8,159.9c0.2,0,0.5,0,0.7-0.1c0.2-0.1,0.3-0.2,0.5-0.3c0.1-0.1,0.2-0.3,0.3-0.4
	c0.1-0.1,0.1-0.3,0.1-0.5v-0.4c-0.4,0-0.9,0-1.3,0.1c-0.3,0.1-0.6,0.1-0.8,0.2c-0.2,0.1-0.3,0.2-0.4,0.3c-0.1,0.1-0.1,0.3-0.1,0.4
	c0,0.2,0.1,0.3,0.2,0.5C185.2,159.9,185.5,159.9,185.8,159.9L185.8,159.9z"/>
<path class="st26" d="M194.3,155.3v5.4h-0.9v-2.3h-2.8v2.3h-0.9v-5.4h0.9v2.2h2.8v-2.2H194.3z"/>
<path class="st26" d="M200.8,159.9v2.2H200v-1.3h-4v1.3h-0.8v-2.2h0.3l0.3-0.3c0.1-0.1,0.2-0.2,0.2-0.4c0-0.2,0.1-0.3,0.1-0.5
	l0.4-3.4h3.5v4.6L200.8,159.9z M197,158.7c0,0.2-0.1,0.3-0.1,0.5c0,0.2-0.1,0.3-0.2,0.4c-0.1,0.1-0.2,0.2-0.2,0.3h2.6v-3.7h-1.8
	L197,158.7z"/>
<path class="st26" d="M203.9,157.2c0.5,0,1,0.2,1.4,0.5c0.4,0.3,0.6,0.8,0.5,1.3c0,0.5-0.2,0.9-0.5,1.3c-0.4,0.4-0.9,0.6-1.4,0.5
	h-2.1v-5.5h0.9v1.9H203.9z M203.9,159.9c0.3,0,0.5-0.1,0.7-0.3c0.3-0.2,0.4-0.7,0.1-1.1c0-0.1-0.1-0.1-0.1-0.1
	c-0.2-0.2-0.4-0.3-0.7-0.3h-1.2v1.8H203.9z M207.5,155.3v5.4h-0.9v-5.4L207.5,155.3z"/>
<path class="st26" d="M208.7,160.2c0-0.2,0.1-0.3,0.2-0.4c0.2-0.2,0.6-0.3,0.8,0s0.3,0.6,0,0.8s-0.6,0.3-0.8,0c0,0,0,0,0,0
	C208.8,160.5,208.7,160.4,208.7,160.2z"/>
<path class="st1" d="M148.8,25.8c0-0.5-0.2-0.8-0.5-0.8c-0.8,0-1.9,2.4-2.5,5.2C147.5,29.4,148.6,27.7,148.8,25.8 M128.2,48.9
	c0,0.6,0.2,1.7,0.9,1.7c2.8,0,6.5-7.6,6.6-13.6C130.8,40.4,128.2,45.4,128.2,48.9 M154.1,23.1h3l-1.5,5.2l2.3-0.6l1.3-4.6h2.8
	l-2.3,7.8l3.7-5l0.8-2.8h2.6l-1.6,5.5c-0.1,0.2-0.4,1.4-0.1,1.4s1-1.3,1.8-2.7c0.8-1.4,1.4-2.8,2-4.2h2.7l-1.3,4.7l3.4-4.7h23.8
	L140,47.9l1.1-3.9l45.1-18.6h-8.8l-0.9,2.9l-2.8,0.9l1.1-3.8h-1.4l-3.9,5.1l-2.4,0.8c0.1-1.2,0.3-2.5,0.6-3.7l-1.1,2.1
	c-0.9,1.7-1.7,3-3,3c-1,0-1.5-0.9-1.5-2.2c0-0.5,0.1-0.9,0.2-1.4l-3.7,4.9l-3,1l1.5-5.4l-2.3,0.6l-1.6,5.6l-3.3,1.1l1.5-5.2
	l-3.3,4.3c-1.4,1.8-2.9,2.8-4,2.8c-2.2,0-2.5-3.7-2.3-5.2c-1.2,0.6-1.7,0.8-2.1,1c0.5,8-7.5,19-12.7,19c-1.6,0-2.8-1.2-2.8-4
	c0-4.1,3.1-10.2,11.3-14.9c-0.1-1.5-0.8-2.9-1.8-3.9v-0.2c2.8-2.2,4.9-4.6,4.9-6.8c0-0.8-0.6-1.4-1.4-1.4c-0.1,0-0.1,0-0.2,0
	c-1.6,0-3.6,1.9-4.7,3.6H132l0.9-3.1c1.8-2.3,4.4-3.7,7.3-3.8c1.9,0,3.5,0.7,3.5,3c0,2.7-2.3,5.5-5.8,7.6c0.8,0.9,1.3,1.9,1.6,3.1
	c0.8-0.4,1.7-0.9,2.6-1.3c1-4.9,4.5-8.7,7.5-8.7c1.1-0.2,2.1,0.6,2.3,1.7c0,0.2,0,0.4,0,0.5c0,2.9-2.7,5.2-6.5,7.2
	c-0.1,0.5-0.1,1-0.1,1.5c0,1.3,0.3,2,0.8,2c0.3,0,0.7-0.3,1.2-0.8l5.1-6.1L154.1,23.1"/>
<path class="st26" d="M245,184.9c0-0.2,0.1-0.3,0.2-0.4c0.2-0.2,0.6-0.3,0.8,0s0.3,0.6,0,0.8s-0.6,0.3-0.8,0c0,0,0,0,0,0
	C245.1,185.2,245,185.1,245,184.9z"/>
<path class="st24" d="M55.9,105.7l-6.3-8.6v8.6h-4.4V86.5h4.4v8.3l5.8-8.3h5L53.6,96l7.2,9.8L55.9,105.7L55.9,105.7z"/>
<path class="st24" d="M80.7,96.1c0,1.3-0.2,2.7-0.7,3.9c-0.5,1.1-1.2,2.2-2,3.1c-0.9,0.9-1.9,1.6-3,2.1c-2.4,0.9-5,0.9-7.4,0
	c-1.1-0.5-2.2-1.2-3-2.1c-0.9-0.9-1.5-1.9-2-3.1c-0.5-1.2-0.7-2.6-0.7-3.9c0-1.3,0.2-2.6,0.7-3.8c0.5-1.1,1.2-2.2,2-3.1
	c0.9-0.9,1.9-1.6,3-2.1c1.2-0.5,2.4-0.7,3.7-0.7c1.3,0,2.5,0.2,3.7,0.7c1.1,0.5,2.2,1.2,3,2.1c0.9,0.9,1.5,1.9,2,3.1
	C80.4,93.5,80.7,94.8,80.7,96.1z M76.2,96.1c0-0.8-0.1-1.5-0.4-2.2c-0.5-1.3-1.5-2.3-2.7-2.8c-0.6-0.3-1.3-0.4-2-0.4
	c-0.7,0-1.4,0.1-2,0.4c-0.6,0.3-1.1,0.7-1.6,1.1c-0.5,0.5-0.8,1.1-1.1,1.7c-0.5,1.4-0.5,3,0,4.4c0.5,1.3,1.5,2.3,2.7,2.8
	c0.6,0.3,1.3,0.4,2,0.4c0.7,0,1.4-0.1,2-0.4c0.6-0.3,1.1-0.7,1.6-1.1c0.5-0.5,0.8-1.1,1.1-1.7C76.1,97.6,76.2,96.9,76.2,96.1z"/>
<path class="st24" d="M100.1,86.5h4v19.3h-4.4v-9.6l-4.4,9.6h-2.8L88,96.1v9.6h-4.4V86.5h4l6.3,13.6L100.1,86.5z"/>
<path class="st24" d="M111.7,102.1l-1.2,3.7h-4.6l6.9-19.3h4.6l6.9,19.3h-4.6l-1.2-3.7H111.7z M117.2,98.2l-2.1-6.4l-2.1,6.4H117.2z
	"/>
<path class="st24" d="M142.2,86.5v19.3h-4.4v-7.6h-7.3v7.6H126V86.5h4.4v7.3h7.3v-7.3H142.2z"/>
<path class="st24" d="M163.8,101.4v7.9h-4.4v-3.7h-10.7v3.7h-4.4v-7.9h1.2c0.3-0.1,0.7-0.3,0.9-0.6c0.3-0.3,0.5-0.6,0.7-0.9
	c0.3-0.4,0.4-1,0.4-1.5l1.4-11.9h12.8v15L163.8,101.4L163.8,101.4z M157.2,90.7h-4.6l-0.9,7.6c-0.1,0.5-0.2,1-0.4,1.5
	c-0.1,0.3-0.3,0.6-0.5,0.9c-0.1,0.2-0.4,0.5-0.6,0.6h7V90.7z"/>
<path class="st24" d="M170,102.1l-1.2,3.7h-4.6l6.9-19.3h4.6l6.9,19.3H178l-1.2-3.7H170z M175.5,98.2l-2.1-6.4l-2.1,6.4H175.5z"/>
<path class="st27" d="M58.6,279.1l-2.6-3.3v3.3h-1.4v-7.3H56v3.2l2.4-3.2H60l-2.7,3.6l2.9,3.7L58.6,279.1z"/>
<path class="st27" d="M67.8,275.5c0,0.5-0.1,1-0.3,1.5c-0.2,0.4-0.5,0.8-0.8,1.2c-0.3,0.3-0.7,0.6-1.1,0.8c-0.4,0.2-0.9,0.3-1.4,0.3
	c-0.5,0-1-0.1-1.4-0.3c-0.4-0.2-0.8-0.5-1.1-0.8c-0.3-0.3-0.6-0.8-0.8-1.2c-0.2-0.5-0.3-1-0.3-1.5c0-1,0.4-1.9,1.1-2.6
	c0.3-0.3,0.7-0.6,1.1-0.8c0.4-0.2,0.9-0.3,1.4-0.3c0.5,0,1,0.1,1.4,0.3c0.4,0.1,0.8,0.4,1.1,0.8c0.3,0.3,0.6,0.8,0.8,1.2
	C67.7,274.5,67.8,275,67.8,275.5z M62.2,275.5c0,0.3,0.1,0.7,0.2,1c0.3,0.5,0.7,0.9,1.2,1.2c0.3,0.1,0.5,0.2,0.8,0.2
	c0.3,0,0.6-0.1,0.8-0.2c0.3-0.1,0.5-0.3,0.7-0.5c0.2-0.2,0.3-0.5,0.5-0.7c0.2-0.3,0.3-0.7,0.2-1c0-0.3-0.1-0.7-0.2-1
	c-0.3-0.5-0.7-0.9-1.2-1.2c-0.3-0.1-0.5-0.2-0.8-0.2c-0.3,0-0.6,0.1-0.8,0.2c-0.3,0.1-0.5,0.3-0.7,0.5c-0.2,0.2-0.3,0.5-0.5,0.7
	C62.2,274.8,62.1,275.2,62.2,275.5z"/>
<path class="st27" d="M76.6,271.8v7.3h-1.4v-4l-1.8,4h-0.9l-1.8-4v4h-1.4v-7.3h1.2l2.5,5.4l2.5-5.4H76.6z"/>
<path class="st27" d="M79.1,279.1h-1.4l2.7-7.3h1.3l2.7,7.3H83l-0.5-1.5h-2.8L79.1,279.1z M81.9,276.3l-0.9-2.7l-0.9,2.7H81.9z"/>
<path class="st27" d="M91.2,271.8v7.3h-1.4V276h-3.1v3.1h-1.4v-7.3h1.4v2.9h3.1v-2.9H91.2z"/>
<path class="st27" d="M99.4,277.8v2.7H98v-1.4h-4.4v1.4h-1.4v-2.7h0.4c0.1-0.1,0.2-0.1,0.4-0.3c0.1-0.1,0.2-0.2,0.3-0.4
	c0.1-0.2,0.1-0.4,0.2-0.6l0.6-4.7h4.6v5.9h0.7L99.4,277.8z M97.3,273.2h-2l-0.4,3.4c0,0.2-0.1,0.4-0.1,0.6s-0.1,0.3-0.2,0.4
	s-0.2,0.2-0.2,0.3h3v-4.7L97.3,273.2z"/>
<path class="st27" d="M101.3,279.1h-1.4l2.7-7.3h1.3l2.7,7.3h-1.4l-0.5-1.5h-2.8L101.3,279.1z M104.2,276.3l-0.9-2.7l-0.9,2.7H104.2
	z"/>
<path d="M96.3,299.7l-2.9-3.4v3.4h-1.1v-7.3h1.1v3.3l2.7-3.3h1.3l-2.9,3.6l3.2,3.7L96.3,299.7z"/>
<path d="M102.8,297.1c0,0.4-0.1,0.7-0.2,1.1c-0.2,0.6-0.7,1.1-1.3,1.3c-0.3,0.1-0.7,0.2-1,0.2c-0.3,0-0.7-0.1-1-0.2
	c-0.6-0.2-1.1-0.7-1.3-1.3c-0.1-0.4-0.2-0.7-0.2-1.1c0-0.4,0.1-0.7,0.2-1.1c0.2-0.6,0.7-1.1,1.3-1.3c0.3-0.1,0.7-0.2,1-0.2
	c0.3,0,0.7,0.1,1,0.2c0.6,0.2,1.1,0.7,1.3,1.3C102.8,296.3,102.8,296.7,102.8,297.1z M101.8,297.1c0-0.2,0-0.5-0.1-0.7
	c-0.1-0.2-0.2-0.3-0.3-0.5c-0.1-0.2-0.3-0.3-0.5-0.3c-0.2-0.1-0.3-0.1-0.5-0.1c-0.2,0-0.4,0-0.5,0.1c-0.2,0.1-0.3,0.2-0.5,0.3
	s-0.2,0.3-0.3,0.5c-0.1,0.2-0.1,0.5-0.1,0.7c0,0.2,0,0.5,0.1,0.7c0.1,0.2,0.2,0.3,0.3,0.5c0.1,0.2,0.3,0.3,0.5,0.3
	c0.2,0.1,0.3,0.1,0.5,0.1c0.2,0,0.4,0,0.5-0.1c0.2-0.1,0.3-0.2,0.5-0.3s0.2-0.3,0.3-0.5C101.8,297.6,101.8,297.3,101.8,297.1z"/>
<path d="M108.2,294.5v5.2h-1v-4.2h-1.7l-0.2,2.5c0,0.5-0.2,1-0.5,1.3c-0.3,0.3-0.7,0.5-1.2,0.5h-0.3v-0.9h0.1c0.5,0,0.8-0.3,0.9-0.9
	l0.3-3.5H108.2z"/>
<path d="M109.1,294.5h4.3v1h-1.6v4.2h-1v-4.2h-1.6v-1H109.1z"/>
<path d="M118.9,297.1c0,0.4-0.1,0.7-0.2,1.1c-0.2,0.6-0.7,1.1-1.3,1.3c-0.3,0.1-0.7,0.2-1,0.2c-0.3,0-0.7-0.1-1-0.2
	c-0.6-0.2-1.1-0.7-1.3-1.3c-0.1-0.4-0.2-0.7-0.2-1.1c0-0.4,0.1-0.7,0.2-1.1c0.2-0.6,0.7-1.1,1.3-1.3c0.3-0.1,0.7-0.2,1-0.2
	c0.3,0,0.7,0.1,1,0.2c0.6,0.2,1.1,0.7,1.3,1.3C118.8,296.4,118.9,296.7,118.9,297.1z M117.8,297.1c0-0.2,0-0.5-0.1-0.7
	c-0.1-0.2-0.2-0.3-0.3-0.5c-0.1-0.2-0.3-0.3-0.5-0.3c-0.2-0.1-0.3-0.1-0.5-0.1c-0.2,0-0.4,0-0.5,0.1c-0.2,0.1-0.3,0.2-0.5,0.3
	s-0.2,0.3-0.3,0.5c-0.1,0.2-0.1,0.5-0.1,0.7c0,0.2,0,0.5,0.1,0.7c0.1,0.2,0.2,0.3,0.3,0.5c0.1,0.2,0.3,0.3,0.5,0.3
	c0.2,0.1,0.3,0.1,0.5,0.1c0.2,0,0.4,0,0.5-0.1c0.2-0.1,0.3-0.2,0.5-0.3s0.2-0.3,0.3-0.5C117.8,297.6,117.8,297.3,117.8,297.1
	L117.8,297.1z"/>
<path d="M124.5,294.5v5.2h-1v-2.1H121v2.1h-1v-5.2h1v2.1h2.5v-2.1H124.5z"/>
<path d="M128.9,299.7h-1.2l2.8-7.3h0.9l2.8,7.3H133l-0.6-1.7h-2.9L128.9,299.7z M132,297l-1-2.9l-1,2.9H132z"/>
<path d="M139.4,294.5v5.2h-1v-3.6l-2.5,3.6h-1v-5.2h1v3.6l2.5-3.6H139.4z M137.1,293.8c-0.4,0-0.7-0.1-1-0.4
	c-0.2-0.3-0.4-0.6-0.5-0.9h0.8c0,0.2,0.1,0.3,0.2,0.4c0.1,0.1,0.3,0.2,0.5,0.2c0.2,0,0.3-0.1,0.5-0.2c0.1-0.1,0.2-0.2,0.2-0.4h0.8
	c0,0.4-0.2,0.7-0.5,0.9C137.8,293.7,137.5,293.8,137.1,293.8z"/>
<path d="M144.2,297c0.1,0.1,0.3,0.2,0.4,0.3c0.1,0.1,0.2,0.2,0.3,0.4c0.1,0.2,0.1,0.4,0.1,0.6c0,0.2,0,0.4-0.1,0.6
	c-0.1,0.2-0.2,0.3-0.3,0.5c-0.2,0.1-0.3,0.2-0.5,0.3c-0.2,0.1-0.4,0.1-0.6,0.1h-2.6v-5.2h2.4c0.2,0,0.4,0,0.6,0.1
	c0.4,0.1,0.7,0.4,0.8,0.8c0.1,0.2,0.1,0.4,0.1,0.6c0,0.2,0,0.4-0.1,0.5c-0.1,0.1-0.1,0.2-0.2,0.3C144.4,296.9,144.3,296.9,144.2,297
	z M141.8,295.4v1.3h1.3c0.2,0,0.3-0.1,0.5-0.2c0.1-0.1,0.2-0.2,0.2-0.4c0-0.2-0.1-0.3-0.2-0.5c-0.1-0.1-0.3-0.2-0.5-0.2L141.8,295.4
	z M143.3,298.8c0.2,0,0.3-0.1,0.5-0.2c0.1-0.1,0.2-0.3,0.2-0.5c0-0.2-0.1-0.3-0.2-0.5c-0.1-0.1-0.3-0.2-0.5-0.2h-1.4v1.3h1.4
	L143.3,298.8z"/>
<path d="M150.5,298.2l-0.3,0.6c-0.1,0.2-0.3,0.4-0.5,0.5c-0.2,0.1-0.4,0.3-0.6,0.3c-0.3,0.1-0.5,0.1-0.8,0.1c-0.3,0-0.7-0.1-1-0.2
	c-0.6-0.2-1.1-0.7-1.3-1.3c-0.1-0.4-0.2-0.7-0.2-1.1c0-0.4,0.1-0.7,0.2-1.1c0.2-0.6,0.7-1.1,1.3-1.3c0.6-0.3,1.2-0.3,1.8,0
	c0.6,0.2,1.1,0.7,1.3,1.3c0.1,0.4,0.2,0.7,0.2,1.1v0.4h-3.7c0,0.2,0.1,0.3,0.1,0.5s0.2,0.3,0.3,0.4s0.3,0.2,0.4,0.3
	c0.2,0.1,0.3,0.1,0.5,0.1c0.3,0,0.6-0.1,0.8-0.2c0.2-0.1,0.3-0.3,0.4-0.4L150.5,298.2z M148.2,295.4c-0.3,0-0.7,0.1-0.9,0.4
	c-0.3,0.2-0.4,0.6-0.5,0.9h2.8c0-0.4-0.2-0.7-0.5-0.9C148.9,295.6,148.5,295.4,148.2,295.4z"/>
<path d="M154.2,294.5c0.3,0,0.7,0.1,1,0.2c0.6,0.2,1.1,0.7,1.3,1.3c0.1,0.4,0.2,0.7,0.2,1.1c0,0.4-0.1,0.7-0.2,1.1
	c-0.2,0.6-0.7,1.1-1.3,1.3c-0.3,0.1-0.7,0.2-1,0.2c-0.2,0-0.5,0-0.6-0.1s-0.3-0.1-0.4-0.2s-0.3-0.2-0.4-0.3v2.4h-1v-7h0.7l0.2,0.5
	c0.1-0.1,0.2-0.2,0.4-0.3c0.1-0.1,0.3-0.1,0.5-0.2H154.2z M154.2,298.8c0.2,0,0.4,0,0.6-0.1c0.2-0.1,0.3-0.2,0.5-0.3
	s0.2-0.3,0.3-0.5c0.1-0.2,0.1-0.5,0.1-0.7c0-0.2,0-0.5-0.1-0.7c-0.1-0.2-0.2-0.3-0.3-0.5c-0.1-0.2-0.3-0.3-0.5-0.3
	c-0.4-0.1-0.8-0.1-1.2,0c-0.2,0.1-0.3,0.2-0.5,0.3s-0.2,0.3-0.3,0.5c-0.1,0.2-0.1,0.5-0.1,0.7c0,0.2,0,0.5,0.1,0.7
	c0.1,0.2,0.2,0.3,0.3,0.5c0.1,0.2,0.3,0.3,0.5,0.3C153.8,298.7,154,298.8,154.2,298.8z"/>
<path d="M162.3,297.8c-0.1,0.3-0.2,0.5-0.3,0.8c-0.1,0.2-0.3,0.4-0.5,0.6c-0.2,0.2-0.4,0.3-0.7,0.4c-0.3,0.1-0.5,0.1-0.8,0.1
	c-0.3,0-0.7-0.1-1-0.2c-0.6-0.2-1.1-0.7-1.3-1.3c-0.1-0.4-0.2-0.7-0.2-1.1c0-0.4,0.1-0.7,0.2-1.1c0.2-0.6,0.7-1.1,1.3-1.3
	c0.3-0.1,0.7-0.2,1-0.2c0.3,0,0.5,0,0.8,0.1c0.3,0.1,0.5,0.2,0.7,0.4c0.2,0.2,0.4,0.4,0.5,0.6c0.1,0.3,0.2,0.5,0.3,0.8h-1.1
	c-0.1-0.3-0.2-0.5-0.4-0.7c-0.2-0.2-0.5-0.3-0.8-0.3c-0.2,0-0.4,0-0.5,0.1c-0.2,0.1-0.3,0.2-0.5,0.3s-0.2,0.3-0.3,0.5
	c-0.1,0.2-0.1,0.5-0.1,0.7c0,0.2,0,0.5,0.1,0.7c0.1,0.2,0.2,0.3,0.3,0.5c0.1,0.2,0.3,0.3,0.5,0.3c0.2,0.1,0.3,0.1,0.5,0.1
	c0.3,0,0.6-0.1,0.8-0.3c0.2-0.2,0.3-0.4,0.4-0.7h1.1V297.8z"/>
<path d="M168,297.1c0,0.4-0.1,0.7-0.2,1.1c-0.2,0.6-0.7,1.1-1.3,1.3c-0.3,0.1-0.7,0.2-1,0.2c-0.3,0-0.7-0.1-1-0.2
	c-0.6-0.2-1.1-0.7-1.3-1.3c-0.1-0.4-0.2-0.7-0.2-1.1c0-0.4,0.1-0.7,0.2-1.1c0.2-0.6,0.7-1.1,1.3-1.3c0.3-0.1,0.7-0.2,1-0.2
	c0.3,0,0.7,0.1,1,0.2c0.6,0.2,1.1,0.7,1.3,1.3C167.9,296.4,168,296.7,168,297.1z M167,297.1c0-0.2,0-0.5-0.1-0.7
	c-0.1-0.2-0.2-0.3-0.3-0.5c-0.1-0.2-0.3-0.3-0.5-0.3c-0.2-0.1-0.3-0.1-0.5-0.1c-0.2,0-0.4,0-0.5,0.1c-0.2,0.1-0.3,0.2-0.5,0.3
	s-0.2,0.3-0.3,0.5c-0.1,0.2-0.1,0.5-0.1,0.7c0,0.2,0,0.5,0.1,0.7c0.1,0.2,0.2,0.3,0.3,0.5c0.1,0.2,0.3,0.3,0.5,0.3
	c0.2,0.1,0.3,0.1,0.5,0.1c0.2,0,0.4,0,0.5-0.1c0.2-0.1,0.3-0.2,0.5-0.3s0.2-0.3,0.3-0.5S167,297.4,167,297.1z"/>
<path d="M173.6,294.5v5.2h-1v-2.1h-2.5v2.1h-1v-5.2h1v2.1h2.5v-2.1H173.6z"/>
<path class="st28" d="M96.3,308.2v1.6h-0.6v-1.1h-3.6v-5.2h0.7v4.6h2.4v-4.6h0.7v4.6h0.4L96.3,308.2z"/>
<path class="st28" d="M100,307.8c-0.1,0.1-0.1,0.3-0.2,0.4l-0.3,0.3c-0.1,0.1-0.2,0.2-0.4,0.2c-0.2,0-0.3,0.1-0.5,0.1
	c-0.2,0-0.5,0-0.7-0.1c-0.2-0.1-0.4-0.2-0.5-0.4c-0.1-0.2-0.3-0.4-0.4-0.6c-0.1-0.3-0.1-0.5-0.1-0.8c0-0.3,0-0.5,0.1-0.8
	c0.1-0.2,0.2-0.4,0.4-0.6c0.1-0.2,0.3-0.3,0.5-0.4c0.4-0.1,0.8-0.1,1.2,0c0.2,0.1,0.4,0.2,0.5,0.4c0.1,0.2,0.3,0.4,0.4,0.6
	c0.1,0.3,0.1,0.5,0.1,0.8v0.3h-2.6c0,0.1,0,0.3,0.1,0.4c0.1,0.1,0.1,0.2,0.2,0.3s0.2,0.2,0.3,0.2c0.1,0.1,0.3,0.1,0.4,0.1h0.3
	c0.1,0,0.1,0,0.2-0.1c0.1,0,0.1-0.1,0.2-0.1c0-0.1,0-0.1,0.1-0.1c0,0,0,0,0,0L100,307.8L100,307.8z M98.5,305.6
	c-0.1,0-0.3,0-0.4,0.1c-0.1,0.1-0.2,0.1-0.3,0.2s-0.2,0.2-0.2,0.3c-0.1,0.1-0.1,0.3-0.1,0.4h2c0-0.3-0.1-0.6-0.3-0.8
	C99,305.7,98.7,305.6,98.5,305.6z"/>
<path class="st28" d="M104,305.1v3.7h-0.6v-1.6h-1.9v1.6h-0.6v-3.7h0.6v1.5h1.9v-1.5H104z"/>
<path class="st28" d="M104.7,305.1h2.9v0.6h-1.1v3.1h-0.6v-3.1h-1.1v-0.6H104.7z"/>
<path class="st28" d="M108.8,305.5c0.1-0.1,0.2-0.2,0.3-0.2s0.2-0.1,0.3-0.2c0.1-0.1,0.3-0.1,0.5-0.1c0.2,0,0.5,0,0.7,0.1
	c0.2,0.1,0.4,0.2,0.5,0.4c0.1,0.2,0.3,0.4,0.4,0.6c0.1,0.3,0.1,0.5,0.1,0.8c0,0.3,0,0.5-0.1,0.8c-0.1,0.2-0.2,0.4-0.4,0.6
	c-0.1,0.2-0.3,0.3-0.5,0.4c-0.2,0.1-0.5,0.1-0.7,0.1c-0.2,0-0.3,0-0.5-0.1c-0.1,0-0.2-0.1-0.3-0.2c-0.1-0.1-0.2-0.2-0.3-0.2v1.8
	h-0.6v-5h0.5L108.8,305.5z M108.8,306.9c0,0.2,0,0.4,0.1,0.5c0.1,0.2,0.1,0.3,0.2,0.4c0.1,0.1,0.2,0.2,0.4,0.3
	c0.1,0.1,0.3,0.1,0.4,0.1c0.2,0,0.3,0,0.4-0.1s0.3-0.2,0.4-0.3c0.1-0.1,0.2-0.2,0.2-0.4c0.1-0.2,0.1-0.3,0.1-0.5
	c0-0.2,0-0.4-0.1-0.5c-0.1-0.2-0.1-0.3-0.2-0.4c-0.1-0.1-0.2-0.2-0.4-0.3c-0.1-0.1-0.3-0.1-0.4-0.1c-0.2,0-0.3,0-0.4,0.1
	s-0.3,0.2-0.4,0.3c-0.1,0.1-0.2,0.2-0.2,0.4C108.8,306.6,108.8,306.7,108.8,306.9z"/>
<path class="st28" d="M115.7,306.9c0,0.3,0,0.5-0.1,0.8c-0.1,0.2-0.2,0.4-0.4,0.6c-0.1,0.2-0.3,0.3-0.5,0.4c-0.5,0.1-0.9,0.1-1.4,0
	c-0.2-0.1-0.4-0.2-0.5-0.4c-0.1-0.2-0.3-0.4-0.4-0.6c-0.1-0.3-0.1-0.5-0.1-0.8c0-0.3,0-0.5,0.1-0.8c0.1-0.2,0.2-0.4,0.4-0.6
	c0.1-0.2,0.3-0.3,0.5-0.4c0.5-0.1,0.9-0.1,1.4,0c0.2,0.1,0.4,0.2,0.5,0.4c0.1,0.2,0.3,0.4,0.4,0.6S115.7,306.7,115.7,306.9z
	 M112.8,306.9c0,0.2,0,0.4,0.1,0.5c0.1,0.2,0.1,0.3,0.2,0.4c0.1,0.1,0.2,0.2,0.4,0.3c0.3,0.1,0.6,0.1,0.8,0c0.1-0.1,0.2-0.2,0.4-0.3
	c0.1-0.1,0.2-0.2,0.2-0.4c0.1-0.2,0.1-0.3,0.1-0.5c0-0.2,0-0.4-0.1-0.5c-0.1-0.2-0.1-0.3-0.2-0.4c-0.1-0.1-0.2-0.2-0.4-0.3
	c-0.3-0.1-0.6-0.1-0.8,0c-0.1,0.1-0.3,0.2-0.4,0.3c-0.1,0.1-0.2,0.2-0.2,0.4C112.9,306.6,112.8,306.7,112.8,306.9z"/>
<path class="st28" d="M118.7,306.9c0.1,0,0.2,0.1,0.3,0.2s0.1,0.2,0.2,0.3s0.1,0.2,0.1,0.4c0.1,0.5-0.3,1-0.9,1.1
	c-0.1,0-0.1,0-0.2,0h-1.8v-3.7h1.6c0.2,0,0.3,0,0.4,0.1s0.2,0.1,0.3,0.2s0.2,0.2,0.2,0.3c0.1,0.1,0.1,0.3,0.1,0.4
	c0,0.1,0,0.2-0.1,0.3c0,0.1-0.1,0.2-0.2,0.2C118.9,306.8,118.8,306.8,118.7,306.9z M117.1,305.7v0.9h0.9c0.2,0,0.3,0,0.4-0.1
	c0.1-0.1,0.1-0.2,0.1-0.3c0-0.1,0-0.3-0.1-0.4c-0.1-0.1-0.2-0.1-0.4-0.1H117.1z M118.2,308.2c0.2,0,0.3-0.1,0.4-0.2
	c0.1-0.1,0.2-0.2,0.2-0.4v-0.2c0-0.1-0.1-0.1-0.1-0.2c-0.1-0.1-0.1-0.1-0.2-0.1h-1.3v1h1V308.2z"/>
<path class="st28" d="M123.4,306.9c0,0.3,0,0.5-0.1,0.8c-0.1,0.2-0.2,0.4-0.4,0.6c-0.1,0.2-0.3,0.3-0.5,0.4c-0.5,0.1-0.9,0.1-1.4,0
	c-0.2-0.1-0.4-0.2-0.5-0.4c-0.1-0.2-0.3-0.4-0.4-0.6c-0.1-0.3-0.1-0.5-0.1-0.8c0-0.3,0-0.5,0.1-0.8c0.1-0.2,0.2-0.4,0.4-0.6
	c0.1-0.2,0.3-0.3,0.5-0.4c0.5-0.1,0.9-0.1,1.4,0c0.2,0.1,0.4,0.2,0.5,0.4c0.1,0.2,0.3,0.4,0.4,0.6S123.4,306.7,123.4,306.9z
	 M120.5,306.9c0,0.2,0,0.4,0.1,0.5c0.1,0.2,0.1,0.3,0.2,0.4c0.1,0.1,0.2,0.2,0.4,0.3c0.3,0.1,0.6,0.1,0.8,0c0.1-0.1,0.2-0.2,0.4-0.3
	c0.1-0.1,0.2-0.2,0.2-0.4c0.1-0.2,0.1-0.3,0.1-0.5c0-0.2,0-0.4-0.1-0.5c-0.1-0.2-0.1-0.3-0.2-0.4c-0.1-0.1-0.2-0.2-0.4-0.3
	c-0.3-0.1-0.6-0.1-0.8,0c-0.1,0.1-0.3,0.2-0.4,0.3c-0.1,0.1-0.2,0.2-0.2,0.4C120.6,306.6,120.5,306.7,120.5,306.9z"/>
<path class="st28" d="M127.3,305.1v3.7h-0.6v-2.7l-1.9,2.7h-0.6v-3.7h0.6v2.7l1.9-2.7H127.3z M125.7,304.5c-0.3,0-0.5-0.1-0.7-0.3
	c-0.2-0.2-0.3-0.4-0.3-0.6h0.5c0,0.2,0.1,0.3,0.2,0.4c0.2,0.1,0.4,0.1,0.6,0c0.1-0.1,0.1-0.2,0.2-0.4h0.5c0,0.2-0.1,0.4-0.3,0.6
	C126.2,304.4,126,304.5,125.7,304.5L125.7,304.5z"/>
<path d="M93.8,317.3c0.2,0,0.4,0,0.6,0.1c0.4,0.2,0.7,0.4,0.9,0.8c0.1,0.4,0.1,0.8,0,1.2c-0.1,0.2-0.2,0.4-0.4,0.5
	c-0.2,0.1-0.3,0.3-0.5,0.3c-0.2,0.1-0.4,0.1-0.6,0.1h-1.1v2H92v-5H93.8z M93.8,319.9c0.1,0,0.3,0,0.4-0.1c0.1-0.1,0.2-0.1,0.3-0.2
	s0.2-0.2,0.2-0.3c0.1-0.3,0.1-0.5,0-0.8c0-0.1-0.1-0.2-0.2-0.3s-0.2-0.2-0.3-0.2s-0.2-0.1-0.4-0.1h-1.1v2H93.8z"/>
<path d="M99.5,320.6c0,0.3,0,0.5-0.1,0.8c-0.1,0.2-0.2,0.4-0.4,0.6c-0.1,0.2-0.3,0.3-0.5,0.4c-0.5,0.1-0.9,0.1-1.4,0
	c-0.2-0.1-0.4-0.2-0.5-0.4c-0.2-0.2-0.3-0.4-0.4-0.6c-0.1-0.3-0.1-0.5-0.1-0.8c0-0.3,0-0.5,0.1-0.8c0.1-0.2,0.2-0.4,0.4-0.6
	c0.1-0.2,0.3-0.3,0.5-0.4c0.5-0.1,0.9-0.1,1.4,0c0.2,0.1,0.4,0.2,0.5,0.4c0.2,0.2,0.3,0.4,0.4,0.6C99.5,320.1,99.5,320.3,99.5,320.6
	z M96.7,320.6c0,0.2,0,0.4,0.1,0.5c0.1,0.2,0.1,0.3,0.2,0.4c0.1,0.1,0.2,0.2,0.4,0.3c0.1,0.1,0.3,0.1,0.4,0.1c0.1,0,0.3,0,0.4-0.1
	c0.1-0.1,0.2-0.2,0.4-0.3c0.1-0.1,0.2-0.2,0.2-0.4c0.1-0.2,0.1-0.3,0.1-0.5c0-0.2,0-0.4-0.1-0.5c-0.1-0.2-0.1-0.3-0.2-0.4
	c-0.1-0.1-0.2-0.2-0.4-0.3c-0.1-0.1-0.3-0.1-0.4-0.1c-0.1,0-0.3,0-0.4,0.1c-0.1,0.1-0.3,0.2-0.4,0.3c-0.1,0.1-0.2,0.2-0.2,0.4
	C96.7,320.3,96.7,320.4,96.7,320.6z"/>
<path d="M101.8,319.3c-0.1,0-0.3,0-0.4,0.1c-0.1,0.1-0.3,0.2-0.4,0.3c-0.1,0.1-0.2,0.2-0.2,0.4c-0.1,0.2-0.1,0.3-0.1,0.5
	c0,0.2,0,0.4,0.1,0.5c0.1,0.2,0.1,0.3,0.2,0.4c0.1,0.1,0.2,0.2,0.4,0.3c0.1,0.1,0.3,0.1,0.4,0.1c0.1,0,0.2,0,0.3-0.1
	c0.1,0,0.2-0.1,0.3-0.2l0.2-0.2c0.1-0.1,0.1-0.2,0.1-0.3h0.6c0,0.2-0.1,0.4-0.2,0.5c-0.1,0.2-0.2,0.3-0.3,0.4
	c-0.2,0.1-0.3,0.2-0.5,0.3c-0.2,0.1-0.4,0.1-0.6,0.1c-0.2,0-0.5,0-0.7-0.1c-0.2-0.1-0.4-0.2-0.5-0.4c-0.2-0.2-0.3-0.4-0.4-0.6
	c-0.1-0.3-0.1-0.5-0.1-0.8c0-0.3,0-0.5,0.1-0.8c0.1-0.2,0.2-0.4,0.4-0.6c0.1-0.2,0.3-0.3,0.5-0.4c0.2-0.1,0.5-0.1,0.7-0.1
	c0.2,0,0.4,0,0.6,0.1c0.2,0.1,0.3,0.2,0.5,0.3s0.3,0.3,0.3,0.4s0.2,0.3,0.2,0.5h-0.6c0-0.1-0.1-0.2-0.1-0.3s-0.1-0.2-0.2-0.2
	s-0.2-0.1-0.3-0.2C102,319.3,101.9,319.3,101.8,319.3z"/>
<path d="M103.8,318.8h2.9v0.6h-1.1v3.1H105v-3.1h-1.1v-0.6H103.8z"/>
<path d="M107.1,319.2c0-0.2,0.2-0.3,0.4-0.3c0.2,0,0.3,0.2,0.3,0.4c0,0.2-0.2,0.3-0.4,0.3c-0.1,0-0.1,0-0.2-0.1
	C107.1,319.4,107.1,319.3,107.1,319.2z M107.1,322.1c0-0.2,0.2-0.3,0.4-0.3c0.2,0,0.3,0.2,0.3,0.4c0,0.2-0.2,0.3-0.4,0.3
	c-0.1,0-0.1,0-0.2-0.1C107.1,322.3,107.1,322.2,107.1,322.1z"/>
<path d="M113.5,321.9v0.6h-3.2V322l2-2.2c0.1-0.1,0.2-0.2,0.2-0.3s0.1-0.2,0.2-0.3s0.1-0.2,0.1-0.4c0-0.2-0.1-0.4-0.3-0.6
	c-0.2-0.2-0.4-0.2-0.7-0.2c-0.6,0-1,0.4-1,1h-0.7c0-0.2,0-0.4,0.1-0.6c0.1-0.4,0.4-0.7,0.8-0.8c0.2-0.1,0.5-0.1,0.7-0.1
	c0.2,0,0.4,0,0.6,0.1c0.4,0.1,0.7,0.4,0.8,0.8c0.1,0.2,0.1,0.4,0.1,0.6c0,0.2,0,0.4-0.1,0.5c-0.1,0.1-0.2,0.2-0.2,0.4
	c-0.1,0.1-0.2,0.3-0.3,0.4l-1.6,1.8h2.5V321.9z"/>
<path d="M115.8,317.3v5.2h-0.7v-4.3l-0.7,0.5l-0.3-0.5l1.3-0.9L115.8,317.3z"/>
<path d="M116.7,318.6c0-0.2,0.1-0.4,0.2-0.5c0.1-0.1,0.2-0.3,0.3-0.4c0.2-0.1,0.3-0.2,0.5-0.3c0.2-0.1,0.4-0.1,0.6-0.1
	c0.2,0,0.5,0,0.6,0.1c0.4,0.1,0.7,0.4,0.8,0.8c0.1,0.2,0.1,0.4,0.1,0.6c0,0.2,0,0.3-0.1,0.5l-0.3,0.3c-0.1,0.1-0.2,0.2-0.4,0.3
	c0.2,0.1,0.3,0.2,0.5,0.3c0.1,0.1,0.2,0.2,0.3,0.4c0.1,0.4,0.1,0.8,0,1.2c-0.1,0.2-0.2,0.4-0.4,0.5c-0.1,0.1-0.3,0.2-0.5,0.3
	c-0.2,0.1-0.5,0.1-0.7,0.1c-0.2,0-0.4,0-0.6-0.1c-0.2-0.1-0.3-0.2-0.5-0.3c-0.1-0.1-0.3-0.3-0.3-0.4s-0.2-0.3-0.2-0.5h0.7
	c0,0.2,0.1,0.4,0.3,0.5c0.2,0.1,0.5,0.2,0.7,0.2c0.3,0,0.6-0.1,0.8-0.3c0.2-0.2,0.3-0.4,0.3-0.6c0-0.2-0.1-0.5-0.3-0.6
	c-0.2-0.2-0.5-0.3-0.8-0.3H118v-0.6h0.2c0.2,0,0.5-0.1,0.7-0.2c0.3-0.2,0.4-0.7,0.2-1c0-0.1-0.1-0.1-0.2-0.2
	c-0.2-0.2-0.4-0.2-0.7-0.2c-0.1,0-0.3,0-0.4,0.1c-0.1,0-0.2,0.1-0.3,0.2s-0.1,0.2-0.2,0.2s-0.1,0.2-0.1,0.3h-0.5L116.7,318.6z"/>
<path d="M132.6,319.7c0.1,0.1,0.3,0.2,0.4,0.3c0.1,0.1,0.2,0.2,0.3,0.4c0.1,0.4,0.1,0.8,0,1.2c-0.1,0.2-0.2,0.3-0.3,0.5
	s-0.3,0.2-0.5,0.3c-0.2,0.1-0.5,0.1-0.7,0.1h-2v-5.2h1.9c0.2,0,0.4,0,0.6,0.1c0.2,0.1,0.3,0.2,0.5,0.3s0.2,0.3,0.3,0.4
	c0.1,0.3,0.1,0.7,0,1c-0.1,0.1-0.1,0.2-0.2,0.3S132.7,319.7,132.6,319.7z M130.5,319.5h1.3c0.1,0,0.2,0,0.3-0.1
	c0.1-0.1,0.2-0.1,0.3-0.2s0.1-0.2,0.2-0.2s0.1-0.2,0.1-0.3c0-0.1,0-0.2-0.1-0.3c0-0.1-0.1-0.2-0.2-0.3s-0.2-0.1-0.3-0.2
	s-0.2-0.1-0.3-0.1h-1.3V319.5z M131.8,321.9c0.6,0,1-0.4,1-1c0-0.1,0-0.2-0.1-0.3c-0.1-0.1-0.1-0.2-0.2-0.3s-0.2-0.1-0.3-0.2
	s-0.3-0.1-0.4-0.1h-1.3v1.8h1.3V321.9z"/>
<path d="M137.3,321.5c-0.1,0.1-0.1,0.3-0.2,0.4l-0.3,0.3c-0.1,0.1-0.2,0.2-0.4,0.2c-0.2,0-0.3,0.1-0.5,0.1c-0.2,0-0.5,0-0.7-0.1
	c-0.2-0.1-0.4-0.2-0.5-0.4c-0.2-0.2-0.3-0.4-0.4-0.6c-0.1-0.3-0.1-0.5-0.1-0.8c0-0.3,0-0.5,0.1-0.8c0.1-0.2,0.2-0.4,0.4-0.6
	c0.1-0.2,0.3-0.3,0.5-0.4c0.4-0.1,0.8-0.1,1.2,0c0.2,0.1,0.4,0.2,0.5,0.4c0.1,0.2,0.3,0.4,0.4,0.6c0.1,0.3,0.1,0.5,0.1,0.8v0.3h-2.6
	c0,0.1,0,0.3,0.1,0.4c0.1,0.1,0.1,0.2,0.2,0.3s0.2,0.2,0.3,0.2c0.1,0.1,0.3,0.1,0.4,0.1h0.3c0.1,0,0.1,0,0.2-0.1
	c0.1,0,0.1-0.1,0.2-0.1c0-0.1,0-0.1,0.1-0.1h0L137.3,321.5L137.3,321.5z M135.7,319.3c-0.1,0-0.3,0-0.4,0.1
	c-0.1,0.1-0.2,0.1-0.3,0.2s-0.2,0.2-0.2,0.3c-0.1,0.1-0.1,0.3-0.1,0.4h2c0-0.3-0.1-0.6-0.3-0.8C136.2,319.4,135.9,319.3,135.7,319.3
	L135.7,319.3z"/>
<path d="M139.6,319.3c-0.1,0-0.3,0-0.4,0.1c-0.1,0.1-0.3,0.2-0.4,0.3c-0.1,0.1-0.2,0.2-0.2,0.4c-0.1,0.2-0.1,0.3-0.1,0.5
	c0,0.2,0,0.4,0.1,0.5c0.1,0.2,0.1,0.3,0.2,0.4c0.1,0.1,0.2,0.2,0.4,0.3c0.1,0.1,0.3,0.1,0.4,0.1c0.1,0,0.2,0,0.3-0.1
	c0.1,0,0.2-0.1,0.3-0.2l0.2-0.2c0.1-0.1,0.1-0.2,0.1-0.3h0.6c0,0.2-0.1,0.4-0.2,0.5c-0.1,0.2-0.2,0.3-0.3,0.4
	c-0.2,0.1-0.3,0.2-0.5,0.3c-0.2,0.1-0.4,0.1-0.6,0.1c-0.2,0-0.5,0-0.7-0.1c-0.2-0.1-0.4-0.2-0.5-0.4c-0.2-0.2-0.3-0.4-0.4-0.6
	c-0.1-0.3-0.1-0.5-0.1-0.8c0-0.3,0-0.5,0.1-0.8c0.1-0.2,0.2-0.4,0.4-0.6c0.1-0.2,0.3-0.3,0.5-0.4c0.2-0.1,0.5-0.1,0.7-0.1
	c0.2,0,0.4,0,0.6,0.1c0.2,0.1,0.3,0.2,0.5,0.3s0.3,0.3,0.3,0.4s0.2,0.3,0.2,0.5h-0.6c0-0.1-0.1-0.2-0.1-0.3s-0.1-0.2-0.2-0.2
	s-0.2-0.1-0.3-0.2C139.9,319.3,139.7,319.3,139.6,319.3z"/>
<path d="M141.8,319.2c0-0.2,0.2-0.3,0.4-0.3c0.2,0,0.3,0.2,0.3,0.4s-0.2,0.3-0.4,0.3c-0.1,0-0.1,0-0.2-0.1
	C141.8,319.4,141.8,319.3,141.8,319.2z M141.8,322.1c0-0.2,0.2-0.3,0.4-0.3c0.2,0,0.3,0.2,0.3,0.4s-0.2,0.3-0.4,0.3
	c-0.1,0-0.1,0-0.2-0.1C141.8,322.3,141.8,322.2,141.8,322.1z"/>
<path d="M146.5,317.3v5.2h-0.7v-4.3l-0.7,0.5l-0.3-0.5l1.3-0.9L146.5,317.3z"/>
<path d="M149,317.3v5.2h-0.7v-4.3l-0.7,0.5l-0.3-0.5l1.3-0.9L149,317.3z"/>
<path d="M151.7,322.5c-0.2,0-0.5,0-0.7-0.1c-0.2-0.1-0.4-0.2-0.6-0.4c-0.2-0.2-0.3-0.4-0.4-0.6c-0.1-0.2-0.1-0.5-0.1-0.7
	c0-0.2,0-0.3,0.1-0.5c0.1-0.2,0.1-0.3,0.2-0.4s0.1-0.3,0.2-0.4l1.5-2.2h0.7l-1.1,1.7h0.3c0.2,0,0.5,0,0.7,0.1
	c0.2,0.1,0.4,0.2,0.6,0.4c0.2,0.2,0.3,0.4,0.4,0.6c0.1,0.2,0.1,0.5,0.1,0.7c0,0.2,0,0.5-0.1,0.7c-0.1,0.2-0.2,0.4-0.4,0.6
	c-0.2,0.2-0.4,0.3-0.6,0.4C152.2,322.5,152,322.5,151.7,322.5z M150.6,320.8c0,0.2,0,0.3,0.1,0.5c0.1,0.1,0.1,0.3,0.2,0.4
	c0.1,0.1,0.2,0.2,0.4,0.2c0.1,0.1,0.3,0.1,0.4,0.1c0.2,0,0.3,0,0.4-0.1s0.3-0.1,0.4-0.2c0.1-0.1,0.2-0.2,0.2-0.4
	c0.1-0.1,0.1-0.3,0.1-0.5c0-0.2,0-0.3-0.1-0.5c-0.1-0.1-0.1-0.3-0.2-0.4c-0.1-0.1-0.2-0.2-0.4-0.2c-0.1-0.1-0.3-0.1-0.4-0.1
	c-0.2,0-0.3,0-0.4,0.1s-0.3,0.1-0.4,0.2c-0.1,0.1-0.2,0.2-0.2,0.4C150.7,320.5,150.6,320.6,150.6,320.8z"/>
<polyline class="st29" points="44.7,331.1 276.2,331.1 276.2,330.1 44.7,330.1 "/>
<path d="M94.9,340.3c0.5,0,0.9,0.1,1.3,0.3c0.4,0.2,0.8,0.4,1.1,0.8c0.3,0.4,0.6,0.8,0.8,1.2c0.2,0.4,0.3,0.9,0.3,1.4
	c0,0.5-0.1,1-0.3,1.5c-0.2,0.5-0.4,0.9-0.8,1.2c-0.3,0.3-0.7,0.6-1.1,0.8c-0.4,0.2-0.8,0.3-1.3,0.3c-0.4,0-0.7-0.1-1.1-0.2
	c-0.3-0.1-0.6-0.3-0.9-0.5c-0.3-0.2-0.5-0.5-0.7-0.8c-0.2-0.3-0.3-0.6-0.4-0.9H93c0.1,0.2,0.1,0.4,0.2,0.5s0.2,0.3,0.4,0.4
	c0.2,0.1,0.4,0.2,0.6,0.3c0.2,0.1,0.5,0.1,0.7,0.1c0.3,0,0.6-0.1,0.8-0.2c0.5-0.3,0.9-0.7,1.2-1.2c0.1-0.3,0.2-0.5,0.3-0.8h-2.8v-1
	h2.8c0-0.3-0.1-0.6-0.3-0.9c-0.1-0.3-0.3-0.5-0.5-0.7c-0.2-0.2-0.4-0.4-0.7-0.5c-0.3-0.1-0.5-0.2-0.8-0.2c-0.2,0-0.5,0-0.7,0.1
	l-0.6,0.3c-0.2,0.1-0.3,0.3-0.4,0.5c-0.1,0.2-0.2,0.3-0.2,0.5h-1.1c0.1-0.3,0.2-0.6,0.4-0.9c0.2-0.3,0.4-0.6,0.7-0.8
	c0.3-0.2,0.6-0.4,0.9-0.5C94.3,340.3,94.6,340.3,94.9,340.3z"/>
<path d="M104,342.4v5.2h-1v-2.1h-2.5v2.1h-1v-5.2h1v2.1h2.5v-2.1H104z"/>
<path d="M110.2,346.6v2.2h-1v-1.2h-3.6v1.2h-1v-2.2h0.3l0.3-0.3c0.1-0.1,0.1-0.2,0.2-0.3c0.1-0.1,0.1-0.3,0.1-0.4l0.3-3.2h3.5v4.2
	L110.2,346.6z M106.7,345.6c0,0.2,0,0.3-0.1,0.4c-0.1,0.1-0.1,0.2-0.1,0.3c-0.1,0.1-0.1,0.2-0.2,0.3h2.2v-3.2h-1.6L106.7,345.6z"/>
<path d="M113.6,342.3c0.3,0,0.7,0.1,1,0.2c0.6,0.2,1.1,0.7,1.3,1.3c0.1,0.4,0.2,0.7,0.2,1.1c0,0.4-0.1,0.7-0.2,1.1
	c-0.2,0.6-0.7,1.1-1.3,1.3c-0.3,0.1-0.7,0.2-1,0.2c-0.2,0-0.5,0-0.6-0.1s-0.3-0.1-0.4-0.2s-0.3-0.2-0.4-0.3v2.4h-1v-7h0.7l0.2,0.5
	c0.1-0.1,0.2-0.2,0.4-0.3c0.1-0.1,0.3-0.1,0.5-0.2C113.1,342.4,113.3,342.3,113.6,342.3z M113.6,346.7c0.2,0,0.4,0,0.6-0.1
	c0.2-0.1,0.3-0.2,0.5-0.3s0.2-0.3,0.3-0.5c0.1-0.2,0.1-0.5,0.1-0.7c0-0.2,0-0.5-0.1-0.7c-0.1-0.2-0.2-0.3-0.3-0.5
	c-0.1-0.2-0.3-0.3-0.5-0.3c-0.4-0.1-0.8-0.1-1.2,0c-0.2,0.1-0.3,0.2-0.5,0.3s-0.2,0.3-0.3,0.5c-0.1,0.2-0.1,0.5-0.1,0.7
	c0,0.2,0,0.5,0.1,0.7c0.1,0.2,0.2,0.3,0.3,0.5c0.1,0.2,0.3,0.3,0.5,0.3C113.2,346.6,113.4,346.7,113.6,346.7z"/>
<path d="M121.4,342.3c0.3,0,0.6,0.1,0.9,0.2c0.3,0.1,0.6,0.3,0.8,0.5c0.3,0.2,0.4,0.5,0.5,0.8c0.1,0.4,0.2,0.7,0.2,1.1
	c0,0.4-0.1,0.7-0.2,1.1c-0.2,0.6-0.7,1.1-1.3,1.3c-0.3,0.1-0.6,0.2-0.9,0.2c-0.3,0-0.6-0.1-0.8-0.2c-0.5-0.3-0.9-0.7-1.2-1.2
	c-0.1-0.3-0.2-0.5-0.3-0.8h-0.9v2.1h-1v-5.2h1v2.1h0.9c0-0.3,0.1-0.6,0.3-0.9c0.1-0.3,0.3-0.5,0.5-0.7c0.2-0.2,0.5-0.4,0.7-0.5
	C120.8,342.4,121.1,342.3,121.4,342.3z M121.4,346.7c0.2,0,0.3,0,0.5-0.1c0.2-0.1,0.3-0.2,0.4-0.3c0.1-0.2,0.2-0.3,0.3-0.5
	c0.1-0.2,0.1-0.5,0.1-0.7c0-0.2,0-0.5-0.1-0.7c-0.1-0.2-0.2-0.3-0.3-0.5c-0.1-0.2-0.2-0.3-0.4-0.3c-0.3-0.1-0.7-0.1-1,0
	c-0.2,0.1-0.3,0.2-0.4,0.3c-0.1,0.2-0.2,0.3-0.3,0.5c-0.1,0.2-0.1,0.5-0.1,0.7c0,0.2,0,0.5,0.1,0.7c0.1,0.2,0.2,0.3,0.3,0.5
	c0.1,0.2,0.2,0.3,0.4,0.3C121.1,346.6,121.2,346.7,121.4,346.7z"/>
<path d="M127.9,347.6h-1.2l2.8-7.3h0.9l2.8,7.3H132l-0.6-1.7h-2.9L127.9,347.6z M131,344.9l-1-2.9l-1,2.9H131z"/>
<path d="M138.2,342.4v5.2h-1v-4.2h-1.7l-0.2,2.5c0,0.5-0.2,1-0.5,1.3c-0.3,0.3-0.7,0.5-1.2,0.5h-0.3v-0.9h0.1c0.5,0,0.8-0.3,0.9-0.9
	l0.3-3.5H138.2z"/>
<path d="M141.8,344.1c0.2,0,0.5,0,0.7,0.1c0.2,0.1,0.4,0.2,0.6,0.4c0.2,0.1,0.3,0.3,0.4,0.5c0.1,0.2,0.1,0.5,0.1,0.7
	c0,0.2,0,0.5-0.1,0.7c-0.1,0.2-0.2,0.4-0.4,0.5c-0.2,0.2-0.4,0.3-0.6,0.4c-0.2,0.1-0.5,0.1-0.7,0.1h-2.3v-5.2h1v1.7L141.8,344.1
	L141.8,344.1z M141.8,346.6c0.2,0,0.4-0.1,0.5-0.2c0.2-0.1,0.2-0.3,0.2-0.5c0-0.2-0.1-0.4-0.2-0.5c-0.1-0.2-0.3-0.2-0.5-0.2h-1.3
	v1.5L141.8,346.6L141.8,346.6z"/>
<path d="M147,342.6c0.3,0,0.6,0.1,0.9,0.2c0.3,0.1,0.6,0.3,0.8,0.5c0.2,0.2,0.4,0.5,0.5,0.8c0.3,0.6,0.3,1.4,0,2
	c-0.2,0.6-0.7,1.1-1.3,1.3c-0.6,0.3-1.4,0.3-2,0c-0.3-0.1-0.6-0.3-0.8-0.6c-0.2-0.3-0.4-0.6-0.5-1c-0.1-0.5-0.2-0.9-0.2-1.4
	c0-0.6,0.1-1.3,0.2-1.9c0.1-0.5,0.4-0.9,0.7-1.3c0.4-0.3,0.8-0.6,1.3-0.7c0.7-0.2,1.4-0.3,2.1-0.3v1c-0.5,0-1,0.1-1.5,0.2
	c-0.4,0.1-0.7,0.2-1,0.4c-0.2,0.2-0.4,0.4-0.5,0.7c-0.1,0.3-0.2,0.6-0.2,0.9c0.1-0.1,0.2-0.3,0.4-0.4c0.2-0.1,0.3-0.2,0.5-0.3
	C146.5,342.6,146.8,342.6,147,342.6z M146.9,346.7c0.2,0,0.4,0,0.5-0.1c0.2-0.1,0.3-0.2,0.5-0.3c0.1-0.2,0.2-0.3,0.3-0.5
	c0.1-0.4,0.1-0.8,0-1.2c-0.1-0.2-0.2-0.3-0.3-0.5c-0.1-0.2-0.3-0.3-0.5-0.3c-0.2-0.1-0.3-0.1-0.5-0.1c-0.2,0-0.4,0-0.5,0.1
	c-0.2,0.1-0.3,0.2-0.5,0.3c-0.1,0.2-0.2,0.3-0.3,0.5c-0.1,0.4-0.1,0.8,0,1.2c0.1,0.2,0.2,0.3,0.3,0.5c0.1,0.2,0.3,0.3,0.5,0.3
	C146.6,346.6,146.8,346.7,146.9,346.7L146.9,346.7z"/>
<path d="M155,342.4v5.2h-1V344l-2.5,3.6h-1v-5.2h1v3.6l2.5-3.6H155z"/>
<path d="M160.9,345.7c-0.1,0.3-0.2,0.5-0.3,0.8c-0.1,0.2-0.3,0.4-0.5,0.6c-0.2,0.2-0.4,0.3-0.7,0.4c-0.3,0.1-0.5,0.1-0.8,0.1
	c-0.3,0-0.7-0.1-1-0.2c-0.6-0.2-1.1-0.7-1.3-1.3c-0.1-0.4-0.2-0.7-0.2-1.1c0-0.4,0.1-0.7,0.2-1.1c0.2-0.6,0.7-1.1,1.3-1.3
	c0.3-0.1,0.7-0.2,1-0.2c0.3,0,0.5,0,0.8,0.1c0.3,0.1,0.5,0.2,0.7,0.4c0.2,0.2,0.4,0.4,0.5,0.6c0.1,0.3,0.2,0.5,0.3,0.8h-1.1
	c-0.1-0.3-0.2-0.5-0.4-0.7c-0.2-0.2-0.5-0.3-0.8-0.3c-0.2,0-0.4,0-0.5,0.1c-0.2,0.1-0.3,0.2-0.5,0.3s-0.2,0.3-0.3,0.5
	c-0.1,0.2-0.1,0.5-0.1,0.7c0,0.2,0,0.5,0.1,0.7c0.1,0.2,0.2,0.3,0.3,0.5c0.1,0.2,0.3,0.3,0.5,0.3c0.2,0.1,0.3,0.1,0.5,0.1
	c0.3,0,0.6-0.1,0.8-0.3c0.2-0.2,0.3-0.4,0.4-0.7h1.1V345.7z"/>
<path d="M166.5,342.4v5.2h-1V344l-2.5,3.6h-1v-5.2h1v3.6l2.5-3.6H166.5z"/>
<path class="st28" d="M91.7,352.9c0-0.2,0.1-0.4,0.2-0.6c0.1-0.2,0.2-0.3,0.3-0.5s0.3-0.2,0.5-0.3c0.2-0.1,0.4-0.1,0.6-0.1
	c0.2,0,0.5,0,0.6,0.1c0.4,0.1,0.7,0.4,0.8,0.8c0.1,0.2,0.1,0.4,0.1,0.6c0,0.2,0,0.3-0.1,0.5c-0.1,0.1-0.2,0.2-0.2,0.3l-0.3,0.3
	c0.3,0.2,0.5,0.4,0.7,0.7c0.1,0.4,0.1,0.8,0,1.2c-0.1,0.2-0.2,0.4-0.4,0.5c-0.1,0.1-0.3,0.2-0.5,0.3c-0.5,0.1-0.9,0.1-1.4,0
	c-0.4-0.2-0.7-0.4-0.9-0.8c-0.1-0.2-0.2-0.4-0.2-0.6h0.7c0,0.2,0.1,0.4,0.3,0.6c0.2,0.2,0.4,0.2,0.8,0.2c0.3,0,0.6-0.1,0.8-0.3
	c0.2-0.2,0.3-0.4,0.3-0.6c0-0.2-0.1-0.5-0.3-0.6c-0.2-0.2-0.5-0.3-0.8-0.3H93v-0.6h0.3c0.2,0,0.5-0.1,0.7-0.2c0.3-0.2,0.4-0.7,0.2-1
	c0-0.1-0.1-0.1-0.2-0.2c-0.2-0.2-0.4-0.2-0.7-0.2c-0.2,0-0.5,0.1-0.7,0.2c-0.2,0.2-0.3,0.4-0.3,0.6H91.7z"/>
<path class="st28" d="M97.4,352.9c0.2,0,0.4,0,0.6,0.1c0.3,0.2,0.5,0.4,0.7,0.7c0.1,0.2,0.1,0.3,0.1,0.5v2.5h-0.4l-0.2-0.4
	c-0.1,0.1-0.2,0.2-0.3,0.2s-0.2,0.1-0.3,0.2c-0.2,0-0.3,0.1-0.5,0.1c-0.2,0-0.4,0-0.5-0.1c-0.1-0.1-0.3-0.1-0.4-0.2
	c-0.1-0.1-0.2-0.2-0.2-0.4c-0.1-0.1-0.1-0.3-0.1-0.4c0-0.2,0-0.3,0.1-0.5c0.1-0.1,0.2-0.3,0.4-0.4c0.2-0.1,0.5-0.2,0.7-0.2
	c0.4-0.1,0.7-0.1,1.1-0.1v-0.2c0-0.2-0.1-0.3-0.2-0.5c-0.2-0.1-0.4-0.2-0.6-0.2c-0.2,0-0.4,0-0.5,0.1c-0.1,0.1-0.2,0.2-0.2,0.4H96
	c0-0.2,0.1-0.3,0.1-0.4s0.2-0.3,0.3-0.4c0.1-0.1,0.2-0.2,0.4-0.2C97,353,97.2,352.9,97.4,352.9z M97,356.1c0.2,0,0.3,0,0.5-0.1
	c0.1-0.1,0.3-0.1,0.3-0.2s0.2-0.2,0.2-0.3c0.1-0.1,0.1-0.2,0.1-0.3v-0.3h-0.9c-0.2,0-0.3,0.1-0.5,0.1c-0.1,0.1-0.2,0.1-0.2,0.2
	s-0.1,0.2-0.1,0.3s0.1,0.2,0.2,0.3C96.7,356.1,96.8,356.1,97,356.1L97,356.1z"/>
<path class="st28" d="M104.2,357.6v-0.9h-4.5V353h0.6v3.1h1.4V353h0.6v3.1h1.3V353h0.6v3.1h0.5v1.5H104.2z"/>
<path class="st28" d="M108.6,353v3.7H108V354l-1.9,2.7h-0.6V353h0.6v2.7l1.9-2.7H108.6z"/>
<path class="st28" d="M109.3,353h2.9v0.6H111v3.1h-0.6v-3.1h-1.1L109.3,353z"/>
<path class="st28" d="M115.9,353v3.7h-0.6v-1.6h-1.9v1.6h-0.6V353h0.6v1.5h1.9V353H115.9z"/>
<path class="st28" d="M120.1,353v3.7h-0.6V354l-1.9,2.7H117V353h0.6v2.7l1.9-2.7H120.1z"/>
<path class="st28" d="M121.8,356.7h-0.6V353h0.6V356.7z M123.3,356.7l-1.6-1.9l1.4-1.8h0.7l-1.4,1.7l1.6,2L123.3,356.7z"/>
<path d="M93.8,365.2c0.2,0,0.4,0,0.6,0.1c0.4,0.2,0.7,0.4,0.9,0.8c0.1,0.4,0.1,0.8,0,1.2c-0.1,0.2-0.2,0.4-0.4,0.5
	c-0.2,0.1-0.3,0.3-0.5,0.3c-0.2,0.1-0.4,0.1-0.6,0.1h-1.1v2H92V365h1.8L93.8,365.2z M93.8,367.8c0.1,0,0.3,0,0.4-0.1
	c0.1-0.1,0.2-0.1,0.3-0.2s0.2-0.2,0.2-0.3c0.1-0.3,0.1-0.5,0-0.8c0-0.1-0.1-0.2-0.2-0.3s-0.2-0.2-0.3-0.2s-0.2-0.1-0.4-0.1h-1.1v2
	H93.8z"/>
<path d="M99.5,368.5c0,0.3,0,0.5-0.1,0.8c-0.1,0.2-0.2,0.4-0.4,0.6c-0.1,0.2-0.3,0.3-0.5,0.4c-0.5,0.1-0.9,0.1-1.4,0
	c-0.2-0.1-0.4-0.2-0.5-0.4c-0.1-0.2-0.3-0.4-0.4-0.6c-0.1-0.3-0.1-0.5-0.1-0.8c0-0.3,0-0.5,0.1-0.8c0.1-0.2,0.2-0.4,0.4-0.6
	c0.1-0.2,0.3-0.3,0.5-0.4c0.5-0.1,0.9-0.1,1.4,0c0.2,0.1,0.4,0.2,0.5,0.4c0.1,0.2,0.3,0.4,0.4,0.6C99.5,368,99.5,368.2,99.5,368.5z
	 M96.7,368.5c0,0.2,0,0.4,0.1,0.5c0.1,0.2,0.1,0.3,0.2,0.4c0.1,0.1,0.2,0.2,0.4,0.3c0.3,0.1,0.6,0.1,0.8,0c0.1-0.1,0.2-0.2,0.4-0.3
	c0.1-0.1,0.2-0.2,0.2-0.4c0.1-0.2,0.1-0.3,0.1-0.5c0-0.2,0-0.4-0.1-0.5c-0.1-0.2-0.1-0.3-0.2-0.4c-0.1-0.1-0.2-0.2-0.4-0.3
	c-0.3-0.1-0.6-0.1-0.8,0c-0.1,0.1-0.3,0.2-0.4,0.3c-0.1,0.1-0.2,0.2-0.2,0.4C96.7,368.1,96.7,368.3,96.7,368.5z"/>
<path d="M101.8,367.2c-0.1,0-0.3,0-0.4,0.1c-0.1,0.1-0.3,0.2-0.4,0.3c-0.1,0.1-0.2,0.2-0.2,0.4c-0.1,0.2-0.1,0.3-0.1,0.5
	c0,0.2,0,0.4,0.1,0.5c0.1,0.2,0.1,0.3,0.2,0.4c0.1,0.1,0.2,0.2,0.4,0.3c0.1,0.1,0.3,0.1,0.4,0.1c0.1,0,0.2,0,0.3-0.1
	c0.1,0,0.2-0.1,0.3-0.2l0.2-0.2c0.1-0.1,0.1-0.2,0.1-0.3h0.6c0,0.2-0.1,0.4-0.2,0.5c-0.1,0.2-0.2,0.3-0.3,0.4
	c-0.2,0.1-0.3,0.2-0.5,0.3c-0.2,0.1-0.4,0.1-0.6,0.1c-0.2,0-0.5,0-0.7-0.1c-0.2-0.1-0.4-0.2-0.5-0.4c-0.1-0.2-0.3-0.4-0.4-0.6
	c-0.1-0.3-0.1-0.5-0.1-0.8c0-0.3,0-0.5,0.1-0.8c0.1-0.2,0.2-0.4,0.4-0.6c0.1-0.2,0.3-0.3,0.5-0.4c0.2-0.1,0.5-0.1,0.7-0.1
	c0.2,0,0.4,0,0.6,0.1c0.2,0.1,0.3,0.2,0.5,0.3s0.3,0.3,0.3,0.4s0.2,0.3,0.2,0.5h-0.6c0-0.1-0.1-0.2-0.1-0.3s-0.1-0.2-0.2-0.2
	s-0.2-0.1-0.3-0.2C102,367.2,101.9,367.2,101.8,367.2z"/>
<path d="M103.8,366.7h2.9v0.6h-1.1v3.1H105v-3.1h-1.1v-0.6H103.8z"/>
<path d="M107.1,367.1c0-0.2,0.2-0.3,0.4-0.3c0.2,0,0.3,0.2,0.3,0.4c0,0.2-0.2,0.3-0.4,0.3c-0.1,0-0.1,0-0.2-0.1
	C107.1,367.3,107.1,367.2,107.1,367.1z M107.1,370c0-0.2,0.2-0.3,0.4-0.3c0.2,0,0.3,0.2,0.3,0.4c0,0.2-0.2,0.3-0.4,0.3
	c-0.1,0-0.1,0-0.2-0.1C107.1,370.2,107.1,370.1,107.1,370L107.1,370z"/>
<path d="M111.8,365.2v5.2h-0.7v-4.3l-0.7,0.5l-0.3-0.5l1.3-0.9L111.8,365.2z"/>
<path d="M115.9,365.2v0.4l-2.2,4.7H113l2.1-4.6h-2.4v-0.6h3.2V365.2z"/>
<path d="M118.1,370.4c-0.2,0-0.5,0-0.7-0.1c-0.2-0.1-0.3-0.2-0.5-0.3c-0.2-0.1-0.3-0.3-0.4-0.5c-0.1-0.2-0.1-0.4-0.1-0.6
	c0-0.2,0-0.5,0.1-0.6c0.1-0.2,0.2-0.3,0.3-0.4c0.2-0.1,0.3-0.2,0.5-0.3c-0.2,0-0.3-0.1-0.4-0.2c-0.1-0.1-0.2-0.2-0.2-0.3
	c-0.1-0.1-0.1-0.3-0.1-0.5c0-0.2,0-0.3,0.1-0.5c0.1-0.2,0.2-0.3,0.3-0.4c0.2-0.1,0.3-0.2,0.5-0.3c0.4-0.1,0.8-0.1,1.2,0
	c0.2,0.1,0.3,0.2,0.5,0.3s0.2,0.3,0.3,0.4c0.1,0.3,0.1,0.7,0,1c-0.1,0.1-0.2,0.2-0.2,0.3s-0.2,0.2-0.3,0.2c0.3,0.2,0.5,0.4,0.7,0.7
	c0.1,0.4,0.1,0.8,0,1.2c-0.1,0.2-0.2,0.4-0.4,0.5c-0.2,0.1-0.3,0.2-0.5,0.3S118.3,370.4,118.1,370.4z M118.1,367.9
	c-0.3,0-0.6,0.1-0.8,0.3c-0.4,0.4-0.4,1,0,1.4c0.2,0.2,0.5,0.3,0.8,0.3c0.3,0,0.6-0.1,0.8-0.3c0.4-0.4,0.4-1,0-1.4
	C118.7,368,118.4,367.9,118.1,367.9z M118.1,367.3c0.1,0,0.2,0,0.3-0.1c0.1-0.1,0.2-0.1,0.3-0.2s0.1-0.2,0.2-0.2s0.1-0.2,0.1-0.3
	c0-0.1,0-0.2-0.1-0.3c-0.1-0.1-0.1-0.2-0.2-0.3s-0.2-0.1-0.3-0.2c-0.2-0.1-0.4-0.1-0.6,0c-0.1,0-0.2,0.1-0.3,0.2s-0.1,0.2-0.2,0.3
	s-0.1,0.2-0.1,0.3c0,0.1,0,0.2,0.1,0.3c0,0.1,0.1,0.2,0.2,0.2c0.1,0.1,0.2,0.1,0.3,0.2S118,367.3,118.1,367.3z"/>
<path d="M132.4,367.6c0.1,0.1,0.3,0.2,0.4,0.3c0.1,0.1,0.2,0.2,0.3,0.4c0.1,0.4,0.1,0.8,0,1.2c-0.1,0.2-0.2,0.3-0.3,0.5
	c-0.2,0.1-0.3,0.2-0.5,0.3c-0.2,0.1-0.5,0.1-0.7,0.1h-2v-5.2h1.9c0.2,0,0.4,0,0.6,0.1c0.2,0.1,0.3,0.2,0.5,0.3s0.2,0.3,0.3,0.4
	c0.1,0.2,0.1,0.3,0.1,0.5c0,0.2,0,0.3-0.1,0.5c0,0.1-0.1,0.2-0.2,0.3C132.6,367.5,132.5,367.5,132.4,367.6z M130.2,367.4h1.3
	c0.1,0,0.2,0,0.3-0.1c0.1,0,0.2-0.1,0.3-0.2s0.1-0.2,0.2-0.2s0.1-0.2,0.1-0.3c0-0.1,0-0.2-0.1-0.3c0-0.1-0.1-0.2-0.2-0.3
	s-0.2-0.1-0.3-0.2s-0.2-0.1-0.3-0.1h-1.3V367.4z M131.5,369.8c0.6,0,1-0.4,1-1c0-0.1,0-0.2-0.1-0.3c-0.1-0.1-0.1-0.2-0.2-0.3
	s-0.2-0.1-0.3-0.2s-0.3-0.1-0.4-0.1h-1.3v1.8h1.3V369.8z"/>
<path d="M137,369.4c-0.1,0.1-0.1,0.3-0.2,0.4l-0.3,0.3c-0.1,0.1-0.2,0.2-0.4,0.2c-0.2,0-0.3,0.1-0.5,0.1c-0.2,0-0.5,0-0.7-0.1
	c-0.2-0.1-0.4-0.2-0.5-0.4c-0.1-0.2-0.3-0.4-0.4-0.6c-0.1-0.3-0.1-0.5-0.1-0.8c0-0.3,0-0.5,0.1-0.8c0.1-0.2,0.2-0.4,0.4-0.6
	c0.1-0.2,0.3-0.3,0.5-0.4c0.4-0.1,0.8-0.1,1.2,0c0.2,0.1,0.4,0.2,0.5,0.4c0.1,0.2,0.3,0.4,0.4,0.6c0.1,0.3,0.1,0.5,0.1,0.8v0.3h-2.6
	c0,0.1,0,0.3,0.1,0.4c0.1,0.1,0.1,0.2,0.2,0.3s0.2,0.2,0.3,0.2c0.1,0.1,0.3,0.1,0.4,0.1h0.3c0.1,0,0.1,0,0.2-0.1
	c0.1,0,0.1-0.1,0.2-0.1c0-0.1,0-0.1,0.1-0.1h0L137,369.4L137,369.4z M135.4,367.2c-0.1,0-0.3,0-0.4,0.1c-0.1,0.1-0.2,0.1-0.3,0.2
	s-0.2,0.2-0.2,0.3c-0.1,0.1-0.1,0.3-0.1,0.4h2c0-0.3-0.1-0.6-0.3-0.8C135.9,367.3,135.6,367.2,135.4,367.2z"/>
<path d="M139.3,367.2c-0.1,0-0.3,0-0.4,0.1c-0.1,0.1-0.3,0.2-0.4,0.3c-0.1,0.1-0.2,0.2-0.2,0.4c-0.1,0.2-0.1,0.3-0.1,0.5
	c0,0.2,0,0.4,0.1,0.5c0.1,0.2,0.1,0.3,0.2,0.4c0.1,0.1,0.2,0.2,0.4,0.3c0.1,0.1,0.3,0.1,0.4,0.1c0.1,0,0.2,0,0.3-0.1
	c0.1,0,0.2-0.1,0.3-0.2l0.2-0.2c0.1-0.1,0.1-0.2,0.1-0.3h0.6c0,0.2-0.1,0.4-0.2,0.5c-0.1,0.2-0.2,0.3-0.3,0.4
	c-0.2,0.1-0.3,0.2-0.5,0.3c-0.2,0.1-0.4,0.1-0.6,0.1c-0.2,0-0.5,0-0.7-0.1c-0.2-0.1-0.4-0.2-0.5-0.4c-0.1-0.2-0.3-0.4-0.4-0.6
	c-0.1-0.3-0.1-0.5-0.1-0.8c0-0.3,0-0.5,0.1-0.8c0.1-0.2,0.2-0.4,0.4-0.6c0.1-0.2,0.3-0.3,0.5-0.4c0.2-0.1,0.5-0.1,0.7-0.1
	c0.2,0,0.4,0,0.6,0.1c0.2,0.1,0.3,0.2,0.5,0.3s0.3,0.3,0.3,0.4s0.2,0.3,0.2,0.5h-0.6c0-0.1-0.1-0.2-0.1-0.3s-0.1-0.2-0.2-0.2
	s-0.2-0.1-0.3-0.2C139.6,367.2,139.5,367.2,139.3,367.2z"/>
<path d="M141.5,367.1c0-0.2,0.2-0.3,0.4-0.3c0.2,0,0.3,0.2,0.3,0.4s-0.2,0.3-0.4,0.3c-0.1,0-0.1,0-0.2-0.1
	C141.5,367.3,141.5,367.2,141.5,367.1z M141.5,370c0-0.2,0.2-0.3,0.4-0.3c0.2,0,0.3,0.2,0.3,0.4s-0.2,0.3-0.4,0.3
	c-0.1,0-0.1,0-0.2-0.1C141.5,370.2,141.5,370.1,141.5,370L141.5,370z"/>
<path d="M147.7,365.2v0.4l-2.2,4.7h-0.7l2.1-4.6h-2.4v-0.6h3.2L147.7,365.2z"/>
<path d="M151.3,365.2v0.4l-2.2,4.7h-0.7l2.1-4.6h-2.4v-0.6h3.2L151.3,365.2z"/>
<g>
	<defs>
		<path id="SVGID_38_" d="M81.5,354.5c0,7.6-6.1,13.7-13.7,13.7s-13.7-6.1-13.7-13.7c0-7.6,6.1-13.7,13.7-13.7
			C75.3,340.8,81.5,346.9,81.5,354.5C81.5,354.4,81.5,354.5,81.5,354.5z"/>
	</defs>
	<clipPath id="SVGID_39_">
		<use xlink:href="#SVGID_38_"  style="overflow:visible;"/>
	</clipPath>
	<g class="st30">
		
			<image style="overflow:visible;enable-background:new    ;" width="125" height="129" xlink:href="59315AF0.png"  transform="matrix(0.2182 0 0 0.2182 54.51 340.8135)">
		</image>
	</g>
</g>
<polyline class="st29" points="44.7,379 276.2,379 276.2,378 44.7,378 "/>
<path d="M92.6,397h-1.2l2.8-7.3h0.9l2.8,7.3h-1.2l-0.6-1.7h-2.9L92.6,397z M95.7,394.2l-1-2.9l-1,2.9H95.7z"/>
<path d="M103.1,391.8v5.2h-1v-2.1h-2.5v2.1h-1v-5.2h1v2.1h2.5v-2.1H103.1z"/>
<path d="M104,391.8h4.3v1h-1.6v4.2h-1v-4.2H104L104,391.8z"/>
<path d="M113.8,394.4c0,0.4-0.1,0.7-0.2,1.1c-0.2,0.6-0.7,1.1-1.3,1.3c-0.3,0.1-0.7,0.2-1,0.2c-0.3,0-0.7-0.1-1-0.2
	c-0.6-0.2-1.1-0.7-1.3-1.3c-0.1-0.4-0.2-0.7-0.2-1.1c0-0.4,0.1-0.7,0.2-1.1c0.1-0.3,0.3-0.6,0.5-0.8c0.2-0.2,0.5-0.4,0.8-0.5
	c0.3-0.1,0.7-0.2,1-0.2c0.3,0,0.7,0.1,1,0.2c0.6,0.2,1.1,0.7,1.3,1.3C113.7,393.7,113.8,394,113.8,394.4z M112.7,394.4
	c0-0.2,0-0.5-0.1-0.7c-0.1-0.2-0.2-0.3-0.3-0.5c-0.1-0.2-0.3-0.3-0.5-0.3c-0.2-0.1-0.3-0.1-0.5-0.1c-0.2,0-0.4,0-0.5,0.1
	c-0.2,0.1-0.3,0.2-0.5,0.3s-0.2,0.3-0.3,0.5c-0.1,0.2-0.1,0.5-0.1,0.7c0,0.2,0,0.5,0.1,0.7c0.1,0.2,0.2,0.3,0.3,0.5
	c0.1,0.2,0.3,0.3,0.5,0.3c0.2,0.1,0.3,0.1,0.5,0.1c0.2,0,0.4,0,0.5-0.1c0.2-0.1,0.3-0.2,0.5-0.3c0.1-0.2,0.2-0.3,0.3-0.5
	C112.7,394.9,112.7,394.6,112.7,394.4z"/>
<path d="M119.4,391.8v5.2h-1v-2.1h-2.5v2.1h-1v-5.2h1v2.1h2.5v-2.1H119.4z"/>
<path d="M129.1,389.7v7.3H128v-6.2h-3.4v6.2h-1.1v-7.3H129.1z"/>
<path d="M135.3,394.4c0,0.4-0.1,0.7-0.2,1.1c-0.2,0.6-0.7,1.1-1.3,1.3c-0.3,0.1-0.7,0.2-1,0.2c-0.3,0-0.7-0.1-1-0.2
	c-0.6-0.2-1.1-0.7-1.3-1.3c-0.1-0.4-0.2-0.7-0.2-1.1c0-0.4,0.1-0.7,0.2-1.1c0.1-0.3,0.3-0.6,0.5-0.8c0.2-0.2,0.5-0.4,0.8-0.5
	c0.3-0.1,0.7-0.2,1-0.2c0.3,0,0.7,0.1,1,0.2c0.6,0.2,1.1,0.7,1.3,1.3C135.3,393.6,135.3,394,135.3,394.4z M134.3,394.4
	c0-0.2,0-0.5-0.1-0.7c-0.1-0.2-0.2-0.3-0.3-0.5c-0.1-0.2-0.3-0.3-0.5-0.3c-0.2-0.1-0.3-0.1-0.5-0.1c-0.2,0-0.4,0-0.5,0.1
	c-0.2,0.1-0.3,0.2-0.5,0.3s-0.2,0.3-0.3,0.5c-0.1,0.2-0.1,0.5-0.1,0.7c0,0.2,0,0.5,0.1,0.7c0.1,0.2,0.2,0.3,0.3,0.5
	c0.1,0.2,0.3,0.3,0.5,0.3c0.2,0.1,0.3,0.1,0.5,0.1c0.2,0,0.4,0,0.5-0.1c0.2-0.1,0.3-0.2,0.5-0.3c0.1-0.2,0.2-0.3,0.3-0.5
	C134.3,394.9,134.3,394.6,134.3,394.4z"/>
<path d="M141,391.8v5.2h-1v-2.1h-2.5v2.1h-1v-5.2h1v2.1h2.5v-2.1H141z"/>
<path d="M145.5,397l-2-2.5v2.5h-1v-5.2h1v2.3l1.8-2.3h1.2l-2,2.4l2.3,2.8L145.5,397z"/>
<path d="M149.8,391.7c0.3,0,0.7,0.1,1,0.2c0.6,0.2,1.1,0.7,1.3,1.3c0.1,0.4,0.2,0.7,0.2,1.1c0,0.4-0.1,0.7-0.2,1.1
	c-0.2,0.6-0.7,1.1-1.3,1.3c-0.3,0.1-0.7,0.2-1,0.2c-0.2,0-0.5,0-0.6-0.1s-0.3-0.1-0.4-0.2s-0.3-0.2-0.4-0.3v2.4h-1v-7h0.7l0.2,0.5
	c0.1-0.1,0.2-0.2,0.4-0.3c0.1-0.1,0.3-0.1,0.5-0.2H149.8z M149.7,396c0.2,0,0.4,0,0.6-0.1c0.2-0.1,0.3-0.2,0.5-0.3
	c0.1-0.2,0.2-0.3,0.3-0.5c0.1-0.2,0.1-0.5,0.1-0.7c0-0.2,0-0.5-0.1-0.7c-0.1-0.2-0.2-0.3-0.3-0.5c-0.1-0.2-0.3-0.3-0.5-0.3
	c-0.4-0.1-0.8-0.1-1.2,0c-0.2,0.1-0.3,0.2-0.5,0.3s-0.2,0.3-0.3,0.5c-0.1,0.2-0.1,0.5-0.1,0.7c0,0.2,0,0.5,0.1,0.7
	c0.1,0.2,0.2,0.3,0.3,0.5c0.1,0.2,0.3,0.3,0.5,0.3C149.3,396,149.5,396,149.7,396L149.7,396z"/>
<path d="M155.4,391.7c0.3,0,0.5,0,0.8,0.1c0.2,0.1,0.5,0.2,0.6,0.4c0.2,0.2,0.3,0.4,0.4,0.6c0.1,0.2,0.1,0.5,0.1,0.7v3.4h-0.7
	l-0.2-0.5c-0.1,0.1-0.2,0.2-0.4,0.3c-0.1,0.1-0.3,0.1-0.5,0.2c-0.2,0.1-0.5,0.1-0.7,0.1c-0.5,0.1-0.9-0.1-1.3-0.4
	c-0.3-0.3-0.5-0.7-0.5-1.1c0-0.2,0-0.5,0.1-0.7c0.1-0.2,0.3-0.4,0.5-0.5c0.3-0.2,0.6-0.3,1-0.3c0.5-0.1,1.1-0.1,1.6-0.1v-0.2
	c0.1-0.4-0.2-0.8-0.6-0.8c-0.1,0-0.2,0-0.3,0c-0.3,0-0.6,0.1-0.8,0.2c-0.2,0.1-0.3,0.2-0.3,0.4h-1c0-0.5,0.2-0.9,0.6-1.2
	C154.2,391.9,154.8,391.7,155.4,391.7z M155,396.1c0.4,0,0.7-0.1,1-0.3c0.2-0.2,0.4-0.5,0.4-0.8v-0.3c-0.4,0-0.7,0-1.1,0.1
	c-0.2,0.1-0.5,0.1-0.7,0.2c-0.2,0.1-0.3,0.2-0.3,0.3s-0.1,0.2-0.1,0.4c0,0.2,0.1,0.3,0.2,0.4C154.5,396,154.7,396.1,155,396.1z"/>
<path d="M165.3,391.8v5.2h-6.6v-5.2h1v4.2h1.7v-4.2h1v4.2h1.7v-4.2H165.3z"/>
<path d="M171.3,394.4c0,0.4-0.1,0.7-0.2,1.1c-0.2,0.6-0.7,1.1-1.3,1.3c-0.3,0.1-0.7,0.2-1,0.2c-0.3,0-0.7-0.1-1-0.2
	c-0.6-0.2-1.1-0.7-1.3-1.3c-0.1-0.4-0.2-0.7-0.2-1.1c0-0.4,0.1-0.7,0.2-1.1c0.1-0.3,0.3-0.6,0.5-0.8c0.2-0.2,0.5-0.4,0.8-0.5
	c0.3-0.1,0.7-0.2,1-0.2c0.3,0,0.7,0.1,1,0.2c0.6,0.2,1.1,0.7,1.3,1.3C171.3,393.6,171.3,394,171.3,394.4z M170.3,394.4
	c0-0.2,0-0.5-0.1-0.7c-0.1-0.2-0.2-0.3-0.3-0.5c-0.1-0.2-0.3-0.3-0.5-0.3c-0.2-0.1-0.3-0.1-0.5-0.1c-0.2,0-0.4,0-0.5,0.1
	c-0.2,0.1-0.3,0.2-0.5,0.3s-0.2,0.3-0.3,0.5c-0.1,0.2-0.1,0.5-0.1,0.7c0,0.2,0,0.5,0.1,0.7c0.1,0.2,0.2,0.3,0.3,0.5
	c0.1,0.2,0.3,0.3,0.5,0.3c0.2,0.1,0.3,0.1,0.5,0.1c0.2,0,0.4,0,0.5-0.1c0.2-0.1,0.3-0.2,0.5-0.3c0.1-0.2,0.2-0.3,0.3-0.5
	C170.3,394.9,170.3,394.6,170.3,394.4z"/>
<path d="M175.8,394.2c0.1,0.1,0.3,0.2,0.4,0.3c0.1,0.1,0.2,0.2,0.3,0.4c0.1,0.2,0.1,0.4,0.1,0.6c0,0.2,0,0.4-0.1,0.6
	c-0.1,0.2-0.2,0.3-0.3,0.5c-0.2,0.1-0.3,0.2-0.5,0.3c-0.2,0.1-0.4,0.1-0.6,0.1h-2.6v-5.2h2.4c0.2,0,0.4,0,0.6,0.1
	c0.4,0.1,0.7,0.4,0.8,0.8c0.1,0.2,0.1,0.4,0.1,0.6c0,0.2,0,0.4-0.1,0.5c-0.1,0.1-0.1,0.2-0.2,0.3S175.9,394.2,175.8,394.2z
	 M173.5,392.6v1.3h1.3c0.2,0,0.3-0.1,0.5-0.2c0.1-0.1,0.2-0.2,0.2-0.4c0-0.2-0.1-0.3-0.2-0.5c-0.1-0.1-0.3-0.2-0.5-0.2L173.5,392.6z
	 M174.9,396.1c0.2,0,0.3-0.1,0.5-0.2c0.1-0.1,0.2-0.3,0.2-0.5c0-0.2-0.1-0.3-0.2-0.5c-0.1-0.1-0.3-0.2-0.5-0.2h-1.4v1.3h1.4
	L174.9,396.1z"/>
<path class="st28" d="M91.7,402.3c0-0.2,0.1-0.4,0.2-0.6c0.1-0.2,0.2-0.3,0.3-0.5s0.3-0.2,0.5-0.3c0.2-0.1,0.4-0.1,0.6-0.1
	c0.2,0,0.5,0,0.6,0.1c0.4,0.1,0.7,0.4,0.8,0.8c0.1,0.2,0.1,0.4,0.1,0.6c0,0.2,0,0.3-0.1,0.5c-0.1,0.1-0.2,0.2-0.2,0.3l-0.3,0.3
	c0.3,0.2,0.5,0.4,0.7,0.7c0.1,0.4,0.1,0.8,0,1.2c-0.1,0.2-0.2,0.4-0.4,0.5c-0.1,0.1-0.3,0.2-0.5,0.3c-0.5,0.1-0.9,0.1-1.4,0
	c-0.4-0.2-0.7-0.4-0.9-0.8c-0.1-0.2-0.2-0.4-0.2-0.6h0.7c0,0.2,0.1,0.4,0.3,0.6c0.2,0.2,0.4,0.2,0.8,0.2c0.3,0,0.6-0.1,0.8-0.3
	c0.2-0.2,0.3-0.4,0.3-0.6c0-0.2-0.1-0.5-0.3-0.6c-0.2-0.2-0.5-0.3-0.8-0.3H93v-0.6h0.3c0.2,0,0.5-0.1,0.7-0.2c0.3-0.2,0.4-0.7,0.2-1
	c0-0.1-0.1-0.1-0.2-0.2c-0.2-0.2-0.4-0.2-0.7-0.2c-0.2,0-0.5,0.1-0.7,0.2c-0.2,0.2-0.3,0.4-0.3,0.6H91.7z"/>
<path class="st28" d="M97.4,402.3c0.2,0,0.4,0,0.6,0.1c0.3,0.2,0.5,0.4,0.7,0.7c0.1,0.2,0.1,0.3,0.1,0.5v2.5h-0.4l-0.2-0.4
	c-0.1,0.1-0.2,0.2-0.3,0.2s-0.2,0.1-0.3,0.2c-0.2,0-0.3,0.1-0.5,0.1c-0.2,0-0.4,0-0.5-0.1c-0.1-0.1-0.3-0.1-0.4-0.2
	c-0.1-0.1-0.2-0.2-0.2-0.4c-0.1-0.1-0.1-0.3-0.1-0.4c0-0.2,0-0.3,0.1-0.5c0.1-0.1,0.2-0.3,0.4-0.4c0.2-0.1,0.5-0.2,0.7-0.2
	c0.4-0.1,0.7-0.1,1.1-0.1v-0.2c0-0.2-0.1-0.3-0.2-0.5c-0.2-0.1-0.4-0.2-0.6-0.2c-0.2,0-0.4,0-0.5,0.1c-0.1,0.1-0.2,0.2-0.2,0.4H96
	c0-0.2,0.1-0.3,0.1-0.4s0.2-0.3,0.3-0.4c0.1-0.1,0.2-0.2,0.4-0.2C97,402.3,97.1,402.3,97.4,402.3z M97,405.5c0.2,0,0.3,0,0.5-0.1
	c0.1-0.1,0.3-0.1,0.3-0.2s0.2-0.2,0.2-0.3c0.1-0.1,0.1-0.2,0.1-0.3v-0.3h-0.9c-0.2,0-0.3,0.1-0.5,0.1c-0.1,0.1-0.2,0.1-0.2,0.2
	s-0.1,0.2-0.1,0.3s0.1,0.2,0.2,0.3C96.7,405.5,96.8,405.5,97,405.5z"/>
<path class="st28" d="M104.2,406.9V406h-4.5v-3.7h0.6v3.1h1.4v-3.1h0.6v3.1h1.3v-3.1h0.6v3.1h0.5v1.5H104.2z"/>
<path class="st28" d="M108.6,402.3v3.7H108v-2.7l-1.9,2.7h-0.6v-3.7h0.6v2.7l1.9-2.7H108.6z"/>
<path class="st28" d="M109.3,402.3h2.9v0.6H111v3.1h-0.6v-3.1h-1.1L109.3,402.3z"/>
<path class="st28" d="M115.9,402.3v3.7h-0.6v-1.6h-1.9v1.6h-0.6v-3.7h0.6v1.5h1.9v-1.5H115.9z"/>
<path class="st28" d="M120.1,402.3v3.7h-0.6v-2.7l-1.9,2.7H117v-3.7h0.6v2.7l1.9-2.7H120.1z"/>
<path class="st28" d="M121.8,406h-0.6v-3.7h0.6V406z M123.3,406l-1.6-1.9l1.4-1.8h0.7l-1.4,1.7l1.6,2L123.3,406z"/>
<path d="M93.8,414.6c0.2,0,0.4,0,0.6,0.1c0.4,0.2,0.7,0.4,0.9,0.8c0.1,0.4,0.1,0.8,0,1.2c-0.1,0.2-0.2,0.4-0.4,0.5
	c-0.2,0.1-0.3,0.3-0.5,0.3c-0.2,0.1-0.4,0.1-0.6,0.1h-1.1v2H92v-5.2h1.8L93.8,414.6z M93.8,417.2c0.1,0,0.3,0,0.4-0.1
	c0.1-0.1,0.2-0.1,0.3-0.2s0.2-0.2,0.2-0.3c0.1-0.3,0.1-0.5,0-0.8c0-0.1-0.1-0.2-0.2-0.3s-0.2-0.2-0.3-0.2s-0.2-0.1-0.4-0.1h-1.1v2
	H93.8z"/>
<path d="M99.5,417.9c0,0.3,0,0.5-0.1,0.8c-0.1,0.2-0.2,0.4-0.4,0.6c-0.1,0.2-0.3,0.3-0.5,0.4c-0.5,0.1-0.9,0.1-1.4,0
	c-0.2-0.1-0.4-0.2-0.5-0.4c-0.1-0.2-0.3-0.4-0.4-0.6c-0.1-0.3-0.1-0.5-0.1-0.8c0-0.3,0-0.5,0.1-0.8c0.1-0.2,0.2-0.4,0.4-0.6
	c0.1-0.2,0.3-0.3,0.5-0.4c0.5-0.1,0.9-0.1,1.4,0c0.2,0.1,0.4,0.2,0.5,0.4c0.1,0.2,0.3,0.4,0.4,0.6C99.5,417.4,99.5,417.6,99.5,417.9
	z M96.7,417.9c0,0.2,0,0.4,0.1,0.5c0.1,0.2,0.1,0.3,0.2,0.4c0.1,0.1,0.2,0.2,0.4,0.3c0.3,0.1,0.6,0.1,0.8,0c0.1-0.1,0.2-0.2,0.4-0.3
	c0.1-0.1,0.2-0.2,0.2-0.4c0.1-0.2,0.1-0.3,0.1-0.5c0-0.2,0-0.4-0.1-0.5c-0.1-0.2-0.1-0.3-0.2-0.4c-0.1-0.1-0.2-0.2-0.4-0.3
	c-0.3-0.1-0.6-0.1-0.8,0c-0.1,0.1-0.3,0.2-0.4,0.3c-0.1,0.1-0.2,0.2-0.2,0.4C96.7,417.5,96.7,417.7,96.7,417.9z"/>
<path d="M101.8,416.6c-0.1,0-0.3,0-0.4,0.1c-0.1,0.1-0.3,0.2-0.4,0.3c-0.1,0.1-0.2,0.2-0.2,0.4c-0.1,0.2-0.1,0.3-0.1,0.5
	c0,0.2,0,0.4,0.1,0.5c0.1,0.2,0.1,0.3,0.2,0.4c0.1,0.1,0.2,0.2,0.4,0.3c0.1,0.1,0.3,0.1,0.4,0.1c0.1,0,0.2,0,0.3-0.1
	c0.1,0,0.2-0.1,0.3-0.2l0.2-0.2c0.1-0.1,0.1-0.2,0.1-0.3h0.6c0,0.2-0.1,0.4-0.2,0.5c-0.1,0.2-0.2,0.3-0.3,0.4
	c-0.2,0.1-0.3,0.2-0.5,0.3c-0.2,0.1-0.4,0.1-0.6,0.1c-0.2,0-0.5,0-0.7-0.1c-0.2-0.1-0.4-0.2-0.5-0.4c-0.1-0.2-0.3-0.4-0.4-0.6
	c-0.1-0.3-0.1-0.5-0.1-0.8c0-0.3,0-0.5,0.1-0.8c0.1-0.2,0.2-0.4,0.4-0.6c0.1-0.2,0.3-0.3,0.5-0.4c0.2-0.1,0.5-0.1,0.7-0.1
	c0.2,0,0.4,0,0.6,0.1c0.2,0.1,0.3,0.2,0.5,0.3s0.3,0.3,0.3,0.4s0.2,0.3,0.2,0.5h-0.6c0-0.1-0.1-0.2-0.1-0.3s-0.1-0.2-0.2-0.2
	s-0.2-0.1-0.3-0.2C102,416.6,101.9,416.6,101.8,416.6z"/>
<path d="M103.8,416h2.9v0.6h-1.1v3.1H105v-3.1h-1.1V416H103.8z"/>
<path d="M107.1,416.4c0-0.2,0.2-0.3,0.4-0.3c0.2,0,0.3,0.2,0.3,0.4c0,0.2-0.2,0.3-0.4,0.3c-0.1,0-0.1,0-0.2-0.1
	C107.1,416.6,107.1,416.6,107.1,416.4z M107.1,419.4c0-0.2,0.2-0.3,0.4-0.3c0.2,0,0.3,0.2,0.3,0.4c0,0.2-0.2,0.3-0.4,0.3
	c-0.1,0-0.1,0-0.2-0.1C107.1,419.6,107.1,419.5,107.1,419.4z"/>
<path d="M113.5,419.1v0.6h-3.2v-0.5l2-2.2c0.1-0.1,0.2-0.2,0.2-0.3s0.1-0.2,0.2-0.3c0.1-0.1,0.1-0.3,0.1-0.4c0-0.2-0.1-0.4-0.3-0.6
	c-0.2-0.2-0.4-0.2-0.7-0.2c-0.6,0-1,0.4-1,1h-0.7c0-0.2,0-0.4,0.1-0.6c0.1-0.4,0.4-0.7,0.8-0.8c0.2-0.1,0.5-0.1,0.7-0.1
	c0.2,0,0.4,0,0.6,0.1c0.4,0.1,0.7,0.4,0.8,0.8c0.1,0.2,0.1,0.4,0.1,0.6c0,0.2,0,0.4-0.1,0.5c-0.1,0.2-0.2,0.3-0.2,0.4
	s-0.2,0.3-0.3,0.4l-1.6,1.8h2.5V419.1z"/>
<path d="M118.2,417.1c0,0.4-0.1,0.7-0.2,1.1c-0.1,0.3-0.2,0.5-0.4,0.8c-0.2,0.2-0.4,0.4-0.6,0.5c-0.2,0.1-0.5,0.2-0.8,0.2
	c-0.3,0-0.5-0.1-0.8-0.2c-0.2-0.1-0.4-0.3-0.6-0.5c-0.2-0.2-0.3-0.5-0.4-0.8c-0.3-0.7-0.3-1.5,0-2.2c0.1-0.3,0.2-0.5,0.4-0.8
	c0.2-0.2,0.4-0.4,0.6-0.5c0.2-0.1,0.5-0.2,0.8-0.2c0.3,0,0.5,0.1,0.8,0.2c0.3,0.1,0.5,0.3,0.6,0.5c0.2,0.2,0.3,0.5,0.4,0.8
	C118.1,416.4,118.2,416.7,118.2,417.1z M114.8,417.1c0,0.3,0,0.6,0.1,0.9c0.1,0.2,0.2,0.4,0.3,0.6c0.1,0.2,0.3,0.3,0.4,0.4
	c0.3,0.1,0.7,0.1,1,0c0.2-0.1,0.3-0.2,0.4-0.4l0.3-0.6c0.1-0.6,0.1-1.2,0-1.8c-0.1-0.2-0.2-0.4-0.3-0.6l-0.4-0.4
	c-0.3-0.1-0.7-0.1-1,0c-0.2,0.1-0.3,0.2-0.4,0.4l-0.3,0.6C114.8,416.5,114.8,416.8,114.8,417.1z"/>
<path d="M122.7,417.1c0,0.4-0.1,0.7-0.2,1.1c-0.1,0.3-0.2,0.5-0.4,0.8c-0.2,0.2-0.4,0.4-0.6,0.5c-0.2,0.1-0.5,0.2-0.8,0.2
	c-0.3,0-0.5-0.1-0.8-0.2c-0.2-0.1-0.4-0.3-0.6-0.5c-0.2-0.2-0.3-0.5-0.4-0.8c-0.3-0.7-0.3-1.5,0-2.2c0.1-0.3,0.2-0.5,0.4-0.8
	c0.2-0.2,0.4-0.4,0.6-0.5c0.2-0.1,0.5-0.2,0.8-0.2c0.3,0,0.5,0.1,0.8,0.2c0.3,0.1,0.5,0.3,0.6,0.5c0.2,0.2,0.3,0.5,0.4,0.8
	C122.6,416.4,122.7,416.7,122.7,417.1z M119.4,417.1c0,0.3,0,0.6,0.1,0.9c0.1,0.2,0.2,0.4,0.3,0.6c0.1,0.2,0.3,0.3,0.4,0.4
	c0.3,0.1,0.7,0.1,1,0c0.2-0.1,0.3-0.2,0.4-0.4l0.3-0.6c0.1-0.6,0.1-1.2,0-1.8c-0.1-0.2-0.2-0.4-0.3-0.6l-0.4-0.4
	c-0.3-0.1-0.7-0.1-1,0c-0.2,0.1-0.3,0.2-0.4,0.4l-0.3,0.6C119.4,416.5,119.4,416.8,119.4,417.1z"/>
<path d="M135.3,417c0.1,0.1,0.3,0.2,0.4,0.3c0.1,0.1,0.2,0.2,0.3,0.4c0.1,0.4,0.1,0.8,0,1.2c-0.1,0.2-0.2,0.3-0.3,0.5
	c-0.2,0.1-0.3,0.2-0.5,0.3c-0.2,0.1-0.5,0.1-0.7,0.1h-2v-5.2h1.9c0.2,0,0.4,0,0.6,0.1c0.2,0.1,0.3,0.2,0.5,0.3s0.2,0.3,0.3,0.4
	c0.1,0.2,0.1,0.3,0.1,0.5c0,0.2,0,0.3-0.1,0.5c0,0.1-0.1,0.2-0.2,0.3L135.3,417z M133.1,416.7h1.3c0.1,0,0.2,0,0.3-0.1
	c0.1,0,0.2-0.1,0.3-0.2s0.1-0.2,0.2-0.2s0.1-0.2,0.1-0.3c0-0.1,0-0.2-0.1-0.3c0-0.1-0.1-0.2-0.2-0.3s-0.2-0.1-0.3-0.2
	s-0.2-0.1-0.3-0.1h-1.3V416.7z M134.4,419.1c0.6,0,1-0.4,1-1c0-0.1,0-0.2-0.1-0.3c-0.1-0.1-0.1-0.2-0.2-0.3s-0.2-0.1-0.3-0.2
	s-0.3-0.1-0.4-0.1h-1.3v1.8h1.3V419.1z"/>
<path d="M139.9,418.7c-0.1,0.1-0.1,0.3-0.2,0.4l-0.3,0.3c-0.1,0.1-0.2,0.2-0.4,0.2c-0.2,0-0.3,0.1-0.5,0.1c-0.2,0-0.5,0-0.7-0.1
	c-0.2-0.1-0.4-0.2-0.5-0.4c-0.1-0.2-0.3-0.4-0.4-0.6c-0.1-0.3-0.1-0.5-0.1-0.8c0-0.3,0-0.5,0.1-0.8c0.1-0.2,0.2-0.4,0.4-0.6
	c0.1-0.2,0.3-0.3,0.5-0.4c0.4-0.1,0.8-0.1,1.2,0c0.2,0.1,0.4,0.2,0.5,0.4c0.1,0.2,0.3,0.4,0.4,0.6c0.1,0.3,0.1,0.5,0.1,0.8v0.3h-2.6
	c0,0.1,0,0.3,0.1,0.4c0.1,0.1,0.1,0.2,0.2,0.3s0.2,0.2,0.3,0.2c0.1,0.1,0.3,0.1,0.4,0.1h0.3c0.1,0,0.1,0,0.2-0.1
	c0.1,0,0.1-0.1,0.2-0.1c0-0.1,0-0.1,0.1-0.1h0L139.9,418.7L139.9,418.7z M138.4,416.6c-0.1,0-0.3,0-0.4,0.1
	c-0.1,0.1-0.2,0.1-0.3,0.2s-0.2,0.2-0.2,0.3c-0.1,0.1-0.1,0.3-0.1,0.4h2c0-0.3-0.1-0.6-0.3-0.8C138.9,416.7,138.7,416.6,138.4,416.6
	L138.4,416.6z"/>
<path d="M142.3,416.6c-0.1,0-0.3,0-0.4,0.1c-0.1,0.1-0.3,0.2-0.4,0.3c-0.1,0.1-0.2,0.2-0.2,0.4c-0.1,0.2-0.1,0.3-0.1,0.5
	c0,0.2,0,0.4,0.1,0.5c0.1,0.2,0.1,0.3,0.2,0.4c0.1,0.1,0.2,0.2,0.4,0.3c0.1,0.1,0.3,0.1,0.4,0.1c0.1,0,0.2,0,0.3-0.1
	c0.1,0,0.2-0.1,0.3-0.2l0.2-0.2c0.1-0.1,0.1-0.2,0.1-0.3h0.6c0,0.2-0.1,0.4-0.2,0.5c-0.1,0.2-0.2,0.3-0.3,0.4
	c-0.2,0.1-0.3,0.2-0.5,0.3c-0.2,0.1-0.4,0.1-0.6,0.1c-0.2,0-0.5,0-0.7-0.1c-0.2-0.1-0.4-0.2-0.5-0.4c-0.1-0.2-0.3-0.4-0.4-0.6
	c-0.1-0.3-0.1-0.5-0.1-0.8c0-0.3,0-0.5,0.1-0.8c0.1-0.2,0.2-0.4,0.4-0.6c0.1-0.2,0.3-0.3,0.5-0.4c0.2-0.1,0.5-0.1,0.7-0.1
	c0.2,0,0.4,0,0.6,0.1c0.2,0.1,0.3,0.2,0.5,0.3s0.3,0.3,0.3,0.4s0.2,0.3,0.2,0.5h-0.6c0-0.1-0.1-0.2-0.1-0.3s-0.1-0.2-0.2-0.2
	s-0.2-0.1-0.3-0.2C142.5,416.6,142.4,416.6,142.3,416.6z"/>
<path d="M144.4,416.4c0-0.2,0.2-0.3,0.4-0.3c0.2,0,0.3,0.2,0.3,0.4s-0.2,0.3-0.4,0.3c-0.1,0-0.1,0-0.2-0.1
	C144.4,416.6,144.4,416.6,144.4,416.4z M144.4,419.4c0-0.2,0.2-0.3,0.4-0.3c0.2,0,0.3,0.2,0.3,0.4s-0.2,0.3-0.4,0.3
	c-0.1,0-0.1,0-0.2-0.1C144.4,419.6,144.4,419.5,144.4,419.4z"/>
<path d="M149.3,414.5c0.2,0,0.5,0,0.7,0.1c0.2,0.1,0.4,0.2,0.6,0.4c0.2,0.2,0.3,0.4,0.4,0.6c0.1,0.2,0.1,0.5,0.1,0.7
	c0,0.2,0,0.3-0.1,0.5c-0.1,0.2-0.1,0.3-0.2,0.4s-0.1,0.3-0.2,0.4l-1.5,2.2h-0.7l1.1-1.7h-0.3c-0.2,0-0.5,0-0.7-0.1
	c-0.2-0.1-0.4-0.2-0.6-0.4c-0.2-0.2-0.3-0.4-0.4-0.6c-0.1-0.5-0.1-0.9,0-1.4c0.1-0.2,0.2-0.4,0.4-0.6c0.2-0.2,0.4-0.3,0.6-0.4
	C148.8,414.5,149,414.5,149.3,414.5z M150.4,416.3c0-0.2,0-0.3-0.1-0.5c-0.1-0.1-0.1-0.3-0.2-0.4c-0.1-0.1-0.2-0.2-0.4-0.2
	c-0.1-0.1-0.3-0.1-0.4-0.1c-0.2,0-0.3,0-0.4,0.1s-0.3,0.1-0.4,0.2c-0.1,0.1-0.2,0.2-0.2,0.4c-0.1,0.1-0.1,0.3-0.1,0.5
	c0,0.2,0,0.3,0.1,0.5c0.1,0.1,0.1,0.3,0.2,0.4c0.1,0.1,0.2,0.2,0.4,0.2c0.1,0.1,0.3,0.1,0.4,0.1c0.2,0,0.3,0,0.4-0.1
	s0.3-0.1,0.4-0.2c0.1-0.1,0.2-0.2,0.2-0.4C150.4,416.6,150.4,416.5,150.4,416.3z"/>
<path d="M151.6,415.9c0-0.2,0.1-0.4,0.2-0.5c0.1-0.2,0.2-0.3,0.3-0.4c0.2-0.1,0.3-0.2,0.5-0.3c0.2-0.1,0.4-0.1,0.6-0.1
	c0.2,0,0.5,0,0.6,0.1c0.4,0.1,0.7,0.4,0.8,0.8c0.1,0.2,0.1,0.4,0.1,0.6c0,0.2,0,0.3-0.1,0.5l-0.3,0.3c-0.1,0.1-0.2,0.2-0.4,0.3
	c0.2,0.1,0.3,0.2,0.5,0.3c0.1,0.1,0.2,0.2,0.3,0.4c0.1,0.4,0.1,0.8,0,1.2c-0.1,0.2-0.2,0.4-0.4,0.5c-0.1,0.1-0.3,0.2-0.5,0.3
	c-0.2,0.1-0.5,0.1-0.7,0.1c-0.2,0-0.4,0-0.6-0.1c-0.2-0.1-0.3-0.2-0.5-0.3c-0.1-0.1-0.3-0.3-0.3-0.4s-0.2-0.3-0.2-0.5h0.7
	c0.1,0.5,0.5,0.8,1,0.7c0.3,0,0.6-0.1,0.8-0.3c0.2-0.2,0.3-0.4,0.3-0.6c0-0.2-0.1-0.5-0.3-0.6c-0.2-0.2-0.5-0.3-0.8-0.3H153V417h0.2
	c0.2,0,0.5-0.1,0.7-0.2c0.3-0.2,0.4-0.7,0.2-1c0-0.1-0.1-0.1-0.2-0.2c-0.2-0.2-0.4-0.2-0.7-0.2c-0.1,0-0.3,0-0.4,0.1
	c-0.1,0-0.2,0.1-0.3,0.2s-0.1,0.2-0.2,0.2s-0.1,0.2-0.1,0.3h-0.6L151.6,415.9z"/>
<g>
	<defs>
		<path id="SVGID_40_" d="M81.5,403.5c0,7.6-6.1,13.7-13.7,13.7s-13.7-6.1-13.7-13.7c0-7.6,6.1-13.7,13.7-13.7
			C75.3,389.8,81.5,395.9,81.5,403.5C81.5,403.4,81.5,403.5,81.5,403.5z"/>
	</defs>
	<clipPath id="SVGID_41_">
		<use xlink:href="#SVGID_40_"  style="overflow:visible;"/>
	</clipPath>
	<g class="st31">
		
			<image style="overflow:visible;enable-background:new    ;" width="124" height="128" xlink:href="59315B0E.png"  transform="matrix(0.2182 0 0 0.2182 53.52 388.8635)">
		</image>
	</g>
</g>
<path class="st20" d="M274.9,308.7L274.9,308.7C275,308.8,274.9,308.8,274.9,308.7z"/>
<path class="st1" d="M274.1,302.3c0-0.2,0.1-0.3,0.1-0.5C274.1,301.9,274.1,302.1,274.1,302.3z"/>
<path class="st1" d="M259.8,308.2L259.8,308.2z"/>
<path class="st21" d="M268.2,310.6l-0.1-0.1l0,0l-0.1-0.1c-0.1-0.1-0.1-0.2-0.2-0.3s-0.1-0.1-0.1-0.2s-0.1-0.3-0.2-0.5
	c-0.3-1-0.3-2.2,0-3.2V306c0-0.1,0.1-0.2,0.1-0.4c0-0.2,0.1-0.4,0.2-0.6l-0.3-0.1c-0.6,2.1-0.7,3.9,0,5.1c0.1,0.3,0.3,0.5,0.6,0.7
	l0.2,0.2L268.2,310.6z"/>
<path class="st21" d="M265.6,304.3l0.3,0.1c-0.6,1.9-1.5,3.2-3.3,3.8c-1.7-0.6-2.9-2-3.3-3.7l0.3-0.1c0.6,1.9,1.5,3.1,3,3.6
	C264.1,307.3,265.2,305.9,265.6,304.3L265.6,304.3z"/>
<path class="st21" d="M267.5,304.9l-1.6-0.5c-0.6,1.9-1.5,3.2-3.3,3.8c-1.7-0.6-2.9-2-3.3-3.7l-1.6,0.5c0.6,2.1,0.7,3.9,0,5.1v7.8
	h9.7v-7.8C266.7,308.8,266.9,307,267.5,304.9z"/>
<linearGradient id="SVGID_42_" gradientUnits="userSpaceOnUse" x1="243.74" y1="519.8" x2="249.81" y2="519.8" gradientTransform="matrix(1 0 0 1 15.8 -213.7)">
	<stop  offset="0" style="stop-color:#75CCFF"/>
	<stop  offset="1" style="stop-color:#96D3FB"/>
</linearGradient>
<path class="st32" d="M265.6,304.3c-0.6,1.9-1.5,3.1-3,3.6c-1.5-0.5-2.4-1.7-3-3.6c0.9,0.4,2,0.6,3,0.6c0.6,0,1.2-0.1,1.8-0.2
	C264.8,304.6,265.2,304.5,265.6,304.3z"/>
<path class="st21" d="M268,310.7c-0.2-0.2-0.4-0.4-0.6-0.7v7.8h0.8v-6.9L268,310.7z"/>
<path class="st21" d="M257.2,310.7l-0.2,0.2v6.9h0.8V310C257.6,310.3,257.4,310.5,257.2,310.7z"/>
<path class="st33" d="M257.7,304.9l-0.3,0.1c0.5,1.4,0.6,2.9,0.3,4.4l0,0c0,0.1,0,0.1-0.1,0.1l0,0v0.2c0,0-5661.9-5661.5-0.2,0.2
	v0.1l0,0c0,0.1,0,0.1-0.1,0.1l0,0l-0.1,0.1l0,0l-0.1,0.1c-0.1,0.1-0.1,0.2-0.2,0.2v0.2l0.2-0.2c0.2-0.2,0.4-0.4,0.6-0.7
	C258.4,308.8,258.3,307,257.7,304.9z"/>
<path class="st1" d="M263.7,310.2v3.1h0.5v0.8h-0.5v1.1h-1v-1.1h-1.5v-0.8l1.5-3.1H263.7z M262.7,311.5L262.7,311.5v0.2l-0.8,1.6
	h0.8L262.7,311.5z"/>
<path class="st21" d="M218.7,317.6c-0.9,0-1.9,0-2.8-0.1c-0.8,0-1.6-0.2-2.2-0.7c-0.9-0.6-1.4-1.5-1.5-2.6c-0.1-0.6-0.1-1.3-0.1-1.9
	v-4c0-0.7,0.1-1.4,0.5-2c0.5-1,1.5-1.7,2.7-1.8c0.7-0.1,1.3-0.1,2-0.1h4c0.7,0,1.4,0.1,2,0.5c1,0.5,1.7,1.6,1.8,2.7
	c0.1,0.7,0.1,1.3,0.1,2v4c0,0.7-0.1,1.5-0.5,2.1c-0.5,1-1.5,1.6-2.6,1.8c-0.7,0.1-1.5,0.1-2.2,0.1H218.7z M218.7,305.6H217
	c-0.6,0-1.1,0-1.7,0.1c-0.9,0.1-1.6,0.7-1.8,1.6c-0.1,0.4-0.2,0.9-0.2,1.3v4c0,0.5,0,1.1,0.1,1.6c0.1,1,0.9,1.9,1.9,2
	c0.3,0.1,0.6,0.1,0.9,0.1h4.1c0.5,0,1.1,0,1.6-0.1c0.9,0,1.7-0.7,1.9-1.6c0.1-0.3,0.2-0.7,0.2-1V310c0-0.7,0-1.5-0.1-2.2
	c-0.1-0.7-0.4-1.3-1-1.7c-0.5-0.3-1-0.4-1.5-0.5C220.5,305.7,219.6,305.7,218.7,305.6z"/>
<path class="st21" d="M218.7,314.4c-1.9,0-3.4-1.5-3.4-3.3c0,0,0,0,0-0.1c0-1.9,1.5-3.3,3.4-3.3c1.9,0,3.3,1.5,3.3,3.4
	c0.1,1.8-1.3,3.2-3.1,3.3C218.8,314.4,218.8,314.4,218.7,314.4z M220.9,311.1c0-1.2-0.9-2.2-2.1-2.3s-2.2,0.9-2.3,2.1l0,0
	c0,1.2,0.9,2.2,2.1,2.3C219.8,313.3,220.9,312.4,220.9,311.1C220.9,311.1,220.9,311.1,220.9,311.1L220.9,311.1z"/>
<path class="st21" d="M222.2,306.8c0.4,0,0.8,0.4,0.8,0.8c0,0.4-0.4,0.8-0.8,0.8c-0.4,0-0.8-0.4-0.8-0.8
	C221.4,307.2,221.7,306.8,222.2,306.8C222.2,306.8,222.2,306.8,222.2,306.8z"/>
<path class="st21" d="M248.7,305c-0.3,0.7-0.7,1.3-1.3,1.7l0,0c0.2,0,0.4-0.1,0.6-0.1c0.2,0,0.4-0.1,0.6-0.2
	c0.2-0.1,0.4-0.1,0.6-0.2c-0.4,0.5-0.8,1-1.3,1.4c-0.2,0.1-0.3,0.4-0.3,0.6c0,2.2-0.7,4.2-2.1,5.9c-1.2,1.5-2.9,2.5-4.8,2.9
	c-2.4,0.5-4.8,0.1-6.9-1.1l-0.1-0.1c0.8,0.1,1.7,0,2.5-0.2c0.8-0.2,1.5-0.6,2.2-1.1c-1.4-0.1-2.5-0.9-3-2.2c0.5,0.1,1,0.1,1.4-0.1
	c-1.5-0.3-2.5-1.6-2.5-3.1c0.2,0.1,0.5,0.2,0.7,0.3c0.2,0.1,0.5,0.1,0.7,0.1c-0.8-0.5-1.2-1.4-1.3-2.3c-0.1-0.7,0.1-1.3,0.4-1.9
	c1.6,1.9,4,3.1,6.5,3.3c0-0.2,0-0.4-0.1-0.5c-0.1-1.4,0.8-2.8,2.2-3.2c1.1-0.4,2.3-0.1,3.1,0.7c0.1,0.1,0.2,0.2,0.4,0.1
	c0.6-0.1,1.1-0.3,1.6-0.6C248.6,305,248.6,305,248.7,305z"/>
<path class="st20" d="M275.3,353.5"/>
<path class="st1" d="M274.4,347c0-0.2,0.1-0.3,0.1-0.5C274.5,346.7,274.4,346.8,274.4,347z"/>
<path class="st1" d="M260.1,352.9L260.1,352.9z"/>
<path class="st21" d="M268.5,355.3l-0.1-0.1l0,0l-0.1-0.1c-0.1-0.1-0.1-0.2-0.2-0.3s-0.1-0.1-0.1-0.2s-0.1-0.3-0.2-0.5
	c-0.3-1-0.3-2.2,0-3.2v-0.2c0-0.1,0.1-0.2,0.1-0.4c0-0.2,0.1-0.4,0.2-0.6l-0.3-0.1c-0.6,2.1-0.7,3.9,0,5.1c0.1,0.3,0.3,0.5,0.6,0.7
	l0.2,0.2L268.5,355.3z"/>
<path class="st21" d="M265.9,349l0.3,0.1c-0.6,1.9-1.5,3.2-3.3,3.8c-1.7-0.6-2.9-2-3.3-3.7l0.3-0.1c0.6,1.9,1.5,3.1,3,3.6
	C264.4,352,265.5,350.6,265.9,349L265.9,349z"/>
<path class="st21" d="M267.8,349.6l-1.6-0.5c-0.6,1.9-1.5,3.2-3.3,3.8c-1.7-0.6-2.9-2-3.3-3.7l-1.6,0.5c0.6,2.1,0.7,3.9,0,5.1v7.8
	h9.7v-7.8C267.1,353.5,267.2,351.7,267.8,349.6z"/>
<linearGradient id="SVGID_43_" gradientUnits="userSpaceOnUse" x1="244.05" y1="564.5" x2="250.12" y2="564.5" gradientTransform="matrix(1 0 0 1 15.8 -213.7)">
	<stop  offset="0" style="stop-color:#75CCFF"/>
	<stop  offset="1" style="stop-color:#96D3FB"/>
</linearGradient>
<path class="st34" d="M265.9,349c-0.6,1.9-1.5,3.1-3,3.6c-1.5-0.5-2.4-1.7-3-3.6c0.9,0.4,2,0.6,3,0.6c0.6,0,1.2-0.1,1.8-0.2
	C265.2,349.3,265.6,349.2,265.9,349z"/>
<path class="st21" d="M268.3,355.4c-0.2-0.2-0.4-0.4-0.6-0.7v7.8h0.8v-6.9C268.5,355.5,268.4,355.5,268.3,355.4z"/>
<path class="st21" d="M257.5,355.5l-0.2,0.2v6.9h0.8v-7.8C257.9,355,257.7,355.3,257.5,355.5z"/>
<path class="st33" d="M258,349.6l-0.3,0.1c0.5,1.4,0.6,2.9,0.3,4.4l0,0c0,0.1,0,0.1-0.1,0.1l0,0v0.2c0,0-5661.9-5661.5-0.2,0.2v0.1
	l0,0c0,0.1,0,0.1-0.1,0.1l0,0l-0.1,0.1l0,0l-0.1,0.1c-0.1,0.1-0.1,0.2-0.2,0.2v0.2l0.2-0.2c0.2-0.2,0.4-0.4,0.6-0.7
	C258.7,353.5,258.6,351.8,258,349.6z"/>
<path class="st1" d="M264.1,356.1h-1v-0.2c0-0.1-0.1-0.3-0.2-0.3c0,0,0,0-0.1,0h-0.1c-0.1,0-0.3,0.1-0.3,0.2c0,0,0,0,0,0.1v1.2
	c0.1-0.2,0.4-0.3,0.6-0.3c0.6,0,1.1,0.3,1.1,1.2v0.9c0,0.8-0.3,1.1-1.2,1.1h-0.1c-0.8,0-1.3-0.3-1.3-1.1v-3c0-0.8,0.4-1.1,1.3-1.1
	h0.1c0.8,0,1.3,0.3,1.3,1.1v0.2L264.1,356.1z M262.8,359.2c0.1,0,0.3-0.1,0.3-0.2c0,0,0,0,0-0.1v-1.1c0-0.3-0.2-0.3-0.4-0.3
	s-0.3,0.1-0.3,0.2v1.2C262.5,359.1,262.5,359.2,262.8,359.2L262.8,359.2z"/>
<path class="st21" d="M219,362.3c-0.9,0-1.9,0-2.8-0.1c-0.8,0-1.6-0.2-2.2-0.7c-0.9-0.6-1.4-1.5-1.5-2.6c-0.1-0.6-0.1-1.3-0.1-1.9
	v-4c0-0.7,0.1-1.4,0.5-2c0.5-1,1.5-1.7,2.7-1.8c0.7-0.1,1.3-0.1,2-0.1h4c0.7,0,1.4,0.1,2,0.5c1,0.5,1.7,1.6,1.8,2.7
	c0.1,0.7,0.1,1.3,0.1,2v4c0,0.7-0.1,1.5-0.5,2.1c-0.5,1-1.5,1.6-2.6,1.8c-0.7,0.1-1.5,0.1-2.2,0.1H219z M219,350.4h-1.7
	c-0.6,0-1.1,0-1.7,0.1c-0.9,0.1-1.6,0.7-1.8,1.6c-0.1,0.4-0.2,0.9-0.2,1.3v4c0,0.5,0,1.1,0.1,1.6c0.1,1,0.9,1.9,1.9,2
	c0.3,0.1,0.6,0.1,0.9,0.1h4.1c0.5,0,1.1,0,1.6-0.1c0.9,0,1.7-0.7,1.9-1.6c0.1-0.3,0.2-0.7,0.2-1v-3.6c0-0.7,0-1.5-0.1-2.2
	c-0.1-0.7-0.4-1.3-1-1.7c-0.5-0.3-1-0.4-1.5-0.5L219,350.4z"/>
<path class="st21" d="M219,359.1c-1.9,0-3.4-1.5-3.4-3.3c0,0,0,0,0-0.1c0-1.9,1.5-3.3,3.4-3.3c1.9,0,3.3,1.5,3.3,3.4
	c0.1,1.8-1.3,3.2-3.1,3.3C219.1,359.1,219.1,359.1,219,359.1z M221.2,355.8c0-1.2-0.9-2.2-2.1-2.3s-2.2,0.9-2.3,2.1l0,0
	c0,1.2,0.9,2.2,2.1,2.3C220.1,358,221.2,357.1,221.2,355.8C221.2,355.8,221.2,355.8,221.2,355.8z"/>
<path class="st21" d="M222.5,351.5c0.4,0,0.8,0.4,0.8,0.8c0,0.4-0.4,0.8-0.8,0.8c-0.4,0-0.8-0.4-0.8-0.8
	C221.7,351.9,222,351.5,222.5,351.5C222.5,351.5,222.5,351.5,222.5,351.5z"/>
<path class="st21" d="M249,349.7c-0.3,0.7-0.7,1.3-1.3,1.7l0,0c0.2,0,0.4-0.1,0.6-0.1c0.2,0,0.4-0.1,0.6-0.2
	c0.2-0.1,0.4-0.1,0.6-0.2c-0.4,0.5-0.8,1-1.3,1.4c-0.2,0.1-0.3,0.4-0.3,0.6c0,2.2-0.7,4.2-2.1,5.9c-1.2,1.5-2.9,2.5-4.8,2.9
	c-2.4,0.5-4.8,0.1-6.9-1.1l-0.1-0.1c0.8,0.1,1.7,0,2.5-0.2c0.8-0.2,1.5-0.6,2.2-1.1c-1.4-0.1-2.5-0.9-3-2.2c0.5,0.1,1,0.1,1.4-0.1
	c-1.5-0.3-2.5-1.6-2.5-3.1c0.2,0.1,0.5,0.2,0.7,0.3c0.2,0.1,0.5,0.1,0.7,0.1c-0.8-0.5-1.2-1.4-1.3-2.3c-0.1-0.7,0.1-1.3,0.4-1.9
	c1.6,1.9,4,3.1,6.5,3.3c0-0.2,0-0.4-0.1-0.5c-0.1-1.4,0.8-2.8,2.2-3.2c1.1-0.4,2.3-0.1,3.1,0.7c0.1,0.1,0.2,0.2,0.4,0.1
	c0.6-0.1,1.1-0.3,1.6-0.6C248.9,349.8,248.9,349.8,249,349.7z"/>
<path class="st20" d="M275.3,401.7"/>
<path class="st1" d="M274.4,395.2c0-0.2,0.1-0.3,0.1-0.5C274.5,394.9,274.4,395,274.4,395.2z"/>
<path class="st1" d="M260.1,401.2L260.1,401.2z"/>
<path class="st21" d="M268.5,403.5l-0.1-0.1l0,0l-0.1-0.1c-0.1-0.1-0.1-0.2-0.2-0.3s-0.1-0.1-0.1-0.2s-0.1-0.3-0.2-0.5
	c-0.3-1-0.3-2.2,0-3.2v-0.2c0-0.1,0.1-0.2,0.1-0.4c0-0.2,0.1-0.4,0.2-0.6l-0.3-0.1c-0.6,2.1-0.7,3.9,0,5.1c0.1,0.3,0.3,0.5,0.6,0.7
	l0.2,0.2L268.5,403.5z"/>
<path class="st21" d="M265.9,397.2l0.3,0.1c-0.6,1.9-1.5,3.2-3.3,3.8c-1.7-0.6-2.9-2-3.3-3.7l0.3-0.1c0.6,1.9,1.5,3.1,3,3.6
	C264.5,400.2,265.6,398.8,265.9,397.2L265.9,397.2z"/>
<path class="st21" d="M267.8,397.9l-1.6-0.5c-0.6,1.9-1.5,3.2-3.3,3.8c-1.7-0.6-2.9-2-3.3-3.7L258,398c0.6,2.1,0.7,3.9,0,5.1v7.8
	h9.7v-7.8C267.1,401.8,267.2,400,267.8,397.9z"/>
<linearGradient id="SVGID_44_" gradientUnits="userSpaceOnUse" x1="244.05" y1="612.7" x2="250.12" y2="612.7" gradientTransform="matrix(1 0 0 1 15.8 -213.7)">
	<stop  offset="0" style="stop-color:#75CCFF"/>
	<stop  offset="1" style="stop-color:#96D3FB"/>
</linearGradient>
<path class="st35" d="M265.9,397.2c-0.6,1.9-1.5,3.1-3,3.6c-1.5-0.5-2.4-1.7-3-3.6c0.9,0.4,2,0.6,3,0.6c0.6,0,1.2-0.1,1.8-0.2
	C265.2,397.6,265.6,397.5,265.9,397.2z"/>
<path class="st21" d="M268.3,403.7c-0.2-0.2-0.4-0.4-0.6-0.7v7.8h0.8v-6.9C268.5,403.8,268.4,403.7,268.3,403.7z"/>
<path class="st21" d="M257.5,403.7l-0.2,0.2v6.9h0.8V403C257.9,403.3,257.7,403.5,257.5,403.7z"/>
<path class="st21" d="M258,397.9l-0.3,0.1c0.5,1.4,0.6,2.9,0.3,4.4l0,0c0,0.1,0,0.1-0.1,0.1l0,0v0.2c0,0.1,0,0.1-0.1,0.1l0,0
	c0,0.1,0,0.1-0.1,0.1l0,0v0.1l0,0c0,0.1,0,0.1-0.1,0.1l0,0l-0.1,0.1l0,0l-0.1,0.1c-0.1,0.1-0.1,0.2-0.2,0.2v0.2l0.2-0.2
	c0.2-0.2,0.4-0.4,0.6-0.7C258.7,401.8,258.6,400,258,397.9z"/>
<path class="st1" d="M264,403.9l-1.1,4.2h-1l1.1-4.2h-1.5v-0.8h2.5V403.9z"/>
<path class="st21" d="M219,410.6c-0.9,0-1.9,0-2.8-0.1c-0.8,0-1.6-0.2-2.2-0.7c-0.9-0.6-1.4-1.5-1.5-2.6c-0.1-0.6-0.1-1.3-0.1-1.9
	v-4c0-0.7,0.1-1.4,0.5-2c0.5-1,1.5-1.7,2.7-1.8c0.7-0.1,1.3-0.1,2-0.1h4c0.7,0,1.4,0.1,2,0.5c1,0.5,1.7,1.6,1.8,2.7
	c0.1,0.7,0.1,1.3,0.1,2v4c0,0.7-0.1,1.5-0.5,2.1c-0.5,1-1.5,1.6-2.6,1.8c-0.7,0.1-1.5,0.1-2.2,0.1H219z M219,398.6h-1.7
	c-0.6,0-1.1,0-1.7,0.1c-0.9,0.1-1.6,0.7-1.8,1.6c-0.1,0.4-0.2,0.9-0.2,1.3v4c0,0.5,0,1.1,0.1,1.6c0.1,1,0.9,1.9,1.9,2
	c0.3,0.1,0.6,0.1,0.9,0.1h4.1c0.5,0,1.1,0,1.6-0.1c0.9,0,1.7-0.7,1.9-1.6c0.1-0.3,0.2-0.7,0.2-1V403c0-0.7,0-1.5-0.1-2.2
	c-0.1-0.7-0.4-1.3-1-1.7c-0.5-0.3-1-0.4-1.5-0.5L219,398.6z"/>
<path class="st21" d="M219,407.4c-1.9,0-3.4-1.5-3.4-3.3c0,0,0,0,0-0.1c0-1.9,1.5-3.3,3.4-3.3c1.9,0,3.3,1.5,3.3,3.4
	c0.1,1.8-1.3,3.2-3.1,3.3C219.1,407.4,219.1,407.4,219,407.4z M221.2,404c0-1.2-0.9-2.2-2.1-2.3s-2.2,0.9-2.3,2.1
	c0,1.2,0.9,2.2,2.1,2.3c1.2,0.1,2.2-0.9,2.3-2.1C221.2,404.1,221.2,404,221.2,404z"/>
<path class="st21" d="M222.5,399.7c0.4,0,0.8,0.4,0.8,0.8c0,0.4-0.4,0.8-0.8,0.8s-0.8-0.4-0.8-0.8
	C221.7,400.1,222.1,399.7,222.5,399.7z"/>
<path class="st21" d="M249,398c-0.3,0.7-0.7,1.3-1.3,1.7l0,0c0.2,0,0.4-0.1,0.6-0.1c0.2,0,0.4-0.1,0.6-0.2c0.2-0.1,0.4-0.1,0.6-0.2
	c-0.4,0.5-0.8,1-1.3,1.4c-0.2,0.1-0.3,0.4-0.3,0.6c0,2.2-0.7,4.2-2.1,5.9c-1.2,1.5-2.9,2.5-4.8,2.9c-2.4,0.5-4.8,0.1-6.9-1.1
	l-0.1-0.1c0.8,0.1,1.7,0,2.5-0.2c0.8-0.2,1.5-0.6,2.2-1.1c-1.4-0.1-2.5-0.9-3-2.2c0.5,0.1,1,0.1,1.4-0.1c-1.5-0.3-2.5-1.6-2.5-3.1
	c0.2,0.1,0.5,0.2,0.7,0.3c0.2,0.1,0.5,0.1,0.7,0.1c-0.8-0.5-1.2-1.4-1.3-2.3c-0.1-0.7,0.1-1.3,0.4-1.9c1.6,1.9,4,3.1,6.5,3.3
	c0-0.2,0-0.4-0.1-0.5c-0.1-1.4,0.8-2.8,2.2-3.2c1.1-0.4,2.3-0.1,3.1,0.7c0.1,0.1,0.2,0.2,0.4,0.1c0.6-0.1,1.1-0.3,1.6-0.6
	C248.8,398,248.9,398,249,398z"/>
</svg>
