<?xml version="1.0" encoding="utf-8"?>
<!-- Generator: Adobe Illustrator 23.1.0, SVG Export Plug-In . SVG Version: 6.00 Build 0)  -->
<svg version="1.1" id="Слой_1" xmlns="http://www.w3.org/2000/svg" xmlns:xlink="http://www.w3.org/1999/xlink" x="0px" y="0px"
	 viewBox="0 0 320.6 592" style="enable-background:new 0 0 320.6 592;" xml:space="preserve">
<style type="text/css">
	.st0{fill:url(#SVGID_1_);}
	.st1{fill:#FFFFFF;}
	.st2{opacity:0.12;fill:url(#SVGID_2_);enable-background:new    ;}
	.st3{fill:#006ACD;}
	.st4{fill:#666666;}
	.st5{fill:none;}
	.st6{opacity:0.17;fill:url(#SVGID_3_);enable-background:new    ;}
	.st7{fill:url(#SVGID_4_);}
	.st8{fill:#FAC917;}
	.st9{fill:#FAD356;}
	.st10{fill:url(#SVGID_5_);}
	.st11{fill:#F8EB9C;}
	.st12{fill:#FAC940;}
	.st13{fill:none;stroke:#FAC940;stroke-width:11;stroke-miterlimit:10;}
	.st14{fill:#B7BCBC;}
	.st15{fill:url(#SVGID_6_);}
	.st16{clip-path:url(#SVGID_8_);}
	.st17{fill:url(#SVGID-2_1_);}
</style>
<title>screen-score</title>
<linearGradient id="SVGID_1_" gradientUnits="userSpaceOnUse" x1="303.67" y1="348.3002" x2="-17.94" y2="351.1802" gradientTransform="matrix(1 0 0 1 15.19 -213.8)">
	<stop  offset="0" style="stop-color:#0055CF"/>
	<stop  offset="1" style="stop-color:#00BBEE"/>
</linearGradient>
<path class="st0" d="M0,0v168.9C103.8,196,141,272,301.7,272c6.9,0,13.5-0.3,19.9-0.9V0H0z"/>
<path class="st1" d="M150.4,22.2c0-0.5-0.2-0.8-0.5-0.8c-0.8,0-1.9,2.4-2.5,5.2C149.1,25.7,150.2,24.1,150.4,22.2 M129.8,45.3
	c0,0.6,0.2,1.7,0.9,1.7c2.8,0,6.5-7.6,6.6-13.6C132.4,36.9,129.8,41.8,129.8,45.3 M155.7,19.5h3l-1.5,5.2l2.3-0.6l1.3-4.6h2.8
	l-2.3,7.8l3.7-5l0.8-2.8h2.6l-1.6,5.5c-0.1,0.2-0.4,1.4-0.1,1.4s1-1.3,1.8-2.7c0.8-1.4,1.4-2.8,2-4.2h2.7l-1.3,4.7l3.4-4.7h23.8
	l-57.5,24.8l1.1-3.9l45.1-18.6H179l-0.9,2.9l-2.8,0.9l1.1-3.8H175l-3.9,5.1l-2.4,0.8c0.1-1.2,0.3-2.5,0.6-3.7l-1.1,2.1
	c-0.9,1.7-1.7,3-3,3c-1,0-1.5-0.9-1.5-2.2c0-0.5,0.1-0.9,0.2-1.4l-3.7,4.9l-3,1l1.5-5.4l-2.3,0.6l-1.6,5.6l-3.3,1.1l1.5-5.2
	l-3.3,4.3c-1.4,1.8-2.9,2.8-4,2.8c-2.2,0-2.5-3.7-2.3-5.2c-1.2,0.6-1.7,0.8-2.1,1c0.5,8-7.5,19-12.7,19c-1.6,0-2.8-1.2-2.8-4
	c0-4.1,3.1-10.2,11.3-14.9c-0.1-1.5-0.8-2.9-1.8-3.9V27c2.8-2.2,4.9-4.6,4.9-6.8c0-0.8-0.6-1.4-1.4-1.4c-0.1,0-0.1,0-0.2,0
	c-1.6,0-3.6,1.9-4.7,3.6h-0.3l0.9-3.1c1.8-2.3,4.4-3.7,7.3-3.8c1.9,0,3.5,0.7,3.5,3c0,2.7-2.3,5.5-5.8,7.6c0.8,0.9,1.3,1.9,1.6,3.1
	c0.8-0.4,1.7-0.9,2.6-1.3c1-4.9,4.5-8.7,7.5-8.7c1.1-0.2,2.1,0.6,2.3,1.7c0,0.2,0,0.4,0,0.5c0,2.9-2.7,5.2-6.5,7.2
	c-0.1,0.5-0.1,1-0.1,1.5c0,1.3,0.3,2,0.8,2c0.3,0,0.7-0.3,1.2-0.8l5.1-6.1L155.7,19.5"/>
<image style="overflow:visible;opacity:0.32;enable-background:new    ;" width="351" height="564" xlink:href="FB211056.png"  transform="matrix(1 0 0 1 -13.59 29.07)">
</image>
<path class="st1" d="M288.2,553.1H34c-4.6,0-8.3-3.7-8.3-8.3c0,0,0,0,0,0V76.2c0-4.6,3.7-8.3,8.3-8.3c0,0,0,0,0,0h254.1
	c4.6,0,8.3,3.7,8.3,8.3c0,0,0,0,0,0v468.6c0.1,4.5-3.6,8.2-8.1,8.3C288.3,553.1,288.2,553.1,288.2,553.1z"/>
<linearGradient id="SVGID_2_" gradientUnits="userSpaceOnUse" x1="58.61" y1="536.4" x2="233.61" y2="536.4" gradientTransform="matrix(1 0 0 1 15.19 -213.8)">
	<stop  offset="0" style="stop-color:#C7EBFF"/>
	<stop  offset="1" style="stop-color:#87B9E7"/>
</linearGradient>
<circle class="st2" cx="161.3" cy="322.6" r="87.5"/>
<path class="st3" d="M57.9,93.1c0.9,0,1.8,0.2,2.7,0.5c0.8,0.3,1.5,0.8,2.1,1.3c0.6,0.5,1,1.2,1.4,1.9c0.3,0.8,0.5,1.6,0.5,2.4
	c0,0.8-0.2,1.6-0.5,2.4c-0.3,0.7-0.8,1.4-1.4,1.9c-0.6,0.6-1.3,1-2.1,1.3c-0.9,0.3-1.8,0.5-2.7,0.5h-8.3V86.1H63v4.3h-9v2.8
	L57.9,93.1L57.9,93.1z M57.7,101.5c0.6,0,1.3-0.2,1.7-0.7c0.9-0.8,0.9-2.2,0.1-3.1c0,0-0.1-0.1-0.1-0.1c-0.4-0.5-1.1-0.7-1.7-0.7H54
	v4.6L57.7,101.5z"/>
<path class="st3" d="M71.3,101.7l-1.2,3.7h-4.6l6.9-19.3H77l6.9,19.3h-4.6l-1.2-3.7H71.3z M76.8,97.9l-2.1-6.4l-2.1,6.4H76.8z"/>
<path class="st3" d="M101.7,86.1v19.3h-4.4v-15h-5.2l-0.8,9.2c0,1.6-0.6,3.2-1.7,4.4c-1,1-2.4,1.6-3.9,1.5h-1.3
	c-0.2,0-0.4-0.1-0.6-0.1v-3.8h0.6c0.7,0,1.3-0.3,1.8-0.8c0.5-0.6,0.8-1.3,0.8-2.1l1.1-12.5L101.7,86.1L101.7,86.1z"/>
<path class="st3" d="M121.6,86.1v19.3h-4.4v-15H112l-0.8,9.2c0,1.6-0.6,3.2-1.7,4.4c-1,1-2.4,1.6-3.9,1.5h-1.3
	c-0.2,0-0.3-0.1-0.5-0.1v-3.8h0.6c0.7,0,1.3-0.3,1.8-0.8c0.5-0.6,0.8-1.3,0.8-2.1l1.1-12.5L121.6,86.1L121.6,86.1z"/>
<path class="st3" d="M125.4,105.4V86.1h4.4v6.1h2.9c1,0,1.9,0.2,2.8,0.5c0.8,0.3,1.6,0.8,2.2,1.4c0.6,0.6,1.1,1.3,1.4,2.1
	c0.7,1.7,0.7,3.5,0,5.2c-0.3,0.8-0.8,1.5-1.4,2.1c-0.6,0.6-1.4,1.1-2.2,1.4c-0.9,0.3-1.8,0.5-2.8,0.5H125.4z M129.8,96.5v4.6h2.9
	c0.6,0,1.3-0.2,1.7-0.7c0.9-0.8,0.9-2.2,0.1-3.1c0,0-0.1-0.1-0.1-0.1c-0.4-0.5-1.1-0.7-1.7-0.7L129.8,96.5z M145.9,105.4h-4.4V86.1
	h4.4V105.4z"/>
<path class="st4" d="M246.1,184.5c0-0.2,0.1-0.3,0.2-0.4c0.2-0.2,0.6-0.3,0.8,0s0.3,0.6,0,0.8s-0.6,0.3-0.8,0c0,0,0,0,0,0
	C246.2,184.8,246.1,184.7,246.1,184.5z"/>
<rect x="47.8" y="137.3" class="st5" width="226.3" height="72"/>
<path class="st4" d="M50.3,139.3c0-0.3,0.1-0.6,0.2-0.8c0.1-0.3,0.3-0.5,0.5-0.7c0.2-0.2,0.4-0.3,0.7-0.4c0.3-0.1,0.6-0.2,0.9-0.2
	c0.3,0,0.6,0.1,0.9,0.2c0.3,0.1,0.5,0.3,0.7,0.5c0.2,0.2,0.4,0.4,0.5,0.7c0.1,0.3,0.2,0.5,0.2,0.8c0,0.2-0.1,0.5-0.2,0.7
	c-0.1,0.2-0.2,0.4-0.4,0.5c-0.1,0.2-0.3,0.3-0.5,0.4c0.2,0.1,0.4,0.2,0.6,0.4c0.2,0.1,0.4,0.4,0.4,0.6c0.1,0.3,0.2,0.6,0.2,0.9
	c0,0.3-0.1,0.6-0.2,0.8c-0.1,0.3-0.3,0.5-0.5,0.7c-0.2,0.2-0.5,0.4-0.8,0.5c-0.6,0.3-1.4,0.3-2,0c-0.3-0.1-0.5-0.2-0.8-0.4
	c-0.2-0.2-0.4-0.4-0.5-0.7c-0.1-0.3-0.2-0.5-0.3-0.8h1c0,0.4,0.2,0.7,0.5,0.9c0.3,0.3,0.7,0.4,1.1,0.4c0.4,0.1,0.8-0.1,1.1-0.4
	c0.2-0.3,0.4-0.6,0.4-0.9c0-0.3-0.1-0.7-0.4-0.9c-0.3-0.2-0.7-0.4-1.1-0.4h-0.6v-0.8h0.5c0.4,0,0.8-0.1,1-0.4
	c0.2-0.2,0.4-0.6,0.4-0.9c0-0.3-0.1-0.7-0.4-0.9c-0.3-0.2-0.6-0.4-1-0.4c-0.4,0-0.8,0.1-1,0.4c-0.2,0.2-0.4,0.6-0.4,0.9h-0.7
	L50.3,139.3z"/>
<path class="st4" d="M58.7,139.4c0.3,0,0.6,0.1,0.8,0.2c0.2,0.1,0.5,0.2,0.6,0.4c0.2,0.2,0.3,0.4,0.4,0.6c0.1,0.2,0.2,0.5,0.1,0.7
	v3.6h-0.7l-0.2-0.6c-0.1,0.1-0.3,0.2-0.4,0.3c-0.1,0.1-0.3,0.2-0.5,0.2c-0.2,0-0.4,0.1-0.7,0.1c-0.2,0-0.5,0-0.7-0.1
	c-0.2-0.1-0.4-0.2-0.6-0.4c-0.2-0.1-0.3-0.3-0.4-0.5c-0.1-0.2-0.1-0.4-0.1-0.6c0-0.2,0.1-0.5,0.2-0.7c0.1-0.2,0.3-0.4,0.5-0.6
	c0.3-0.2,0.6-0.3,1-0.4c0.6-0.1,1.1-0.1,1.7-0.1v-0.3c0-0.3-0.1-0.5-0.3-0.7c-0.2-0.2-0.5-0.3-0.8-0.3c-0.2,0-0.5,0.1-0.7,0.2
	c-0.2,0.1-0.3,0.4-0.3,0.6h-1c0-0.2,0.1-0.4,0.2-0.6c0.1-0.2,0.2-0.4,0.4-0.5c0.2-0.1,0.4-0.3,0.6-0.3
	C58.1,139.4,58.4,139.4,58.7,139.4z M58.2,144c0.2,0,0.5,0,0.7-0.1c0.2-0.1,0.3-0.2,0.5-0.3c0.1-0.1,0.2-0.3,0.3-0.4
	c0.1-0.1,0.1-0.3,0.1-0.5v-0.4c-0.4,0-0.9,0-1.3,0.1c-0.3,0.1-0.6,0.1-0.8,0.2c-0.2,0.1-0.3,0.2-0.4,0.3c-0.1,0.1-0.1,0.3-0.1,0.4
	c0,0.2,0.1,0.3,0.2,0.5C57.6,144,57.9,144,58.2,144z"/>
<path class="st4" d="M63.2,140c0.1-0.1,0.2-0.2,0.4-0.3c0.1-0.1,0.3-0.2,0.5-0.2c0.2,0,0.4-0.1,0.7-0.1c0.3,0,0.7,0.1,1,0.2
	c0.3,0.1,0.6,0.3,0.8,0.6c0.2,0.3,0.4,0.6,0.5,0.9c0.3,0.7,0.3,1.5,0,2.2c-0.1,0.3-0.3,0.6-0.5,0.9c-0.2,0.3-0.5,0.5-0.8,0.6
	c-0.3,0.2-0.7,0.2-1,0.2c-0.2,0-0.5,0-0.7-0.1c-0.2-0.1-0.3-0.2-0.5-0.2c-0.2-0.1-0.3-0.2-0.4-0.4v2.6h-0.9v-7.3H63L63.2,140z
	 M63.1,142.1c0,0.3,0,0.5,0.1,0.8c0.1,0.2,0.2,0.4,0.4,0.6c0.1,0.2,0.3,0.3,0.5,0.4c0.4,0.1,0.8,0.1,1.2,0c0.2-0.1,0.4-0.2,0.5-0.4
	c0.2-0.2,0.3-0.4,0.4-0.6c0.1-0.5,0.1-1.1,0-1.6c-0.1-0.2-0.2-0.4-0.4-0.6c-0.1-0.2-0.3-0.3-0.5-0.4c-0.4-0.1-0.8-0.1-1.2,0
	c-0.2,0.1-0.4,0.2-0.5,0.4c-0.1,0.2-0.3,0.4-0.4,0.6S63.1,141.8,63.1,142.1L63.1,142.1z"/>
<path class="st4" d="M70.7,139.4c0.3,0,0.6,0.1,0.8,0.2c0.2,0.1,0.5,0.2,0.6,0.4c0.2,0.2,0.3,0.4,0.4,0.6c0.1,0.2,0.2,0.5,0.1,0.7
	v3.6h-0.7l-0.2-0.6c-0.1,0.1-0.3,0.2-0.4,0.3c-0.1,0.1-0.3,0.2-0.5,0.2c-0.2,0-0.4,0.1-0.7,0.1c-0.2,0-0.5,0-0.7-0.1
	c-0.2-0.1-0.4-0.2-0.6-0.4c-0.2-0.1-0.3-0.3-0.4-0.5c-0.1-0.2-0.1-0.4-0.1-0.6c0-0.2,0.1-0.5,0.2-0.7c0.1-0.2,0.3-0.4,0.5-0.6
	c0.3-0.2,0.6-0.3,1-0.4c0.6-0.1,1.1-0.1,1.7-0.1v-0.3c0-0.3-0.1-0.5-0.3-0.7c-0.2-0.2-0.5-0.3-0.8-0.3c-0.2,0-0.5,0.1-0.7,0.2
	c-0.2,0.1-0.3,0.4-0.3,0.6h-1c0-0.2,0.1-0.4,0.2-0.6c0.1-0.2,0.2-0.4,0.4-0.5c0.2-0.1,0.4-0.3,0.6-0.3
	C70.1,139.4,70.4,139.4,70.7,139.4z M70.2,144c0.2,0,0.5,0,0.7-0.1c0.2-0.1,0.3-0.2,0.5-0.3c0.1-0.1,0.2-0.3,0.3-0.4
	c0.1-0.1,0.1-0.3,0.1-0.5v-0.4c-0.4,0-0.9,0-1.3,0.1c-0.3,0.1-0.6,0.1-0.8,0.2c-0.2,0.1-0.3,0.2-0.4,0.3c-0.1,0.1-0.1,0.3-0.1,0.4
	c0,0.2,0.1,0.3,0.2,0.5C69.6,143.9,69.9,144,70.2,144z"/>
<path class="st4" d="M75,140.5c0.1-0.2,0.3-0.3,0.4-0.4c0.2-0.1,0.4-0.2,0.6-0.3c0.3-0.1,0.5-0.1,0.8-0.1c0.3,0,0.6,0.1,0.9,0.2
	c0.3,0.1,0.6,0.3,0.8,0.6c0.2,0.2,0.4,0.5,0.5,0.8c0.1,0.3,0.2,0.7,0.2,1c0,0.3-0.1,0.7-0.2,1c-0.1,0.3-0.3,0.6-0.5,0.8
	c-0.2,0.2-0.5,0.4-0.8,0.6c-0.3,0.2-0.7,0.2-1,0.2c-0.3,0-0.7-0.1-1-0.2c-0.3-0.1-0.6-0.3-0.8-0.6c-0.2-0.3-0.4-0.6-0.6-1
	c-0.2-0.4-0.2-0.9-0.2-1.4c0-0.7,0.1-1.3,0.2-2c0.1-0.5,0.3-1,0.7-1.3c0.4-0.4,0.9-0.6,1.4-0.8c0.7-0.2,1.4-0.3,2.1-0.3v0.8
	c-0.5,0-1.1,0.1-1.6,0.2c-0.4,0.1-0.8,0.3-1.1,0.5c-0.3,0.2-0.5,0.5-0.6,0.8C75.1,139.9,75,140.2,75,140.5z M76.7,144
	c0.2,0,0.4,0,0.6-0.1c0.2-0.1,0.4-0.2,0.5-0.4c0.1-0.2,0.3-0.3,0.3-0.6s0.1-0.5,0.1-0.7c0-0.2,0-0.5-0.1-0.7l-0.3-0.6
	c-0.1-0.2-0.3-0.3-0.5-0.4c-0.4-0.1-0.8-0.1-1.2,0c-0.2,0.1-0.4,0.2-0.5,0.4c-0.1,0.2-0.3,0.3-0.4,0.6c-0.1,0.2-0.1,0.5-0.1,0.7
	c0,0.2,0,0.5,0.1,0.7c0.1,0.2,0.2,0.4,0.4,0.6c0.1,0.2,0.3,0.3,0.5,0.4C76.3,144,76.5,144,76.7,144z"/>
<path class="st4" d="M82.5,139.4c0.3,0,0.6,0.1,0.8,0.2c0.2,0.1,0.5,0.2,0.6,0.4c0.2,0.2,0.3,0.4,0.4,0.6c0.1,0.2,0.2,0.5,0.1,0.7
	v3.6h-0.7l-0.2-0.6c-0.1,0.1-0.3,0.2-0.4,0.3c-0.1,0.1-0.3,0.2-0.5,0.2c-0.2,0-0.4,0.1-0.7,0.1c-0.2,0-0.5,0-0.7-0.1
	c-0.2-0.1-0.4-0.2-0.6-0.4c-0.2-0.1-0.3-0.3-0.4-0.5c-0.1-0.2-0.1-0.4-0.1-0.6c0-0.2,0.1-0.5,0.2-0.7c0.1-0.2,0.3-0.4,0.5-0.6
	c0.3-0.2,0.6-0.3,1-0.4c0.6-0.1,1.1-0.1,1.7-0.1v-0.3c0-0.3-0.1-0.5-0.3-0.7c-0.2-0.2-0.5-0.3-0.8-0.3c-0.2,0-0.5,0.1-0.7,0.2
	c-0.2,0.1-0.3,0.4-0.3,0.6h-1c0-0.2,0.1-0.4,0.2-0.6c0.1-0.2,0.2-0.4,0.4-0.5c0.2-0.1,0.4-0.3,0.6-0.3
	C81.9,139.4,82.2,139.4,82.5,139.4z M82,144c0.2,0,0.5,0,0.7-0.1c0.2-0.1,0.3-0.2,0.5-0.3c0.1-0.1,0.2-0.3,0.3-0.4
	c0.1-0.1,0.1-0.3,0.1-0.5v-0.4c-0.4,0-0.9,0-1.3,0.1c-0.3,0.1-0.6,0.1-0.8,0.2c-0.2,0.1-0.3,0.2-0.4,0.3c-0.1,0.1-0.1,0.3-0.1,0.4
	c0,0.2,0.1,0.3,0.2,0.5C81.4,143.9,81.7,144,82,144z"/>
<path class="st4" d="M85.6,139.4h4.3v0.8h-1.7v4.6h-0.9v-4.6h-1.7V139.4z"/>
<path class="st4" d="M93,141.3c0.5,0,1,0.2,1.4,0.5c0.4,0.3,0.6,0.8,0.5,1.3c0,0.5-0.2,0.9-0.5,1.3c-0.4,0.4-0.9,0.6-1.4,0.5h-2.1
	v-5.4h0.9v1.9H93V141.3z M93,144c0.3,0,0.5-0.1,0.7-0.3c0.3-0.2,0.4-0.7,0.1-1.1c0-0.1-0.1-0.1-0.1-0.1c-0.2-0.2-0.4-0.3-0.7-0.3
	h-1.2v1.8H93z M96.6,139.4v5.4h-0.9v-5.4H96.6z"/>
<path class="st4" d="M101.6,142c0.3,0.2,0.5,0.4,0.7,0.7c0.1,0.2,0.1,0.4,0.1,0.6c0,0.4-0.1,0.8-0.4,1.1c-0.3,0.3-0.7,0.4-1.1,0.4
	h-2.6v-5.4h2.4c0.2,0,0.4,0,0.6,0.1c0.4,0.1,0.7,0.4,0.8,0.8c0.1,0.2,0.1,0.4,0.1,0.6c0,0.2,0,0.4-0.1,0.5c-0.1,0.1-0.1,0.2-0.2,0.3
	L101.6,142z M99.2,140.3v1.4h1.4c0.2,0,0.4-0.1,0.6-0.2c0.2-0.1,0.2-0.3,0.2-0.5c0-0.2-0.1-0.4-0.2-0.5c-0.2-0.1-0.4-0.2-0.6-0.2
	H99.2z M100.7,144c0.4,0,0.7-0.3,0.7-0.7c0,0,0,0,0,0c0-0.1,0-0.2-0.1-0.3c-0.1-0.1-0.1-0.2-0.2-0.2s-0.2-0.1-0.3-0.2
	c-0.1-0.1-0.2-0.1-0.3-0.1h-1.6v1.5H100.7z"/>
<path class="st4" d="M105.8,139.4c0.3,0,0.6,0.1,0.8,0.2c0.2,0.1,0.5,0.2,0.6,0.4c0.2,0.2,0.3,0.4,0.4,0.6c0.1,0.2,0.2,0.5,0.1,0.7
	v3.6H107l-0.2-0.6c-0.1,0.1-0.3,0.2-0.4,0.3c-0.1,0.1-0.3,0.2-0.5,0.2c-0.2,0-0.4,0.1-0.7,0.1c-0.2,0-0.5,0-0.7-0.1
	c-0.2-0.1-0.4-0.2-0.6-0.4c-0.2-0.1-0.3-0.3-0.4-0.5c-0.1-0.2-0.1-0.4-0.1-0.6c0-0.2,0.1-0.5,0.2-0.7c0.1-0.2,0.3-0.4,0.5-0.6
	c0.3-0.2,0.6-0.3,1-0.4c0.6-0.1,1.1-0.1,1.7-0.1v-0.3c0-0.3-0.1-0.5-0.3-0.7c-0.2-0.2-0.5-0.3-0.8-0.3c-0.2,0-0.5,0.1-0.7,0.2
	c-0.2,0.1-0.3,0.4-0.3,0.6h-1c0-0.2,0.1-0.4,0.2-0.6c0.1-0.2,0.2-0.4,0.4-0.5c0.2-0.1,0.4-0.3,0.6-0.3
	C105.2,139.4,105.5,139.4,105.8,139.4z M105.3,144c0.2,0,0.5,0,0.7-0.1c0.2-0.1,0.3-0.2,0.5-0.3c0.1-0.1,0.2-0.3,0.3-0.4
	c0.1-0.1,0.1-0.3,0.1-0.5v-0.4c-0.4,0-0.9,0-1.3,0.1c-0.3,0.1-0.6,0.1-0.8,0.2c-0.2,0.1-0.3,0.2-0.4,0.3c-0.1,0.1-0.1,0.3-0.1,0.4
	c0,0.2,0.1,0.3,0.2,0.5C104.7,144,105,144,105.3,144z"/>
<path class="st4" d="M114,139.4v5.4h-0.9v-4l-2.8,4h-0.9v-5.4h0.9v4l2.8-4H114z M111.7,138.6c-0.4,0-0.7-0.1-1-0.4
	c-0.2-0.3-0.4-0.6-0.5-0.9h0.7c0,0.4,0.3,0.7,0.7,0.7c0,0,0,0,0,0c0.2,0,0.3-0.1,0.5-0.2s0.2-0.3,0.2-0.5h0.7c0,0.4-0.2,0.7-0.5,0.9
	C112.4,138.5,112.1,138.6,111.7,138.6z"/>
<path class="st4" d="M115.1,139.4h4.3v0.8h-1.8v4.6h-0.9v-4.6H115L115.1,139.4L115.1,139.4z"/>
<path class="st4" d="M124.8,143.4l-0.3,0.6c-0.1,0.2-0.3,0.3-0.5,0.5s-0.4,0.2-0.6,0.3c-0.3,0.1-0.5,0.1-0.8,0.1
	c-0.3,0-0.7-0.1-1-0.2c-0.3-0.1-0.6-0.3-0.8-0.6c-0.2-0.3-0.4-0.6-0.5-0.9c-0.3-0.7-0.3-1.5,0-2.2c0.1-0.3,0.3-0.6,0.5-0.9
	c0.2-0.2,0.5-0.4,0.8-0.6c0.3-0.2,0.6-0.2,0.9-0.2c0.3,0,0.6,0.1,0.9,0.2c0.3,0.1,0.6,0.3,0.8,0.5c0.3,0.2,0.5,0.5,0.5,0.9
	c0.1,0.4,0.2,0.7,0.2,1.1v0.4h-3.8c0,0.2,0.1,0.4,0.2,0.6c0.1,0.2,0.2,0.4,0.4,0.5c0.1,0.1,0.3,0.2,0.5,0.3c0.2,0.1,0.4,0.1,0.6,0.1
	c0.2,0,0.3,0,0.5-0.1c0.2-0.1,0.3-0.1,0.4-0.2s0.2-0.1,0.3-0.2l0.2-0.2h0.6L124.8,143.4z M122.5,140.2c-0.2,0-0.4,0-0.5,0.1
	c-0.2,0.1-0.3,0.2-0.4,0.3c-0.2,0.1-0.3,0.3-0.3,0.5c0,0.2-0.2,0.4-0.2,0.6h2.9c0-0.4-0.2-0.8-0.5-1.1
	C123.2,140.3,122.9,140.2,122.5,140.2z"/>
<path class="st4" d="M129.5,140.5c0.1-0.2,0.3-0.3,0.4-0.4c0.2-0.1,0.4-0.2,0.6-0.3c0.3-0.1,0.5-0.1,0.8-0.1c0.3,0,0.6,0.1,0.9,0.2
	c0.3,0.1,0.6,0.3,0.8,0.6c0.2,0.2,0.4,0.5,0.5,0.8c0.1,0.3,0.2,0.7,0.2,1c0,0.3-0.1,0.7-0.2,1c-0.1,0.3-0.3,0.6-0.5,0.8
	c-0.2,0.2-0.5,0.4-0.8,0.6c-0.3,0.2-0.7,0.2-1,0.2c-0.3,0-0.7-0.1-1-0.2c-0.3-0.1-0.6-0.3-0.8-0.6c-0.2-0.3-0.4-0.7-0.6-1
	c-0.2-0.4-0.2-0.9-0.2-1.4c0-0.7,0.1-1.3,0.2-2c0.1-0.5,0.3-1,0.7-1.3c0.4-0.4,0.9-0.6,1.4-0.8c0.7-0.2,1.4-0.3,2.1-0.3v0.8
	c-0.5,0-1.1,0.1-1.6,0.2c-0.4,0.1-0.8,0.3-1.1,0.5c-0.3,0.2-0.5,0.5-0.6,0.8C129.6,139.9,129.5,140.2,129.5,140.5z M131.2,144
	c0.2,0,0.4,0,0.6-0.1c0.2-0.1,0.4-0.2,0.5-0.4c0.1-0.2,0.3-0.3,0.3-0.6s0.1-0.5,0.1-0.7c0-0.2,0-0.5-0.1-0.7l-0.3-0.6
	c-0.1-0.2-0.3-0.3-0.5-0.4c-0.4-0.1-0.8-0.1-1.2,0c-0.2,0.1-0.4,0.2-0.5,0.4c-0.1,0.2-0.3,0.3-0.4,0.6c-0.1,0.2-0.1,0.5-0.1,0.7
	c0,0.2,0,0.5,0.1,0.7c0.1,0.2,0.2,0.4,0.4,0.6c0.1,0.2,0.3,0.3,0.5,0.4C130.8,144,131,144,131.2,144z"/>
<path class="st4" d="M137,139.4c0.3,0,0.6,0.1,0.8,0.2c0.2,0.1,0.5,0.2,0.6,0.4c0.2,0.2,0.3,0.4,0.4,0.6c0.1,0.2,0.2,0.5,0.1,0.7
	v3.6h-0.7l-0.2-0.6c-0.1,0.1-0.3,0.2-0.4,0.3c-0.1,0.1-0.3,0.2-0.5,0.2c-0.2,0-0.4,0.1-0.7,0.1c-0.2,0-0.5,0-0.7-0.1
	c-0.2-0.1-0.4-0.2-0.6-0.4c-0.2-0.1-0.3-0.3-0.4-0.5c-0.1-0.2-0.1-0.4-0.1-0.6c0-0.2,0.1-0.5,0.2-0.7c0.1-0.2,0.3-0.4,0.5-0.6
	c0.3-0.2,0.6-0.3,1-0.4c0.6-0.1,1.1-0.1,1.7-0.1v-0.3c0-0.3-0.1-0.5-0.3-0.7c-0.2-0.2-0.5-0.3-0.8-0.3c-0.2,0-0.5,0.1-0.7,0.2
	c-0.2,0.1-0.3,0.4-0.3,0.6h-1c0-0.2,0.1-0.4,0.2-0.6c0.1-0.2,0.2-0.4,0.4-0.5c0.2-0.1,0.4-0.3,0.6-0.3
	C136.4,139.4,136.7,139.4,137,139.4z M136.5,144c0.2,0,0.5,0,0.7-0.1c0.2-0.1,0.3-0.2,0.5-0.3c0.1-0.1,0.2-0.3,0.3-0.4
	c0.1-0.1,0.1-0.3,0.1-0.5v-0.4c-0.4,0-0.9,0-1.3,0.1c-0.3,0.1-0.6,0.1-0.8,0.2c-0.2,0.1-0.3,0.2-0.4,0.3c-0.1,0.1-0.1,0.3-0.1,0.4
	c0,0.2,0.1,0.3,0.2,0.5C135.9,143.9,136.2,144,136.5,144z"/>
<path class="st4" d="M144.9,139.4v5.4H144v-4.6h-2l-0.2,2.9c0,0.5-0.2,1-0.5,1.3c-0.3,0.3-0.7,0.5-1.1,0.5h-0.3v-0.8h0.1
	c0.6,0,0.9-0.3,1-1l0.3-3.7H144.9z"/>
<path class="st4" d="M150.7,139.4v5.4h-0.9v-4.6h-2l-0.2,2.9c0,0.5-0.2,1-0.5,1.3c-0.3,0.3-0.7,0.5-1.1,0.5h-0.3v-0.8h0.1
	c0.6,0,0.9-0.3,1-1l0.3-3.7H150.7z"/>
<path class="st4" d="M154.5,141.3c0.5,0,1,0.2,1.4,0.5c0.4,0.3,0.6,0.8,0.5,1.3c0,0.5-0.2,0.9-0.5,1.3c-0.4,0.4-0.9,0.6-1.4,0.5
	h-2.1v-5.4h0.9v1.9h1.2L154.5,141.3z M154.5,144c0.3,0,0.5-0.1,0.7-0.3c0.3-0.2,0.4-0.7,0.1-1.1c0-0.1-0.1-0.1-0.1-0.1
	c-0.2-0.2-0.4-0.3-0.7-0.3h-1.2v1.8H154.5z M158.1,139.4v5.4h-0.9v-5.4H158.1z"/>
<path class="st4" d="M165,142.1c0.1,0.1,0.3,0.2,0.4,0.3c0.1,0.1,0.2,0.2,0.3,0.4c0.1,0.2,0.1,0.3,0.1,0.5c0,0.2,0,0.4-0.1,0.6
	c-0.1,0.2-0.2,0.4-0.4,0.5c-0.2,0.1-0.4,0.3-0.6,0.3s-0.5,0.1-0.8,0.1c-0.5,0-1-0.2-1.4-0.5c-0.3-0.3-0.5-0.7-0.6-1.2h0.9
	c0,0.2,0.1,0.4,0.3,0.6c0.2,0.2,0.4,0.2,0.8,0.2c0.2,0,0.5-0.1,0.7-0.2c0.3-0.2,0.4-0.5,0.2-0.8c-0.1-0.1-0.1-0.2-0.2-0.2
	c-0.2-0.1-0.5-0.2-0.7-0.2h-0.5v-0.8h0.5c0.2,0,0.4-0.1,0.6-0.2c0.2-0.1,0.2-0.3,0.2-0.5c0-0.2-0.1-0.4-0.2-0.5
	c-0.2-0.1-0.4-0.2-0.6-0.2c-0.2,0-0.5,0.1-0.7,0.2c-0.1,0.2-0.2,0.3-0.3,0.5H162c0-0.5,0.2-0.9,0.5-1.2c0.4-0.3,0.9-0.5,1.4-0.5
	c0.2,0,0.5,0,0.7,0.1l0.6,0.3c0.2,0.1,0.3,0.3,0.4,0.5c0.1,0.2,0.1,0.4,0.1,0.6c0,0.2,0,0.4-0.1,0.5c-0.1,0.1-0.1,0.3-0.2,0.4
	C165.3,141.9,165.2,142,165,142.1z"/>
<path class="st4" d="M169.2,139.4c0.3,0,0.6,0.1,0.8,0.2c0.2,0.1,0.5,0.2,0.6,0.4c0.2,0.2,0.3,0.4,0.4,0.6c0.1,0.2,0.2,0.5,0.1,0.7
	v3.6h-0.5l-0.2-0.6c-0.1,0.1-0.3,0.2-0.4,0.3c-0.1,0.1-0.3,0.2-0.5,0.2c-0.2,0-0.4,0.1-0.7,0.1c-0.2,0-0.5,0-0.7-0.1
	c-0.2-0.1-0.4-0.2-0.6-0.4c-0.2-0.1-0.3-0.3-0.4-0.5c-0.1-0.2-0.1-0.4-0.1-0.6c0-0.2,0.1-0.5,0.2-0.7c0.1-0.2,0.3-0.4,0.5-0.6
	c0.3-0.2,0.6-0.3,1-0.4c0.6-0.1,1.1-0.1,1.7-0.1v-0.3c0-0.3-0.1-0.5-0.3-0.7c-0.2-0.2-0.5-0.3-0.8-0.3c-0.2,0-0.5,0.1-0.7,0.2
	c-0.2,0.1-0.3,0.4-0.3,0.6h-1c0-0.2,0.1-0.4,0.2-0.6c0.1-0.2,0.2-0.4,0.4-0.5c0.2-0.1,0.4-0.3,0.6-0.3
	C168.7,139.4,168.9,139.4,169.2,139.4z M168.7,144c0.2,0,0.5,0,0.7-0.1c0.2-0.1,0.3-0.2,0.5-0.3c0.1-0.1,0.2-0.3,0.3-0.4
	c0.1-0.1,0.1-0.3,0.1-0.5v-0.4c-0.4,0-0.9,0-1.3,0.1c-0.3,0.1-0.6,0.1-0.8,0.2c-0.2,0.1-0.3,0.2-0.4,0.3c-0.1,0.1-0.1,0.3-0.1,0.4
	c0,0.2,0.1,0.3,0.2,0.5C168.1,143.9,168.4,144,168.7,144z"/>
<path class="st4" d="M180.1,139.4v5.4h-0.9v-4.6h-2.8v4.6h-0.8v-5.4L180.1,139.4z"/>
<path class="st4" d="M182.7,140c0.1-0.1,0.2-0.2,0.4-0.3c0.1-0.1,0.3-0.2,0.5-0.2c0.2,0,0.4-0.1,0.7-0.1c0.3,0,0.7,0.1,1,0.2
	c0.3,0.1,0.6,0.3,0.8,0.6c0.2,0.3,0.4,0.6,0.5,0.9c0.3,0.7,0.3,1.5,0,2.2c-0.1,0.3-0.3,0.6-0.5,0.9c-0.2,0.3-0.5,0.5-0.8,0.6
	c-0.3,0.2-0.7,0.2-1,0.2c-0.2,0-0.5,0-0.7-0.1c-0.2-0.1-0.3-0.2-0.5-0.2c-0.2-0.1-0.3-0.2-0.4-0.4v2.6h-0.9v-7.3h0.7L182.7,140z
	 M182.6,142.1c0,0.3,0,0.5,0.1,0.8c0.1,0.2,0.2,0.4,0.4,0.6c0.1,0.2,0.3,0.3,0.5,0.4c0.4,0.1,0.8,0.1,1.2,0c0.2-0.1,0.4-0.2,0.5-0.4
	c0.2-0.2,0.3-0.4,0.4-0.6c0.1-0.5,0.1-1.1,0-1.6c-0.1-0.2-0.2-0.4-0.4-0.6c-0.1-0.2-0.3-0.3-0.5-0.4c-0.4-0.1-0.8-0.1-1.2,0
	c-0.2,0.1-0.4,0.2-0.5,0.4c-0.1,0.2-0.3,0.4-0.4,0.6C182.6,141.6,182.6,141.8,182.6,142.1L182.6,142.1z"/>
<path class="st4" d="M190.2,139.4c0.3,0,0.6,0.1,0.8,0.2c0.2,0.1,0.5,0.2,0.6,0.4c0.2,0.2,0.3,0.4,0.4,0.6c0.1,0.2,0.2,0.5,0.1,0.7
	v3.6h-0.5l-0.2-0.6c-0.1,0.1-0.3,0.2-0.4,0.3c-0.1,0.1-0.3,0.2-0.5,0.2c-0.2,0-0.4,0.1-0.7,0.1c-0.2,0-0.5,0-0.7-0.1
	c-0.2-0.1-0.4-0.2-0.6-0.4c-0.2-0.1-0.3-0.3-0.4-0.5c-0.1-0.2-0.1-0.4-0.1-0.6c0-0.2,0.1-0.5,0.2-0.7c0.1-0.2,0.3-0.4,0.5-0.6
	c0.3-0.2,0.6-0.3,1-0.4c0.6-0.1,1.1-0.1,1.7-0.1v-0.3c0-0.3-0.1-0.5-0.3-0.7c-0.2-0.2-0.5-0.3-0.8-0.3c-0.2,0-0.5,0.1-0.7,0.2
	c-0.2,0.1-0.3,0.4-0.3,0.6h-1c0-0.2,0.1-0.4,0.2-0.6c0.1-0.2,0.2-0.4,0.4-0.5c0.2-0.1,0.4-0.3,0.6-0.3
	C189.6,139.4,189.9,139.4,190.2,139.4z M189.7,144c0.2,0,0.5,0,0.7-0.1c0.2-0.1,0.3-0.2,0.5-0.3c0.1-0.1,0.2-0.3,0.3-0.4
	c0.1-0.1,0.1-0.3,0.1-0.5v-0.4c-0.4,0-0.9,0-1.3,0.1c-0.3,0.1-0.6,0.1-0.8,0.2c-0.2,0.1-0.3,0.2-0.4,0.3c-0.1,0.1-0.1,0.3-0.1,0.4
	c0,0.2,0.1,0.3,0.2,0.5C189.1,144,189.4,144,189.7,144z"/>
<path class="st4" d="M197.1,142c0.3,0.2,0.5,0.4,0.7,0.7c0.1,0.2,0.1,0.4,0.1,0.6c0,0.4-0.1,0.8-0.4,1.1c-0.3,0.3-0.7,0.4-1.1,0.4
	h-2.6v-5.4h2.4c0.2,0,0.4,0,0.6,0.1c0.4,0.1,0.7,0.4,0.8,0.8c0.1,0.2,0.1,0.4,0.1,0.6c0,0.2,0,0.4-0.1,0.5c-0.1,0.1-0.1,0.2-0.2,0.3
	L197.1,142z M194.7,140.3v1.4h1.4c0.2,0,0.4-0.1,0.6-0.2c0.2-0.1,0.2-0.3,0.2-0.5c0-0.2-0.1-0.4-0.2-0.5c-0.2-0.1-0.4-0.2-0.6-0.2
	H194.7z M196.3,144c0.4,0,0.7-0.3,0.7-0.7c0,0,0,0,0,0c0-0.1,0-0.2-0.1-0.3c-0.1-0.1-0.1-0.2-0.2-0.2s-0.2-0.1-0.3-0.2
	c-0.1-0.1-0.2-0.1-0.3-0.1h-1.6v1.5H196.3z"/>
<path class="st4" d="M203.9,139.4v5.4H203v-4l-2.8,4h-0.9v-5.4h0.9v4l2.8-4H203.9z"/>
<path class="st4" d="M209.7,139.4v5.4h-0.9v-4.6h-2l-0.2,2.9c0,0.5-0.2,1-0.5,1.3c-0.3,0.3-0.7,0.5-1.1,0.5h-0.3v-0.8h0.1
	c0.6,0,0.9-0.3,1-1l0.3-3.7H209.7z"/>
<path class="st4" d="M213.6,141.3c0.5,0,1,0.2,1.4,0.5c0.4,0.3,0.6,0.8,0.5,1.3c0,0.5-0.2,0.9-0.5,1.3c-0.4,0.4-0.9,0.6-1.4,0.5
	h-2.2v-5.4h0.9v1.9h1.3V141.3z M213.6,144c0.2,0,0.5-0.1,0.7-0.2c0.2-0.2,0.3-0.4,0.3-0.7c0-0.2-0.1-0.4-0.3-0.6
	c-0.2-0.2-0.4-0.3-0.7-0.3h-1.3v1.8H213.6z"/>
<path class="st4" d="M221.2,139.4v5.4h-0.9v-2.3h-2.7v2.3h-0.9v-5.4h0.9v2.2h2.8v-2.2H221.2z"/>
<path class="st4" d="M225,141.3c0.5,0,1,0.2,1.4,0.5c0.4,0.3,0.6,0.8,0.5,1.3c0,0.5-0.2,0.9-0.5,1.3c-0.4,0.4-0.9,0.6-1.4,0.5h-2.1
	v-5.4h0.9v1.9h1.2L225,141.3z M225,144c0.3,0,0.5-0.1,0.7-0.3c0.3-0.2,0.4-0.7,0.1-1.1c0-0.1-0.1-0.1-0.1-0.1
	c-0.2-0.2-0.4-0.3-0.7-0.3h-1.2v1.8H225z M228.6,139.4v5.4h-0.9v-5.4H228.6z"/>
<path class="st4" d="M234.7,143.4l-0.3,0.6c-0.1,0.2-0.3,0.3-0.5,0.5s-0.4,0.2-0.6,0.3c-0.3,0.1-0.5,0.1-0.8,0.1
	c-0.3,0-0.7-0.1-1-0.2c-0.3-0.1-0.6-0.3-0.8-0.6c-0.2-0.3-0.4-0.6-0.5-0.9c-0.3-0.7-0.3-1.5,0-2.2c0.1-0.3,0.3-0.6,0.5-0.9
	c0.2-0.2,0.5-0.4,0.8-0.6c0.3-0.2,0.6-0.2,0.9-0.2c0.3,0,0.6,0.1,0.9,0.2c0.3,0.1,0.6,0.3,0.8,0.5c0.3,0.2,0.5,0.5,0.5,0.9
	c0.1,0.4,0.2,0.7,0.2,1.1v0.4H231c0,0.2,0.1,0.4,0.2,0.6c0.1,0.2,0.2,0.4,0.4,0.5c0.1,0.1,0.3,0.2,0.5,0.3c0.2,0.1,0.4,0.1,0.6,0.1
	c0.2,0,0.3,0,0.5-0.1c0.2-0.1,0.3-0.1,0.4-0.2s0.2-0.1,0.3-0.2l0.2-0.2h0.6L234.7,143.4z M232.4,140.2c-0.2,0-0.4,0-0.5,0.1
	c-0.2,0.1-0.3,0.2-0.4,0.3c-0.2,0.1-0.3,0.3-0.3,0.5c0,0.2-0.2,0.4-0.2,0.6h2.9C233.9,140.9,233.2,140.2,232.4,140.2L232.4,140.2z"
	/>
<path class="st4" d="M243.4,142.1c0,0.4-0.1,0.7-0.2,1.1c-0.1,0.3-0.3,0.6-0.5,0.9c-0.2,0.3-0.5,0.5-0.8,0.6c-0.3,0.2-0.7,0.2-1,0.2
	c-0.3,0-0.7-0.1-1-0.2c-0.3-0.1-0.6-0.3-0.8-0.6c-0.2-0.3-0.4-0.6-0.5-0.9c-0.3-0.7-0.3-1.5,0-2.2c0.1-0.3,0.3-0.6,0.5-0.9
	c0.2-0.2,0.5-0.4,0.8-0.6c0.3-0.2,0.7-0.2,1-0.2c0.3,0,0.7,0.1,1,0.2c0.3,0.1,0.6,0.3,0.8,0.6c0.2,0.3,0.4,0.6,0.5,0.9
	C243.4,141.3,243.4,141.7,243.4,142.1z M239.3,142.1c0,0.3,0,0.5,0.1,0.8c0.1,0.2,0.2,0.4,0.4,0.6c0.1,0.2,0.3,0.3,0.5,0.4
	c0.4,0.1,0.8,0.1,1.2,0c0.2-0.1,0.4-0.2,0.5-0.4c0.1-0.2,0.3-0.4,0.4-0.6c0.1-0.5,0.1-1.1,0-1.6c-0.1-0.2-0.2-0.4-0.4-0.6
	c-0.1-0.2-0.3-0.3-0.5-0.4c-0.4-0.1-0.8-0.1-1.2,0c-0.2,0.1-0.4,0.2-0.5,0.4c-0.1,0.2-0.3,0.4-0.4,0.6
	C239.3,141.6,239.3,141.8,239.3,142.1z"/>
<path class="st4" d="M244.1,139.4h4.3v0.8h-1.7v4.6h-0.9v-4.6h-1.7L244.1,139.4L244.1,139.4z"/>
<path class="st4" d="M252.8,142c0.3,0.2,0.5,0.4,0.7,0.7c0.1,0.2,0.1,0.4,0.1,0.6c0,0.4-0.1,0.8-0.4,1.1c-0.3,0.3-0.7,0.4-1.1,0.4
	h-2.6v-5.4h2.4c0.2,0,0.4,0,0.6,0.1c0.4,0.1,0.7,0.4,0.8,0.8c0.1,0.2,0.1,0.4,0.1,0.6c0,0.2,0,0.4-0.1,0.5c-0.1,0.1-0.1,0.2-0.2,0.3
	L252.8,142z M250.4,140.3v1.4h1.4c0.2,0,0.4-0.1,0.6-0.2c0.2-0.1,0.2-0.3,0.2-0.5c0-0.2-0.1-0.4-0.2-0.5c-0.2-0.1-0.4-0.2-0.6-0.2
	H250.4z M251.9,144c0.4,0,0.7-0.3,0.7-0.7c0,0,0,0,0,0c0-0.1,0-0.2-0.1-0.3c-0.1-0.1-0.1-0.2-0.2-0.2s-0.2-0.1-0.3-0.2
	c-0.1-0.1-0.2-0.1-0.3-0.1h-1.6v1.5H251.9z"/>
<path class="st4" d="M259.4,143.4l-0.3,0.6c-0.1,0.2-0.3,0.3-0.5,0.5s-0.4,0.2-0.6,0.3c-0.3,0.1-0.5,0.1-0.8,0.1
	c-0.3,0-0.7-0.1-1-0.2c-0.3-0.1-0.6-0.3-0.8-0.6c-0.2-0.3-0.4-0.6-0.5-0.9c-0.3-0.7-0.3-1.5,0-2.2c0.1-0.3,0.3-0.6,0.5-0.9
	c0.2-0.2,0.5-0.4,0.8-0.6c0.3-0.2,0.6-0.2,0.9-0.2c0.3,0,0.6,0.1,0.9,0.2c0.3,0.1,0.6,0.3,0.8,0.5c0.3,0.2,0.5,0.5,0.5,0.9
	c0.1,0.4,0.2,0.7,0.2,1.1v0.4h-3.9c0,0.2,0.1,0.4,0.2,0.6c0.1,0.2,0.2,0.4,0.4,0.5c0.1,0.1,0.3,0.2,0.5,0.3c0.2,0.1,0.4,0.1,0.6,0.1
	c0.2,0,0.3,0,0.5-0.1c0.2-0.1,0.3-0.1,0.4-0.2s0.2-0.1,0.3-0.2l0.2-0.2h0.7L259.4,143.4z M257.1,140.2c-0.2,0-0.4,0-0.5,0.1
	c-0.2,0.1-0.3,0.2-0.4,0.3c-0.2,0.1-0.3,0.3-0.3,0.5c0,0.2-0.2,0.4-0.2,0.6h2.9c0-0.4-0.2-0.8-0.5-1.1
	C257.8,140.3,257.5,140.2,257.1,140.2L257.1,140.2z"/>
<path class="st4" d="M260.2,139.4h4.3v0.8h-1.7v4.6h-0.9v-4.6h-1.7L260.2,139.4L260.2,139.4z"/>
<path class="st4" d="M267.6,141.3c0.5,0,1,0.2,1.4,0.5c0.4,0.3,0.6,0.8,0.5,1.3c0,0.5-0.2,0.9-0.5,1.3c-0.4,0.4-0.9,0.6-1.4,0.5
	h-2.1v-5.4h0.9v1.9h1.2V141.3z M267.6,144c0.3,0,0.5-0.1,0.7-0.3c0.3-0.2,0.4-0.7,0.1-1.1c0-0.1-0.1-0.1-0.1-0.1
	c-0.2-0.2-0.4-0.3-0.7-0.3h-1.2v1.8H267.6z M271.2,139.4v5.4h-0.9v-5.4H271.2z"/>
<path class="st4" d="M52,156.4c0.3,0.2,0.5,0.4,0.7,0.7c0.1,0.2,0.1,0.4,0.1,0.6c0,0.4-0.1,0.8-0.4,1.1c-0.3,0.3-0.7,0.4-1.1,0.4
	h-2.6v-5.4h2.4c0.2,0,0.4,0,0.6,0.1c0.4,0.1,0.7,0.4,0.8,0.8c0.1,0.2,0.1,0.4,0.1,0.6c0,0.2,0,0.4-0.1,0.5c-0.1,0.1-0.1,0.2-0.2,0.3
	S52.1,156.3,52,156.4z M49.6,154.7v1.4H51c0.2,0,0.4-0.1,0.6-0.2c0.2-0.1,0.2-0.3,0.2-0.5c0-0.2-0.1-0.4-0.2-0.5
	c-0.2-0.1-0.4-0.2-0.6-0.2H49.6z M51.1,158.4c0.4,0,0.7-0.3,0.7-0.7c0,0,0,0,0,0c0-0.1,0-0.2-0.1-0.3c-0.1-0.1-0.1-0.2-0.2-0.2
	s-0.2-0.1-0.3-0.2c-0.1-0.1-0.2-0.1-0.3-0.1h-1.3v1.5H51.1z"/>
<path class="st4" d="M60.3,154.7h-2.6v4.6h-0.9v-5.4h3.5L60.3,154.7z"/>
<path class="st4" d="M66,156.5c0,0.4-0.1,0.7-0.2,1.1c-0.1,0.3-0.3,0.6-0.5,0.9c-0.2,0.3-0.5,0.5-0.8,0.6c-0.3,0.2-0.7,0.2-1,0.2
	c-0.3,0-0.7-0.1-1-0.2c-0.3-0.1-0.6-0.3-0.8-0.6c-0.2-0.3-0.4-0.6-0.5-0.9c-0.3-0.7-0.3-1.5,0-2.2c0.1-0.3,0.3-0.6,0.5-0.9
	c0.2-0.2,0.5-0.4,0.8-0.6c0.3-0.2,0.7-0.2,1-0.2c0.3,0,0.7,0.1,1,0.2c0.3,0.1,0.6,0.3,0.8,0.6c0.2,0.3,0.4,0.6,0.5,0.9
	C66,155.7,66,156.1,66,156.5z M61.9,156.5c0,0.3,0,0.5,0.1,0.8c0.1,0.2,0.2,0.4,0.4,0.6c0.1,0.2,0.3,0.3,0.5,0.4
	c0.4,0.1,0.8,0.1,1.2,0c0.2-0.1,0.4-0.2,0.5-0.4c0.1-0.2,0.3-0.4,0.4-0.6c0.1-0.5,0.1-1.1,0-1.6c-0.1-0.2-0.2-0.4-0.4-0.6
	c-0.1-0.2-0.3-0.3-0.5-0.4c-0.4-0.1-0.8-0.1-1.2,0c-0.2,0.1-0.4,0.2-0.5,0.4c-0.1,0.2-0.3,0.4-0.4,0.6
	C61.9,156,61.9,156.2,61.9,156.5z"/>
<path class="st4" d="M71.5,153.8v5.4h-0.9v-4.6h-2l-0.2,2.9c0,0.5-0.2,1-0.5,1.3c-0.3,0.3-0.7,0.5-1.1,0.5h-0.3v-0.8h0.1
	c0.6,0,0.9-0.3,1-1l0.3-3.7L71.5,153.8z"/>
<path class="st4" d="M77.9,156.5c0,0.4-0.1,0.7-0.2,1.1c-0.1,0.3-0.3,0.6-0.5,0.9c-0.2,0.3-0.5,0.5-0.8,0.6c-0.3,0.2-0.7,0.2-1,0.2
	c-0.3,0-0.7-0.1-1-0.2c-0.3-0.1-0.6-0.3-0.8-0.6c-0.2-0.3-0.4-0.6-0.5-0.9c-0.3-0.7-0.3-1.5,0-2.2c0.1-0.3,0.3-0.6,0.5-0.9
	c0.2-0.2,0.5-0.4,0.8-0.6c0.3-0.2,0.7-0.2,1-0.2c0.3,0,0.7,0.1,1,0.2c0.3,0.1,0.6,0.3,0.8,0.6c0.2,0.3,0.4,0.6,0.5,0.9
	C77.8,155.8,77.9,156.1,77.9,156.5z M73.7,156.5c0,0.3,0,0.5,0.1,0.8c0.1,0.2,0.2,0.4,0.4,0.6c0.1,0.2,0.3,0.3,0.5,0.4
	c0.4,0.1,0.8,0.1,1.2,0c0.2-0.1,0.4-0.2,0.5-0.4c0.1-0.2,0.3-0.4,0.4-0.6c0.1-0.5,0.1-1.1,0-1.6c-0.1-0.2-0.2-0.4-0.4-0.6
	c-0.1-0.2-0.3-0.3-0.5-0.4c-0.4-0.1-0.8-0.1-1.2,0c-0.2,0.1-0.4,0.2-0.5,0.4c-0.1,0.2-0.3,0.4-0.4,0.6S73.7,156.2,73.7,156.5z"/>
<path class="st4" d="M81.4,154.6c-0.2,0-0.4,0-0.6,0.1c-0.2,0.1-0.4,0.2-0.5,0.4c-0.1,0.2-0.3,0.4-0.4,0.6c-0.1,0.5-0.1,1.1,0,1.6
	c0.1,0.2,0.2,0.4,0.4,0.6c0.1,0.2,0.3,0.3,0.5,0.4c0.2,0.1,0.4,0.1,0.6,0.1c0.2,0,0.3,0,0.5-0.1c0.2-0.1,0.3-0.1,0.4-0.3
	c0.1-0.1,0.2-0.2,0.3-0.4c0.1-0.1,0.2-0.2,0.2-0.4h0.9c-0.1,0.3-0.2,0.5-0.3,0.8s-0.3,0.4-0.5,0.6c-0.2,0.2-0.4,0.3-0.7,0.4
	c-0.3,0.1-0.5,0.2-0.8,0.2c-0.3,0-0.7-0.1-1-0.2c-0.3-0.1-0.6-0.3-0.8-0.6c-0.2-0.3-0.4-0.6-0.5-0.9c-0.3-0.7-0.3-1.5,0-2.2
	c0.1-0.3,0.3-0.6,0.5-0.9c0.2-0.2,0.5-0.4,0.8-0.6c0.3-0.2,0.7-0.2,1-0.2c0.3,0,0.6,0.1,0.8,0.2c0.3,0.1,0.5,0.2,0.7,0.4
	c0.2,0.2,0.4,0.4,0.5,0.6c0.1,0.3,0.2,0.5,0.3,0.8h-0.9c0-0.2-0.1-0.3-0.2-0.4c-0.1-0.1-0.2-0.3-0.3-0.4s-0.3-0.2-0.4-0.3
	C81.7,154.6,81.6,154.6,81.4,154.6z"/>
<path class="st4" d="M89.6,156.5c0,0.4-0.1,0.7-0.2,1.1c-0.1,0.3-0.3,0.6-0.5,0.9c-0.2,0.3-0.5,0.5-0.8,0.6c-0.3,0.2-0.7,0.2-1,0.2
	c-0.3,0-0.7-0.1-1-0.2c-0.3-0.1-0.6-0.3-0.8-0.6c-0.2-0.3-0.4-0.6-0.5-0.9c-0.3-0.7-0.3-1.5,0-2.2c0.1-0.3,0.3-0.6,0.5-0.9
	c0.2-0.2,0.5-0.4,0.8-0.6c0.3-0.2,0.7-0.2,1-0.2c0.3,0,0.7,0.1,1,0.2c0.3,0.1,0.6,0.3,0.8,0.6c0.2,0.3,0.4,0.6,0.5,0.9
	C89.5,155.8,89.6,156.1,89.6,156.5z M85.5,156.5c0,0.3,0,0.5,0.1,0.8c0.1,0.2,0.2,0.4,0.4,0.6c0.1,0.2,0.3,0.3,0.5,0.4
	c0.4,0.1,0.8,0.1,1.2,0c0.2-0.1,0.4-0.2,0.5-0.4c0.1-0.2,0.3-0.4,0.4-0.6c0.1-0.5,0.1-1.1,0-1.6c-0.1-0.2-0.2-0.4-0.4-0.6
	c-0.1-0.2-0.3-0.3-0.5-0.4c-0.4-0.1-0.8-0.1-1.2,0c-0.2,0.1-0.4,0.2-0.5,0.4c-0.1,0.2-0.3,0.4-0.4,0.6
	C85.5,156,85.5,156.2,85.5,156.5z"/>
<path class="st4" d="M94.2,156.4c0.3,0.2,0.5,0.4,0.7,0.7c0.1,0.2,0.1,0.4,0.1,0.6c0,0.4-0.1,0.8-0.4,1.1c-0.3,0.3-0.7,0.4-1.1,0.4
	h-2.6v-5.4h2.4c0.2,0,0.4,0,0.6,0.1c0.4,0.1,0.7,0.4,0.8,0.8c0.1,0.2,0.1,0.4,0.1,0.6c0,0.2,0,0.4-0.1,0.5c-0.1,0.1-0.1,0.2-0.2,0.3
	S94.3,156.3,94.2,156.4z M91.8,154.7v1.4h1.4c0.2,0,0.4-0.1,0.6-0.2c0.2-0.1,0.2-0.3,0.2-0.5c0-0.2-0.1-0.4-0.2-0.5
	c-0.2-0.1-0.4-0.2-0.6-0.2H91.8z M93.4,158.4c0.4,0,0.7-0.3,0.7-0.7c0,0,0,0,0,0c0-0.1,0-0.2-0.1-0.3c-0.1-0.1-0.1-0.2-0.2-0.2
	s-0.2-0.1-0.3-0.2c-0.1-0.1-0.2-0.1-0.3-0.1h-1.6v1.5H93.4z"/>
<path class="st4" d="M98.5,153.8c0.3,0,0.6,0.1,0.8,0.2c0.2,0.1,0.5,0.2,0.6,0.4c0.2,0.2,0.3,0.4,0.4,0.6c0.1,0.2,0.2,0.5,0.1,0.7
	v3.6h-0.7l-0.2-0.6c-0.1,0.1-0.3,0.2-0.4,0.3c-0.1,0.1-0.3,0.2-0.5,0.2c-0.2,0-0.4,0.1-0.7,0.1c-0.2,0-0.5,0-0.7-0.1
	c-0.2-0.1-0.4-0.2-0.6-0.4c-0.2-0.1-0.3-0.3-0.4-0.5c-0.1-0.2-0.1-0.4-0.1-0.6c0-0.2,0.1-0.5,0.2-0.7c0.1-0.2,0.3-0.4,0.5-0.6
	c0.3-0.2,0.6-0.3,1-0.4c0.6-0.1,1.1-0.1,1.7-0.1v-0.3c0-0.3-0.1-0.5-0.3-0.7c-0.2-0.2-0.5-0.3-0.8-0.3c-0.2,0-0.5,0.1-0.7,0.2
	c-0.2,0.1-0.3,0.4-0.3,0.6h-1c0-0.2,0.1-0.4,0.2-0.6c0.1-0.2,0.2-0.4,0.4-0.5c0.2-0.1,0.4-0.3,0.6-0.3
	C97.9,153.8,98.2,153.8,98.5,153.8z M98,158.4c0.2,0,0.5,0,0.7-0.1c0.2-0.1,0.3-0.2,0.5-0.3c0.1-0.1,0.2-0.3,0.3-0.4
	c0.1-0.1,0.1-0.3,0.1-0.5v-0.4c-0.4,0-0.9,0-1.3,0.1c-0.3,0.1-0.6,0.1-0.8,0.2c-0.2,0.1-0.3,0.2-0.4,0.3c-0.1,0.1-0.1,0.3-0.1,0.4
	c0,0.2,0.1,0.3,0.2,0.5C97.4,158.4,97.7,158.4,98,158.4L98,158.4z"/>
<path class="st4" d="M106.7,153.8v5.4h-0.9v-2.3H103v2.3h-0.9v-5.4h0.9v2.2h2.8v-2.2H106.7z"/>
<path class="st4" d="M112.9,153.8v5.4H112v-4l-2.8,4h-0.9v-5.4h0.9v4l2.8-4H112.9z"/>
<path class="st4" d="M119.1,153.8v5.4h-0.9v-4l-2.8,4h-0.8v-5.4h0.9v4l2.8-4H119.1z"/>
<path class="st4" d="M121,159.3c-0.2,0-0.3-0.1-0.4-0.2c-0.2-0.2-0.2-0.6,0.1-0.8s0.6-0.2,0.8,0.1c0.1,0.1,0.1,0.2,0.1,0.3
	c0,0.3,0,0.5-0.1,0.8c-0.1,0.2-0.2,0.4-0.3,0.5c-0.1,0.2-0.3,0.3-0.5,0.4l-0.1-0.2c0.1-0.1,0.2-0.2,0.2-0.3s0.1-0.2,0.2-0.3
	S121,159.4,121,159.3z"/>
<path class="st4" d="M129.8,153.8v5.4h-0.9v-2c-0.1,0.1-0.3,0.1-0.4,0.2c-0.2,0-0.3,0.1-0.5,0.1c-0.2,0-0.4,0.1-0.7,0.1
	c-0.3,0-0.5,0-0.8-0.1c-0.2-0.1-0.4-0.2-0.6-0.4c-0.2-0.2-0.3-0.4-0.4-0.6c-0.1-0.3-0.1-0.5-0.1-0.8v-1.8h0.9v1.8
	c0,0.3,0.1,0.6,0.3,0.8c0.2,0.2,0.6,0.3,0.9,0.3c0.2,0,0.4,0,0.5-0.1c0.1-0.1,0.3-0.1,0.4-0.1c0.1-0.1,0.3-0.1,0.4-0.2v-2.5
	L129.8,153.8L129.8,153.8z"/>
<path class="st4" d="M130.9,153.8h4.3v0.8h-1.7v4.6h-0.9v-4.6h-1.7V153.8z"/>
<path class="st4" d="M140.9,156.5c0,0.4-0.1,0.7-0.2,1.1c-0.1,0.3-0.3,0.6-0.5,0.9c-0.2,0.3-0.5,0.5-0.8,0.6c-0.3,0.2-0.7,0.2-1,0.2
	c-0.3,0-0.7-0.1-1-0.2c-0.3-0.1-0.6-0.3-0.8-0.6c-0.2-0.3-0.4-0.6-0.5-0.9c-0.3-0.7-0.3-1.5,0-2.2c0.1-0.3,0.3-0.6,0.5-0.9
	c0.2-0.2,0.5-0.4,0.8-0.6c0.3-0.2,0.7-0.2,1-0.2c0.3,0,0.7,0.1,1,0.2c0.3,0.1,0.6,0.3,0.8,0.6c0.2,0.3,0.4,0.6,0.5,0.9
	C140.8,155.8,140.9,156.1,140.9,156.5z M136.7,156.5c0,0.3,0,0.5,0.1,0.8c0.1,0.2,0.2,0.4,0.4,0.6c0.1,0.2,0.3,0.3,0.5,0.4
	c0.4,0.1,0.8,0.1,1.2,0c0.2-0.1,0.4-0.2,0.5-0.4c0.1-0.2,0.3-0.4,0.4-0.6c0.1-0.5,0.1-1.1,0-1.6c-0.1-0.2-0.2-0.4-0.4-0.6
	c-0.1-0.2-0.3-0.3-0.5-0.4c-0.4-0.1-0.8-0.1-1.2,0c-0.2,0.1-0.4,0.2-0.5,0.4c-0.1,0.2-0.3,0.4-0.4,0.6S136.7,156.2,136.7,156.5z"/>
<path class="st4" d="M142.8,154.9c0.1-0.2,0.3-0.3,0.4-0.4c0.2-0.1,0.4-0.2,0.6-0.3c0.3-0.1,0.5-0.1,0.8-0.1c0.3,0,0.6,0.1,0.9,0.2
	c0.3,0.1,0.6,0.3,0.8,0.6c0.2,0.2,0.4,0.5,0.5,0.8c0.1,0.3,0.2,0.7,0.2,1c0,0.3-0.1,0.7-0.2,1c-0.1,0.3-0.3,0.6-0.5,0.8
	c-0.2,0.2-0.5,0.4-0.8,0.6c-0.3,0.2-0.7,0.2-1,0.2c-0.3,0-0.7-0.1-1-0.2c-0.3-0.1-0.6-0.3-0.8-0.6c-0.2-0.3-0.4-0.6-0.6-1
	c-0.2-0.4-0.2-0.9-0.2-1.4c0-0.7,0.1-1.3,0.2-2c0.1-0.5,0.3-1,0.7-1.3c0.4-0.4,0.9-0.6,1.4-0.8c0.7-0.2,1.4-0.3,2.1-0.3v0.8
	c-0.5,0-1.1,0.1-1.6,0.2c-0.4,0.1-0.8,0.3-1.1,0.5c-0.3,0.2-0.5,0.5-0.6,0.8C142.9,154.3,142.8,154.6,142.8,154.9z M144.5,158.4
	c0.2,0,0.4,0,0.6-0.1c0.2-0.1,0.4-0.2,0.5-0.4c0.1-0.2,0.3-0.3,0.3-0.6s0.1-0.5,0.1-0.7c0-0.2,0-0.5-0.1-0.7l-0.3-0.6
	c-0.1-0.2-0.3-0.3-0.5-0.4c-0.4-0.1-0.8-0.1-1.2,0c-0.2,0.1-0.4,0.2-0.5,0.4c-0.1,0.2-0.3,0.3-0.4,0.6c-0.1,0.2-0.1,0.5-0.1,0.7
	c0,0.2,0,0.5,0.1,0.7c0.1,0.2,0.2,0.4,0.4,0.6c0.1,0.2,0.3,0.3,0.5,0.4C144.1,158.4,144.3,158.4,144.5,158.4z"/>
<path class="st4" d="M150.4,155.7c0.5,0,1,0.2,1.4,0.5c0.4,0.3,0.6,0.8,0.5,1.3c0,0.5-0.2,0.9-0.5,1.3c-0.4,0.4-0.9,0.6-1.4,0.5
	h-2.1v-5.4h0.9v1.9h1.2L150.4,155.7z M150.4,158.4c0.3,0,0.5-0.1,0.7-0.3c0.3-0.2,0.4-0.7,0.1-1.1c0-0.1-0.1-0.1-0.1-0.1
	c-0.2-0.2-0.4-0.3-0.7-0.3h-1.2v1.8H150.4z M154,153.8v5.4h-0.9v-5.4L154,153.8z"/>
<path class="st4" d="M163,156.5c0,0.4-0.1,0.7-0.2,1.1c-0.1,0.3-0.3,0.6-0.5,0.9c-0.2,0.3-0.5,0.5-0.8,0.6c-0.3,0.2-0.7,0.2-1,0.2
	c-0.3,0-0.7-0.1-1-0.2c-0.3-0.1-0.6-0.3-0.8-0.6c-0.2-0.3-0.4-0.6-0.5-0.9c-0.3-0.7-0.3-1.5,0-2.2c0.1-0.3,0.3-0.6,0.5-0.9
	c0.2-0.2,0.5-0.4,0.8-0.6c0.3-0.2,0.7-0.2,1-0.2c0.3,0,0.7,0.1,1,0.2c0.3,0.1,0.6,0.3,0.8,0.6c0.2,0.3,0.4,0.6,0.5,0.9
	C163,155.7,163,156.1,163,156.5z M158.9,156.5c0,0.3,0,0.5,0.1,0.8c0.1,0.2,0.2,0.4,0.4,0.6c0.1,0.2,0.3,0.3,0.5,0.4
	c0.4,0.1,0.8,0.1,1.2,0c0.2-0.1,0.4-0.2,0.5-0.4c0.1-0.2,0.3-0.4,0.4-0.6c0.1-0.5,0.1-1.1,0-1.6c-0.1-0.2-0.2-0.4-0.4-0.6
	c-0.1-0.2-0.3-0.3-0.5-0.4c-0.4-0.1-0.8-0.1-1.2,0c-0.2,0.1-0.4,0.2-0.5,0.4c-0.1,0.2-0.3,0.4-0.4,0.6
	C158.9,156,158.9,156.2,158.9,156.5L158.9,156.5z"/>
<path class="st4" d="M164.9,154.9c0.1-0.2,0.3-0.3,0.4-0.4c0.2-0.1,0.4-0.2,0.6-0.3c0.3-0.1,0.5-0.1,0.8-0.1c0.3,0,0.6,0.1,0.9,0.2
	c0.3,0.1,0.6,0.3,0.8,0.6c0.2,0.2,0.4,0.5,0.5,0.8c0.1,0.3,0.2,0.7,0.2,1c0,0.3-0.1,0.7-0.2,1c-0.1,0.3-0.3,0.6-0.5,0.8
	c-0.2,0.2-0.5,0.4-0.8,0.6c-0.3,0.2-0.7,0.2-1,0.2c-0.3,0-0.7-0.1-1-0.2c-0.3-0.1-0.6-0.3-0.8-0.6c-0.2-0.3-0.4-0.6-0.6-1
	c-0.2-0.4-0.2-0.9-0.2-1.4c0-0.7,0.1-1.3,0.2-2c0.1-0.5,0.3-1,0.7-1.3c0.4-0.4,0.9-0.6,1.4-0.8c0.7-0.2,1.4-0.3,2.1-0.3v0.8
	c-0.5,0-1.1,0.1-1.6,0.2c-0.4,0.1-0.8,0.3-1.1,0.5c-0.3,0.2-0.5,0.5-0.6,0.8C165,154.3,165,154.5,164.9,154.9z M166.7,158.4
	c0.2,0,0.4,0,0.6-0.1c0.2-0.1,0.4-0.2,0.5-0.4c0.1-0.2,0.3-0.3,0.3-0.6s0.1-0.5,0.1-0.7c0-0.2,0-0.5-0.1-0.7l-0.3-0.6
	c-0.1-0.2-0.3-0.3-0.5-0.4c-0.4-0.1-0.8-0.1-1.2,0c-0.2,0.1-0.4,0.2-0.5,0.4c-0.1,0.2-0.3,0.3-0.4,0.6c-0.1,0.2-0.1,0.5-0.1,0.7
	c0,0.2,0,0.5,0.1,0.7c0.1,0.2,0.2,0.4,0.4,0.6c0.1,0.2,0.3,0.3,0.5,0.4C166.3,158.4,166.5,158.4,166.7,158.4z"/>
<path class="st4" d="M173,159.2l-1.6-3.4v3.4h-0.9v-5.4h0.8l2,4.2l2-4.2h0.8v5.4h-0.9v-3.4l-1.6,3.4H173z"/>
<path class="st4" d="M182.1,157.8l-0.3,0.6c-0.1,0.2-0.3,0.3-0.5,0.5s-0.4,0.2-0.6,0.3c-0.3,0.1-0.5,0.1-0.8,0.1
	c-0.3,0-0.7-0.1-1-0.2c-0.3-0.1-0.6-0.3-0.8-0.6c-0.2-0.3-0.4-0.6-0.5-0.9c-0.3-0.7-0.3-1.5,0-2.2c0.1-0.3,0.3-0.6,0.5-0.9
	c0.2-0.2,0.5-0.4,0.8-0.6c0.3-0.2,0.6-0.2,0.9-0.2c0.3,0,0.6,0.1,0.9,0.2c0.3,0.1,0.6,0.3,0.8,0.5c0.3,0.2,0.5,0.5,0.5,0.9
	c0.1,0.4,0.2,0.7,0.2,1.1v0.4h-3.8c0,0.2,0.1,0.4,0.2,0.6c0.1,0.2,0.2,0.4,0.4,0.5c0.1,0.1,0.3,0.2,0.5,0.3c0.2,0.1,0.4,0.1,0.6,0.1
	c0.2,0,0.3,0,0.5-0.1c0.2-0.1,0.3-0.1,0.4-0.2s0.2-0.1,0.3-0.2l0.2-0.2h0.6L182.1,157.8z M179.9,154.6c-0.2,0-0.4,0-0.5,0.1
	c-0.2,0.1-0.3,0.2-0.4,0.3c-0.2,0.1-0.3,0.3-0.3,0.5c0,0.2-0.2,0.4-0.2,0.6h2.9C181.4,155.3,180.7,154.6,179.9,154.6L179.9,154.6z"
	/>
<path class="st4" d="M188.1,153.8v5.4h-0.9v-2.3h-2.8v2.3h-0.8v-5.4h0.9v2.2h2.8v-2.2H188.1z"/>
<path class="st4" d="M191.6,157.3l-1.2,1.9h-1l1.3-2c-0.4-0.2-0.7-0.4-0.9-0.8c-0.1-0.2-0.2-0.5-0.2-0.8c0-0.5,0.2-0.9,0.5-1.3
	c0.4-0.4,0.9-0.6,1.4-0.5h2.3v5.4h-0.9v-1.9H191.6z M191.5,154.7c-0.3,0-0.5,0.1-0.7,0.3c-0.3,0.2-0.4,0.7-0.1,1.1
	c0,0.1,0.1,0.1,0.1,0.1c0.2,0.2,0.4,0.3,0.7,0.3h1.4v-1.8H191.5z"/>
<path class="st4" d="M194.8,153.8h4.3v0.8h-1.7v4.6h-0.9v-4.6h-1.7L194.8,153.8L194.8,153.8z"/>
<path class="st4" d="M202.4,155.7c0.5,0,1,0.2,1.4,0.5c0.4,0.3,0.6,0.8,0.5,1.3c0,0.5-0.2,0.9-0.5,1.3c-0.4,0.4-0.9,0.6-1.4,0.5
	h-2.2v-5.4h0.9v1.9h1.3V155.7z M202.4,158.4c0.2,0,0.5-0.1,0.7-0.2c0.2-0.2,0.3-0.4,0.3-0.7c0-0.2-0.1-0.4-0.3-0.6
	c-0.2-0.2-0.4-0.3-0.7-0.3h-1.3v1.8H202.4z"/>
<path class="st4" d="M212.6,153.8v5.4h-0.9v-4l-2.8,4H208v-5.4h0.9v4l2.8-4H212.6z"/>
<path class="st4" d="M216.5,156.5l1.9,2.8h-1l-1.4-2.1l-1.4,2.1h-1l1.9-2.8l-1.8-2.6h1l1.3,2l1.3-2h1L216.5,156.5z"/>
<path class="st4" d="M226.6,153.8v5.4h-0.9v-2.3h-2.8v2.3H222v-5.4h0.9v2.2h2.8v-2.2H226.6z"/>
<path class="st4" d="M230.3,153.8c0.3,0,0.6,0.1,0.8,0.2c0.2,0.1,0.5,0.2,0.6,0.4c0.2,0.2,0.3,0.4,0.4,0.6c0.1,0.2,0.2,0.5,0.1,0.7
	v3.6h-0.7l-0.2-0.6c-0.1,0.1-0.3,0.2-0.4,0.3c-0.1,0.1-0.3,0.2-0.5,0.2c-0.2,0-0.4,0.1-0.7,0.1c-0.2,0-0.5,0-0.7-0.1
	c-0.2-0.1-0.4-0.2-0.6-0.4c-0.2-0.1-0.3-0.3-0.4-0.5c-0.1-0.2-0.1-0.4-0.1-0.6c0-0.2,0.1-0.5,0.2-0.7c0.1-0.2,0.3-0.4,0.5-0.6
	c0.3-0.2,0.6-0.3,1-0.4c0.6-0.1,1.1-0.1,1.7-0.1v-0.3c0-0.3-0.1-0.5-0.3-0.7c-0.2-0.2-0.5-0.3-0.8-0.3c-0.2,0-0.5,0.1-0.7,0.2
	c-0.2,0.1-0.3,0.4-0.3,0.6h-1c0-0.2,0.1-0.4,0.2-0.6c0.1-0.2,0.2-0.4,0.4-0.5c0.2-0.1,0.4-0.3,0.6-0.3
	C229.7,153.8,230,153.8,230.3,153.8z M229.8,158.4c0.2,0,0.5,0,0.7-0.1c0.2-0.1,0.3-0.2,0.5-0.3c0.1-0.1,0.2-0.3,0.3-0.4
	c0.1-0.1,0.1-0.3,0.1-0.5v-0.4c-0.4,0-0.9,0-1.3,0.1c-0.3,0.1-0.6,0.1-0.8,0.2c-0.2,0.1-0.3,0.2-0.4,0.3c-0.1,0.1-0.1,0.3-0.1,0.4
	c0,0.2,0.1,0.3,0.2,0.5C229.2,158.4,229.5,158.4,229.8,158.4L229.8,158.4z"/>
<path class="st4" d="M237.2,154.9c0.1-0.2,0.3-0.3,0.4-0.4c0.2-0.1,0.4-0.2,0.6-0.3c0.3-0.1,0.5-0.1,0.8-0.1c0.3,0,0.6,0.1,0.9,0.2
	c0.3,0.1,0.6,0.3,0.8,0.6c0.2,0.2,0.4,0.5,0.5,0.8c0.1,0.3,0.2,0.7,0.2,1c0,0.3-0.1,0.7-0.2,1c-0.1,0.3-0.3,0.6-0.5,0.8
	c-0.2,0.2-0.5,0.4-0.8,0.6c-0.3,0.2-0.7,0.2-1,0.2c-0.3,0-0.7-0.1-1-0.2c-0.3-0.1-0.6-0.3-0.8-0.6c-0.2-0.3-0.4-0.6-0.6-1
	c-0.2-0.4-0.2-0.9-0.2-1.4c0-0.7,0.1-1.3,0.2-2c0.1-0.5,0.3-1,0.7-1.3c0.4-0.4,0.9-0.6,1.4-0.8c0.7-0.2,1.4-0.3,2.1-0.3v0.8
	c-0.5,0-1.1,0.1-1.6,0.2c-0.4,0.1-0.8,0.3-1.1,0.5c-0.3,0.2-0.5,0.5-0.6,0.8C237.3,154.3,237.3,154.5,237.2,154.9z M239,158.4
	c0.2,0,0.4,0,0.6-0.1c0.2-0.1,0.4-0.2,0.5-0.4c0.1-0.2,0.3-0.3,0.3-0.6s0.1-0.5,0.1-0.7c0-0.2,0-0.5-0.1-0.7l-0.3-0.6
	c-0.1-0.2-0.3-0.3-0.5-0.4c-0.4-0.1-0.8-0.1-1.2,0c-0.2,0.1-0.4,0.2-0.5,0.4c-0.1,0.2-0.3,0.3-0.4,0.6c-0.1,0.2-0.1,0.5-0.1,0.7
	c0,0.2,0,0.5,0.1,0.7c0.1,0.2,0.2,0.4,0.4,0.6c0.1,0.2,0.3,0.3,0.5,0.4C238.6,158.4,238.8,158.4,239,158.4L239,158.4z"/>
<path class="st4" d="M247.3,153.8v5.4h-0.9v-4l-2.8,4h-0.9v-5.4h0.9v4l2.8-4H247.3z"/>
<path class="st4" d="M253.2,153.8v5.4h-0.9v-4.6h-2l-0.2,2.9c0,0.5-0.2,1-0.5,1.3c-0.3,0.3-0.7,0.5-1.1,0.5h-0.3v-0.8h0.1
	c0.6,0,0.9-0.3,1-1l0.3-3.7L253.2,153.8z"/>
<path class="st4" d="M259.2,157.8l-0.3,0.6c-0.1,0.2-0.3,0.3-0.5,0.5s-0.4,0.2-0.6,0.3c-0.3,0.1-0.5,0.1-0.8,0.1
	c-0.3,0-0.7-0.1-1-0.2c-0.3-0.1-0.6-0.3-0.8-0.6c-0.2-0.3-0.4-0.6-0.5-0.9c-0.3-0.7-0.3-1.5,0-2.2c0.1-0.3,0.3-0.6,0.5-0.9
	c0.2-0.2,0.5-0.4,0.8-0.6c0.3-0.2,0.6-0.2,0.9-0.2c0.3,0,0.6,0.1,0.9,0.2c0.3,0.1,0.6,0.3,0.8,0.5c0.3,0.2,0.5,0.5,0.5,0.9
	c0.1,0.4,0.2,0.7,0.2,1.1v0.4h-3.8c0,0.2,0.1,0.4,0.2,0.6c0.1,0.2,0.2,0.4,0.4,0.5c0.1,0.1,0.3,0.2,0.5,0.3c0.2,0.1,0.4,0.1,0.6,0.1
	c0.2,0,0.3,0,0.5-0.1c0.2-0.1,0.3-0.1,0.4-0.2s0.2-0.1,0.3-0.2l0.2-0.2h0.6V157.8z M256.9,154.6c-0.2,0-0.4,0-0.5,0.1
	c-0.2,0.1-0.3,0.2-0.4,0.3c-0.2,0.1-0.3,0.3-0.3,0.5c0,0.2-0.2,0.4-0.2,0.6h2.9c0-0.4-0.2-0.8-0.5-1.1
	C257.6,154.7,257.3,154.6,256.9,154.6L256.9,154.6z"/>
<path class="st4" d="M260,153.8h4.3v0.8h-1.7v4.6h-0.9v-4.6H260V153.8z"/>
<path class="st4" d="M267.5,155.7c0.5,0,1,0.2,1.4,0.5c0.4,0.3,0.6,0.8,0.5,1.3c0,0.5-0.2,0.9-0.5,1.3c-0.4,0.4-0.9,0.6-1.4,0.5
	h-2.1v-5.4h0.9v1.9h1.2V155.7z M267.5,158.4c0.3,0,0.5-0.1,0.7-0.3c0.3-0.2,0.4-0.7,0.1-1.1c0-0.1-0.1-0.1-0.1-0.1
	c-0.2-0.2-0.4-0.3-0.7-0.3h-1.2v1.8H267.5z M271,153.8v5.4h-0.9v-5.4L271,153.8z"/>
<path class="st4" d="M273,159.3c-0.2,0-0.3-0.1-0.4-0.2c-0.2-0.2-0.2-0.6,0.1-0.8s0.6-0.2,0.8,0.1c0.1,0.1,0.1,0.2,0.1,0.3
	c0,0.3,0,0.5-0.1,0.8c-0.1,0.2-0.2,0.4-0.3,0.5c-0.1,0.2-0.3,0.3-0.5,0.4l-0.1-0.2c0.1-0.1,0.2-0.2,0.2-0.3s0.1-0.2,0.2-0.3
	S272.9,159.4,273,159.3z"/>
<path class="st4" d="M58.9,173.6H58v-5.4h0.9V173.6z M61.1,173.6l-2.3-2.8l2-2.6h1l-2,2.5l2.3,2.9L61.1,173.6z"/>
<path class="st4" d="M67.2,168.2v5.4h-0.9V169h-2l-0.2,2.9c0,0.5-0.2,1-0.5,1.3c-0.3,0.3-0.7,0.5-1.1,0.5h-0.3v-0.8h0.1
	c0.6,0,0.9-0.3,1-1l0.3-3.7H67.2z"/>
<path class="st4" d="M68.2,168.2h1l1.6,4.1l1.6-4.1h1l-2.3,5.9c-0.1,0.4-0.4,0.9-0.7,1.2c-0.2,0.2-0.6,0.3-0.9,0.3h-0.3v-0.7
	c0.4,0,0.8-0.3,0.9-0.7l0.2-0.6L68.2,168.2z"/>
<path class="st4" d="M75,169.3c0.1-0.2,0.3-0.3,0.4-0.4c0.2-0.1,0.4-0.2,0.6-0.3c0.3-0.1,0.5-0.1,0.8-0.1c0.3,0,0.6,0.1,0.9,0.2
	c0.3,0.1,0.6,0.3,0.8,0.6c0.2,0.2,0.4,0.5,0.5,0.8c0.1,0.3,0.2,0.7,0.2,1c0,0.3-0.1,0.7-0.2,1c-0.1,0.3-0.3,0.6-0.5,0.8
	c-0.2,0.2-0.5,0.4-0.8,0.6c-0.3,0.2-0.7,0.2-1,0.2c-0.3,0-0.7-0.1-1-0.2c-0.3-0.1-0.6-0.3-0.8-0.6c-0.2-0.3-0.4-0.6-0.6-1
	c-0.2-0.4-0.2-0.9-0.2-1.4c0-0.7,0.1-1.3,0.2-2c0.1-0.5,0.3-1,0.7-1.3c0.4-0.4,0.9-0.6,1.4-0.8c0.7-0.2,1.4-0.3,2.1-0.3v0.8
	c-0.5,0-1.1,0.1-1.6,0.2c-0.4,0.1-0.8,0.3-1.1,0.5c-0.3,0.2-0.5,0.5-0.6,0.8C75.1,168.7,75.1,168.9,75,169.3z M76.7,172.8
	c0.2,0,0.4,0,0.6-0.1c0.2-0.1,0.4-0.2,0.5-0.4c0.1-0.2,0.3-0.3,0.3-0.6s0.1-0.5,0.1-0.7c0-0.2,0-0.5-0.1-0.7l-0.3-0.6
	c-0.1-0.2-0.3-0.3-0.5-0.4c-0.4-0.1-0.8-0.1-1.2,0c-0.2,0.1-0.4,0.2-0.5,0.4c-0.1,0.2-0.3,0.3-0.4,0.6c-0.1,0.2-0.1,0.5-0.1,0.7
	c0,0.2,0,0.5,0.1,0.7c0.1,0.2,0.2,0.4,0.4,0.6c0.1,0.2,0.3,0.3,0.5,0.4C76.3,172.8,76.5,172.8,76.7,172.8z"/>
<path class="st4" d="M85.1,168.2v5.4h-0.9v-2.3h-2.8v2.3h-0.9v-5.4h0.9v2.2h2.8v-2.2H85.1z"/>
<path class="st4" d="M86.1,168.2h1l1.6,4.1l1.6-4.1h1l-2.3,5.9c-0.1,0.4-0.4,0.9-0.7,1.2c-0.2,0.2-0.6,0.3-0.9,0.3h-0.3v-0.7
	c0.4,0,0.8-0.3,0.9-0.7l0.2-0.6L86.1,168.2z"/>
<path class="st4" d="M92.2,168.2h0.9v2.3h1c0-0.4,0.1-0.7,0.3-1c0.2-0.3,0.3-0.5,0.5-0.8c0.2-0.2,0.4-0.4,0.7-0.5
	c0.3-0.1,0.6-0.2,0.9-0.2c0.3,0,0.6,0.1,0.9,0.2c0.3,0.1,0.6,0.3,0.8,0.6c0.3,0.2,0.4,0.6,0.5,0.9c0.1,0.4,0.2,0.7,0.2,1.1
	c0,0.4-0.1,0.7-0.2,1.1c-0.1,0.3-0.3,0.6-0.5,0.9c-0.2,0.3-0.5,0.5-0.8,0.6c-0.3,0.2-0.6,0.2-0.9,0.2c-0.3,0-0.6-0.1-0.9-0.2
	c-0.3-0.1-0.5-0.3-0.7-0.5c-0.2-0.2-0.4-0.4-0.5-0.7c-0.1-0.3-0.2-0.6-0.3-0.9h-1v2.3h-0.9V168.2z M95,170.9c0,0.3,0,0.5,0.1,0.8
	l0.3,0.6c0.1,0.2,0.3,0.3,0.5,0.4c0.2,0.1,0.3,0.1,0.5,0.1c0.2,0,0.4,0,0.5-0.1c0.1-0.1,0.3-0.2,0.5-0.4c0.2-0.2,0.3-0.4,0.3-0.6
	c0-0.2,0.1-0.5,0.1-0.8c0-0.3,0-0.5-0.1-0.8l-0.3-0.6c-0.1-0.2-0.3-0.3-0.5-0.4c-0.2-0.1-0.3-0.1-0.5-0.1c-0.2,0-0.4,0-0.5,0.1
	c-0.1,0.1-0.3,0.2-0.5,0.4c-0.2,0.2-0.3,0.4-0.3,0.6C95.1,170.3,95,170.6,95,170.9z"/>
<path class="st4" d="M104.9,168.2c0.3,0,0.6,0.1,0.8,0.2c0.2,0.1,0.5,0.2,0.6,0.4c0.2,0.2,0.3,0.4,0.4,0.6c0.1,0.2,0.2,0.5,0.1,0.7
	v3.6h-0.7l-0.2-0.6c-0.1,0.1-0.3,0.2-0.4,0.3c-0.1,0.1-0.3,0.2-0.5,0.2c-0.2,0-0.4,0.1-0.7,0.1c-0.2,0-0.5,0-0.7-0.1
	c-0.2-0.1-0.4-0.2-0.6-0.4c-0.2-0.1-0.3-0.3-0.4-0.5c-0.1-0.2-0.1-0.4-0.1-0.6c0-0.2,0.1-0.5,0.2-0.7c0.1-0.2,0.3-0.4,0.5-0.6
	c0.3-0.2,0.6-0.3,1-0.4c0.6-0.1,1.1-0.1,1.7-0.1V170c0-0.3-0.1-0.5-0.3-0.7c-0.2-0.2-0.5-0.3-0.8-0.3c-0.2,0-0.5,0.1-0.7,0.2
	c-0.2,0.1-0.3,0.4-0.3,0.6h-1c0-0.2,0.1-0.4,0.2-0.6c0.1-0.2,0.2-0.4,0.4-0.5c0.2-0.1,0.4-0.3,0.6-0.3
	C104.3,168.2,104.6,168.2,104.9,168.2z M104.5,172.8c0.2,0,0.5,0,0.7-0.1c0.2-0.1,0.3-0.2,0.5-0.3c0.1-0.1,0.2-0.3,0.3-0.4
	c0.1-0.1,0.1-0.3,0.1-0.5v-0.3c-0.4,0-0.9,0-1.3,0.1c-0.3,0.1-0.6,0.1-0.8,0.2c-0.2,0.1-0.3,0.2-0.4,0.3c-0.1,0.1-0.1,0.3-0.1,0.4
	c0,0.2,0.1,0.3,0.2,0.5C104,172.8,104.2,172.8,104.5,172.8z"/>
<path class="st4" d="M108,168.2h4.3v0.8h-1.7v4.6h-0.9V169H108V168.2z"/>
<path class="st4" d="M114.2,168.8c0.1-0.1,0.2-0.2,0.4-0.3c0.1-0.1,0.3-0.2,0.5-0.2c0.2,0,0.4-0.1,0.7-0.1c0.3,0,0.7,0.1,1,0.2
	c0.3,0.1,0.6,0.3,0.8,0.6c0.2,0.3,0.4,0.6,0.5,0.9c0.3,0.7,0.3,1.5,0,2.2c-0.1,0.3-0.3,0.6-0.5,0.9c-0.2,0.3-0.5,0.5-0.8,0.6
	c-0.3,0.2-0.7,0.2-1,0.2c-0.2,0-0.5,0-0.7-0.1c-0.2-0.1-0.3-0.2-0.5-0.2c-0.2-0.1-0.3-0.2-0.4-0.4v2.6h-0.9v-7.5h0.7L114.2,168.8z
	 M114.1,170.9c0,0.3,0,0.5,0.1,0.8c0.1,0.2,0.2,0.4,0.4,0.6c0.1,0.2,0.3,0.3,0.5,0.4c0.4,0.1,0.8,0.1,1.2,0c0.2-0.1,0.4-0.2,0.5-0.4
	c0.2-0.2,0.3-0.4,0.4-0.6c0.1-0.5,0.1-1.1,0-1.6c-0.1-0.2-0.2-0.4-0.4-0.6c-0.1-0.2-0.3-0.3-0.5-0.4c-0.4-0.1-0.8-0.1-1.2,0
	c-0.2,0.1-0.4,0.2-0.5,0.4c-0.1,0.2-0.3,0.4-0.4,0.6C114.1,170.4,114.1,170.6,114.1,170.9L114.1,170.9z"/>
<path class="st4" d="M124.2,168.2v5.4h-0.9v-4l-2.8,4h-0.9v-5.4h0.9v4l2.8-4H124.2z"/>
<path class="st4" d="M126.5,169.3c0.1-0.2,0.3-0.3,0.4-0.4c0.2-0.1,0.4-0.2,0.6-0.3c0.3-0.1,0.5-0.1,0.8-0.1c0.3,0,0.6,0.1,0.9,0.2
	c0.3,0.1,0.6,0.3,0.8,0.6c0.2,0.2,0.4,0.5,0.5,0.8c0.1,0.3,0.2,0.7,0.2,1c0,0.3-0.1,0.7-0.2,1c-0.1,0.3-0.3,0.6-0.5,0.8
	c-0.2,0.2-0.5,0.4-0.8,0.6c-0.3,0.2-0.7,0.2-1,0.2c-0.3,0-0.7-0.1-1-0.2c-0.3-0.1-0.6-0.3-0.8-0.6c-0.2-0.3-0.4-0.6-0.6-1
	c-0.2-0.4-0.2-0.9-0.2-1.4c0-0.7,0.1-1.3,0.2-2c0.1-0.5,0.3-1,0.7-1.3c0.4-0.4,0.9-0.6,1.4-0.8c0.7-0.2,1.4-0.3,2.1-0.3v0.8
	c-0.5,0-1.1,0.1-1.6,0.2c-0.4,0.1-0.8,0.3-1.1,0.5c-0.3,0.2-0.5,0.5-0.6,0.8C126.6,168.7,126.5,169,126.5,169.3z M128.2,172.8
	c0.2,0,0.4,0,0.6-0.1c0.2-0.1,0.4-0.2,0.5-0.4c0.1-0.2,0.3-0.3,0.3-0.6c0.1-0.2,0.1-0.5,0.1-0.7c0-0.2,0-0.5-0.1-0.7l-0.3-0.6
	c-0.1-0.2-0.3-0.3-0.5-0.4c-0.4-0.1-0.8-0.1-1.2,0c-0.2,0.1-0.4,0.2-0.5,0.4c-0.1,0.2-0.3,0.3-0.4,0.6c-0.1,0.2-0.1,0.5-0.1,0.7
	c0,0.2,0,0.5,0.1,0.7c0.1,0.2,0.2,0.4,0.4,0.6c0.1,0.2,0.3,0.3,0.5,0.4C127.8,172.8,128,172.8,128.2,172.8z"/>
<path class="st4" d="M131.3,168.2h1l1.6,4.1l1.6-4.1h1l-2.3,5.9c-0.1,0.4-0.4,0.9-0.7,1.2c-0.2,0.2-0.6,0.3-0.9,0.3h-0.3v-0.7
	c0.4,0,0.8-0.3,0.9-0.7l0.2-0.6L131.3,168.2z"/>
<path class="st4" d="M136.9,168.2h4.3v0.8h-1.7v4.6h-0.9V169h-1.7V168.2z"/>
<path class="st4" d="M146.8,168.2v5.4h-0.9v-4l-2.8,4h-0.9v-5.4h0.9v4l2.8-4H146.8z"/>
<path class="st4" d="M149.3,173.6h-0.9v-5.4h0.9V173.6z M151.6,173.6l-2.3-2.8l2-2.6h1l-2,2.5l2.3,2.9L151.6,173.6z"/>
<path class="st4" d="M152.9,168.2h1l1.6,4.1l1.6-4.1h1l-2.3,5.9c-0.1,0.4-0.4,0.9-0.7,1.2c-0.2,0.2-0.6,0.3-0.9,0.3h-0.3v-0.7
	c0.4,0,0.8-0.3,0.9-0.7l0.2-0.6L152.9,168.2z"/>
<path class="st4" d="M166.3,168.2v5.4h-0.9v-4l-2.8,4h-0.9v-5.4h0.9v4l2.8-4H166.3z"/>
<path class="st4" d="M170,168.2h1l1.6,4.1l1.6-4.1h1l-2.3,5.9c-0.1,0.4-0.4,0.9-0.7,1.2c-0.2,0.2-0.6,0.3-0.9,0.3H171v-0.7
	c0.4,0,0.8-0.3,0.9-0.7l0.2-0.6L170,168.2z"/>
<path class="st4" d="M180.7,168.2v5.4h-0.9v-2.3H177v2.3h-0.9v-5.4h0.9v2.2h2.8v-2.2H180.7z"/>
<path class="st4" d="M186.9,168.2v5.4H186v-4l-2.8,4h-0.9v-5.4h0.9v4l2.8-4H186.9z"/>
<path class="st4" d="M189.5,173.6h-0.9v-5.4h0.9V173.6z M191.8,173.6l-2.3-2.8l2-2.6h1l-2,2.5l2.3,2.9L191.8,173.6z"/>
<path class="st4" d="M195.7,168.2c0.3,0,0.6,0.1,0.8,0.2c0.2,0.1,0.5,0.2,0.6,0.4c0.2,0.2,0.3,0.4,0.4,0.6c0.1,0.2,0.2,0.5,0.1,0.7
	v3.6h-0.7l-0.2-0.6c-0.1,0.1-0.3,0.2-0.4,0.3c-0.1,0.1-0.3,0.2-0.5,0.2c-0.2,0-0.4,0.1-0.7,0.1c-0.2,0-0.5,0-0.7-0.1
	c-0.2-0.1-0.4-0.2-0.6-0.4c-0.2-0.1-0.3-0.3-0.4-0.5c-0.1-0.2-0.1-0.4-0.1-0.6c0-0.2,0.1-0.5,0.2-0.7c0.1-0.2,0.3-0.4,0.5-0.6
	c0.3-0.2,0.6-0.3,1-0.4c0.6-0.1,1.1-0.1,1.7-0.1V170c0-0.3-0.1-0.5-0.3-0.7c-0.2-0.2-0.5-0.3-0.8-0.3c-0.2,0-0.5,0.1-0.7,0.2
	c-0.2,0.1-0.3,0.4-0.3,0.6h-1c0-0.2,0.1-0.4,0.2-0.6c0.1-0.2,0.2-0.4,0.4-0.5c0.2-0.1,0.4-0.3,0.6-0.3
	C195.1,168.2,195.4,168.2,195.7,168.2z M195.2,172.8c0.2,0,0.5,0,0.7-0.1c0.2-0.1,0.3-0.2,0.5-0.3c0.1-0.1,0.2-0.3,0.3-0.4
	c0.1-0.1,0.1-0.3,0.1-0.5v-0.3c-0.4,0-0.9,0-1.3,0.1c-0.3,0.1-0.6,0.1-0.8,0.2c-0.2,0.1-0.3,0.2-0.4,0.3c-0.1,0.1-0.1,0.3-0.1,0.4
	c0,0.2,0.1,0.3,0.2,0.5C194.7,172.8,194.9,172.8,195.2,172.8z"/>
<path class="st4" d="M203.5,168.2v5.4h-0.9V169h-2l-0.2,2.9c0,0.5-0.2,1-0.5,1.3c-0.3,0.3-0.7,0.5-1.1,0.5h-0.3v-0.8h0.1
	c0.6,0,0.9-0.3,1-1l0.3-3.7L203.5,168.2z"/>
<path class="st4" d="M207.4,170.1c0.5,0,1,0.2,1.4,0.5c0.4,0.3,0.6,0.8,0.5,1.3c0,0.5-0.2,0.9-0.5,1.3c-0.4,0.4-0.9,0.6-1.4,0.5
	h-2.2v-5.5h0.9v1.9H207.4z M207.4,172.8c0.2,0,0.5-0.1,0.7-0.2c0.2-0.2,0.3-0.4,0.3-0.7c0-0.2-0.1-0.4-0.3-0.6
	c-0.2-0.2-0.4-0.3-0.7-0.3h-1.3v1.8H207.4z"/>
<path class="st4" d="M215,168.2v5.4h-0.9v-2.3h-2.8v2.3h-0.9v-5.4h0.9v2.2h2.8v-2.2H215z"/>
<path class="st4" d="M218.8,170.1c0.5,0,1,0.2,1.4,0.5c0.4,0.3,0.6,0.8,0.5,1.3c0,0.5-0.2,0.9-0.5,1.3c-0.4,0.4-0.9,0.6-1.4,0.5
	h-2.1v-5.5h0.9v1.9H218.8z M218.8,172.8c0.3,0,0.5-0.1,0.7-0.3c0.3-0.2,0.4-0.7,0.1-1.1c0-0.1-0.1-0.1-0.1-0.1
	c-0.2-0.2-0.4-0.3-0.7-0.3h-1.2v1.8H218.8z M222.4,168.2v5.4h-0.9v-5.4L222.4,168.2z"/>
<path class="st4" d="M228.5,172.2l-0.3,0.6c-0.1,0.2-0.3,0.3-0.5,0.5s-0.4,0.2-0.6,0.3c-0.3,0.1-0.5,0.1-0.8,0.1
	c-0.3,0-0.7-0.1-1-0.2c-0.3-0.1-0.6-0.3-0.8-0.6c-0.2-0.3-0.4-0.6-0.5-0.9c-0.3-0.7-0.3-1.5,0-2.2c0.1-0.3,0.3-0.6,0.5-0.9
	c0.2-0.2,0.5-0.4,0.8-0.6c0.3-0.2,0.6-0.2,0.9-0.2c0.3,0,0.6,0.1,0.9,0.2c0.3,0.1,0.6,0.3,0.8,0.5c0.3,0.2,0.5,0.5,0.5,0.9
	c0.1,0.4,0.2,0.7,0.2,1.1v0.4h-3.8c0,0.2,0.1,0.4,0.2,0.6c0.1,0.2,0.2,0.4,0.4,0.5c0.1,0.1,0.3,0.2,0.5,0.3c0.2,0.1,0.4,0.1,0.6,0.1
	c0.2,0,0.3,0,0.5-0.1c0.2-0.1,0.3-0.1,0.4-0.2s0.2-0.1,0.3-0.2l0.2-0.2h0.6L228.5,172.2z M226.2,169c-0.2,0-0.4,0-0.5,0.1
	c-0.2,0.1-0.3,0.2-0.4,0.3c-0.2,0.1-0.3,0.3-0.3,0.5c0,0.2-0.2,0.4-0.2,0.6h2.9C227.7,169.7,227,169,226.2,169L226.2,169z"/>
<path class="st4" d="M237.1,168.2v5.4h-0.9V169h-2.8v4.6h-0.8v-5.4H237.1z"/>
<path class="st4" d="M239.7,168.8c0.1-0.1,0.2-0.2,0.4-0.3c0.1-0.1,0.3-0.2,0.5-0.2c0.2,0,0.4-0.1,0.7-0.1c0.3,0,0.7,0.1,1,0.2
	c0.3,0.1,0.6,0.3,0.8,0.6c0.2,0.3,0.4,0.6,0.5,0.9c0.3,0.7,0.3,1.5,0,2.2c-0.1,0.3-0.3,0.6-0.5,0.9c-0.2,0.3-0.5,0.5-0.8,0.6
	c-0.3,0.2-0.7,0.2-1,0.2c-0.2,0-0.5,0-0.7-0.1c-0.2-0.1-0.3-0.2-0.5-0.2c-0.2-0.1-0.3-0.2-0.4-0.4v2.6h-0.9v-7.5h0.7L239.7,168.8z
	 M239.6,170.9c0,0.3,0,0.5,0.1,0.8c0.1,0.2,0.2,0.4,0.4,0.6c0.1,0.2,0.3,0.3,0.5,0.4c0.4,0.1,0.8,0.1,1.2,0c0.2-0.1,0.4-0.2,0.5-0.4
	c0.2-0.2,0.3-0.4,0.4-0.6c0.1-0.5,0.1-1.1,0-1.6c-0.1-0.2-0.2-0.4-0.4-0.6c-0.1-0.2-0.3-0.3-0.5-0.4c-0.4-0.1-0.8-0.1-1.2,0
	c-0.2,0.1-0.4,0.2-0.5,0.4c-0.1,0.2-0.3,0.4-0.4,0.6C239.6,170.4,239.6,170.6,239.6,170.9L239.6,170.9z"/>
<path class="st4" d="M249.7,168.2v5.4h-0.9v-4l-2.8,4h-0.9v-5.4h0.9v4l2.8-4H249.7z"/>
<path class="st4" d="M253.9,170.9c0.1,0.1,0.3,0.2,0.4,0.3c0.1,0.1,0.2,0.2,0.3,0.4c0.1,0.2,0.1,0.3,0.1,0.5c0,0.2,0,0.4-0.1,0.6
	c-0.1,0.2-0.2,0.4-0.4,0.5c-0.2,0.1-0.4,0.3-0.6,0.3s-0.5,0.1-0.8,0.1c-0.5,0-1-0.2-1.4-0.5c-0.3-0.3-0.5-0.7-0.6-1.2h0.9
	c0,0.2,0.1,0.4,0.3,0.6c0.2,0.2,0.4,0.2,0.8,0.2c0.2,0,0.5-0.1,0.7-0.2c0.3-0.2,0.4-0.5,0.2-0.8c-0.1-0.1-0.1-0.2-0.2-0.2
	c-0.2-0.1-0.5-0.2-0.7-0.2h-0.5v-0.8h0.5c0.2,0,0.4-0.1,0.6-0.2c0.2-0.1,0.2-0.3,0.2-0.5c0-0.2-0.1-0.4-0.2-0.5
	c-0.2-0.1-0.4-0.2-0.6-0.2c-0.2,0-0.5,0.1-0.7,0.2c-0.1,0.2-0.2,0.3-0.3,0.5h-0.9c0-0.5,0.2-0.9,0.5-1.2c0.4-0.3,0.9-0.5,1.4-0.5
	c0.2,0,0.5,0,0.7,0.1l0.6,0.3c0.2,0.1,0.3,0.3,0.4,0.5c0.1,0.2,0.1,0.4,0.1,0.6c0,0.2,0,0.4-0.1,0.5c-0.1,0.1-0.1,0.3-0.2,0.4
	S254,170.8,253.9,170.9z"/>
<path class="st4" d="M258.2,170.1c0.5,0,1,0.2,1.4,0.5c0.4,0.3,0.6,0.8,0.5,1.3c0,0.5-0.2,0.9-0.5,1.3c-0.4,0.4-0.9,0.6-1.4,0.5
	h-2.1v-5.5h0.9v1.9H258.2z M258.2,172.8c0.3,0,0.5-0.1,0.7-0.3c0.3-0.2,0.4-0.7,0.1-1.1c0-0.1-0.1-0.1-0.1-0.1
	c-0.2-0.2-0.4-0.3-0.7-0.3H257v1.8H258.2z M261.8,168.2v5.4h-0.9v-5.4L261.8,168.2z"/>
<path class="st4" d="M263.1,173.1c0-0.2,0.1-0.3,0.2-0.4c0.2-0.2,0.6-0.3,0.8,0c0.2,0.2,0.3,0.6,0,0.8c-0.2,0.2-0.6,0.3-0.8,0
	c0,0,0,0,0,0C263.2,173.4,263.1,173.3,263.1,173.1z"/>
<linearGradient id="SVGID_3_" gradientUnits="userSpaceOnUse" x1="188.8493" y1="598.0389" x2="103.3707" y2="474.761" gradientTransform="matrix(1 0 0 1 15.19 -213.8)">
	<stop  offset="0" style="stop-color:#C7EBFF"/>
	<stop  offset="1" style="stop-color:#87B9E7"/>
</linearGradient>
<circle class="st6" cx="161.3" cy="322.6" r="75"/>
<linearGradient id="SVGID_4_" gradientUnits="userSpaceOnUse" x1="106.31" y1="520.9" x2="186.81" y2="520.9" gradientTransform="matrix(1 0 0 1 15.19 -213.8)">
	<stop  offset="0" style="stop-color:#FABA40"/>
	<stop  offset="1" style="stop-color:#FA9923"/>
</linearGradient>
<circle class="st7" cx="161.7" cy="307.1" r="40.2"/>
<path class="st8" d="M194.3,275.3c18.1,18.6,17.7,48.4-1,66.5c-8.3,8.1-19.4,12.8-31,13.3c-13.9-0.5-26.8-7.1-35.3-18l5.7-5.2
	c13.2,15.3,36.3,17.1,51.6,3.9s17.1-36.3,3.9-51.6c-0.6-0.6-1.1-1.3-1.7-1.9L194.3,275.3z"/>
<polygon class="st9" points="180.1,303.7 170.4,313.2 172.7,326.6 160.6,320.3 148.6,326.6 150.5,315.6 166.3,301 166.7,301.7 "/>
<linearGradient id="SVGID_5_" gradientUnits="userSpaceOnUse" x1="117.62" y1="527.2761" x2="181.9986" y2="527.2761" gradientTransform="matrix(1 0 0 1 15.19 -213.8)">
	<stop  offset="0" style="stop-color:#FAA928"/>
	<stop  offset="1" style="stop-color:#FA9316"/>
</linearGradient>
<path class="st10" d="M186.7,282.3c14.2,14.4,14.1,37.6-0.3,51.8c-14.4,14.2-37.6,14.1-51.8-0.3c-0.6-0.6-1.2-1.2-1.7-1.9l17.7-16.3
	l-1.9,11l12.1-6.3l12,6.3l-2.3-13.4l9.8-9.5l-13.5-2l-0.3-0.7L186.7,282.3L186.7,282.3z"/>
<polygon class="st11" points="160.6,289.5 166.3,301 150.5,315.6 150.9,313.2 141.1,303.7 154.6,301.7 "/>
<path class="st12" d="M131.3,286.2c-1.2-2.4-3-4.4-5.1-6c-12.6,17-12.2,40.3,0.9,56.8l5.7-5.2C121.7,318.8,121,299.9,131.3,286.2
	L131.3,286.2z"/>
<path class="st12" d="M162.4,261.1h-1.7c-8.6,0-17,2.3-24.4,6.8c0.3,0.5,0.7,1,1.1,1.5c1.7,2.2,3.9,4,6.5,5.2l1,0.5
	c14.1-6.8,30.9-3.8,41.9,7.3l7.7-7C186.1,266.7,174.5,261.5,162.4,261.1z"/>
<circle class="st13" cx="162.1" cy="307.1" r="41"/>
<path class="st1" d="M144.7,275.1c-5.3,2.6-9.9,6.4-13.5,11.1c-1.2-2.4-3-4.4-5.1-6c3.1-4.2,6.8-7.9,11.1-10.8
	c1.7,2.2,3.9,4,6.5,5.2L144.7,275.1L144.7,275.1z"/>
<path class="st1" d="M123.9,278.7c3.4-4.3,7.6-8,12.3-10.9c0.3,0.5,0.7,1,1.1,1.5c-4.3,2.9-8,6.6-11.1,10.8
	C125.5,279.7,124.7,279.2,123.9,278.7z"/>
<path class="st1" d="M131.3,286.2c3.5-4.7,8.2-8.5,13.5-11.1l1.7,0.8c0.5,0.2,0.5,0.8,0,1.1l-2.7,1.3c-3.7,1.8-6.7,4.8-8.5,8.5
	l-1.3,2.7c-0.2,0.3-0.6,0.4-0.9,0.2c-0.1-0.1-0.2-0.1-0.2-0.2l-1.3-2.7L131.3,286.2L131.3,286.2z"/>
<path class="st1" d="M123,278.3l-2.7-1.3c-0.3-0.2-0.4-0.6-0.2-0.9c0.1-0.1,0.1-0.2,0.2-0.2l4.1-2c2.8-1.3,5.1-3.6,6.4-6.4l2-4.1
	c0.2-0.3,0.6-0.4,0.9-0.2c0.1,0.1,0.2,0.1,0.2,0.2l1.3,2.7c0.3,0.6,0.6,1.2,1,1.7c-4.7,2.9-8.9,6.6-12.3,10.9
	C123.6,278.6,123.3,278.4,123,278.3L123,278.3z"/>
<path class="st14" d="M143.5,416.9c-0.7,0-1.4-0.5-1.6-1.2L114.1,328l3.2-1l26.1,82.5l25.7-82.5l3.2,1L145,415.7
	C144.9,416.4,144.2,416.9,143.5,416.9L143.5,416.9z"/>
<path class="st14" d="M161,416.9c-0.7,0-1.4-0.5-1.6-1.2L131.6,328l3.2-1l26.1,82.5l25.7-82.5l3.2,1l-27.2,87.7
	C162.4,416.4,161.7,416.9,161,416.9z"/>
<path class="st14" d="M178.5,416.9c-0.7,0-1.4-0.5-1.6-1.2L149.1,328l3.2-1l26.1,82.5l25.7-82.5l3.3,1l-27.3,87.7
	C179.9,416.4,179.2,416.9,178.5,416.9L178.5,416.9z"/>
<polygon class="st14" points="126.8,356 123.6,355 134.2,321.3 137.5,322.3 "/>
<polygon class="st14" points="136.1,385 132.8,384 150.8,327 154,328 "/>
<polygon class="st14" points="186.6,383.9 168.7,326.9 172,325.8 189.9,382.8 "/>
<polygon class="st14" points="195.1,357.1 185.5,326.7 188.7,325.6 198.3,356.1 "/>
<linearGradient id="SVGID_6_" gradientUnits="userSpaceOnUse" x1="86.91" y1="537.6503" x2="204.1128" y2="537.6503" gradientTransform="matrix(1 0 0 1 15.19 -213.8)">
	<stop  offset="0" style="stop-color:#FA7C45"/>
	<stop  offset="1" style="stop-color:#FA5503"/>
</linearGradient>
<path id="SVGID" class="st15" d="M214,331.4H107.5c-3,0-5.4-2.4-5.4-5.4c0,0,0,0,0,0v-4.3c0-3,2.4-5.4,5.4-5.4c0,0,0,0,0,0h106.4
	c3,0,5.4,2.4,5.4,5.4c0,0,0,0,0,0v4.3c0.1,2.9-2.2,5.3-5.1,5.4C214.2,331.4,214.1,331.4,214,331.4z"/>
<g>
	<defs>
		<path id="SVGID_7_" d="M214,331.4H107.5c-3,0-5.4-2.4-5.4-5.4c0,0,0,0,0,0v-4.3c0-3,2.4-5.4,5.4-5.4c0,0,0,0,0,0h106.4
			c3,0,5.4,2.4,5.4,5.4c0,0,0,0,0,0v4.3c0.1,2.9-2.2,5.3-5.1,5.4C214.2,331.4,214.1,331.4,214,331.4z"/>
	</defs>
	<clipPath id="SVGID_8_">
		<use xlink:href="#SVGID_7_"  style="overflow:visible;"/>
	</clipPath>
	<g class="st16">
		
			<linearGradient id="SVGID-2_1_" gradientUnits="userSpaceOnUse" x1="86.91" y1="537.65" x2="204.21" y2="537.65" gradientTransform="matrix(1 0 0 1 15.19 -213.8)">
			<stop  offset="0" style="stop-color:#FA7C45"/>
			<stop  offset="1" style="stop-color:#FA5503"/>
		</linearGradient>
		<rect id="SVGID-2" x="102.1" y="316.3" class="st17" width="117.3" height="15.1"/>
	</g>
</g>
</svg>
