<?xml version="1.0" encoding="utf-8"?>
<!-- Generator: Adobe Illustrator 23.1.0, SVG Export Plug-In . SVG Version: 6.00 Build 0)  -->
<svg version="1.1" id="Слой_1" xmlns="http://www.w3.org/2000/svg" xmlns:xlink="http://www.w3.org/1999/xlink" x="0px" y="0px"
	 viewBox="0 0 320 576.6" style="enable-background:new 0 0 320 576.6;" xml:space="preserve">
<style type="text/css">
	.st0{clip-path:url(#SVGID_2_);}
	.st1{fill:url(#SVGID_3_);}
	.st2{fill:url(#SVGID_4_);}
	.st3{fill:url(#SVGID_5_);}
	.st4{fill:#55C0FF;}
	.st5{fill:url(#SVGID_6_);}
	.st6{fill:none;}
	.st7{fill:#004DDA;}
	.st8{fill:#003CC4;}
	.st9{fill:#003FD6;}
	.st10{fill:#1B2C8E;}
	.st11{fill:#005DF1;}
	.st12{fill:#006CF1;}
	.st13{fill:#FFFFFF;}
	.st14{opacity:0.71;}
</style>
<title>screen-final</title>
<g>
	<defs>
		<rect id="SVGID_1_" width="320" height="576.4"/>
	</defs>
	<clipPath id="SVGID_2_">
		<use xlink:href="#SVGID_1_"  style="overflow:visible;"/>
	</clipPath>
	<g class="st0">
		
			<linearGradient id="SVGID_3_" gradientUnits="userSpaceOnUse" x1="-25.0074" y1="729.1319" x2="153.2026" y2="479.7419" gradientTransform="matrix(1 0 0 1 46.2 -130.8)">
			<stop  offset="0" style="stop-color:#0083FF"/>
			<stop  offset="1" style="stop-color:#5DBBFB"/>
		</linearGradient>
		<path class="st1" d="M190.6,508.4c-1.4-8.4-10.4-24.6-12.6-32.7c-30.5,19.5-76.9,7.2-106.6-29.5c-31.4-38.8-32.3-90.1-2.1-114.6
			c2.8-2.2,5.8-4.2,8.9-5.9c-1.9-1.5-3.9-3-5.8-4.4L-46.2,483.8v92.6h232.3c0.9-9.3,1.4-18.7,1.4-28.2l0,0L190.6,508.4z"/>
		
			<linearGradient id="SVGID_4_" gradientUnits="userSpaceOnUse" x1="328.3584" y1="577.181" x2="13.3884" y2="105.6611" gradientTransform="matrix(1 0 0 1 46.2 -130.8)">
			<stop  offset="0" style="stop-color:#0055CF"/>
			<stop  offset="1" style="stop-color:#00BBEE"/>
		</linearGradient>
		<path class="st2" d="M83.8,305.6c5.8,4.3,11.5,8.8,17.1,13.5c27-2.5,58.1,11.3,80.1,38.4c27,33.4,31.5,76,13,102.8
			c4,13.2,7.1,26.6,9.2,40.2l3.8,47.8l0,0c0,9.5-0.4,18.8-1.3,28.2H320V-18.2L83.8,305.6z"/>
		
			<linearGradient id="SVGID_5_" gradientUnits="userSpaceOnUse" x1="329.8308" y1="570.8995" x2="13.5608" y2="100.2595" gradientTransform="matrix(1 0 0 1 46.2 -130.8)">
			<stop  offset="0" style="stop-color:#0055CF"/>
			<stop  offset="1" style="stop-color:#00BBEE"/>
		</linearGradient>
		<path class="st3" d="M320-82.8v31.6L67.8,294.5c-34.6-22.1-73.4-36.8-114-43.2V-82.8H320z"/>
		<path class="st4" d="M320-51.2L67.8,294.5c-34.6-22.1-73.4-36.8-114-43.2V271c36.4,6.1,71.3,19.5,102.5,39.3L-46.2,450.8v33
			L72.4,321.3c11.6,8.6,22.6,18,32.8,28.2c52.9,52.6,82.6,124.3,82.4,198.9c0,9.5-0.5,18.9-1.4,28.2h19.5c0.9-9.3,1.3-18.7,1.3-28.2
			c0.2-79.8-31.5-156.3-88.1-212.6c-10.9-10.9-22.6-21-35-30.1L320-18.2V-51.2z"/>
		
			<linearGradient id="SVGID_6_" gradientUnits="userSpaceOnUse" x1="-118.6478" y1="528.3116" x2="22.3922" y2="333.8316" gradientTransform="matrix(1 0 0 1 46.2 -130.8)">
			<stop  offset="0" style="stop-color:#0083FF"/>
			<stop  offset="1" style="stop-color:#5DBBFB"/>
		</linearGradient>
		<path class="st5" d="M56.3,310.3L-46.2,450.8V271C-9.8,277.1,25.1,290.5,56.3,310.3z"/>
		<path class="st6" d="M183.1,472.1c-1.6,1.3-3.3,2.5-5,3.6c2.2,8.2,4,16.4,5.4,24.8h19.7c-2.2-13.6-5.2-27-9.2-40.2
			C190.9,464.7,187.3,468.7,183.1,472.1z"/>
		<path class="st7" d="M178.1,475.7c1.7-1.1,3.4-2.3,5-3.6c4.2-3.4,7.8-7.4,10.9-11.8c-14.4-47.1-40.2-89.9-75.1-124.7
			c-5.8-5.8-11.8-11.3-18-16.6c-7.9,0.7-15.7,2.9-22.7,6.6c9.5,7.3,18.4,15.2,26.9,23.7C140.1,384.3,165.3,427.9,178.1,475.7z"/>
		<path class="st8" d="M193.9,460.3c18.5-26.9,14-69.4-13-102.8c-22-27.1-53-41-80.1-38.4c6.2,5.3,12.2,10.8,18,16.6
			C153.8,370.4,179.6,413.2,193.9,460.3z"/>
		<path class="st9" d="M71.4,446.2c29.7,36.7,76.1,49.1,106.6,29.5c-12.8-47.8-37.9-91.4-72.9-126.3c-8.4-8.5-17.4-16.4-26.9-23.7
			c-3.1,1.7-6.1,3.7-8.9,5.9C39.1,356.1,40,407.4,71.4,446.2z"/>
		<path class="st10" d="M167.5,364.7v1.4c-5-5.9-12.7-8.8-21.4-12c-0.2-0.1-0.5-0.2-0.7-0.3c0.3-1,0.6-2.1,0.9-3.2l0.9,0.3
			c7.5,2.8,14.8,5.5,20.2,10.4C167.5,362.5,167.5,363.6,167.5,364.7z"/>
		<path class="st11" d="M167.5,366.2c-0.4,17.9-7.3,35-19.5,48.1c-1.6-11.2-7.1-24.1-15.7-37.4c6-6.6,10.4-14.5,13.1-23
			c0.2,0.1,0.5,0.2,0.7,0.3C154.8,357.4,162.4,360.2,167.5,366.2z"/>
		<path class="st11" d="M147,314.2c12.3,12.7,19.6,29.5,20.4,47.2c-5.4-4.9-12.7-7.6-20.2-10.4l-0.9-0.3c1.3-5.1,1.9-10.3,1.9-15.5
			c0-6.5-1-13-3-19.2L147,314.2z"/>
		<path class="st10" d="M147,314.2l-1.8,1.8c-0.4-1.2-0.8-2.3-1.2-3.4l0.7-0.7C145.5,312.6,146.2,313.4,147,314.2z"/>
		<path class="st12" d="M148.2,335.2c0,5.2-0.6,10.4-1.9,15.5c-8.1-3-16.5-6.3-23.4-12.6l22.3-22.1
			C147.2,322.2,148.2,328.7,148.2,335.2z"/>
		<path class="st10" d="M148,414.2c-0.9,1-1.9,2-2.9,3c-0.9-11-6.2-24.2-15.1-37.9c0.8-0.8,1.6-1.6,2.3-2.4
			C140.9,390.1,146.4,403.1,148,414.2z"/>
		<path class="st10" d="M146.3,350.7c-0.3,1.1-0.6,2.1-0.9,3.2c-8.6-3.2-17.4-6.6-24.8-13.5l2.3-2.3
			C129.8,344.4,138.1,347.7,146.3,350.7z"/>
		<path class="st10" d="M145.2,316l-22.3,22.1c-0.4-0.4-0.8-0.7-1.2-1.1c-0.4-0.4-0.8-0.8-1.1-1.2l23.4-23.3
			C144.4,313.7,144.9,314.8,145.2,316z"/>
		<path class="st11" d="M144.7,311.9l-0.7,0.7c-0.3-0.7-0.5-1.3-0.8-2C143.7,311,144.2,311.4,144.7,311.9z"/>
		<path class="st12" d="M144,312.5l-23.4,23.3c-9-9.4-10.9-16.8-13.3-26.1c-0.3-1.3-0.7-2.6-1-4c-1.3-4.8-3.4-9.3-6.3-13.3
			c16.1,1.1,31.3,7.5,43.3,18.3C143.5,311.2,143.7,311.9,144,312.5z"/>
		<path class="st11" d="M130,379.3c8.8,13.7,14.1,26.8,15.1,37.9c-13.2,12.6-30.7,19.8-49,20.1c5.7-11.6,10.8-27.9,10.2-43.1
			C115.2,391.1,123.3,386,130,379.3z"/>
		<path class="st12" d="M120.6,340.4c7.5,6.9,16.3,10.3,24.8,13.5c-2.7,8.5-7.1,16.4-13.1,23c-6.3-9.6-13.5-18.5-21.5-26.7
			L120.6,340.4z"/>
		<path class="st10" d="M132.3,376.9c-0.7,0.8-1.5,1.6-2.3,2.4c-6.3-9.6-13.5-18.6-21.5-26.9l2.3-2.3
			C118.8,358.4,126,367.3,132.3,376.9z"/>
		<path class="st12" d="M130,379.3c-6.7,6.7-14.8,11.8-23.7,14.9c-0.4-10.6-3.7-20.7-11.4-28.3l13.6-13.4
			C116.5,360.7,123.7,369.7,130,379.3z"/>
		<path class="st10" d="M122.9,338.1l-2.3,2.3c-0.4-0.4-0.8-0.7-1.2-1.1c-0.4-0.4-0.8-0.8-1.1-1.2l2.3-2.3c0.4,0.4,0.7,0.8,1.1,1.2
			S122.5,337.7,122.9,338.1z"/>
		<path class="st10" d="M120.6,335.8l-2.3,2.3c-9.6-10-11.6-17.8-14.2-27.6c-0.3-1.3-0.7-2.6-1-4c-1.4-5.3-4-10.2-7.5-14.4
			c1.5,0,2.9,0.1,4.4,0.2c2.9,4,5,8.5,6.3,13.3c0.4,1.4,0.7,2.7,1,4C109.7,319,111.6,326.4,120.6,335.8z"/>
		<path class="st10" d="M120.6,340.4l-9.8,9.7c-0.4-0.4-0.7-0.8-1.1-1.2l-1.2-1.2l9.8-9.7c0.4,0.4,0.7,0.8,1.1,1.2
			C119.8,339.6,120.2,340,120.6,340.4z"/>
		<path class="st12" d="M118.2,338.1l-9.8,9.7C84.1,323.6,60,314.5,45.9,311c13.3-12.2,30.8-19,48.9-19h0.7
			c3.6,4.1,6.2,9.1,7.5,14.4c0.4,1.4,0.7,2.7,1,4C106.6,320.3,108.6,328.1,118.2,338.1z"/>
		<path class="st10" d="M110.7,350.1l-2.3,2.3l-1.2-1.2L106,350l2.3-2.3l1.2,1.2L110.7,350.1z"/>
		<path class="st10" d="M108.4,347.8l-2.3,2.3c-25-25-49.7-33.5-63-36.4c0.9-0.9,1.9-1.8,2.8-2.7C60.1,314.5,84.2,323.6,108.4,347.8
			z"/>
		<path class="st10" d="M107.3,351.3l1.2,1.2l-13.6,13.4c-0.4-0.4-0.8-0.8-1.3-1.2c-0.4-0.3-0.8-0.7-1.2-1l13.7-13.6L107.3,351.3z"
			/>
		<path class="st10" d="M106.2,394.2c0.6,15.2-4.5,31.5-10.2,43.1h-1.2c-0.8,0-1.6,0-2.4-0.1c6-11.5,10.8-27.4,10.4-42
			C104,395,105.1,394.6,106.2,394.2z"/>
		<path class="st12" d="M106.1,350.1l-13.7,13.6c-11.8-9.8-28.5-13.1-48.2-9.4c-5.5,1.1-11,2.5-16.3,4.4c-1.5-3.8-2.7-7.7-3.5-11.7
			c3.2-12.6,9.6-24.1,18.7-33.3C56.4,316.6,81.1,325.1,106.1,350.1z"/>
		<path class="st10" d="M106.2,394.2c-1.1,0.4-2.3,0.8-3.4,1.1c-0.3-10.4-3.3-20.1-10.3-27.1l2.4-2.3
			C102.6,373.5,105.8,383.6,106.2,394.2z"/>
		<path class="st11" d="M102.8,395.3c0.4,14.6-4.4,30.5-10.4,42c-18.3-0.6-35.6-8.1-48.6-20.9l22.2-22c6.3,2.1,13,3.2,19.7,3.2
			C91.5,397.7,97.2,396.9,102.8,395.3z"/>
		<path class="st10" d="M94.9,365.9l-2.4,2.3l-1.1-1.1c-0.4-0.4-0.8-0.8-1.3-1.1l2.3-2.3c0.4,0.3,0.8,0.7,1.2,1
			C94,365.1,94.4,365.5,94.9,365.9z"/>
		<path class="st12" d="M92.5,368.2c7.1,7,10,16.7,10.3,27.1c-5.6,1.6-11.3,2.4-17.1,2.4c-6.7,0-13.4-1.1-19.7-3.2L92.5,368.2z"/>
		<path class="st10" d="M92.5,368.2L66,394.5c-1.2-0.4-2.3-0.8-3.4-1.2L90,366.1c0.5,0.3,0.9,0.7,1.3,1.1
			C91.7,367.5,92.1,367.8,92.5,368.2z"/>
		<path class="st10" d="M92.4,363.7l-2.3,2.3c-18.8-15.4-46-9.4-60.9-4.3c-0.5-1-0.9-2-1.3-3.1c5.3-1.9,10.8-3.3,16.3-4.4
			C63.9,350.6,80.6,353.9,92.4,363.7z"/>
		<path class="st12" d="M90.1,366l-27.4,27.2C48,387.3,36.1,376,29.3,361.7C44.1,356.6,71.2,350.6,90.1,366z"/>
		<path class="st10" d="M66,394.5l-22.2,22c-0.8-0.8-1.5-1.6-2.3-2.4l21-20.9C63.7,393.7,64.9,394.1,66,394.5z"/>
		<path class="st11" d="M62.6,393.2l-21,20.9c-12.5-13.4-19.4-31.1-19.4-49.4v-0.3c1.8-0.8,4.2-1.7,7-2.7
			C35.9,376.1,47.9,387.3,62.6,393.2z"/>
		<path class="st10" d="M27.9,358.7c0.4,1,0.9,2.1,1.3,3.1c-2.8,1-5.2,1.9-7,2.7c0-1.2,0-2.4,0.1-3.6
			C24.1,360.1,26,359.3,27.9,358.7z"/>
		<path class="st11" d="M24.4,347c0.8,4,1.9,7.9,3.5,11.7c-2.1,0.7-4,1.5-5.5,2.1C22.6,356.1,23.3,351.5,24.4,347z"/>
	</g>
</g>
<image style="overflow:visible;opacity:0.72;enable-background:new    ;" width="206" height="165" xlink:href="5F14335A.png"  transform="matrix(0.9939 0 0 0.9939 62.4742 74.99)">
</image>
<path class="st13" d="M134.6,118.5l-2.6,14.7h-8.6l5.4-30.9h8.3l5.5,18.6l12.1-18.6h8.3l-5.4,30.9H149l2.6-14.7l-9.4,14.7h-3.4
	L134.6,118.5z"/>
<path class="st13" d="M163.2,133.2l5.4-30.9h8.6l-1.6,8.8h4.1c1.4,0,2.8,0.3,4.1,0.8c1.2,0.5,2.2,1.2,3,2.2c0.8,1,1.4,2,1.9,3.2
	c0.4,1.2,0.7,2.5,0.7,3.8c0,1.7-0.3,3.4-1,4.9c-0.6,1.4-1.5,2.8-2.6,3.9c-1.1,1.1-2.4,1.9-3.9,2.5c-1.5,0.6-3.2,0.9-4.8,0.9
	L163.2,133.2L163.2,133.2z M174.3,119l-1.1,6.3h3.6c1,0,1.9-0.3,2.6-1c0.7-0.6,1.1-1.5,1.1-2.4c0-0.7-0.3-1.5-0.8-2
	c-0.5-0.6-1.3-0.9-2.1-0.9H174.3z M198.5,133.2h-8.6l5.4-30.9h8.6L198.5,133.2z"/>
<path class="st13" d="M160.5,157.5c0.6,0.6,1,1.3,1.4,2c0.5,0.9,0.7,2,0.7,3c0,1.3-0.3,2.5-0.8,3.7c-0.5,1.1-1.3,2.1-2.2,3
	c-0.9,0.9-2.1,1.6-3.3,2c-1.4,0.5-2.8,0.7-4.3,0.7h-16.4L141,141h14.1c1.3,0,2.5,0.2,3.7,0.6c1,0.4,1.9,0.9,2.7,1.7
	c0.7,0.7,1.3,1.5,1.7,2.4c0.4,0.9,0.6,1.8,0.6,2.8c0,1.2-0.2,2.4-0.8,3.5c-0.5,0.8-1.1,1.6-1.8,2.3c-0.8,0.7-1.7,1.2-2.7,1.6
	C159.2,156.4,159.9,156.9,160.5,157.5z M150.3,165.2c1,0,1.9-0.3,2.6-1c0.7-0.6,1.1-1.5,1.1-2.4c0-0.7-0.3-1.5-0.8-2
	c-0.6-0.6-1.3-0.9-2.1-1h-4.7l-1.1,6.4H150.3z M147.5,152.9h4.2c0.8,0,1.6-0.3,2.2-0.8c0.6-0.5,0.9-1.3,0.9-2.1
	c0-0.6-0.2-1.3-0.7-1.7c-0.5-0.5-1.1-0.7-1.8-0.8h-3.9L147.5,152.9z"/>
<path class="st13" d="M174.8,157.2c0,1,0.2,1.9,0.5,2.8c0.3,0.8,0.7,1.6,1.3,2.2c0.6,0.6,1.2,1.1,2,1.4c0.8,0.3,1.7,0.5,2.6,0.5
	c1,0,2-0.2,2.9-0.6c0.7-0.4,1.4-0.8,2-1.3c0.6-0.6,1.2-1.3,1.6-2l8.4,0.8c-0.6,1.6-1.4,3.1-2.4,4.4c-1,1.4-2.2,2.6-3.6,3.7
	c-1.4,1-2.9,1.9-4.5,2.5c-1.6,0.6-3.4,0.9-5.1,0.9c-2,0-3.9-0.4-5.7-1.1c-1.7-0.7-3.3-1.8-4.6-3.1c-1.3-1.4-2.4-3-3.1-4.7
	c-0.8-1.8-1.1-3.8-1.1-5.8c0-2.2,0.5-4.5,1.4-6.5c0.9-2.1,2.2-3.9,3.8-5.5c1.6-1.6,3.5-2.9,5.5-3.8c2.1-0.9,4.3-1.4,6.6-1.4
	c1.8,0,3.6,0.3,5.2,1c1.5,0.6,3,1.5,4.2,2.6c1.2,1,2.2,2.3,2.9,3.7c0.7,1.4,1.2,2.8,1.5,4.3l-8.9,0.7c-0.3-0.7-0.7-1.4-1.2-2
	c-0.5-0.5-1.1-1-1.8-1.3c-0.8-0.4-1.8-0.6-2.7-0.6c-1,0-2,0.2-3,0.6c-1,0.4-1.8,1-2.5,1.8c-0.7,0.8-1.3,1.6-1.7,2.6
	C175,155,174.8,156.1,174.8,157.2z"/>
<path class="st13" d="M203.9,141H227l-1.4,7.6h-14.5l-0.7,3.9h13.4l-1.3,7.4h-13.3l-0.7,4.4h15l-1.4,7.6h-23.5L203.9,141z"/>
<path class="st13" d="M92.3,189.1c0.5-2.8,2-5.4,4.2-7.2c1.2-0.9,2.4-1.5,3.8-2c1.4-0.5,3-0.7,4.5-0.7c1.6,0,3.2,0.2,4.7,0.7
	c1.2,0.4,2.4,1.1,3.4,1.9c0.9,0.8,1.6,1.7,2.1,2.7c0.5,1,0.7,2,0.7,3.1c0,1.2-0.3,2.4-0.9,3.5c-0.5,0.8-1.2,1.6-1.9,2.3
	c-0.8,0.7-1.8,1.2-2.8,1.6c0.7,0.5,1.3,1,1.9,1.6c0.5,0.6,1,1.3,1.3,2.1c0.4,0.9,0.6,1.8,0.6,2.8c0,1.3-0.3,2.6-0.9,3.8
	c-0.6,1.2-1.4,2.2-2.5,3c-1.2,0.9-2.5,1.6-3.9,2c-1.6,0.5-3.4,0.8-5.1,0.8c-1.8,0-3.5-0.3-5.2-0.8c-1.4-0.5-2.7-1.3-3.8-2.2
	c-1-0.9-1.8-2-2.3-3.2c-0.5-1.2-0.8-2.5-0.8-3.8l8.7-0.7c0.1,0.5,0.2,1,0.5,1.5c0.3,0.4,0.6,0.7,1,1c0.6,0.3,1.2,0.5,1.9,0.5
	c0.8,0,1.6-0.3,2.2-0.9c0.6-0.5,0.9-1.3,0.9-2.1c0-0.6-0.2-1.2-0.6-1.6c-0.5-0.4-1.2-0.6-1.9-0.6H99l1.2-6.6h3.5
	c0.7,0.1,1.5-0.2,2-0.7c0.5-0.4,0.7-1,0.7-1.6c0-0.6-0.3-1.1-0.7-1.5c-0.6-0.4-1.3-0.7-2-0.6c-0.6,0-1.1,0.1-1.6,0.4
	c-0.4,0.3-0.7,0.6-1,1c-0.3,0.4-0.5,0.8-0.7,1.3L92.3,189.1z"/>
<path class="st13" d="M121.9,179.8H145l-1.4,7.6h-14.5l-0.7,3.9h13.4l-1.3,7.4h-13.3l-0.7,4.4h15l-1.4,7.6h-23.5L121.9,179.8z"/>
<path class="st13" d="M177.6,179.8l-5.4,30.9h-8.6l2-11.5H155l-2,11.5h-8.6l5.4-30.9h8.6l-1.9,11H167l2-11H177.6z"/>
<path class="st13" d="M191.6,179.8l-3,16.9l14.5-16.9h7.6l-5.4,30.9h-8.6l3-16.9l-14.5,16.9h-7.6l5.4-30.9H191.6z"/>
<path class="st13" d="M225.7,210.7h-8.6l4-22.6h-8.3l1.5-8.3h25.3l-1.5,8.3h-8.3L225.7,210.7z"/>
<g class="st14">
	<path class="st13" d="M99.9,24.2c1.6-0.1,2.9,1.2,3,2.8c0,0.1,0,0.3,0,0.4c0,1.7-1.3,3-3,3s-3-1.3-3-3c-0.1-1.6,1.1-3,2.7-3.2
		C99.7,24.2,99.8,24.2,99.9,24.2z M99.9,24.7c-1.3,0-2.4,1-2.4,2.3c0,0.1,0,0.2,0,0.3c-0.1,1.3,0.9,2.5,2.2,2.6s2.5-0.9,2.6-2.2
		c0-0.1,0-0.3,0-0.4c0.2-1.3-0.7-2.4-2-2.6C100.2,24.7,100,24.7,99.9,24.7z"/>
	<path class="st13" d="M106.9,26v-1.8h0.5V26c1.3-0.1,2.4,0.8,2.5,2.1c0,0,0,0.1,0,0.1c0,1.4-1,2.2-2.5,2.2v1.7h-0.5v-1.7
		c-1.3,0.1-2.4-0.8-2.5-2.1c0,0,0-0.1,0-0.1C104.4,26.9,105.4,26.1,106.9,26z M106.9,26.6c-0.9-0.1-1.8,0.6-1.9,1.5
		c-0.1,0.9,0.6,1.8,1.5,1.9c0.1,0,0.2,0,0.4,0V26.6z M107.4,26.6V30c0.9,0.1,1.8-0.5,1.9-1.5c0-0.1,0-0.2,0-0.2
		C109.3,27.3,108.7,26.6,107.4,26.6z"/>
	<path class="st13" d="M115,26.7L115,26.7l-2.7,3.7h-0.8v-4.3h0.5v3.7l0,0l2.7-3.7h0.8v4.3H115V26.7z"/>
	<path class="st13" d="M117.2,30.5v-4.3h0.5V30h2.7v-3.8h0.5V30h0.7v1.6h-0.5v-1.1H117.2z"/>
	<path class="st13" d="M126.4,26.7L126.4,26.7l-2.7,3.7h-0.8v-4.3h0.5v3.7l0,0l2.7-3.7h0.8v4.3h-0.5L126.4,26.7z"/>
	<path class="st13" d="M130.5,28c0.6,0,1.1,0.1,1.6,0.4v-0.8c-0.1-0.7-0.7-1.2-1.4-1.1c-0.8,0-1.4,0.4-1.4,0.8h-0.5
		c0-0.6,0.6-1.3,2-1.3c1,0,2,0.5,2,1.6v1.8c0,0.4,0.1,0.6,0.4,0.6c0.1,0,0.2,0,0.3-0.1v0.5c-0.1,0.1-0.3,0.1-0.4,0.1
		c-0.7,0-0.8-0.5-0.8-0.5l0,0c-0.5,0.4-1,0.5-1.6,0.5c-1.1,0-2-0.4-2-1.3C128.5,28.4,129.4,28,130.5,28z M130.6,30
		c0.5,0,1.1-0.2,1.5-0.5v-0.6c-0.4-0.3-1-0.4-1.5-0.4c-0.8,0-1.5,0.2-1.5,0.8S129.8,30,130.6,30z"/>
	<path class="st13" d="M135.2,26.1h3.1v4.3h-0.5v-3.8h-2.1l-0.3,2.1c-0.2,1.2-0.5,1.8-1.2,1.8c-0.1,0-0.2,0-0.3-0.1v-0.5h0.3
		c0.4,0,0.6-0.5,0.7-1.2L135.2,26.1z"/>
	<path class="st13" d="M141.7,30.5H140v-4.3h0.5v1.5h1.1c1.2,0,1.9,0.5,1.9,1.4S142.9,30.5,141.7,30.5z M141.7,28.1h-1.1v1.8h1.1
		c0.9,0,1.3-0.3,1.3-0.9S142.6,28.1,141.7,28.1z"/>
	<path class="st13" d="M148.6,28.5h-2.9v2h-0.5v-4.3h0.5V28h2.9v-1.8h0.5v4.3h-0.5V28.5z"/>
	<path class="st13" d="M153,26c1.2,0.1,2.2,1.1,2.1,2.3c-0.1,1.2-1.1,2.2-2.3,2.1c-1.2-0.1-2.1-1-2.1-2.2c0-1.2,0.9-2.2,2.1-2.2
		C152.8,26,152.9,26,153,26z M153,26.6c-0.9,0-1.7,0.8-1.7,1.7c0,0.9,0.8,1.7,1.7,1.7c0.9,0,1.7-0.8,1.7-1.7v0
		C154.7,27.4,154,26.6,153,26.6C153,26.6,153,26.6,153,26.6z"/>
	<path class="st13" d="M157.2,28.6c0.2,0.9,1.1,1.6,2,1.4c0.4-0.1,0.8-0.3,1.1-0.7h0.7c-0.4,0.8-1.2,1.3-2.1,1.2
		c-1.2,0.1-2.2-0.8-2.3-2c0-0.1,0-0.2,0-0.2c0-1.3,1-2.3,2.3-2.3s2.3,1,2.3,2.3l0,0v0.3H157.2z M159,26.6c-0.9,0-1.6,0.6-1.7,1.5
		h3.5C160.6,27.2,159.9,26.6,159,26.6z"/>
	<path class="st13" d="M168.6,26.6h-2.8v3.8h-0.5v-4.3h3.9v4.3h-0.5L168.6,26.6L168.6,26.6z"/>
	<path class="st13" d="M175.4,28.3c0,1.2-1,2.2-2.2,2.2c0,0-0.1,0-0.1,0c-0.7,0-1.3-0.3-1.8-0.8l0,0v2.5h-0.5v-6.1h0.5v0.7l0,0
		c0.4-0.5,1.1-0.8,1.8-0.8C174.3,26,175.4,27,175.4,28.3C175.4,28.2,175.4,28.3,175.4,28.3z M173.1,26.6c-0.9,0-1.7,0.8-1.7,1.7
		c0,0.9,0.8,1.7,1.7,1.7c0,0,0,0,0,0c0.9,0,1.7-0.7,1.7-1.7c0,0,0,0,0,0c0-0.9-0.7-1.7-1.6-1.7C173.2,26.6,173.1,26.6,173.1,26.6
		L173.1,26.6z"/>
	<path class="st13" d="M180.5,26.7L180.5,26.7l-2.7,3.7H177v-4.3h0.5v3.7l0,0l2.7-3.7h0.8v4.3h-0.5V26.7z"/>
	<path class="st13" d="M183.4,26.1h3.1v4.3H186v-3.8h-2.1l-0.3,2.1c-0.2,1.2-0.5,1.8-1.2,1.8c-0.1,0-0.2,0-0.3-0.1v-0.5h0.3
		c0.5,0,0.6-0.5,0.7-1.2L183.4,26.1z"/>
	<path class="st13" d="M190.4,26c1.2,0.1,2.2,1.1,2.1,2.3c-0.1,1.2-1.1,2.2-2.3,2.1c-1.2-0.1-2.1-1-2.1-2.2c0-1.2,0.9-2.2,2.1-2.2
		C190.2,26,190.3,26,190.4,26z M190.4,26.6c-0.9,0-1.7,0.8-1.7,1.7c0,0.9,0.8,1.7,1.7,1.7c0.9,0,1.7-0.8,1.7-1.7v0
		C192.1,27.4,191.4,26.6,190.4,26.6C190.4,26.6,190.4,26.6,190.4,26.6z"/>
	<path class="st13" d="M197.1,28.3v2.2h-0.5v-2.2l-2.5,2.2h-0.7l2.6-2.2l-2.4-2.1h0.7l2.4,2.1v-2.1h0.5v2.1l2.4-2.2h0.7l-2.4,2.1
		l2.6,2.2h-0.7L197.1,28.3z"/>
	<path class="st13" d="M201.6,28.6c0.2,0.9,1.1,1.6,2,1.4c0.4-0.1,0.8-0.3,1.1-0.7h0.7c-0.4,0.8-1.2,1.3-2.1,1.2
		c-1.2,0.1-2.2-0.8-2.3-2c0-0.1,0-0.2,0-0.2c0-1.3,1-2.3,2.3-2.3s2.3,1,2.3,2.3l0,0v0.3H201.6z M203.3,26.6c-0.9,0-1.6,0.6-1.7,1.5
		h3.5C205,27.2,204.2,26.6,203.3,26.6z"/>
	<path class="st13" d="M210.7,28.5h-2.9v2h-0.5v-4.3h0.5V28h2.9v-1.8h0.5v4.3h-0.5V28.5z"/>
	<path class="st13" d="M216.4,26.7L216.4,26.7l-2.7,3.7h-0.8v-4.3h0.5v3.7l0,0l2.7-3.7h0.8v4.3h-0.5V26.7z"/>
	<path class="st13" d="M219.1,28.6c0.2,0.9,1.1,1.6,2,1.4c0.4-0.1,0.8-0.3,1.1-0.7h0.7c-0.4,0.8-1.2,1.3-2.1,1.2
		c-1.2,0.1-2.2-0.8-2.3-2c0-0.1,0-0.2,0-0.2c0-1.3,1-2.3,2.3-2.3s2.3,1,2.3,2.3l0,0v0.3H219.1z M220.8,26.6c-0.9,0-1.6,0.6-1.7,1.5
		h3.5C222.5,27.2,221.7,26.6,220.8,26.6z"/>
	<path class="st13" d="M92.3,33.3h-3.7v1.9h2c1.5,0,2.4,0.6,2.4,1.9S92.2,39,90.6,39H88v-6.2h4.3V33.3z M90.6,38.4
		c1.1,0,1.8-0.4,1.8-1.3s-0.6-1.3-1.8-1.3h-2v2.6H90.6z"/>
	<path class="st13" d="M96.3,36.5c0.6,0,1.1,0.2,1.6,0.5v-0.8c-0.1-0.7-0.7-1.2-1.4-1.1c-0.8,0-1.4,0.4-1.4,0.8h-0.5
		c0-0.6,0.6-1.3,2-1.3c1,0,2,0.5,2,1.6V38c0,0.4,0.1,0.6,0.4,0.6c0.1,0,0.2,0,0.3-0.1V39c-0.1,0.1-0.3,0.1-0.4,0.1
		c-0.7,0-0.8-0.5-0.8-0.5l0,0c-0.5,0.4-1,0.5-1.6,0.5c-1.1,0-2-0.4-2-1.3C94.3,36.9,95.2,36.5,96.3,36.5z M96.4,38.6
		c0.5,0,1.1-0.2,1.5-0.5v-0.6c-0.4-0.3-1-0.4-1.5-0.4c-0.8,0-1.5,0.2-1.5,0.8S95.6,38.6,96.4,38.6z"/>
	<path class="st13" d="M102.4,34.6c1.1-0.1,2.1,0.7,2.3,1.8h-0.6c-0.2-0.8-0.9-1.3-1.7-1.2c-0.9,0-1.7,0.7-1.7,1.7c0,0,0,0,0,0
		c0,0.9,0.7,1.7,1.6,1.7c0,0,0.1,0,0.1,0c0.8,0,1.5-0.5,1.7-1.2h0.6c-0.2,1.1-1.2,1.9-2.3,1.8c-1.2,0.1-2.2-0.9-2.3-2.1
		c0,0,0-0.1,0-0.1c-0.1-1.2,0.8-2.3,2.1-2.4C102.2,34.6,102.3,34.6,102.4,34.6z"/>
	<path class="st13" d="M106.7,36.8V39h-0.5v-4.3h0.5V36.8l2.5-2.2h0.7l-2.5,2.1l2.7,2.2h-0.7L106.7,36.8z"/>
	<path class="st13" d="M111.3,37.2c0.2,0.9,1.1,1.6,2,1.4c0.4-0.1,0.8-0.3,1.1-0.7h0.7c-0.4,0.8-1.2,1.3-2.1,1.2
		c-1.2,0.1-2.2-0.8-2.3-2c0-0.1,0-0.2,0-0.2c0-1.3,1-2.3,2.3-2.3c1.3,0,2.3,1,2.3,2.3v0.3H111.3z M113,35.1c-0.9,0-1.6,0.6-1.7,1.5
		h3.5C114.7,35.7,113.9,35,113,35.1z"/>
	<path class="st13" d="M120.2,35.2h-1.8V39h-0.5v-3.8h-1.8v-0.5h4.1L120.2,35.2z"/>
	<path class="st13" d="M121.7,36L121.7,36c0.4-0.7,1.1-1.1,1.9-1c1.1-0.1,2,0.8,2.1,1.9c0,0.1,0,0.1,0,0.2c0,1.1-0.9,2.1-2.1,2.1
		c0,0-0.1,0-0.1,0c-1.3,0-2.3-1.1-2.3-2.4c0-0.1,0-0.1,0-0.2v-0.4c-0.2-1.3,0.7-2.4,2-2.6c0.1,0,0.3,0,0.4,0c0.8,0,1.2-0.2,1.2-0.6
		h0.6c0,0.6-0.4,1.2-1.6,1.2c-0.9-0.2-1.8,0.3-2,1.1C121.7,35.6,121.7,35.8,121.7,36z M123.5,35.5c-0.9,0-1.6,0.6-1.7,1.5
		c0,0.8,0.7,1.5,1.6,1.5c0,0,0.1,0,0.1,0c0.8,0.1,1.6-0.5,1.7-1.3s-0.5-1.6-1.3-1.7C123.7,35.5,123.6,35.5,123.5,35.5z"/>
	<path class="st13" d="M129.4,34.6c1.2,0.1,2.2,1.1,2.1,2.3c-0.1,1.2-1.1,2.2-2.3,2.1c-1.2-0.1-2.1-1-2.1-2.2
		c-0.1-1.1,0.8-2.1,1.9-2.2C129.2,34.6,129.3,34.6,129.4,34.6z M129.4,35.1c-0.9,0-1.7,0.7-1.7,1.7c0,0,0,0,0,0
		c0,0.9,0.7,1.7,1.6,1.7c0,0,0.1,0,0.1,0c0.9,0,1.7-0.8,1.7-1.7S130.3,35.1,129.4,35.1z"/>
	<path class="st13" d="M133.7,34.7h3.1V39h-0.5v-3.8h-2.1l-0.3,2.1c-0.2,1.2-0.5,1.8-1.2,1.8c-0.1,0-0.2,0-0.3-0.1v-0.5h0.3
		c0.4,0,0.6-0.5,0.7-1.2L133.7,34.7z"/>
	<path class="st13" d="M140.2,39h-1.7v-4.3h0.5v1.5h1.1c1.2,0,1.9,0.5,1.9,1.4S141.4,39,140.2,39z M140.2,36.7h-1.1v1.8h1.1
		c0.9,0,1.3-0.3,1.3-0.9S141.1,36.7,140.2,36.7z"/>
	<path class="st13" d="M147.1,37h-2.9v2h-0.5v-4.3h0.5v1.8h2.9v-1.8h0.5V39h-0.5V37z"/>
	<path class="st13" d="M151.5,34.6c1.2,0.1,2.2,1.1,2.1,2.3c-0.1,1.2-1.1,2.2-2.3,2.1c-1.2-0.1-2.1-1-2.1-2.2
		c-0.1-1.1,0.8-2.1,1.9-2.2C151.3,34.6,151.4,34.6,151.5,34.6z M151.5,35.1c-0.9,0-1.7,0.7-1.7,1.7c0,0,0,0,0,0
		c0,0.9,0.7,1.7,1.6,1.7c0,0,0.1,0,0.1,0c0.9,0,1.7-0.8,1.7-1.7S152.4,35.1,151.5,35.1z"/>
	<path class="st13" d="M158.7,34.7v0.5h-2.8V39h-0.5v-4.3H158.7z"/>
	<path class="st13" d="M161.6,34.6c1.2,0.1,2.2,1.1,2.1,2.3c-0.1,1.2-1.1,2.2-2.3,2.1c-1.2-0.1-2.1-1-2.1-2.2c0-1.2,1-2.2,2.2-2.2
		C161.5,34.6,161.6,34.6,161.6,34.6z M161.6,35.1c-0.9,0-1.7,0.7-1.7,1.7c0,0,0,0,0,0c0,0.9,0.7,1.7,1.6,1.7c0,0,0.1,0,0.1,0
		c0.9,0,1.7-0.7,1.7-1.7c0,0,0,0,0,0c0.1-0.9-0.6-1.6-1.4-1.7C161.8,35.1,161.7,35.1,161.6,35.1z"/>
	<path class="st13" d="M168.4,36.8V39h-0.5v-4.3h0.5V36.8l2.5-2.2h0.7l-2.5,2.1l2.7,2.2h-0.7L168.4,36.8z"/>
	<path class="st13" d="M173.4,34.7h3.1V39H176v-3.8h-2.1l-0.3,2.1c-0.2,1.2-0.5,1.8-1.2,1.8c-0.1,0-0.2,0-0.3-0.1v-0.5h0.3
		c0.4,0,0.6-0.5,0.7-1.2L173.4,34.7z"/>
	<path class="st13" d="M179.9,38.5L179.9,38.5l1.8-3.8h0.6l-2.1,4.5c-0.5,1-0.9,1.6-1.6,1.6c-0.2,0-0.3,0-0.5-0.1v-0.5
		c0.2,0.1,0.3,0.1,0.5,0.1c0.4,0,0.6-0.4,1-1.1v-0.1l-2.1-4.5h0.6L179.9,38.5z"/>
	<path class="st13" d="M183.6,36L183.6,36c0.4-0.7,1.1-1.1,1.9-1c1.1-0.1,2,0.8,2.1,1.9c0,0.1,0,0.1,0,0.2c0,1.1-0.9,2.1-2.1,2.1
		c0,0-0.1,0-0.1,0c-1.3,0-2.3-1.1-2.3-2.4c0-0.1,0-0.1,0-0.2v-0.4c-0.2-1.3,0.7-2.4,2-2.6c0.1,0,0.3,0,0.4,0c0.8,0,1.2-0.2,1.2-0.6
		h0.6c0,0.6-0.4,1.2-1.6,1.2c-0.9-0.2-1.8,0.3-2,1.1C183.6,35.6,183.6,35.8,183.6,36z M185.4,35.5c-0.9,0-1.6,0.6-1.7,1.5
		c0,0.8,0.7,1.5,1.6,1.5c0.1,0,0.1,0,0.1,0c0.9,0.1,1.6-0.6,1.7-1.5c0,0,0,0,0,0C187,36.1,186.3,35.5,185.4,35.5L185.4,35.5z"/>
	<path class="st13" d="M190.9,36.5c0.6,0,1.1,0.2,1.6,0.5v-0.8c-0.1-0.7-0.7-1.2-1.4-1.1c-0.8,0-1.4,0.4-1.4,0.8h-0.5
		c0-0.6,0.6-1.3,2-1.3c1,0,2,0.5,2,1.6V38c0,0.4,0.1,0.6,0.4,0.6c0.1,0,0.2,0,0.3-0.1V39c-0.1,0.1-0.3,0.1-0.4,0.1
		c-0.7,0-0.8-0.5-0.8-0.5l0,0c-0.5,0.4-1,0.5-1.6,0.5c-1.1,0-2-0.4-2-1.3C188.9,36.9,189.8,36.5,190.9,36.5z M191,38.6
		c0.5,0,1.1-0.2,1.5-0.5v-0.6c-0.4-0.3-1-0.4-1.5-0.4c-0.8,0-1.5,0.2-1.5,0.8S190.2,38.6,191,38.6z"/>
	<path class="st13" d="M196.7,36.9l1.2-1.6h0.6l-1.2,1.6l1.2,1.6H198L196.7,36.9z M198.2,36.9l1.2-1.6h0.6l-1.2,1.6l1.2,1.6h-0.6
		L198.2,36.9z"/>
	<path class="st13" d="M203.6,39.1c-1.4,0-2.4-0.7-2.4-1.9v-0.3h0.6v0.3c0,0.9,0.8,1.3,1.8,1.3s1.9-0.5,1.9-1.3s-0.7-1.2-1.7-1.2
		h-0.9v-0.5h0.9c1,0,1.5-0.5,1.5-1.1s-0.7-1.2-1.7-1.2s-1.7,0.5-1.7,1.2v0.2h-0.6v-0.2c0-1,0.9-1.7,2.3-1.7s2.3,0.7,2.3,1.7
		c0,0.6-0.4,1.2-1,1.3l0,0c0.7,0.1,1.2,0.8,1.2,1.5C206.1,38.4,205,39.1,203.6,39.1z"/>
	<path class="st13" d="M208,37.2c0.2,0.9,1.1,1.6,2,1.4c0.4-0.1,0.8-0.3,1.1-0.7h0.7c-0.4,0.8-1.2,1.3-2.1,1.2
		c-1.2,0.1-2.2-0.8-2.3-2c0-0.1,0-0.2,0-0.2c0-1.3,1-2.3,2.3-2.3s2.3,1,2.3,2.3v0.3H208z M209.7,35.1c-0.9,0-1.6,0.6-1.7,1.5h3.5
		C211.4,35.7,210.6,35,209.7,35.1z"/>
	<path class="st13" d="M217.1,37h-2.9v2h-0.5v-4.3h0.5v1.8h2.9v-1.8h0.5V39h-0.5V37z"/>
	<path class="st13" d="M222.9,35.2L222.9,35.2l-2.7,3.7h-0.8v-4.3h0.5v3.8l0,0l2.7-3.7h0.8V39h-0.5V35.2z"/>
	<path class="st13" d="M228.6,35.2h-1.8V39h-0.5v-3.8h-1.8v-0.5h4.1V35.2z"/>
	<path class="st13" d="M229.9,38.5h-0.6l1.2-1.6l-1.2-1.6h0.6l1.2,1.6L229.9,38.5z M231.4,38.5h-0.6l1.2-1.6l-1.2-1.6h0.6l1.2,1.6
		L231.4,38.5z"/>
</g>
</svg>
