<?xml version="1.0" encoding="utf-8"?>
<!-- Generator: Adobe Illustrator 23.1.0, SVG Export Plug-In . SVG Version: 6.00 Build 0)  -->
<svg version="1.1" id="Слой_1" xmlns="http://www.w3.org/2000/svg" xmlns:xlink="http://www.w3.org/1999/xlink" x="0px" y="0px"
	 viewBox="0 0 319 589.5" style="enable-background:new 0 0 319 589.5;" xml:space="preserve">
<style type="text/css">
	.st0{fill:url(#SVGID_1_);}
	.st1{fill:#FFFFFF;}
	.st2{fill:none;}
	.st3{fill:#666666;}
	.st4{fill:#006ACD;}
	.st5{fill:#B3B3B3;}
	.st6{fill:#999999;}
	.st7{fill:#00A0F4;}
	.st8{fill:#E5E5E5;}
	.st9{fill:#008BF4;}
	.st10{clip-path:url(#SVGID_3_);}
	.st11{clip-path:url(#SVGID_5_);}
	.st12{clip-path:url(#SVGID_7_);}
	.st13{fill:url(#SVGID_8_);}
	.st14{clip-path:url(#SVGID_10_);}
	.st15{fill:#F88213;}
	.st16{fill:url(#SVGID-2_1_);}
	.st17{fill:url(#SVGID_11_);}
</style>
<title>screen-table</title>
<linearGradient id="SVGID_1_" gradientUnits="userSpaceOnUse" x1="302.37" y1="348.5103" x2="-17.62" y2="351.3703" gradientTransform="matrix(1 0 0 1 14.92 -214)">
	<stop  offset="0" style="stop-color:#0055CF"/>
	<stop  offset="1" style="stop-color:#00BBEE"/>
</linearGradient>
<path class="st0" d="M0,0v168.9C103.2,196,140.3,272,300.2,272c6.8,0,13.4-0.3,19.8-0.9V0H0z"/>
<image style="overflow:visible;opacity:0.32;enable-background:new    ;" width="351" height="564" xlink:href="B334F672.png"  transform="matrix(1 0 0 1 -14.92 26.64)">
</image>
<path class="st1" d="M287.3,550.6H33.2c-4.6,0-8.3-3.7-8.3-8.3c0,0,0,0,0,0V73.7c0-4.6,3.7-8.3,8.3-8.3c0,0,0,0,0,0h254.1
	c4.6,0,8.3,3.7,8.3,8.3c0,0,0,0,0,0v468.6C295.6,546.9,291.9,550.6,287.3,550.6C287.3,550.6,287.3,550.6,287.3,550.6z"/>
<path class="st1" d="M149.1,23c0-0.5-0.2-0.8-0.5-0.8c-0.8,0-1.9,2.4-2.5,5.2C147.8,26.5,148.9,24.9,149.1,23 M128.5,46.1
	c0,0.6,0.2,1.7,0.9,1.7c2.8,0,6.5-7.6,6.6-13.6C131,37.6,128.5,42.6,128.5,46.1 M154.3,20.3h3l-1.5,5.2l2.3-0.6l1.3-4.6h2.8
	l-2.3,7.8l3.7-5l0.8-2.8h2.6l-1.6,5.5c-0.1,0.2-0.4,1.4-0.1,1.4s1-1.3,1.8-2.7c0.8-1.4,1.4-2.8,2-4.2h2.7l-1.3,4.7l3.4-4.7h23.8
	l-57.5,24.8l1.1-3.9l45.1-18.6h-8.8l-0.9,2.9l-2.8,0.9l1.1-3.8h-1.4l-3.9,5.1l-2.4,0.8c0.1-1.2,0.3-2.5,0.6-3.7l-1.1,2.1
	c-0.9,1.7-1.7,3-3,3c-1,0-1.5-0.9-1.5-2.2c0-0.5,0.1-0.9,0.2-1.4l-3.7,4.9l-3,1l1.5-5.4l-2.3,0.6l-1.6,5.6l-3.3,1.1l1.5-5.2
	l-3.3,4.3c-1.4,1.8-2.9,2.8-4,2.8c-2.2,0-2.5-3.7-2.3-5.2c-1.2,0.6-1.7,0.8-2.1,1c0.5,8-7.5,19-12.7,19c-1.6,0-2.8-1.2-2.8-4
	c0-4.1,3.1-10.2,11.3-14.9c-0.1-1.5-0.8-2.9-1.8-3.9v-0.2c2.8-2.2,4.9-4.6,4.9-6.8c0-0.8-0.6-1.4-1.4-1.4c-0.1,0-0.1,0-0.2,0
	c-1.6,0-3.6,1.9-4.7,3.6h-0.6l0.9-3.1c1.8-2.3,4.4-3.7,7.3-3.8c1.9,0,3.5,0.7,3.5,3c0,2.7-2.3,5.5-5.8,7.6c0.8,0.9,1.3,1.9,1.6,3.1
	c0.8-0.4,1.7-0.9,2.6-1.3c1-4.9,4.5-8.7,7.5-8.7c1.1-0.2,2.1,0.6,2.3,1.7c0,0.2,0,0.4,0,0.5c0,2.9-2.7,5.2-6.5,7.2
	c-0.1,0.5-0.1,1-0.1,1.5c0,1.3,0.3,2,0.8,2c0.3,0,0.7-0.3,1.2-0.8l5.1-6.1L154.3,20.3"/>
<rect x="46.3" y="161.8" class="st2" width="226.3" height="69.8"/>
<path class="st3" d="M56.3,162.5c-0.3,0-0.7,0.1-1,0.2c-0.3,0.1-0.6,0.3-0.8,0.6c-0.2,0.3-0.4,0.7-0.6,1c-0.2,0.4-0.2,0.8-0.2,1.2
	c0,0.4,0.1,0.8,0.2,1.2c0.1,0.4,0.3,0.7,0.6,0.9c0.2,0.3,0.5,0.5,0.8,0.6c0.3,0.1,0.7,0.2,1,0.2c0.3,0,0.5,0,0.8-0.1
	c0.3-0.1,0.5-0.2,0.7-0.4c0.2-0.2,0.4-0.4,0.5-0.6c0.1-0.2,0.2-0.5,0.3-0.7h1c-0.1,0.3-0.2,0.7-0.4,1c-0.1,0.3-0.4,0.6-0.7,0.8
	l-0.9,0.6c-0.4,0.1-0.8,0.2-1.2,0.2c-0.5,0-0.9-0.1-1.3-0.3c-0.4-0.2-0.8-0.5-1.1-0.8c-0.3-0.4-0.6-0.8-0.8-1.2
	c-0.2-0.5-0.3-1-0.3-1.5c0-0.5,0.1-1,0.3-1.5c0.2-0.4,0.5-0.9,0.8-1.2c0.3-0.3,0.7-0.6,1.1-0.8c0.4-0.2,0.8-0.3,1.3-0.3
	c0.4,0,0.7,0.1,1.1,0.2c0.3,0.1,0.7,0.3,0.9,0.6c0.3,0.2,0.5,0.5,0.7,0.8c0.2,0.3,0.3,0.6,0.4,1h-1c-0.1-0.2-0.2-0.5-0.3-0.7
	c-0.1-0.2-0.3-0.4-0.5-0.6c-0.2-0.2-0.4-0.3-0.6-0.4C56.8,162.6,56.6,162.6,56.3,162.5z"/>
<path class="st3" d="M64.8,163.9v5.4h-0.9v-4.6h-2l-0.2,2.9c0,0.5-0.2,1-0.5,1.3c-0.3,0.3-0.7,0.5-1.1,0.5h-0.3v-0.8h0.1
	c0.6,0,0.9-0.3,1-1l0.3-3.7L64.8,163.9z"/>
<path class="st3" d="M70.8,167.9l-0.3,0.6c-0.1,0.2-0.3,0.3-0.5,0.5s-0.4,0.2-0.6,0.3c-0.3,0.1-0.5,0.1-0.8,0.1
	c-0.3,0-0.7-0.1-1-0.2c-0.3-0.1-0.6-0.3-0.8-0.6c-0.2-0.3-0.4-0.6-0.5-0.9c-0.3-0.7-0.3-1.5,0-2.2c0.1-0.3,0.3-0.6,0.5-0.9
	c0.2-0.2,0.5-0.4,0.8-0.6c0.3-0.2,0.6-0.2,0.9-0.2c0.3,0,0.6,0.1,0.9,0.2c0.3,0.1,0.6,0.3,0.8,0.5c0.3,0.2,0.5,0.5,0.5,0.9
	c0.1,0.4,0.2,0.7,0.2,1.1v0.4H67c0,0.2,0.1,0.4,0.2,0.6c0.1,0.2,0.2,0.4,0.4,0.5c0.1,0.1,0.3,0.2,0.5,0.3c0.2,0.1,0.4,0.1,0.6,0.1
	c0.2,0,0.3,0,0.5-0.1c0.2-0.1,0.3-0.1,0.4-0.2s0.2-0.1,0.3-0.2l0.2-0.2h0.7L70.8,167.9z M68.5,164.7c-0.2,0-0.4,0-0.5,0.1
	c-0.2,0.1-0.3,0.2-0.4,0.3c-0.2,0.1-0.3,0.3-0.3,0.5c0,0.2-0.3,0.4-0.3,0.7h2.9c0-0.4-0.2-0.8-0.5-1.1
	C69.2,164.9,68.9,164.7,68.5,164.7z"/>
<path class="st3" d="M77,168.5v2.2h-0.8v-1.3h-4v1.3h-0.8v-2.2h0.3l0.3-0.3c0.1-0.1,0.2-0.2,0.2-0.4c0-0.2,0.1-0.3,0.1-0.5l0.4-3.4
	h3.5v4.6L77,168.5z M73.2,167.3c0,0.2-0.1,0.3-0.1,0.5c0,0.2-0.1,0.3-0.2,0.4c-0.1,0.1-0.2,0.2-0.2,0.3h2.6v-3.7h-1.8L73.2,167.3z"
	/>
<path class="st3" d="M82.5,163.9v5.4h-0.9v-4l-2.8,4H78v-5.4h0.9v4l2.8-4H82.5z"/>
<path class="st3" d="M83.5,163.9h4.3v0.8h-1.7v4.6h-0.9v-4.6h-1.7V163.9z"/>
<path class="st3" d="M93.1,167.9l-0.3,0.6c-0.1,0.2-0.3,0.3-0.5,0.5s-0.4,0.2-0.6,0.3c-0.3,0.1-0.5,0.1-0.8,0.1
	c-0.3,0-0.7-0.1-1-0.2c-0.3-0.1-0.6-0.3-0.8-0.6c-0.2-0.3-0.4-0.6-0.5-0.9c-0.3-0.7-0.3-1.5,0-2.2c0.1-0.3,0.3-0.6,0.5-0.9
	c0.2-0.2,0.5-0.4,0.8-0.6c0.3-0.2,0.6-0.2,0.9-0.2c0.3,0,0.6,0.1,0.9,0.2c0.3,0.1,0.6,0.3,0.8,0.5c0.3,0.2,0.5,0.5,0.5,0.9
	c0.1,0.4,0.2,0.7,0.2,1.1v0.4h-3.8c0,0.2,0.1,0.4,0.2,0.6c0.1,0.2,0.2,0.4,0.4,0.5c0.1,0.1,0.3,0.2,0.5,0.3c0.2,0.1,0.4,0.1,0.6,0.1
	c0.2,0,0.3,0,0.5-0.1c0.2-0.1,0.3-0.1,0.4-0.2s0.2-0.1,0.3-0.2l0.2-0.2h0.6V167.9z M90.8,164.7c-0.2,0-0.4,0-0.5,0.1
	c-0.2,0.1-0.3,0.2-0.4,0.3c-0.2,0.1-0.3,0.3-0.3,0.5c0,0.2-0.2,0.4-0.2,0.6h2.9c0-0.4-0.2-0.8-0.5-1.1
	C91.5,164.8,91.2,164.7,90.8,164.7z"/>
<path class="st3" d="M99.6,166.5c0.1,0.1,0.3,0.2,0.4,0.3c0.1,0.1,0.2,0.2,0.3,0.4c0.1,0.2,0.1,0.3,0.1,0.5c0,0.2,0,0.4-0.1,0.6
	c-0.1,0.2-0.2,0.4-0.4,0.5c-0.2,0.1-0.4,0.3-0.6,0.3s-0.5,0.1-0.8,0.1c-0.5,0-1-0.2-1.4-0.5c-0.3-0.3-0.5-0.7-0.6-1.2h0.9
	c0,0.2,0.1,0.4,0.3,0.6c0.2,0.2,0.4,0.2,0.8,0.2c0.2,0,0.5-0.1,0.7-0.2c0.3-0.2,0.4-0.5,0.2-0.8c-0.1-0.1-0.1-0.2-0.2-0.2
	c-0.2-0.1-0.5-0.2-0.7-0.2H98v-0.8h0.5c0.2,0,0.4-0.1,0.6-0.2c0.2-0.1,0.2-0.3,0.2-0.5c0-0.2-0.1-0.4-0.2-0.5
	c-0.2-0.1-0.4-0.2-0.6-0.2c-0.2,0-0.5,0.1-0.7,0.2c-0.1,0.2-0.2,0.3-0.3,0.5h-0.9c0-0.5,0.2-0.9,0.5-1.2c0.4-0.3,0.9-0.5,1.4-0.5
	c0.2,0,0.5,0,0.7,0.1l0.6,0.3c0.2,0.1,0.3,0.3,0.4,0.5c0.1,0.2,0.1,0.4,0.1,0.6c0,0.2,0,0.4-0.1,0.5c-0.1,0.1-0.1,0.3-0.2,0.4
	C99.8,166.4,99.7,166.5,99.6,166.5z"/>
<path class="st3" d="M103.6,163.8c0.3,0,0.6,0.1,0.8,0.2c0.2,0.1,0.5,0.2,0.6,0.4c0.2,0.2,0.3,0.4,0.4,0.6c0.1,0.2,0.2,0.5,0.1,0.7
	v3.6H105l-0.2-0.6c-0.1,0.1-0.3,0.2-0.4,0.3c-0.1,0.1-0.3,0.2-0.5,0.2c-0.2,0-0.4,0.1-0.7,0.1c-0.2,0-0.5,0-0.7-0.1
	c-0.2-0.1-0.4-0.2-0.6-0.4c-0.2-0.1-0.3-0.3-0.4-0.5c-0.1-0.2-0.1-0.4-0.1-0.6c0-0.2,0.1-0.5,0.2-0.7c0.1-0.2,0.3-0.4,0.5-0.6
	c0.3-0.2,0.6-0.3,1-0.4c0.6-0.1,1.1-0.1,1.7-0.1v-0.3c0-0.3-0.1-0.5-0.3-0.7c-0.2-0.2-0.5-0.3-0.8-0.3c-0.2,0-0.5,0.1-0.7,0.2
	c-0.2,0.1-0.3,0.4-0.3,0.6h-1c0-0.2,0.1-0.4,0.2-0.6c0.1-0.2,0.2-0.4,0.4-0.5c0.2-0.1,0.4-0.3,0.6-0.3
	C103.1,163.9,103.4,163.8,103.6,163.8z M103.2,168.5c0.2,0,0.5,0,0.7-0.1c0.2-0.1,0.3-0.2,0.5-0.3c0.1-0.1,0.2-0.3,0.3-0.4
	c0.1-0.1,0.1-0.3,0.1-0.5v-0.4c-0.4,0-0.9,0-1.3,0.1c-0.3,0.1-0.6,0.1-0.8,0.2c-0.2,0.1-0.3,0.2-0.4,0.3c-0.1,0.1-0.1,0.3-0.1,0.4
	c0,0.2,0.1,0.3,0.2,0.5C102.6,168.5,102.9,168.5,103.2,168.5z"/>
<path class="st3" d="M111.9,164.7c-0.2,0-0.4,0-0.6,0.1c-0.2,0.1-0.4,0.2-0.5,0.4c-0.1,0.2-0.3,0.4-0.4,0.6c-0.1,0.5-0.1,1.1,0,1.6
	c0.1,0.2,0.2,0.4,0.4,0.6c0.1,0.2,0.3,0.3,0.5,0.4c0.2,0.1,0.4,0.1,0.6,0.1c0.2,0,0.3,0,0.5-0.1c0.2-0.1,0.3-0.1,0.4-0.3
	c0.1-0.1,0.2-0.2,0.3-0.4c0.1-0.1,0.2-0.2,0.2-0.4h0.9c-0.1,0.3-0.2,0.5-0.3,0.8s-0.3,0.4-0.5,0.6c-0.2,0.2-0.4,0.3-0.7,0.4
	c-0.3,0.1-0.5,0.2-0.8,0.2c-0.3,0-0.7-0.1-1-0.2c-0.3-0.1-0.6-0.3-0.8-0.6c-0.2-0.3-0.4-0.6-0.5-0.9c-0.3-0.7-0.3-1.5,0-2.2
	c0.1-0.3,0.3-0.6,0.5-0.9c0.2-0.2,0.5-0.4,0.8-0.6c0.3-0.2,0.7-0.2,1-0.2c0.3,0,0.6,0.1,0.8,0.2c0.3,0.1,0.5,0.2,0.7,0.4
	c0.2,0.2,0.4,0.4,0.5,0.6c0.1,0.3,0.2,0.5,0.3,0.8h-0.9c0-0.2-0.1-0.3-0.2-0.4c-0.1-0.1-0.2-0.3-0.3-0.4s-0.3-0.2-0.4-0.3
	C112.3,164.7,112.1,164.7,111.9,164.7z"/>
<path class="st3" d="M118.7,166.5c0.3,0.2,0.5,0.4,0.7,0.7c0.1,0.2,0.1,0.4,0.1,0.6c0,0.4-0.1,0.8-0.4,1.1c-0.3,0.3-0.7,0.4-1.1,0.4
	h-2.6v-5.4h2.4c0.2,0,0.4,0,0.6,0.1c0.4,0.1,0.7,0.4,0.8,0.8c0.1,0.2,0.1,0.4,0.1,0.6c0,0.2,0,0.4-0.1,0.5c-0.1,0.1-0.1,0.2-0.2,0.3
	L118.7,166.5z M116.3,164.8v1.4h1.4c0.2,0,0.4-0.1,0.6-0.2c0.2-0.1,0.2-0.3,0.2-0.5c0-0.2-0.1-0.4-0.2-0.5c-0.2-0.1-0.4-0.2-0.6-0.2
	H116.3z M117.9,168.5c0.4,0,0.7-0.3,0.7-0.7c0,0,0,0,0,0c0-0.1,0-0.2-0.1-0.3c-0.1-0.1-0.1-0.2-0.2-0.2s-0.2-0.1-0.3-0.2
	c-0.1-0.1-0.2-0.1-0.3-0.1h-1.6v1.5H117.9z"/>
<path class="st3" d="M125.5,166.6c0,0.4-0.1,0.7-0.2,1.1c-0.1,0.3-0.3,0.6-0.5,0.9c-0.2,0.3-0.5,0.5-0.8,0.6c-0.3,0.2-0.7,0.2-1,0.2
	c-0.3,0-0.7-0.1-1-0.2c-0.3-0.1-0.6-0.3-0.8-0.6c-0.2-0.3-0.4-0.6-0.5-0.9c-0.3-0.7-0.3-1.5,0-2.2c0.1-0.3,0.3-0.6,0.5-0.9
	c0.2-0.2,0.5-0.4,0.8-0.6c0.3-0.2,0.7-0.2,1-0.2c0.3,0,0.7,0.1,1,0.2c0.3,0.1,0.6,0.3,0.8,0.6c0.2,0.3,0.4,0.6,0.5,0.9
	C125.4,165.9,125.5,166.2,125.5,166.6z M121.3,166.6c0,0.3,0,0.5,0.1,0.8c0.1,0.2,0.2,0.4,0.4,0.6c0.1,0.2,0.3,0.3,0.5,0.4
	c0.4,0.1,0.8,0.1,1.2,0c0.2-0.1,0.4-0.2,0.5-0.4c0.1-0.2,0.3-0.4,0.4-0.6c0.1-0.5,0.1-1.1,0-1.6c-0.1-0.2-0.2-0.4-0.4-0.6
	c-0.1-0.2-0.3-0.3-0.5-0.4c-0.4-0.1-0.8-0.1-1.2,0c-0.2,0.1-0.4,0.2-0.5,0.4c-0.1,0.2-0.3,0.4-0.4,0.6S121.3,166.3,121.3,166.6z"/>
<path class="st3" d="M131.2,163.9v5.4h-0.9v-4l-2.8,4h-0.9v-5.4h0.9v4l2.8-4H131.2z"/>
<path class="st3" d="M135.3,169.3l-1.6-3.4v3.4h-0.9v-5.4h0.8l2,4.2l2-4.2h0.8v5.4h-0.9V166l-1.6,3.4L135.3,169.3L135.3,169.3z"/>
<path class="st3" d="M147.1,163.9v5.4h-0.9v-4.6h-2.8v4.6h-0.9v-5.4H147.1z"/>
<path class="st3" d="M153.4,166.6c0,0.4-0.1,0.7-0.2,1.1c-0.1,0.3-0.3,0.6-0.5,0.9c-0.2,0.3-0.5,0.5-0.8,0.6c-0.3,0.2-0.7,0.2-1,0.2
	c-0.3,0-0.7-0.1-1-0.2c-0.3-0.1-0.6-0.3-0.8-0.6c-0.2-0.3-0.4-0.6-0.5-0.9c-0.3-0.7-0.3-1.5,0-2.2c0.1-0.3,0.3-0.6,0.5-0.9
	c0.2-0.2,0.5-0.4,0.8-0.6c0.3-0.2,0.7-0.2,1-0.2c0.3,0,0.7,0.1,1,0.2c0.3,0.1,0.6,0.3,0.8,0.6c0.2,0.3,0.4,0.6,0.5,0.9
	C153.3,165.9,153.4,166.2,153.4,166.6z M149.2,166.6c0,0.3,0,0.5,0.1,0.8c0.1,0.2,0.2,0.4,0.4,0.6c0.1,0.2,0.3,0.3,0.5,0.4
	c0.4,0.1,0.8,0.1,1.2,0c0.2-0.1,0.4-0.2,0.5-0.4c0.1-0.2,0.3-0.4,0.4-0.6c0.1-0.5,0.1-1.1,0-1.6c-0.1-0.2-0.2-0.4-0.4-0.6
	c-0.1-0.2-0.3-0.3-0.5-0.4c-0.4-0.1-0.8-0.1-1.2,0c-0.2,0.1-0.4,0.2-0.5,0.4c-0.1,0.2-0.3,0.4-0.4,0.6S149.2,166.3,149.2,166.6z"/>
<path class="st3" d="M158.8,163.9v5.4h-0.9v-4.6h-2l-0.2,2.9c0,0.5-0.2,1-0.5,1.3c-0.3,0.3-0.7,0.5-1.1,0.5h-0.3v-0.8h0.1
	c0.6,0,0.9-0.3,1-1l0.3-3.7L158.8,163.9z"/>
<path class="st3" d="M165,166.6c0,0.4-0.1,0.7-0.2,1.1c-0.1,0.3-0.3,0.6-0.5,0.9c-0.2,0.3-0.5,0.5-0.8,0.6c-0.3,0.2-0.7,0.2-1,0.2
	c-0.3,0-0.7-0.1-1-0.2c-0.3-0.1-0.6-0.3-0.8-0.6c-0.2-0.3-0.4-0.6-0.5-0.9c-0.3-0.7-0.3-1.5,0-2.2c0.1-0.3,0.3-0.6,0.5-0.9
	c0.2-0.2,0.5-0.4,0.8-0.6c0.3-0.2,0.7-0.2,1-0.2c0.3,0,0.7,0.1,1,0.2c0.3,0.1,0.6,0.3,0.8,0.6c0.2,0.3,0.4,0.6,0.5,0.9
	C164.9,165.9,165,166.2,165,166.6z M160.9,166.6c0,0.3,0,0.5,0.1,0.8c0.1,0.2,0.2,0.4,0.4,0.6c0.1,0.2,0.3,0.3,0.5,0.4
	c0.4,0.1,0.8,0.1,1.2,0c0.2-0.1,0.4-0.2,0.5-0.4c0.1-0.2,0.3-0.4,0.4-0.6c0.1-0.5,0.1-1.1,0-1.6c-0.1-0.2-0.2-0.4-0.4-0.6
	c-0.1-0.2-0.3-0.3-0.5-0.4c-0.4-0.1-0.8-0.1-1.2,0c-0.2,0.1-0.4,0.2-0.5,0.4c-0.1,0.2-0.3,0.4-0.4,0.6
	C160.9,166.1,160.9,166.3,160.9,166.6z"/>
<path class="st3" d="M165.4,169.3l2.2-2.9l-1.9-2.5h1l1.9,2.6l-2.1,2.8L165.4,169.3z M168.5,163.9h0.9v5.4h-0.9V163.9z M171.5,169.3
	l-2.1-2.8l1.9-2.6h1l-1.9,2.5l2.2,2.9L171.5,169.3z"/>
<path class="st3" d="M177.7,167.9l-0.3,0.6c-0.1,0.2-0.3,0.3-0.5,0.5s-0.4,0.2-0.6,0.3c-0.3,0.1-0.5,0.1-0.8,0.1
	c-0.3,0-0.7-0.1-1-0.2c-0.3-0.1-0.6-0.3-0.8-0.6c-0.2-0.3-0.4-0.6-0.5-0.9c-0.3-0.7-0.3-1.5,0-2.2c0.1-0.3,0.3-0.6,0.5-0.9
	c0.2-0.2,0.5-0.4,0.8-0.6c0.3-0.2,0.6-0.2,0.9-0.2c0.3,0,0.6,0.1,0.9,0.2c0.3,0.1,0.6,0.3,0.8,0.5c0.3,0.2,0.5,0.5,0.5,0.9
	c0.1,0.4,0.2,0.7,0.2,1.1v0.4H174c0,0.2,0.1,0.4,0.2,0.6c0.1,0.2,0.2,0.4,0.4,0.5c0.1,0.1,0.3,0.2,0.5,0.3c0.2,0.1,0.4,0.1,0.6,0.1
	c0.2,0,0.3,0,0.5-0.1c0.2-0.1,0.3-0.1,0.4-0.2s0.2-0.1,0.3-0.2l0.2-0.2h0.6V167.9z M175.4,164.7c-0.2,0-0.4,0-0.5,0.1
	c-0.2,0.1-0.3,0.2-0.4,0.3c-0.2,0.1-0.3,0.3-0.3,0.5c0,0.2-0.2,0.4-0.2,0.6h2.9c0-0.4-0.2-0.8-0.5-1.1
	C176.1,164.8,175.8,164.7,175.4,164.7z"/>
<path class="st3" d="M183.6,163.9v5.4h-0.9V167h-2.8v2.3H179v-5.4h0.9v2.2h2.8v-2.2L183.6,163.9z"/>
<path class="st3" d="M189.7,163.9v5.4h-0.9v-4l-2.8,4h-0.9v-5.4h0.9v4l2.8-4H189.7z"/>
<path class="st3" d="M195.6,167.9l-0.3,0.6c-0.1,0.2-0.3,0.3-0.5,0.5s-0.4,0.2-0.6,0.3c-0.3,0.1-0.5,0.1-0.8,0.1
	c-0.3,0-0.7-0.1-1-0.2c-0.3-0.1-0.6-0.3-0.8-0.6c-0.2-0.3-0.4-0.6-0.5-0.9c-0.3-0.7-0.3-1.5,0-2.2c0.1-0.3,0.3-0.6,0.5-0.9
	c0.2-0.2,0.5-0.4,0.8-0.6c0.3-0.2,0.6-0.2,0.9-0.2c0.3,0,0.6,0.1,0.9,0.2c0.3,0.1,0.6,0.3,0.8,0.5c0.3,0.2,0.5,0.5,0.5,0.9
	c0.1,0.4,0.2,0.7,0.2,1.1v0.4h-3.8c0,0.2,0.1,0.4,0.2,0.6c0.1,0.2,0.2,0.4,0.4,0.5c0.1,0.1,0.3,0.2,0.5,0.3c0.2,0.1,0.4,0.1,0.6,0.1
	c0.2,0,0.3,0,0.5-0.1c0.2-0.1,0.3-0.1,0.4-0.2s0.2-0.1,0.3-0.2l0.2-0.2h0.6L195.6,167.9z M193.4,164.7c-0.2,0-0.4,0-0.5,0.1
	c-0.2,0.1-0.3,0.2-0.4,0.3c-0.2,0.1-0.3,0.3-0.3,0.5c0,0.2-0.2,0.4-0.2,0.6h2.9C194.9,165.4,194.2,164.7,193.4,164.7L193.4,164.7z"
	/>
<path class="st3" d="M199.5,169.3l-1.6-3.4v3.4H197v-5.4h0.8l2,4.2l2-4.2h0.8v5.4h-0.9V166l-1.6,3.4L199.5,169.3L199.5,169.3z"/>
<path class="st3" d="M210,166.5c0.3,0.2,0.5,0.4,0.7,0.7c0.1,0.2,0.1,0.4,0.1,0.6c0,0.4-0.1,0.8-0.4,1.1c-0.3,0.3-0.7,0.4-1.1,0.4
	h-2.6v-5.4h2.4c0.2,0,0.4,0,0.6,0.1c0.4,0.1,0.7,0.4,0.8,0.8c0.1,0.2,0.1,0.4,0.1,0.6c0,0.2,0,0.4-0.1,0.5c-0.1,0.1-0.1,0.2-0.2,0.3
	S210.1,166.4,210,166.5z M207.6,164.8v1.4h1.4c0.2,0,0.4-0.1,0.6-0.2c0.2-0.1,0.2-0.3,0.2-0.5c0-0.2-0.1-0.4-0.2-0.5
	c-0.2-0.1-0.4-0.2-0.6-0.2H207.6z M209.2,168.5c0.4,0,0.7-0.3,0.7-0.7c0,0,0,0,0,0c0-0.1,0-0.2-0.1-0.3c-0.1-0.1-0.1-0.2-0.2-0.2
	s-0.2-0.1-0.3-0.2c-0.1-0.1-0.2-0.1-0.3-0.1h-1.6v1.5H209.2z"/>
<path class="st3" d="M214.1,163.9h4.3v0.8h-1.7v4.6h-0.9v-4.6h-1.7L214.1,163.9L214.1,163.9z"/>
<path class="st3" d="M218.7,163.9h1l1.6,4.1l1.6-4.1h1l-2.3,5.9c-0.1,0.4-0.4,0.9-0.7,1.2c-0.2,0.2-0.6,0.3-0.9,0.3h-0.3v-0.7
	c0.4,0,0.8-0.3,0.9-0.7l0.2-0.6L218.7,163.9z"/>
<path class="st3" d="M225.6,164.5c0.1-0.1,0.2-0.2,0.4-0.3c0.1-0.1,0.3-0.2,0.5-0.2c0.2,0,0.4-0.1,0.7-0.1c0.3,0,0.7,0.1,1,0.2
	c0.3,0.1,0.6,0.3,0.8,0.6c0.2,0.3,0.4,0.6,0.5,0.9c0.3,0.7,0.3,1.5,0,2.2c-0.1,0.3-0.3,0.6-0.5,0.9c-0.2,0.3-0.5,0.5-0.8,0.6
	c-0.3,0.2-0.7,0.2-1,0.2c-0.2,0-0.5,0-0.7-0.1c-0.2-0.1-0.3-0.2-0.5-0.2c-0.2-0.1-0.3-0.2-0.4-0.4v2.6h-0.9v-7.3h0.7L225.6,164.5z
	 M225.5,166.6c0,0.3,0,0.5,0.1,0.8c0.1,0.2,0.2,0.4,0.4,0.6c0.1,0.2,0.3,0.3,0.5,0.4c0.4,0.1,0.8,0.1,1.2,0c0.2-0.1,0.4-0.2,0.5-0.4
	c0.2-0.2,0.3-0.4,0.4-0.6c0.1-0.5,0.1-1.1,0-1.6c-0.1-0.2-0.2-0.4-0.4-0.6c-0.1-0.2-0.3-0.3-0.5-0.4c-0.4-0.1-0.8-0.1-1.2,0
	c-0.2,0.1-0.4,0.2-0.5,0.4c-0.1,0.2-0.3,0.4-0.4,0.6C225.5,166.1,225.5,166.3,225.5,166.6z"/>
<path class="st3" d="M235.5,163.9v5.4h-0.9V167h-2.8v2.3h-0.9v-5.4h0.9v2.2h2.8v-2.2L235.5,163.9z"/>
<path class="st3" d="M241.6,163.9v5.4h-0.9v-4l-2.8,4H237v-5.4h0.9v4l2.8-4H241.6z"/>
<path class="st3" d="M244.1,164.5c0.1-0.1,0.2-0.2,0.4-0.3c0.1-0.1,0.3-0.2,0.5-0.2c0.2,0,0.4-0.1,0.7-0.1c0.3,0,0.7,0.1,1,0.2
	c0.3,0.1,0.6,0.3,0.8,0.6c0.2,0.3,0.4,0.6,0.5,0.9c0.3,0.7,0.3,1.5,0,2.2c-0.1,0.3-0.3,0.6-0.5,0.9c-0.2,0.3-0.5,0.5-0.8,0.6
	c-0.3,0.2-0.7,0.2-1,0.2c-0.2,0-0.5,0-0.7-0.1c-0.2-0.1-0.3-0.2-0.5-0.2c-0.2-0.1-0.3-0.2-0.4-0.4v2.6h-0.9v-7.3h0.7L244.1,164.5z
	 M244,166.6c0,0.3,0,0.5,0.1,0.8c0.1,0.2,0.2,0.4,0.4,0.6c0.1,0.2,0.3,0.3,0.5,0.4c0.4,0.1,0.8,0.1,1.2,0c0.2-0.1,0.4-0.2,0.5-0.4
	c0.2-0.2,0.3-0.4,0.4-0.6c0.1-0.5,0.1-1.1,0-1.6c-0.1-0.2-0.2-0.4-0.4-0.6c-0.1-0.2-0.3-0.3-0.5-0.4c-0.4-0.1-0.8-0.1-1.2,0
	c-0.2,0.1-0.4,0.2-0.5,0.4c-0.1,0.2-0.3,0.4-0.4,0.6C244,166.1,244,166.3,244,166.6z"/>
<path class="st3" d="M254,163.9v5.4h-0.9V167h-2.8v2.3h-0.9v-5.4h0.9v2.2h2.8v-2.2L254,163.9z"/>
<path class="st3" d="M260.2,166.6c0,0.4-0.1,0.7-0.2,1.1c-0.1,0.3-0.3,0.6-0.5,0.9c-0.2,0.3-0.5,0.5-0.8,0.6c-0.3,0.2-0.7,0.2-1,0.2
	c-0.3,0-0.7-0.1-1-0.2c-0.3-0.1-0.6-0.3-0.8-0.6c-0.2-0.3-0.4-0.6-0.5-0.9c-0.3-0.7-0.3-1.5,0-2.2c0.1-0.3,0.3-0.6,0.5-0.9
	c0.2-0.2,0.5-0.4,0.8-0.6c0.3-0.2,0.7-0.2,1-0.2c0.3,0,0.7,0.1,1,0.2c0.3,0.1,0.6,0.3,0.8,0.6c0.2,0.3,0.4,0.6,0.5,0.9
	C260.1,165.9,260.2,166.2,260.2,166.6z M256.1,166.6c0,0.3,0,0.5,0.1,0.8c0.1,0.2,0.2,0.4,0.4,0.6c0.1,0.2,0.3,0.3,0.5,0.4
	c0.4,0.1,0.8,0.1,1.2,0c0.2-0.1,0.4-0.2,0.5-0.4c0.1-0.2,0.3-0.4,0.4-0.6c0.1-0.5,0.1-1.1,0-1.6c-0.1-0.2-0.2-0.4-0.4-0.6
	c-0.1-0.2-0.3-0.3-0.5-0.4c-0.4-0.1-0.8-0.1-1.2,0c-0.2,0.1-0.4,0.2-0.5,0.4c-0.1,0.2-0.3,0.4-0.4,0.6
	C256.1,166.1,256.1,166.3,256.1,166.6z"/>
<path class="st3" d="M266,163.9v5.4h-0.9v-4l-2.8,4h-0.9v-5.4h0.9v4l2.8-4H266z M263.7,163.1c-0.4,0-0.7-0.1-1-0.4
	c-0.2-0.3-0.4-0.6-0.5-0.9h0.7c0,0.4,0.3,0.7,0.7,0.7c0,0,0,0,0,0c0.2,0,0.3-0.1,0.5-0.2s0.2-0.3,0.2-0.5h0.7c0,0.4-0.2,0.7-0.5,0.9
	C264.3,163,264,163.1,263.7,163.1L263.7,163.1z"/>
<path class="st3" d="M63.7,178.3H68v0.8h-1.7v4.6h-0.9v-4.6h-1.7V178.3z"/>
<path class="st3" d="M71,178.2c0.3,0,0.6,0.1,0.8,0.2c0.2,0.1,0.5,0.2,0.6,0.4c0.2,0.2,0.3,0.4,0.4,0.6c0.1,0.2,0.2,0.5,0.1,0.7v3.6
	h-0.7l-0.2-0.6c-0.1,0.1-0.3,0.2-0.4,0.3c-0.1,0.1-0.3,0.2-0.5,0.2c-0.2,0-0.4,0.1-0.7,0.1c-0.2,0-0.5,0-0.7-0.1
	c-0.2-0.1-0.4-0.2-0.6-0.4c-0.2-0.1-0.3-0.3-0.4-0.5c-0.1-0.2-0.1-0.4-0.1-0.6c0-0.2,0.1-0.5,0.2-0.7c0.1-0.2,0.3-0.4,0.5-0.6
	c0.3-0.2,0.6-0.3,1-0.4c0.6-0.1,1.1-0.1,1.7-0.1V180c0-0.3-0.1-0.5-0.3-0.7c-0.2-0.2-0.5-0.3-0.8-0.3c-0.2,0-0.5,0.1-0.7,0.2
	c-0.2,0.1-0.3,0.4-0.3,0.6h-1c0-0.2,0.1-0.4,0.2-0.6c0.1-0.2,0.2-0.4,0.4-0.5c0.2-0.1,0.4-0.3,0.6-0.3
	C70.4,178.3,70.7,178.2,71,178.2z M70.5,182.9c0.2,0,0.5,0,0.7-0.1c0.2-0.1,0.3-0.2,0.5-0.3c0.1-0.1,0.2-0.3,0.3-0.4
	c0.1-0.1,0.1-0.3,0.1-0.5v-0.4c-0.4,0-0.9,0-1.3,0.1c-0.3,0.1-0.6,0.1-0.8,0.2c-0.2,0.1-0.3,0.2-0.4,0.3c-0.1,0.1-0.1,0.3-0.1,0.4
	c0,0.2,0.1,0.3,0.2,0.5C69.9,182.9,70.2,182.9,70.5,182.9z"/>
<path class="st3" d="M75.1,179.4c0.1-0.2,0.3-0.3,0.4-0.4c0.2-0.1,0.4-0.2,0.6-0.3c0.3-0.1,0.5-0.1,0.8-0.1c0.3,0,0.6,0.1,0.9,0.2
	c0.3,0.1,0.6,0.3,0.8,0.6c0.2,0.2,0.4,0.5,0.5,0.8c0.1,0.3,0.2,0.7,0.2,1c0,0.3-0.1,0.7-0.2,1c-0.1,0.3-0.3,0.6-0.5,0.8
	c-0.2,0.2-0.5,0.4-0.8,0.6c-0.3,0.2-0.7,0.2-1,0.2c-0.3,0-0.7-0.1-1-0.2c-0.3-0.1-0.6-0.3-0.8-0.6c-0.2-0.3-0.4-0.6-0.6-1
	c-0.2-0.4-0.2-0.9-0.2-1.4c0-0.7,0.1-1.3,0.2-2c0.1-0.5,0.3-1,0.7-1.3c0.4-0.4,0.9-0.6,1.4-0.8c0.7-0.2,1.4-0.3,2.1-0.3v0.8
	c-0.5,0-1.1,0.1-1.6,0.2c-0.4,0.1-0.8,0.3-1.1,0.5c-0.3,0.2-0.5,0.5-0.6,0.8C75.2,178.8,75.2,179,75.1,179.4z M76.9,182.9
	c0.2,0,0.4,0,0.6-0.1c0.2-0.1,0.4-0.2,0.5-0.4c0.1-0.2,0.3-0.3,0.3-0.6s0.1-0.5,0.1-0.7c0-0.2,0-0.5-0.1-0.7l-0.3-0.6
	c-0.1-0.2-0.3-0.3-0.5-0.4c-0.4-0.1-0.8-0.1-1.2,0c-0.2,0.1-0.4,0.2-0.5,0.4c-0.1,0.2-0.3,0.3-0.4,0.6c-0.1,0.2-0.1,0.5-0.1,0.7
	c0,0.2,0,0.5,0.1,0.7c0.1,0.2,0.2,0.4,0.4,0.6c0.1,0.2,0.3,0.3,0.5,0.4C76.5,182.9,76.7,182.9,76.9,182.9z"/>
<path class="st3" d="M84.7,178.3v5.4h-0.9v-4.6h-2l-0.2,2.9c0,0.5-0.2,1-0.5,1.3c-0.3,0.3-0.7,0.5-1.1,0.5h-0.3V183h0.1
	c0.6,0,0.9-0.3,1-1l0.3-3.7H84.7z"/>
<path class="st3" d="M90.8,178.3v5.4H90v-4l-2.8,4h-0.9v-5.4h0.9v4l2.8-4H90.8z"/>
<path class="st3" d="M97.6,182.9v2.2h-0.8v-1.3h-4.3v-5.4h0.9v4.6H96v-4.6h0.9v4.6h0.7V182.9z"/>
<path class="st3" d="M103,182.3l-0.3,0.6c-0.1,0.2-0.3,0.3-0.5,0.5s-0.4,0.2-0.6,0.3c-0.3,0.1-0.5,0.1-0.8,0.1c-0.3,0-0.7-0.1-1-0.2
	c-0.3-0.1-0.6-0.3-0.8-0.6c-0.2-0.3-0.4-0.6-0.5-0.9c-0.3-0.7-0.3-1.5,0-2.2c0.1-0.3,0.3-0.6,0.5-0.9c0.2-0.2,0.5-0.4,0.8-0.6
	c0.3-0.2,0.6-0.2,0.9-0.2c0.3,0,0.6,0.1,0.9,0.2c0.3,0.1,0.6,0.3,0.8,0.5c0.3,0.2,0.5,0.5,0.5,0.9c0.1,0.4,0.2,0.7,0.2,1.1v0.4h-3.8
	c0,0.2,0.1,0.4,0.2,0.6c0.1,0.2,0.2,0.4,0.4,0.5c0.1,0.1,0.3,0.2,0.5,0.3c0.2,0.1,0.4,0.1,0.6,0.1c0.2,0,0.3,0,0.5-0.1
	c0.2-0.1,0.3-0.1,0.4-0.2s0.2-0.1,0.3-0.2l0.2-0.2h0.6V182.3z M100.7,179.1c-0.2,0-0.4,0-0.5,0.1c-0.2,0.1-0.3,0.2-0.4,0.3
	c-0.2,0.1-0.3,0.3-0.3,0.5c0,0.2-0.2,0.4-0.2,0.6h2.9c0-0.4-0.2-0.8-0.5-1.1C101.4,179.2,101.1,179.1,100.7,179.1z"/>
<path class="st3" d="M104.5,183.8c-0.2,0-0.3-0.1-0.4-0.2c-0.2-0.2-0.2-0.6,0.1-0.8s0.6-0.2,0.8,0.1c0.1,0.1,0.1,0.2,0.1,0.3
	c0,0.3,0,0.5-0.1,0.8c-0.1,0.2-0.2,0.4-0.3,0.5c-0.1,0.2-0.3,0.3-0.5,0.4l-0.1-0.2c0.1-0.1,0.2-0.2,0.2-0.3s0.1-0.2,0.2-0.3
	S104.5,183.9,104.5,183.8z"/>
<path class="st3" d="M113.1,178.3v5.4h-0.9v-4.6h-2L110,182c0,0.5-0.2,1-0.5,1.3c-0.3,0.3-0.7,0.5-1.1,0.5h-0.3V183h0.1
	c0.6,0,0.9-0.3,1-1l0.3-3.7H113.1z"/>
<path class="st3" d="M119.2,178.3v5.4h-0.9v-4l-2.8,4h-0.9v-5.4h0.9v4l2.8-4H119.2z"/>
<path class="st3" d="M125.6,182.9v2.2h-0.8v-1.3h-4v1.3H120v-2.2h0.3l0.3-0.3c0.1-0.1,0.2-0.2,0.2-0.4c0-0.2,0.1-0.3,0.1-0.5
	l0.4-3.4h3.5v4.6L125.6,182.9z M121.9,181.7c0,0.2-0.1,0.3-0.1,0.5c0,0.2-0.1,0.3-0.2,0.4c-0.1,0.1-0.2,0.2-0.2,0.3h2.6v-3.7h-1.8
	L121.9,181.7z"/>
<path class="st3" d="M131,182.3l-0.3,0.6c-0.1,0.2-0.3,0.3-0.5,0.5s-0.4,0.2-0.6,0.3c-0.3,0.1-0.5,0.1-0.8,0.1c-0.3,0-0.7-0.1-1-0.2
	c-0.3-0.1-0.6-0.3-0.8-0.6c-0.2-0.3-0.4-0.6-0.5-0.9c-0.3-0.7-0.3-1.5,0-2.2c0.1-0.3,0.3-0.6,0.5-0.9c0.2-0.2,0.5-0.4,0.8-0.6
	c0.3-0.2,0.6-0.2,0.9-0.2c0.3,0,0.6,0.1,0.9,0.2c0.3,0.1,0.6,0.3,0.8,0.5c0.3,0.2,0.5,0.5,0.5,0.9c0.1,0.4,0.2,0.7,0.2,1.1v0.4h-3.8
	c0,0.2,0.1,0.4,0.2,0.6c0.1,0.2,0.2,0.4,0.4,0.5c0.1,0.1,0.3,0.2,0.5,0.3c0.2,0.1,0.4,0.1,0.6,0.1c0.2,0,0.3,0,0.5-0.1
	c0.2-0.1,0.3-0.1,0.4-0.2s0.2-0.1,0.3-0.2l0.2-0.2h0.6L131,182.3z M128.8,179.1c-0.2,0-0.4,0-0.5,0.1c-0.2,0.1-0.3,0.2-0.4,0.3
	c-0.2,0.1-0.3,0.3-0.3,0.5c0,0.2-0.2,0.4-0.2,0.6h2.9C130.3,179.8,129.6,179.1,128.8,179.1L128.8,179.1z"/>
<path class="st3" d="M133.2,178.9c0.1-0.1,0.2-0.2,0.4-0.3c0.1-0.1,0.3-0.2,0.5-0.2c0.2,0,0.4-0.1,0.7-0.1c0.3,0,0.7,0.1,1,0.2
	c0.3,0.1,0.6,0.3,0.8,0.6c0.2,0.3,0.4,0.6,0.5,0.9c0.3,0.7,0.3,1.5,0,2.2c-0.1,0.3-0.3,0.6-0.5,0.9c-0.2,0.3-0.5,0.5-0.8,0.6
	c-0.3,0.2-0.7,0.2-1,0.2c-0.2,0-0.5,0-0.7-0.1c-0.2-0.1-0.3-0.2-0.5-0.2c-0.2-0.1-0.3-0.2-0.4-0.4v2.6h-0.9v-7.3h0.7L133.2,178.9z
	 M133.1,181c0,0.3,0,0.5,0.1,0.8c0.1,0.2,0.2,0.4,0.4,0.6c0.1,0.2,0.3,0.3,0.5,0.4c0.4,0.1,0.8,0.1,1.2,0c0.2-0.1,0.4-0.2,0.5-0.4
	c0.2-0.2,0.3-0.4,0.4-0.6c0.1-0.5,0.1-1.1,0-1.6c-0.1-0.2-0.2-0.4-0.4-0.6c-0.1-0.2-0.3-0.3-0.5-0.4c-0.4-0.1-0.8-0.1-1.2,0
	c-0.2,0.1-0.4,0.2-0.5,0.4c-0.1,0.2-0.3,0.4-0.4,0.6S133.1,180.7,133.1,181L133.1,181z"/>
<path class="st3" d="M142.1,183.7h-0.9v-5.4h0.9V183.7z M144.3,183.7l-2.3-2.8l2-2.6h1l-2,2.5l2.3,2.9L144.3,183.7z"/>
<path class="st3" d="M150.8,181c0,0.4-0.1,0.7-0.2,1.1c-0.1,0.3-0.3,0.6-0.5,0.9c-0.2,0.3-0.5,0.5-0.8,0.6c-0.3,0.2-0.7,0.2-1,0.2
	c-0.3,0-0.7-0.1-1-0.2c-0.3-0.1-0.6-0.3-0.8-0.6c-0.2-0.3-0.4-0.6-0.5-0.9c-0.3-0.7-0.3-1.5,0-2.2c0.1-0.3,0.3-0.6,0.5-0.9
	c0.2-0.2,0.5-0.4,0.8-0.6c0.3-0.2,0.7-0.2,1-0.2c0.3,0,0.7,0.1,1,0.2c0.3,0.1,0.6,0.3,0.8,0.6c0.2,0.3,0.4,0.6,0.5,0.9
	C150.7,180.3,150.8,180.6,150.8,181z M146.7,181c0,0.3,0,0.5,0.1,0.8c0.1,0.2,0.2,0.4,0.4,0.6c0.1,0.2,0.3,0.3,0.5,0.4
	c0.4,0.1,0.8,0.1,1.2,0c0.2-0.1,0.4-0.2,0.5-0.4c0.1-0.2,0.3-0.4,0.4-0.6c0.1-0.5,0.1-1.1,0-1.6c-0.1-0.2-0.2-0.4-0.4-0.6
	c-0.1-0.2-0.3-0.3-0.5-0.4c-0.4-0.1-0.8-0.1-1.2,0c-0.2,0.1-0.4,0.2-0.5,0.4c-0.1,0.2-0.3,0.4-0.4,0.6
	C146.7,180.5,146.7,180.7,146.7,181z"/>
<path class="st3" d="M151.4,178.3h4.3v0.8H154v4.6h-0.9v-4.6h-1.7L151.4,178.3L151.4,178.3z"/>
<path class="st3" d="M161.3,181c0,0.4-0.1,0.7-0.2,1.1c-0.1,0.3-0.3,0.6-0.5,0.9c-0.2,0.3-0.5,0.5-0.8,0.6c-0.3,0.2-0.7,0.2-1,0.2
	c-0.3,0-0.7-0.1-1-0.2c-0.3-0.1-0.6-0.3-0.8-0.6c-0.2-0.3-0.4-0.6-0.5-0.9c-0.3-0.7-0.3-1.5,0-2.2c0.1-0.3,0.3-0.6,0.5-0.9
	c0.2-0.2,0.5-0.4,0.8-0.6c0.3-0.2,0.7-0.2,1-0.2c0.3,0,0.7,0.1,1,0.2c0.3,0.1,0.6,0.3,0.8,0.6c0.2,0.3,0.4,0.6,0.5,0.9
	C161.2,180.3,161.3,180.6,161.3,181z M157.2,181c0,0.3,0,0.5,0.1,0.8c0.1,0.2,0.2,0.4,0.4,0.6c0.1,0.2,0.3,0.3,0.5,0.4
	c0.4,0.1,0.8,0.1,1.2,0c0.2-0.1,0.4-0.2,0.5-0.4c0.1-0.2,0.3-0.4,0.4-0.6c0.1-0.5,0.1-1.1,0-1.6c-0.1-0.2-0.2-0.4-0.4-0.6
	c-0.1-0.2-0.3-0.3-0.5-0.4c-0.4-0.1-0.8-0.1-1.2,0c-0.2,0.1-0.4,0.2-0.5,0.4c-0.1,0.2-0.3,0.4-0.4,0.6
	C157.2,180.5,157.2,180.7,157.2,181z"/>
<path class="st3" d="M163.4,178.9c0.1-0.1,0.2-0.2,0.4-0.3c0.1-0.1,0.3-0.2,0.5-0.2c0.2,0,0.4-0.1,0.7-0.1c0.3,0,0.7,0.1,1,0.2
	c0.3,0.1,0.6,0.3,0.8,0.6c0.2,0.3,0.4,0.6,0.5,0.9c0.3,0.7,0.3,1.5,0,2.2c-0.1,0.3-0.3,0.6-0.5,0.9c-0.2,0.3-0.5,0.5-0.8,0.6
	c-0.3,0.2-0.7,0.2-1,0.2c-0.2,0-0.5,0-0.7-0.1c-0.2-0.1-0.3-0.2-0.5-0.2c-0.2-0.1-0.3-0.2-0.4-0.4v2.6h-0.9v-7.3h0.7L163.4,178.9z
	 M163.3,181c0,0.3,0,0.5,0.1,0.8c0.1,0.2,0.2,0.4,0.4,0.6c0.1,0.2,0.3,0.3,0.5,0.4c0.4,0.1,0.8,0.1,1.2,0c0.2-0.1,0.4-0.2,0.5-0.4
	c0.2-0.2,0.3-0.4,0.4-0.6c0.1-0.5,0.1-1.1,0-1.6c-0.1-0.2-0.2-0.4-0.4-0.6c-0.1-0.2-0.3-0.3-0.5-0.4c-0.4-0.1-0.8-0.1-1.2,0
	c-0.2,0.1-0.4,0.2-0.5,0.4c-0.1,0.2-0.3,0.4-0.4,0.6C163.3,180.5,163.3,180.7,163.3,181L163.3,181z"/>
<path class="st3" d="M173.4,181c0,0.4-0.1,0.7-0.2,1.1c-0.1,0.3-0.3,0.6-0.5,0.9c-0.2,0.3-0.5,0.5-0.8,0.6c-0.3,0.2-0.7,0.2-1,0.2
	c-0.3,0-0.7-0.1-1-0.2c-0.3-0.1-0.6-0.3-0.8-0.6c-0.2-0.3-0.4-0.6-0.5-0.9c-0.3-0.7-0.3-1.5,0-2.2c0.1-0.3,0.3-0.6,0.5-0.9
	c0.2-0.2,0.5-0.4,0.8-0.6c0.3-0.2,0.7-0.2,1-0.2c0.3,0,0.7,0.1,1,0.2c0.3,0.1,0.6,0.3,0.8,0.6c0.2,0.3,0.4,0.6,0.5,0.9
	C173.4,180.2,173.4,180.6,173.4,181z M169.3,181c0,0.3,0,0.5,0.1,0.8c0.1,0.2,0.2,0.4,0.4,0.6c0.1,0.2,0.3,0.3,0.5,0.4
	c0.4,0.1,0.8,0.1,1.2,0c0.2-0.1,0.4-0.2,0.5-0.4c0.1-0.2,0.3-0.4,0.4-0.6c0.1-0.5,0.1-1.1,0-1.6c-0.1-0.2-0.2-0.4-0.4-0.6
	c-0.1-0.2-0.3-0.3-0.5-0.4c-0.4-0.1-0.8-0.1-1.2,0c-0.2,0.1-0.4,0.2-0.5,0.4c-0.1,0.2-0.3,0.4-0.4,0.6
	C169.3,180.5,169.3,180.7,169.3,181L169.3,181z"/>
<path class="st3" d="M179.2,178.3v5.4h-0.9v-4l-2.8,4h-0.9v-5.4h0.9v4l2.8-4H179.2z M176.9,177.5c-0.4,0-0.7-0.1-1-0.4
	c-0.2-0.3-0.4-0.6-0.5-0.9h0.7c0,0.4,0.3,0.7,0.7,0.7c0,0,0,0,0,0c0.2,0,0.3-0.1,0.5-0.2s0.2-0.3,0.2-0.5h0.7c0,0.4-0.2,0.7-0.5,0.9
	C177.5,177.4,177.2,177.5,176.9,177.5z"/>
<path class="st3" d="M186.6,180.9c0.3,0.2,0.5,0.4,0.7,0.7c0.1,0.2,0.1,0.4,0.1,0.6c0,0.4-0.1,0.8-0.4,1.1c-0.3,0.3-0.7,0.4-1.1,0.4
	h-2.6v-5.4h2.4c0.2,0,0.4,0,0.6,0.1c0.4,0.1,0.7,0.4,0.8,0.8c0.1,0.2,0.1,0.4,0.1,0.6c0,0.2,0,0.4-0.1,0.5c-0.1,0.1-0.1,0.2-0.2,0.3
	L186.6,180.9z M184.2,179.2v1.4h1.4c0.2,0,0.4-0.1,0.6-0.2c0.2-0.1,0.2-0.3,0.2-0.5c0-0.2-0.1-0.4-0.2-0.5c-0.2-0.1-0.4-0.2-0.6-0.2
	H184.2z M185.8,182.9c0.4,0,0.7-0.3,0.7-0.7c0,0,0,0,0,0c0-0.1,0-0.2-0.1-0.3c-0.1-0.1-0.1-0.2-0.2-0.2s-0.2-0.1-0.3-0.2
	c-0.1-0.1-0.2-0.1-0.3-0.1H184v1.5H185.8z"/>
<path class="st3" d="M192.2,183.7h-0.9v-5.4h0.9V183.7z M194.5,183.7l-2.3-2.8l2-2.6h1l-2,2.5l2.3,2.9L194.5,183.7z"/>
<path class="st3" d="M200.9,181c0,0.4-0.1,0.7-0.2,1.1c-0.1,0.3-0.3,0.6-0.5,0.9c-0.2,0.3-0.5,0.5-0.8,0.6c-0.3,0.2-0.7,0.2-1,0.2
	c-0.3,0-0.7-0.1-1-0.2c-0.3-0.1-0.6-0.3-0.8-0.6c-0.2-0.3-0.4-0.6-0.5-0.9c-0.3-0.7-0.3-1.5,0-2.2c0.1-0.3,0.3-0.6,0.5-0.9
	c0.2-0.2,0.5-0.4,0.8-0.6c0.3-0.2,0.7-0.2,1-0.2c0.3,0,0.7,0.1,1,0.2c0.3,0.1,0.6,0.3,0.8,0.6c0.2,0.3,0.4,0.6,0.5,0.9
	C200.9,180.2,200.9,180.6,200.9,181z M196.8,181c0,0.3,0,0.5,0.1,0.8c0.1,0.2,0.2,0.4,0.4,0.6c0.1,0.2,0.3,0.3,0.5,0.4
	c0.4,0.1,0.8,0.1,1.2,0c0.2-0.1,0.4-0.2,0.5-0.4c0.1-0.2,0.3-0.4,0.4-0.6c0.1-0.5,0.1-1.1,0-1.6c-0.1-0.2-0.2-0.4-0.4-0.6
	c-0.1-0.2-0.3-0.3-0.5-0.4c-0.4-0.1-0.8-0.1-1.2,0c-0.2,0.1-0.4,0.2-0.5,0.4c-0.1,0.2-0.3,0.4-0.4,0.6
	C196.8,180.5,196.8,180.7,196.8,181L196.8,181z"/>
<path class="st3" d="M206.7,178.3v5.4h-0.9v-2.3H203v2.3h-0.9v-5.4h0.9v2.2h2.8v-2.2H206.7z"/>
<path class="st3" d="M213.4,182.9v2.2h-0.8v-1.3h-4.3v-5.4h0.9v4.6h2.6v-4.6h0.9v4.6h0.7L213.4,182.9z"/>
<path class="st3" d="M218.8,182.3l-0.3,0.6c-0.1,0.2-0.3,0.3-0.5,0.5s-0.4,0.2-0.6,0.3c-0.3,0.1-0.5,0.1-0.8,0.1
	c-0.3,0-0.7-0.1-1-0.2c-0.3-0.1-0.6-0.3-0.8-0.6c-0.2-0.3-0.4-0.6-0.5-0.9c-0.3-0.7-0.3-1.5,0-2.2c0.1-0.3,0.3-0.6,0.5-0.9
	c0.2-0.2,0.5-0.4,0.8-0.6c0.3-0.2,0.6-0.2,0.9-0.2c0.3,0,0.6,0.1,0.9,0.2c0.3,0.1,0.6,0.3,0.8,0.5c0.3,0.2,0.5,0.5,0.5,0.9
	c0.1,0.4,0.2,0.7,0.2,1.1v0.4H215c0,0.2,0.1,0.4,0.2,0.6c0.1,0.2,0.2,0.4,0.4,0.5c0.1,0.1,0.3,0.2,0.5,0.3c0.2,0.1,0.4,0.1,0.6,0.1
	c0.2,0,0.3,0,0.5-0.1c0.2-0.1,0.3-0.1,0.4-0.2s0.2-0.1,0.3-0.2l0.2-0.2h0.7L218.8,182.3z M216.5,179.1c-0.2,0-0.4,0-0.5,0.1
	c-0.2,0.1-0.3,0.2-0.4,0.3c-0.2,0.1-0.3,0.3-0.3,0.5c0,0.2-0.2,0.4-0.2,0.6h2.9c0-0.4-0.2-0.8-0.5-1.1
	C217.2,179.2,216.9,179.1,216.5,179.1z"/>
<path class="st3" d="M224.9,179.1c-0.2,0-0.4,0-0.6,0.1c-0.2,0.1-0.4,0.2-0.5,0.4c-0.1,0.2-0.3,0.4-0.4,0.6c-0.1,0.5-0.1,1.1,0,1.6
	c0.1,0.2,0.2,0.4,0.4,0.6c0.1,0.2,0.3,0.3,0.5,0.4c0.2,0.1,0.4,0.1,0.6,0.1c0.2,0,0.3,0,0.5-0.1c0.2-0.1,0.3-0.1,0.4-0.3
	c0.1-0.1,0.2-0.2,0.3-0.4c0.1-0.1,0.2-0.2,0.2-0.4h0.9c-0.1,0.3-0.2,0.5-0.3,0.8s-0.3,0.4-0.5,0.6c-0.2,0.2-0.4,0.3-0.7,0.4
	c-0.3,0.1-0.5,0.2-0.8,0.2c-0.3,0-0.7-0.1-1-0.2c-0.3-0.1-0.6-0.3-0.8-0.6c-0.2-0.3-0.4-0.6-0.5-0.9c-0.3-0.7-0.3-1.5,0-2.2
	c0.1-0.3,0.3-0.6,0.5-0.9c0.2-0.2,0.5-0.4,0.8-0.6c0.3-0.2,0.7-0.2,1-0.2c0.3,0,0.6,0.1,0.8,0.2c0.3,0.1,0.5,0.2,0.7,0.4
	c0.2,0.2,0.4,0.4,0.5,0.6c0.1,0.3,0.2,0.5,0.3,0.8h-0.9c0-0.2-0.1-0.3-0.2-0.4c-0.1-0.1-0.2-0.3-0.3-0.4s-0.3-0.2-0.4-0.3
	C225.2,179.1,225.1,179.1,224.9,179.1z"/>
<path class="st3" d="M232.7,182.3l-0.3,0.6c-0.1,0.2-0.3,0.3-0.5,0.5s-0.4,0.2-0.6,0.3c-0.3,0.1-0.5,0.1-0.8,0.1
	c-0.3,0-0.7-0.1-1-0.2c-0.3-0.1-0.6-0.3-0.8-0.6c-0.2-0.3-0.4-0.6-0.5-0.9c-0.3-0.7-0.3-1.5,0-2.2c0.1-0.3,0.3-0.6,0.5-0.9
	c0.2-0.2,0.5-0.4,0.8-0.6c0.3-0.2,0.6-0.2,0.9-0.2c0.3,0,0.6,0.1,0.9,0.2c0.3,0.1,0.6,0.3,0.8,0.5c0.3,0.2,0.5,0.5,0.5,0.9
	c0.1,0.4,0.2,0.7,0.2,1.1v0.4H229c0,0.2,0.1,0.4,0.2,0.6c0.1,0.2,0.2,0.4,0.4,0.5c0.1,0.1,0.3,0.2,0.5,0.3c0.2,0.1,0.4,0.1,0.6,0.1
	c0.2,0,0.3,0,0.5-0.1c0.2-0.1,0.3-0.1,0.4-0.2s0.2-0.1,0.3-0.2l0.2-0.2h0.6V182.3z M230.4,179.1c-0.2,0-0.4,0-0.5,0.1
	c-0.2,0.1-0.3,0.2-0.4,0.3c-0.2,0.1-0.3,0.3-0.3,0.5c0,0.2-0.2,0.4-0.2,0.6h2.9c0-0.4-0.2-0.8-0.5-1.1
	C231.1,179.2,230.8,179.1,230.4,179.1z"/>
<path class="st3" d="M236.6,180.9c0.1,0.1,0.3,0.2,0.4,0.3c0.1,0.1,0.2,0.2,0.3,0.4c0.1,0.2,0.1,0.3,0.1,0.5c0,0.2,0,0.4-0.1,0.6
	c-0.1,0.2-0.2,0.4-0.4,0.5c-0.2,0.1-0.4,0.3-0.6,0.3s-0.5,0.1-0.8,0.1c-0.5,0-1-0.2-1.4-0.5c-0.3-0.3-0.5-0.7-0.6-1.2h0.9
	c0,0.2,0.1,0.4,0.3,0.6c0.2,0.2,0.4,0.2,0.8,0.2c0.2,0,0.5-0.1,0.7-0.2c0.3-0.2,0.4-0.5,0.2-0.8c-0.1-0.1-0.1-0.2-0.2-0.2
	c-0.2-0.1-0.5-0.2-0.7-0.2H235v-0.8h0.5c0.2,0,0.4-0.1,0.6-0.2c0.2-0.1,0.2-0.3,0.2-0.5c0-0.2-0.1-0.4-0.2-0.5
	c-0.2-0.1-0.4-0.2-0.6-0.2c-0.2,0-0.5,0.1-0.7,0.2c-0.1,0.2-0.2,0.3-0.3,0.5h-0.9c0-0.5,0.2-0.9,0.5-1.2c0.4-0.3,0.9-0.5,1.4-0.5
	c0.2,0,0.5,0,0.7,0.1l0.6,0.3c0.2,0.1,0.3,0.3,0.4,0.5c0.1,0.2,0.1,0.4,0.1,0.6c0,0.2,0,0.4-0.1,0.5c-0.1,0.1-0.1,0.3-0.2,0.4
	C236.8,180.8,236.7,180.9,236.6,180.9z"/>
<path class="st3" d="M243.3,181c0,0.4-0.1,0.7-0.2,1.1c-0.1,0.3-0.3,0.6-0.5,0.9c-0.2,0.3-0.5,0.5-0.8,0.6c-0.3,0.2-0.7,0.2-1,0.2
	c-0.3,0-0.7-0.1-1-0.2c-0.3-0.1-0.6-0.3-0.8-0.6c-0.2-0.3-0.4-0.6-0.5-0.9c-0.3-0.7-0.3-1.5,0-2.2c0.1-0.3,0.3-0.6,0.5-0.9
	c0.2-0.2,0.5-0.4,0.8-0.6c0.3-0.2,0.7-0.2,1-0.2c0.3,0,0.7,0.1,1,0.2c0.3,0.1,0.6,0.3,0.8,0.6c0.2,0.3,0.4,0.6,0.5,0.9
	C243.3,180.2,243.3,180.6,243.3,181z M239.2,181c0,0.3,0,0.5,0.1,0.8c0.1,0.2,0.2,0.4,0.4,0.6c0.1,0.2,0.3,0.3,0.5,0.4
	c0.4,0.1,0.8,0.1,1.2,0c0.2-0.1,0.4-0.2,0.5-0.4c0.1-0.2,0.3-0.4,0.4-0.6c0.1-0.5,0.1-1.1,0-1.6c-0.1-0.2-0.2-0.4-0.4-0.6
	c-0.1-0.2-0.3-0.3-0.5-0.4c-0.4-0.1-0.8-0.1-1.2,0c-0.2,0.1-0.4,0.2-0.5,0.4c-0.1,0.2-0.3,0.4-0.4,0.6
	C239.2,180.5,239.2,180.7,239.2,181z"/>
<path class="st3" d="M249.1,178.3v5.4h-0.9v-2.3h-2.8v2.3h-0.9v-5.4h0.9v2.2h2.8v-2.2H249.1z"/>
<path class="st3" d="M252.7,178.2c0.3,0,0.6,0.1,0.8,0.2c0.2,0.1,0.5,0.2,0.6,0.4c0.2,0.2,0.3,0.4,0.4,0.6c0.1,0.2,0.2,0.5,0.1,0.7
	v3.6h-0.7l-0.2-0.6c-0.1,0.1-0.3,0.2-0.4,0.3c-0.1,0.1-0.3,0.2-0.5,0.2c-0.2,0-0.4,0.1-0.7,0.1c-0.2,0-0.5,0-0.7-0.1
	c-0.2-0.1-0.4-0.2-0.6-0.4c-0.2-0.1-0.3-0.3-0.4-0.5c-0.1-0.2-0.1-0.4-0.1-0.6c0-0.2,0.1-0.5,0.2-0.7c0.1-0.2,0.3-0.4,0.5-0.6
	c0.3-0.2,0.6-0.3,1-0.4c0.6-0.1,1.1-0.1,1.7-0.1V180c0-0.3-0.1-0.5-0.3-0.7c-0.2-0.2-0.5-0.3-0.8-0.3c-0.2,0-0.5,0.1-0.7,0.2
	c-0.2,0.1-0.3,0.4-0.3,0.6h-1c0-0.2,0.1-0.4,0.2-0.6c0.1-0.2,0.2-0.4,0.4-0.5c0.2-0.1,0.4-0.3,0.6-0.3
	C252.1,178.3,252.4,178.2,252.7,178.2z M252.2,182.9c0.2,0,0.5,0,0.7-0.1c0.2-0.1,0.3-0.2,0.5-0.3c0.1-0.1,0.2-0.3,0.3-0.4
	c0.1-0.1,0.1-0.3,0.1-0.5v-0.4c-0.4,0-0.9,0-1.3,0.1c-0.3,0.1-0.6,0.1-0.8,0.2c-0.2,0.1-0.3,0.2-0.4,0.3c-0.1,0.1-0.1,0.3-0.1,0.4
	c0,0.2,0.1,0.3,0.2,0.5C251.6,182.9,251.9,182.9,252.2,182.9z"/>
<path class="st3" d="M88.9,197.3v0.8h-4.7v-0.7l3-3.3c0.2-0.1,0.3-0.3,0.4-0.5c0.1-0.1,0.2-0.3,0.2-0.5c0-0.2,0.1-0.4,0.1-0.6
	c0-0.3-0.1-0.7-0.4-0.9c-0.3-0.2-0.6-0.4-1-0.4c-0.4,0-0.8,0.1-1,0.4c-0.2,0.3-0.4,0.6-0.4,1h-1c0-0.3,0.1-0.6,0.2-0.9
	c0.1-0.3,0.3-0.5,0.5-0.7c0.2-0.2,0.5-0.4,0.8-0.5c0.3-0.1,0.7-0.2,1-0.2c0.3,0,0.6,0.1,0.9,0.2c0.3,0.1,0.5,0.3,0.7,0.5
	c0.2,0.2,0.4,0.4,0.5,0.7c0.3,0.5,0.3,1.1,0,1.6c0,0.2-0.2,0.5-0.4,0.6c-0.1,0.2-0.3,0.4-0.5,0.6l-2.4,2.6h3.5L88.9,197.3z"/>
<path class="st3" d="M95.7,194.3c0,0.5-0.1,1.1-0.2,1.6c-0.1,0.4-0.3,0.8-0.6,1.2c-0.2,0.3-0.5,0.6-0.9,0.7
	c-0.3,0.2-0.7,0.3-1.1,0.3c-0.4,0-0.8-0.1-1.1-0.3c-0.3-0.2-0.6-0.4-0.9-0.7c-0.3-0.4-0.5-0.8-0.6-1.2c-0.1-0.5-0.2-1.1-0.2-1.6
	c0-0.5,0.1-1.1,0.2-1.6c0.1-0.4,0.3-0.8,0.6-1.2c0.2-0.3,0.5-0.6,0.9-0.7c0.3-0.2,0.7-0.3,1.1-0.3c0.4,0,0.8,0.1,1.1,0.3
	c0.3,0.2,0.6,0.4,0.9,0.7c0.3,0.4,0.5,0.8,0.6,1.2C95.6,193.2,95.7,193.8,95.7,194.3z M90.8,194.3c0,0.4,0.1,0.9,0.2,1.3
	c0.1,0.3,0.2,0.6,0.4,0.9c0.1,0.2,0.4,0.4,0.6,0.6c0.2,0.2,0.4,0.2,0.7,0.2c0.2,0,0.5-0.1,0.7-0.2c0.2-0.1,0.5-0.4,0.6-0.6
	c0.2-0.3,0.3-0.6,0.4-0.9c0.3-0.8,0.3-1.8,0-2.6c-0.1-0.3-0.2-0.6-0.4-0.9c-0.1-0.2-0.4-0.4-0.6-0.6c-0.2-0.2-0.4-0.2-0.7-0.2
	c-0.2,0-0.5,0.1-0.7,0.2c-0.2,0.1-0.5,0.4-0.6,0.6c-0.2,0.3-0.3,0.6-0.4,0.9C90.9,193.4,90.8,193.9,90.8,194.3z"/>
<path class="st3" d="M98.9,190.6v7.6h-1V192l-1.1,0.7l-0.4-0.7l1.9-1.3L98.9,190.6L98.9,190.6z"/>
<path class="st3" d="M102.8,190.5c0.3,0,0.7,0.1,1,0.2c0.3,0.1,0.6,0.3,0.8,0.6c0.2,0.3,0.4,0.5,0.6,0.8c0.2,0.3,0.2,0.7,0.2,1
	c0,0.2,0,0.5-0.1,0.7c-0.1,0.2-0.1,0.4-0.2,0.6c-0.1,0.2-0.2,0.3-0.3,0.5l-2.2,3.2h-1l1.7-2.5h-0.4c-0.3,0-0.7-0.1-1-0.2
	c-0.3-0.1-0.6-0.3-0.8-0.6c-0.2-0.3-0.4-0.5-0.6-0.8c-0.2-0.3-0.2-0.7-0.2-1c0-0.3,0.1-0.7,0.2-1c0.1-0.3,0.3-0.6,0.6-0.8
	c0.3-0.2,0.5-0.4,0.8-0.6S102.4,190.5,102.8,190.5z M104.4,193.1c0-0.2,0-0.5-0.1-0.7l-0.3-0.6c-0.1-0.2-0.3-0.3-0.5-0.4
	c-0.4-0.1-0.8-0.1-1.2,0c-0.2,0.1-0.4,0.2-0.5,0.4c-0.1,0.2-0.3,0.3-0.3,0.6s-0.1,0.4-0.1,0.7c0,0.2,0,0.5,0.1,0.7
	c0.2,0.4,0.4,0.7,0.8,0.9c0.4,0.1,0.8,0.1,1.2,0c0.2-0.1,0.4-0.2,0.5-0.4c0.1-0.2,0.3-0.3,0.3-0.5S104.4,193.3,104.4,193.1z"/>
<path class="st3" d="M106.6,200.3h-0.8l3.1-9.7h0.8L106.6,200.3z"/>
<path class="st3" d="M115,197.3v0.8h-4.7v-0.7l3-3.3c0.2-0.1,0.3-0.3,0.4-0.5c0.1-0.1,0.2-0.3,0.2-0.5c0-0.2,0.1-0.4,0.1-0.6
	c0-0.3-0.1-0.7-0.4-0.9c-0.3-0.2-0.6-0.4-1-0.4c-0.4,0-0.8,0.1-1,0.4c-0.2,0.3-0.4,0.6-0.4,1h-1c0-0.3,0.1-0.6,0.2-0.9
	c0.1-0.3,0.3-0.5,0.5-0.7c0.2-0.2,0.5-0.4,0.8-0.5c0.3-0.1,0.7-0.2,1-0.2c0.3,0,0.6,0.1,0.9,0.2c0.3,0.1,0.5,0.3,0.7,0.5
	c0.2,0.2,0.4,0.4,0.5,0.7c0.3,0.5,0.3,1.1,0,1.6c0,0.2-0.2,0.5-0.4,0.6c-0.1,0.2-0.3,0.4-0.5,0.6l-2.4,2.6h3.5V197.3z"/>
<path class="st3" d="M121.8,194.3c0,0.5-0.1,1.1-0.2,1.6c-0.1,0.4-0.3,0.8-0.6,1.2c-0.2,0.3-0.5,0.6-0.9,0.7
	c-0.3,0.2-0.7,0.3-1.1,0.3c-0.4,0-0.8-0.1-1.1-0.3c-0.3-0.2-0.6-0.4-0.9-0.7c-0.3-0.4-0.5-0.8-0.6-1.2c-0.1-0.5-0.2-1.1-0.2-1.6
	c0-0.5,0.1-1.1,0.2-1.6c0.1-0.4,0.3-0.8,0.6-1.2c0.2-0.3,0.5-0.6,0.9-0.7c0.3-0.2,0.7-0.3,1.1-0.3c0.4,0,0.8,0.1,1.1,0.3
	c0.3,0.2,0.6,0.4,0.9,0.7c0.3,0.4,0.5,0.8,0.6,1.2C121.7,193.2,121.8,193.8,121.8,194.3z M116.9,194.3c0,0.4,0.1,0.9,0.2,1.3
	c0.1,0.3,0.2,0.6,0.4,0.9c0.1,0.2,0.4,0.4,0.6,0.6c0.2,0.2,0.4,0.2,0.7,0.2c0.2,0,0.5-0.1,0.7-0.2c0.2-0.1,0.5-0.4,0.6-0.6
	c0.2-0.3,0.3-0.6,0.4-0.9c0.3-0.8,0.3-1.8,0-2.6c-0.1-0.3-0.2-0.6-0.4-0.9c-0.1-0.2-0.4-0.4-0.6-0.6c-0.2-0.2-0.4-0.2-0.7-0.2
	c-0.2,0-0.5,0.1-0.7,0.2c-0.2,0.1-0.5,0.4-0.6,0.6c-0.2,0.3-0.3,0.6-0.4,0.9C117,193.4,116.9,193.9,116.9,194.3z"/>
<path class="st3" d="M130.1,192.7v5.4h-0.9v-4.6h-2.8v4.6h-0.9v-5.4H130.1z"/>
<path class="st3" d="M136.4,195.4c0,0.4-0.1,0.7-0.2,1.1c-0.1,0.3-0.3,0.6-0.5,0.9c-0.2,0.3-0.5,0.5-0.8,0.6c-0.3,0.2-0.7,0.2-1,0.2
	c-0.3,0-0.7-0.1-1-0.2c-0.3-0.1-0.6-0.3-0.8-0.6c-0.2-0.3-0.4-0.6-0.5-0.9c-0.3-0.7-0.3-1.5,0-2.2c0.1-0.3,0.3-0.6,0.5-0.9
	c0.2-0.2,0.5-0.4,0.8-0.6c0.3-0.2,0.7-0.2,1-0.2c0.3,0,0.7,0.1,1,0.2c0.3,0.1,0.6,0.3,0.8,0.6c0.2,0.3,0.4,0.6,0.5,0.9
	C136.3,194.7,136.4,195,136.4,195.4z M132.2,195.4c0,0.3,0,0.5,0.1,0.8c0.1,0.2,0.2,0.4,0.4,0.6c0.1,0.2,0.3,0.3,0.5,0.4
	c0.4,0.1,0.8,0.1,1.2,0c0.2-0.1,0.4-0.2,0.5-0.4c0.1-0.2,0.3-0.4,0.4-0.6c0.1-0.5,0.1-1.1,0-1.6c-0.1-0.2-0.2-0.4-0.4-0.6
	c-0.1-0.2-0.3-0.3-0.5-0.4c-0.4-0.1-0.8-0.1-1.2,0c-0.2,0.1-0.4,0.2-0.5,0.4c-0.1,0.2-0.3,0.4-0.4,0.6S132.2,195.1,132.2,195.4z"/>
<path class="st3" d="M141.8,192.7v5.4h-0.9v-4.6h-2l-0.2,2.9c0,0.5-0.2,1-0.5,1.3c-0.3,0.3-0.7,0.5-1.1,0.5h-0.3v-0.8h0.1
	c0.6,0,0.9-0.3,1-1l0.3-3.7L141.8,192.7z"/>
<path class="st3" d="M142.7,192.7h1l1.6,4.1l1.6-4.1h1l-2.3,5.9c-0.1,0.4-0.4,0.9-0.7,1.2c-0.2,0.2-0.6,0.3-0.9,0.3h-0.3v-0.7
	c0.4,0,0.8-0.3,0.9-0.7l0.2-0.6L142.7,192.7z"/>
<path class="st3" d="M152.9,192.7v5.4H152v-2c-0.1,0.1-0.3,0.1-0.4,0.2c-0.2,0-0.3,0.1-0.5,0.1c-0.2,0-0.4,0.1-0.7,0.1
	c-0.3,0-0.5,0-0.8-0.1c-0.2-0.1-0.4-0.2-0.6-0.4c-0.2-0.2-0.3-0.4-0.4-0.6c-0.1-0.3-0.1-0.5-0.1-0.8v-1.8h0.9v1.8
	c0,0.3,0.1,0.6,0.3,0.8c0.2,0.2,0.6,0.3,0.9,0.3c0.2,0,0.4,0,0.5-0.1c0.1-0.1,0.3-0.1,0.4-0.1c0.1-0.1,0.3-0.1,0.4-0.2v-2.5
	L152.9,192.7L152.9,192.7z"/>
<path class="st3" d="M159,192.7v5.4h-0.9v-4l-2.8,4h-0.9v-5.4h0.9v4l2.8-4H159z"/>
<path class="st3" d="M160,192.7h4.3v0.8h-1.7v4.6h-0.9v-4.6H160V192.7z"/>
<path class="st3" d="M171.3,193.6h-2.6v4.6h-0.9v-5.4h3.5V193.6z"/>
<path class="st3" d="M176.4,192.7v5.4h-0.9v-4.6h-2l-0.2,2.9c0,0.5-0.2,1-0.5,1.3c-0.3,0.3-0.7,0.5-1.1,0.5h-0.3v-0.8h0.1
	c0.6,0,0.9-0.3,1-1l0.3-3.7L176.4,192.7z"/>
<path class="st3" d="M180,192.6c0.3,0,0.6,0.1,0.8,0.2c0.2,0.1,0.5,0.2,0.6,0.4c0.2,0.2,0.3,0.4,0.4,0.6c0.1,0.2,0.2,0.5,0.1,0.7
	v3.6h-0.7l-0.2-0.6c-0.1,0.1-0.3,0.2-0.4,0.3c-0.1,0.1-0.3,0.2-0.5,0.2c-0.2,0-0.4,0.1-0.7,0.1c-0.2,0-0.5,0-0.7-0.1
	c-0.2-0.1-0.4-0.2-0.6-0.4c-0.2-0.1-0.3-0.3-0.4-0.5c-0.1-0.2-0.1-0.4-0.1-0.6c0-0.2,0.1-0.5,0.2-0.7c0.1-0.2,0.3-0.4,0.5-0.6
	c0.3-0.2,0.6-0.3,1-0.4c0.6-0.1,1.1-0.1,1.7-0.1v-0.3c0-0.3-0.1-0.5-0.3-0.7c-0.2-0.2-0.5-0.3-0.8-0.3c-0.2,0-0.5,0.1-0.7,0.2
	c-0.2,0.1-0.3,0.4-0.3,0.6h-1c0-0.2,0.1-0.4,0.2-0.6c0.1-0.2,0.2-0.4,0.4-0.5c0.2-0.1,0.4-0.3,0.6-0.3
	C179.4,192.7,179.7,192.6,180,192.6z M179.5,197.3c0.2,0,0.5,0,0.7-0.1c0.2-0.1,0.3-0.2,0.5-0.3c0.1-0.1,0.2-0.3,0.3-0.4
	c0.1-0.1,0.1-0.3,0.1-0.5v-0.4c-0.4,0-0.9,0-1.3,0.1c-0.3,0.1-0.6,0.1-0.8,0.2c-0.2,0.1-0.3,0.2-0.4,0.3c-0.1,0.1-0.1,0.3-0.1,0.4
	c0,0.2,0.1,0.3,0.2,0.5C178.9,197.3,179.2,197.3,179.5,197.3z"/>
<path class="st3" d="M186.8,195.3c0.3,0.2,0.5,0.4,0.7,0.7c0.1,0.2,0.1,0.4,0.1,0.6c0,0.4-0.1,0.8-0.4,1.1c-0.3,0.3-0.7,0.4-1.1,0.4
	h-2.6v-5.4h2.4c0.2,0,0.4,0,0.6,0.1c0.4,0.1,0.7,0.4,0.8,0.8c0.1,0.2,0.1,0.4,0.1,0.6c0,0.2,0,0.4-0.1,0.5c-0.1,0.1-0.1,0.2-0.2,0.3
	L186.8,195.3z M184.4,193.6v1.4h1.4c0.2,0,0.4-0.1,0.6-0.2c0.2-0.1,0.2-0.3,0.2-0.5c0-0.2-0.1-0.4-0.2-0.5c-0.2-0.1-0.4-0.2-0.6-0.2
	H184.4z M186,197.3c0.4,0,0.7-0.3,0.7-0.7c0,0,0,0,0,0c0-0.1,0-0.2-0.1-0.3c-0.1-0.1-0.1-0.2-0.2-0.2s-0.2-0.1-0.3-0.2
	c-0.1-0.1-0.2-0.1-0.3-0.1h-1.6v1.5H186z"/>
<path class="st3" d="M193.5,192.7v5.4h-0.9v-2.3h-2.8v2.3h-0.9v-5.4h0.9v2.2h2.8v-2.2H193.5z"/>
<path class="st3" d="M197.1,194.6c0.5,0,1,0.2,1.4,0.5c0.4,0.3,0.6,0.8,0.5,1.3c0,0.5-0.2,0.9-0.5,1.3c-0.4,0.4-0.9,0.6-1.4,0.5H195
	v-5.4h0.9v1.9h1.2L197.1,194.6z M197.1,197.3c0.3,0,0.5-0.1,0.7-0.3c0.3-0.2,0.4-0.7,0.1-1.1c0-0.1-0.1-0.1-0.1-0.1
	c-0.2-0.2-0.4-0.3-0.7-0.3h-1.2v1.8H197.1z M200.7,192.7v5.4h-0.9v-5.4H200.7z"/>
<path class="st3" d="M206.8,192.7v5.4H206v-4l-2.8,4h-0.9v-5.4h0.9v4l2.8-4H206.8z M204.6,191.9c-0.4,0-0.7-0.1-1-0.4
	c-0.2-0.3-0.4-0.6-0.5-0.9h0.7c0,0.4,0.3,0.7,0.7,0.7c0,0,0,0,0,0c0.2,0,0.3-0.1,0.5-0.2s0.2-0.3,0.2-0.5h0.7c0,0.4-0.2,0.7-0.5,0.9
	C205.2,191.8,204.9,191.9,204.6,191.9z"/>
<path class="st3" d="M215.5,192.7v5.4h-0.9v-4.6h-2.8v4.6H211v-5.4H215.5z"/>
<path class="st3" d="M218,193.3c0.1-0.1,0.2-0.2,0.4-0.3c0.1-0.1,0.3-0.2,0.5-0.2c0.2,0,0.4-0.1,0.7-0.1c0.3,0,0.7,0.1,1,0.2
	c0.3,0.1,0.6,0.3,0.8,0.6c0.2,0.3,0.4,0.6,0.5,0.9c0.3,0.7,0.3,1.5,0,2.2c-0.1,0.3-0.3,0.6-0.5,0.9c-0.2,0.3-0.5,0.5-0.8,0.6
	c-0.3,0.2-0.7,0.2-1,0.2c-0.2,0-0.5,0-0.7-0.1c-0.2-0.1-0.3-0.2-0.5-0.2c-0.2-0.1-0.3-0.2-0.4-0.4v2.6h-0.9v-7.3h0.7L218,193.3z
	 M217.9,195.4c0,0.3,0,0.5,0.1,0.8c0.1,0.2,0.2,0.4,0.4,0.6c0.1,0.2,0.3,0.3,0.5,0.4c0.4,0.1,0.8,0.1,1.2,0c0.2-0.1,0.4-0.2,0.5-0.4
	c0.2-0.2,0.3-0.4,0.4-0.6c0.1-0.5,0.1-1.1,0-1.6c-0.1-0.2-0.2-0.4-0.4-0.6c-0.1-0.2-0.3-0.3-0.5-0.4c-0.4-0.1-0.8-0.1-1.2,0
	c-0.2,0.1-0.4,0.2-0.5,0.4c-0.1,0.2-0.3,0.4-0.4,0.6C217.9,194.9,217.9,195.1,217.9,195.4L217.9,195.4z"/>
<path class="st3" d="M227.9,192.7v5.4H227v-4l-2.8,4h-0.9v-5.4h0.9v4l2.8-4H227.9z"/>
<path class="st3" d="M232,195.3c0.1,0.1,0.3,0.2,0.4,0.3c0.1,0.1,0.2,0.2,0.3,0.4c0.1,0.2,0.1,0.3,0.1,0.5c0,0.2,0,0.4-0.1,0.6
	c-0.1,0.2-0.2,0.4-0.4,0.5c-0.2,0.1-0.4,0.3-0.6,0.3s-0.5,0.1-0.8,0.1c-0.5,0-1-0.2-1.4-0.5c-0.3-0.3-0.5-0.7-0.6-1.2h0.9
	c0,0.2,0.1,0.4,0.3,0.6c0.2,0.2,0.4,0.2,0.8,0.2c0.2,0,0.5-0.1,0.7-0.2c0.3-0.2,0.4-0.5,0.2-0.8c-0.1-0.1-0.1-0.2-0.2-0.2
	c-0.2-0.1-0.5-0.2-0.7-0.2h-0.5v-0.8h0.5c0.2,0,0.4-0.1,0.6-0.2c0.2-0.1,0.2-0.3,0.2-0.5c0-0.2-0.1-0.4-0.2-0.5
	c-0.2-0.1-0.4-0.2-0.6-0.2c-0.2,0-0.5,0.1-0.7,0.2c-0.1,0.2-0.2,0.3-0.3,0.5H229c0-0.5,0.2-0.9,0.5-1.2c0.4-0.3,0.9-0.5,1.4-0.5
	c0.2,0,0.5,0,0.7,0.1l0.6,0.3c0.2,0.1,0.3,0.3,0.4,0.5c0.1,0.2,0.1,0.4,0.1,0.6c0,0.2,0,0.4-0.1,0.5c-0.1,0.1-0.1,0.3-0.2,0.4
	C232.3,195.2,232.2,195.3,232,195.3z"/>
<path class="st3" d="M233.7,197.6c0-0.2,0.1-0.3,0.2-0.4c0.2-0.2,0.6-0.3,0.8,0s0.3,0.6,0,0.8s-0.6,0.3-0.8,0c0,0,0,0,0,0
	C233.8,197.9,233.7,197.8,233.7,197.6z"/>
<path class="st4" d="M53.8,102.9h-4.4V88h-5.5v-4.3h15.4V88h-5.5V102.9z"/>
<path class="st4" d="M76.6,83.7l-6.1,13.8c-0.5,1.1-1,2-1.4,2.8c-0.4,0.7-0.9,1.3-1.4,1.8c-0.5,0.4-1,0.8-1.6,1
	c-0.6,0.2-1.3,0.3-2,0.3c-0.5,0-0.9-0.1-1.4-0.2c-0.2,0-0.4-0.1-0.6-0.2v-4c0.1,0,0.3,0.1,0.4,0.1h0.9c0.4,0,0.8-0.1,1.2-0.2
	c0.3-0.2,0.6-0.4,0.8-0.6c0.2-0.3,0.4-0.6,0.6-0.9l-6.3-13.8h4.6l3.8,8.6l3.8-8.6L76.6,83.7L76.6,83.7z"/>
<path class="st4" d="M85.9,83.7c1,0,1.9,0.2,2.8,0.5c0.8,0.3,1.6,0.8,2.2,1.4c0.6,0.6,1.1,1.3,1.4,2.1c0.7,1.7,0.7,3.5,0,5.2
	c-0.3,0.8-0.8,1.5-1.4,2.1c-0.6,0.6-1.4,1.1-2.2,1.4c-0.9,0.3-1.8,0.5-2.8,0.5h-3.1v6.1h-4.4V83.7H85.9z M85.9,92.5
	c0.6,0,1.3-0.2,1.7-0.7c0.9-0.8,0.9-2.2,0.1-3.1c0,0-0.1-0.1-0.1-0.1c-0.4-0.5-1.1-0.7-1.7-0.7h-3.1v4.6L85.9,92.5z"/>
<path class="st4" d="M111.9,83.7V103h-4.4v-7.6h-7.3v7.6h-4.4V83.7h4.4V91h7.3v-7.3H111.9z"/>
<path class="st4" d="M120.1,83.7v11.5l7.8-11.5h4V103h-4.4V91.5l-7.8,11.5h-4V83.7H120.1z"/>
<path class="st4" d="M143.2,83.7c1,0,1.9,0.2,2.8,0.5c0.8,0.3,1.6,0.8,2.2,1.4c0.6,0.6,1.1,1.3,1.4,2.1c0.7,1.7,0.7,3.5,0,5.2
	c-0.3,0.8-0.8,1.5-1.4,2.1c-0.6,0.6-1.4,1.1-2.2,1.4c-0.9,0.3-1.8,0.5-2.8,0.5h-3.1v6.1h-4.4V83.7H143.2z M143.2,92.5
	c0.6,0,1.3-0.2,1.7-0.7c0.9-0.8,0.9-2.2,0.1-3.1c0,0-0.1-0.1-0.1-0.1c-0.4-0.5-1.1-0.7-1.7-0.7h-3.1v4.6L143.2,92.5z"/>
<path class="st4" d="M169.2,83.7V103h-4.4v-7.6h-7.3v7.6H153V83.7h4.4V91h7.3v-7.3H169.2z"/>
<path class="st4" d="M176.8,99.3l-1.2,3.7H171l6.9-19.3h4.6l6.9,19.3h-4.6l-1.2-3.7H176.8z M182.3,95.4l-2.1-6.4l-2.1,6.4H182.3z"/>
<path class="st4" d="M205.1,83.7V103h-4.4v-6.4h-2.3l-3.7,6.4h-4.9l4.4-7.5c-0.6-0.4-1.2-0.8-1.8-1.2c-0.5-0.5-0.9-1.1-1.2-1.7
	c-0.4-0.8-0.6-1.8-0.5-2.7c0-0.8,0.2-1.6,0.5-2.4c0.3-0.7,0.8-1.4,1.4-1.9c0.6-0.5,1.3-1,2.1-1.3c0.9-0.3,1.8-0.5,2.7-0.5h7.7V83.7z
	 M200.7,92.2V88h-3.2c-0.7-0.1-1.3,0.2-1.8,0.6c-0.8,0.8-0.8,2.2,0,3c0.5,0.4,1.1,0.7,1.8,0.6H200.7z"/>
<path class="st4" d="M53.8,127.9h-4.4v-15h-5.5v-4.3h15.4v4.3h-5.5V127.9z"/>
<path class="st4" d="M65.4,124.3l-1.2,3.7h-4.6l6.9-19.3h4.6L78,128h-4.6l-1.2-3.7H65.4z M70.9,120.4l-2.1-6.4l-2.1,6.4H70.9z"/>
<path class="st4" d="M88,115.7c0.9,0,1.8,0.2,2.7,0.5c0.8,0.3,1.5,0.8,2.1,1.3c0.6,0.6,1,1.2,1.4,1.9c0.3,0.8,0.5,1.6,0.5,2.4
	c0,0.8-0.2,1.6-0.5,2.4c-0.3,0.7-0.8,1.4-1.4,1.9c-0.6,0.5-1.3,1-2.1,1.3c-0.9,0.3-1.8,0.5-2.7,0.5h-8.3v-19.3h13.4v4.3h-9v2.8
	L88,115.7z M87.9,124.1c0.6,0,1.3-0.2,1.7-0.7c0.9-0.8,0.9-2.2,0.1-3.1c0,0-0.1-0.1-0.1-0.1c-0.4-0.5-1.1-0.7-1.7-0.7h-3.7v4.6
	L87.9,124.1z"/>
<path class="st4" d="M113.7,108.7V128h-4.4v-15h-5.2l-0.8,9.2c0,1.6-0.6,3.2-1.7,4.4c-1,1-2.4,1.6-3.9,1.5h-1.3
	c-0.2,0-0.3-0.1-0.5-0.1v-3.8h0.6c0.7,0,1.3-0.3,1.8-0.8c0.5-0.6,0.8-1.3,0.8-2.1l1.1-12.5L113.7,108.7L113.7,108.7z"/>
<path class="st4" d="M122,108.7v11.5l7.8-11.5h4V128h-4.4v-11.5l-7.8,11.5h-4v-19.3H122z"/>
<path class="st4" d="M151,127.9h-13.4v-19.3h4.4v15h6.9v-15h4.4v15h2.1v7.9H151V127.9z"/>
<path class="st4" d="M161.7,124.3l-1.2,3.7h-4.6l6.9-19.3h4.6l6.9,19.3h-4.6l-1.2-3.7H161.7z M167.2,120.4l-2.1-6.4l-2.1,6.4H167.2z
	"/>
<image style="overflow:visible;opacity:0.32;enable-background:new    ;" width="294" height="259" xlink:href="B334F676.png"  transform="matrix(1 0 0 1 14.15 243.83)">
</image>
<path class="st1" d="M260.3,462.8H60.7c-3.8,0-6.8-3.5-6.8-7.9V291.3c0-4.4,3-7.9,6.8-7.9h199.6c3.8,0,6.8,3.5,6.8,7.9V455
	C267.1,459.3,264,462.8,260.3,462.8"/>
<path class="st5" d="M62.2,294h5.6v1.3h-2.1v5.9h-1.4v-5.9h-2.1V294z"/>
<path class="st5" d="M75.8,297.7c0,0.5-0.1,1-0.3,1.5c-0.2,0.4-0.5,0.8-0.8,1.2c-0.3,0.3-0.7,0.6-1.1,0.8c-0.4,0.2-0.9,0.3-1.4,0.3
	c-0.5,0-1-0.1-1.4-0.3c-0.4-0.2-0.8-0.4-1.1-0.8c-0.3-0.3-0.6-0.8-0.8-1.2c-0.2-0.5-0.3-1-0.3-1.5c0-0.5,0.1-1,0.3-1.4
	c0.2-0.4,0.5-0.8,0.8-1.2c0.3-0.3,0.7-0.6,1.1-0.8c0.4-0.2,0.9-0.3,1.4-0.3c0.5,0,1,0.1,1.4,0.3c0.4,0.2,0.8,0.5,1.1,0.8
	c0.3,0.3,0.6,0.8,0.8,1.2C75.7,296.7,75.8,297.2,75.8,297.7z M70.1,297.7c0,0.3,0.1,0.7,0.2,1c0.3,0.5,0.7,0.9,1.2,1.2
	c0.3,0.1,0.5,0.2,0.8,0.2c0.3,0,0.6-0.1,0.8-0.2c0.3-0.1,0.5-0.3,0.7-0.5c0.2-0.2,0.3-0.5,0.5-0.7c0.1-0.3,0.2-0.7,0.2-1
	c0-0.3-0.1-0.7-0.2-1c-0.1-0.3-0.3-0.6-0.5-0.8c-0.2-0.2-0.4-0.4-0.7-0.5c-0.3-0.1-0.5-0.2-0.8-0.2c-0.3,0-0.6,0.1-0.8,0.2
	c-0.3,0.1-0.5,0.3-0.7,0.5c-0.2,0.3-0.4,0.5-0.5,0.8C70.1,297,70.1,297.4,70.1,297.7z"/>
<path class="st5" d="M83.3,294v7.3H82v-5.9h-3.1v5.9h-1.4V294H83.3z"/>
<path class="st5" d="M91,296.3c0.3,0,0.7,0.1,1,0.2c0.6,0.2,1.1,0.7,1.3,1.3c0.3,0.6,0.3,1.4,0,2c-0.2,0.6-0.7,1.1-1.3,1.3
	c-0.4,0.1-0.7,0.2-1.1,0.2c-0.3,0-0.7-0.1-1-0.2c-0.3-0.1-0.6-0.3-0.8-0.5c-0.2-0.2-0.4-0.4-0.5-0.7c-0.1-0.3-0.2-0.5-0.2-0.8h1.4
	c0,0.1,0.1,0.2,0.1,0.3s0.1,0.2,0.2,0.3s0.2,0.1,0.4,0.2s0.3,0.1,0.4,0.1c0.3,0,0.7-0.1,0.9-0.4c0.2-0.2,0.4-0.6,0.4-0.9
	c0-0.3-0.1-0.7-0.4-0.9c-0.2-0.2-0.6-0.4-0.9-0.4c-0.2,0-0.4,0-0.5,0.1c-0.1,0.1-0.3,0.2-0.4,0.3c-0.1,0.1-0.2,0.2-0.3,0.4h-1.2
	l0.5-4.3h4v1.3h-2.9l-0.2,1.3c0.1-0.1,0.2-0.1,0.3-0.2s0.2-0.1,0.3-0.1C90.6,296.3,90.8,296.4,91,296.3z"/>
<path class="st5" d="M99.7,295.4v5.9h-1.4V294h4.6v1.3h-3.2V295.4z"/>
<path class="st5" d="M110.8,297.7c0,0.5-0.1,1-0.3,1.5c-0.2,0.4-0.5,0.8-0.8,1.2c-0.3,0.3-0.7,0.6-1.1,0.8c-0.4,0.2-0.9,0.3-1.4,0.3
	c-0.5,0-1-0.1-1.4-0.3c-0.4-0.2-0.8-0.4-1.1-0.8c-0.3-0.3-0.6-0.8-0.8-1.2c-0.2-0.5-0.3-1-0.3-1.5c0-0.5,0.1-1,0.3-1.4
	c0.2-0.4,0.5-0.8,0.8-1.2c0.3-0.3,0.7-0.6,1.1-0.8c0.4-0.2,0.9-0.3,1.4-0.3c0.5,0,1,0.1,1.4,0.3c0.4,0.2,0.8,0.5,1.1,0.8
	c0.3,0.3,0.6,0.8,0.8,1.2C110.7,296.7,110.8,297.2,110.8,297.7z M105.1,297.7c0,0.3,0.1,0.7,0.2,1c0.3,0.5,0.7,0.9,1.2,1.2
	c0.3,0.1,0.5,0.2,0.8,0.2c0.3,0,0.6-0.1,0.8-0.2c0.3-0.1,0.5-0.3,0.7-0.5c0.2-0.2,0.3-0.5,0.5-0.7c0.1-0.3,0.2-0.7,0.2-1
	c0-0.3-0.1-0.7-0.2-1c-0.1-0.3-0.3-0.6-0.5-0.8c-0.2-0.2-0.4-0.4-0.7-0.5c-0.3-0.1-0.5-0.2-0.8-0.2c-0.3,0-0.6,0.1-0.8,0.2
	c-0.3,0.1-0.5,0.3-0.7,0.5c-0.2,0.3-0.4,0.5-0.5,0.8C105.1,297,105.1,297.4,105.1,297.7z"/>
<path class="st5" d="M118.2,294v7.3h-1.4v-5.9h-2.2l-0.3,3.7c0,0.6-0.3,1.2-0.7,1.7c-0.4,0.4-0.9,0.6-1.4,0.6h-0.6v-1.2h0.2
	c0.3,0,0.6-0.1,0.8-0.3c0.2-0.2,0.3-0.5,0.4-0.8l0.3-4.9h4.9L118.2,294z"/>
<path class="st5" d="M126.9,297.7c0,0.5-0.1,1-0.3,1.5c-0.2,0.4-0.5,0.8-0.8,1.2c-0.3,0.3-0.7,0.6-1.1,0.8c-0.4,0.2-0.9,0.3-1.4,0.3
	c-0.5,0-1-0.1-1.4-0.3c-0.4-0.2-0.8-0.4-1.1-0.8c-0.3-0.3-0.6-0.8-0.8-1.2c-0.2-0.5-0.3-1-0.3-1.5c0-0.5,0.1-1,0.3-1.4
	c0.2-0.4,0.5-0.8,0.8-1.2c0.3-0.3,0.7-0.6,1.1-0.8c0.4-0.2,0.9-0.3,1.4-0.3c0.5,0,1,0.1,1.4,0.3c0.4,0.2,0.8,0.5,1.1,0.8
	c0.3,0.3,0.6,0.8,0.8,1.2C126.8,296.7,126.9,297.2,126.9,297.7z M121.3,297.7c0,0.3,0.1,0.7,0.2,1c0.3,0.5,0.7,0.9,1.2,1.2
	c0.3,0.1,0.5,0.2,0.8,0.2c0.3,0,0.6-0.1,0.8-0.2c0.3-0.1,0.5-0.3,0.7-0.5c0.2-0.2,0.3-0.5,0.5-0.7c0.1-0.3,0.2-0.7,0.2-1
	c0-0.3-0.1-0.7-0.2-1c-0.1-0.3-0.3-0.6-0.5-0.8c-0.2-0.2-0.4-0.4-0.7-0.5c-0.3-0.1-0.5-0.2-0.8-0.2c-0.3,0-0.6,0.1-0.8,0.2
	c-0.3,0.1-0.5,0.3-0.7,0.5c-0.2,0.3-0.4,0.5-0.5,0.8C121.3,297,121.3,297.4,121.3,297.7z"/>
<path class="st5" d="M129.6,297.7c0,0.3,0.1,0.7,0.2,1c0.3,0.5,0.7,0.9,1.2,1.2c0.3,0.1,0.5,0.2,0.8,0.2c0.2,0,0.5,0,0.7-0.1
	c0.2-0.1,0.3-0.2,0.5-0.3c0.2-0.1,0.3-0.3,0.4-0.4c0.1-0.1,0.2-0.3,0.2-0.5h1.4c-0.1,0.3-0.2,0.7-0.4,1c-0.2,0.3-0.4,0.6-0.7,0.8
	c-0.3,0.2-0.7,0.4-1,0.6c-0.4,0.1-0.8,0.2-1.2,0.2c-0.5,0-1-0.1-1.4-0.3c-0.4-0.2-0.8-0.4-1.1-0.8c-0.3-0.3-0.6-0.8-0.8-1.2
	c-0.2-0.5-0.3-1-0.3-1.5c0-0.5,0.1-1,0.3-1.4c0.2-0.4,0.5-0.8,0.8-1.2c0.3-0.3,0.7-0.6,1.1-0.8c0.4-0.2,0.9-0.3,1.4-0.3
	c0.4,0,0.8,0.1,1.2,0.2c0.4,0.1,0.7,0.3,1,0.6c0.3,0.2,0.5,0.5,0.7,0.8c0.2,0.3,0.3,0.6,0.4,1h-1.4c0-0.2-0.1-0.3-0.2-0.5
	s-0.2-0.3-0.4-0.4s-0.3-0.2-0.5-0.3c-0.2-0.1-0.5-0.1-0.7-0.1c-0.3,0-0.6,0.1-0.8,0.2c-0.3,0.1-0.5,0.3-0.7,0.5
	c-0.2,0.3-0.4,0.5-0.5,0.8C129.6,297,129.6,297.4,129.6,297.7z"/>
<path class="st5" d="M142,294l-2.5,5.5c-0.1,0.3-0.2,0.5-0.4,0.8c-0.1,0.2-0.3,0.4-0.5,0.6c-0.2,0.1-0.3,0.3-0.5,0.3
	c-0.2,0.1-0.5,0.1-0.7,0.1c-0.2,0-0.3,0-0.5-0.1c-0.1,0-0.2,0-0.2-0.1v-1.2h0.4c0.2,0,0.4-0.1,0.6-0.2c0.2-0.1,0.3-0.2,0.3-0.4
	l0.1-0.3l-2.4-5.2h1.4l1.7,3.6l1.6-3.6h1.6V294z"/>
<path class="st5" d="M148.8,294c0.5,0,0.9,0.1,1.3,0.3c0.4,0.2,0.8,0.4,1.1,0.8c0.3,0.3,0.6,0.7,0.7,1.2c0.4,1,0.4,2,0,3
	c-0.2,0.4-0.4,0.8-0.7,1.2c-0.3,0.4-0.7,0.6-1.1,0.8c-0.4,0.2-0.8,0.3-1.3,0.3c-0.4,0-0.8-0.1-1.2-0.2c-0.3-0.2-0.7-0.4-1-0.6
	c-0.3-0.3-0.6-0.6-0.7-1c-0.2-0.4-0.3-0.8-0.4-1.2h-0.8v2.9h-1.4V294h1.4v3h0.9c0.1-0.4,0.2-0.8,0.4-1.2c0.3-0.7,1-1.4,1.7-1.7
	C148,294.1,148.4,294,148.8,294z M146.9,297.7c0,0.3,0.1,0.7,0.2,1c0.1,0.3,0.2,0.5,0.4,0.7c0.2,0.2,0.4,0.4,0.6,0.5
	c0.2,0.1,0.5,0.2,0.8,0.2c0.2,0,0.5-0.1,0.7-0.2c0.2-0.1,0.4-0.3,0.6-0.5c0.4-0.5,0.6-1.1,0.6-1.7c0-0.3-0.1-0.7-0.2-1
	c-0.1-0.3-0.2-0.5-0.4-0.7c-0.2-0.2-0.4-0.4-0.6-0.5c-0.2-0.1-0.5-0.2-0.7-0.2c-0.3,0-0.5,0.1-0.8,0.2c-0.3,0.1-0.4,0.3-0.6,0.5
	C147.1,296.5,146.9,297.1,146.9,297.7z"/>
<path class="st5" d="M162.2,294v5.9h0.8v2.7h-1.4v-1.4h-7.8V294h1.4v5.9h2.1V294h1.4v5.9h2.1V294H162.2z"/>
<path class="st5" d="M169,301.3v-4.8l-3.2,4.8h-1.2V294h1.4v4.8l3.2-4.8h1.2v7.3H169z"/>
<path class="st5" d="M176.4,294h1.6l-2.2,3.6l2.4,3.7h-1.6l-1.6-2.6l-1.6,2.6h-1.6l2.4-3.7L172,294h1.6l1.5,2.5L176.4,294z"/>
<path class="st6" d="M227.3,327.9c0.3,0,0.5,0.1,0.8,0.2c0.2,0.1,0.4,0.2,0.6,0.4c0.2,0.2,0.3,0.4,0.4,0.7c0.1,0.3,0.2,0.5,0.2,0.8
	c0,0.3-0.1,0.6-0.2,0.8c-0.1,0.5-0.6,1-1.1,1.1c-0.3,0.1-0.5,0.2-0.8,0.2c-0.3,0-0.5,0-0.8-0.1c-0.2-0.1-0.4-0.2-0.6-0.3
	c-0.2-0.1-0.3-0.3-0.4-0.5c-0.1-0.2-0.2-0.4-0.2-0.6h0.8c0.1,0.3,0.2,0.5,0.4,0.7c0.2,0.2,0.5,0.3,0.8,0.3c0.2,0,0.4,0,0.5-0.1
	c0.2-0.1,0.3-0.2,0.4-0.3c0.1-0.1,0.2-0.3,0.3-0.4c0.1-0.2,0.1-0.4,0.1-0.6c0-0.4-0.1-0.8-0.4-1c-0.4-0.4-1-0.5-1.5-0.3
	c-0.3,0.2-0.5,0.4-0.7,0.7h-0.7l0.4-3.5h3.1v0.7h-2.5l-0.2,1.8c0.1-0.1,0.2-0.1,0.3-0.2c0.1-0.1,0.2-0.1,0.3-0.1
	C226.7,328.3,227.1,327.9,227.3,327.9z"/>
<path class="st6" d="M232.2,327.9c0.3,0,0.5,0.1,0.8,0.2c0.2,0.1,0.4,0.2,0.6,0.4c0.2,0.2,0.3,0.4,0.4,0.7c0.1,0.3,0.2,0.5,0.2,0.8
	c0,0.3-0.1,0.6-0.2,0.8c-0.1,0.5-0.6,1-1.1,1.1c-0.3,0.1-0.5,0.2-0.8,0.2c-0.3,0-0.5,0-0.8-0.1c-0.2-0.1-0.4-0.2-0.6-0.3
	c-0.2-0.1-0.3-0.3-0.4-0.5c-0.1-0.2-0.2-0.4-0.2-0.6h0.8c0.1,0.3,0.2,0.5,0.4,0.7c0.2,0.2,0.5,0.3,0.8,0.3c0.2,0,0.4,0,0.5-0.1
	c0.2-0.1,0.3-0.2,0.4-0.3c0.1-0.1,0.2-0.3,0.3-0.4c0.1-0.2,0.1-0.4,0.1-0.6c0-0.4-0.1-0.8-0.4-1c-0.4-0.4-1-0.5-1.5-0.3
	c-0.3,0.2-0.5,0.4-0.7,0.7h-0.7l0.4-3.5h3.1v0.7h-2.5l-0.2,1.8c0.1-0.1,0.2-0.1,0.3-0.2c0.1-0.1,0.2-0.1,0.3-0.1
	C231.6,328.3,232,327.9,232.2,327.9z"/>
<path class="st6" d="M241.1,329.8c0,0.3-0.1,0.6-0.2,0.9c-0.1,0.2-0.2,0.5-0.4,0.7c-0.2,0.2-0.4,0.4-0.7,0.5c-0.5,0.3-1.1,0.3-1.6,0
	c-0.3-0.1-0.5-0.3-0.7-0.5c-0.2-0.2-0.3-0.4-0.4-0.7c-0.3-0.6-0.3-1.2,0-1.8c0.1-0.2,0.2-0.5,0.4-0.7c0.2-0.2,0.4-0.4,0.7-0.5
	c0.5-0.3,1.1-0.3,1.6,0c0.3,0.1,0.5,0.3,0.7,0.5c0.2,0.2,0.3,0.4,0.4,0.7C241,329.2,241.1,329.5,241.1,329.8z M237.7,329.8
	c0,0.2,0,0.5,0.1,0.6c0.1,0.2,0.2,0.3,0.3,0.5c0.1,0.1,0.3,0.2,0.4,0.3c0.3,0.1,0.7,0.1,1,0c0.2-0.1,0.3-0.2,0.4-0.3
	c0.1-0.2,0.2-0.3,0.3-0.5c0.1-0.2,0.1-0.4,0.1-0.6c0-0.2,0-0.5-0.1-0.6c-0.1-0.2-0.2-0.3-0.3-0.5c-0.1-0.1-0.3-0.2-0.4-0.3
	c-0.3-0.1-0.7-0.1-1,0c-0.2,0.1-0.3,0.2-0.4,0.3c-0.1,0.2-0.2,0.3-0.3,0.5C237.7,329.3,237.7,329.5,237.7,329.8L237.7,329.8z"/>
<path class="st6" d="M245.5,327.6v4.4h-0.7v-1.6c-0.1,0.1-0.2,0.1-0.3,0.1c-0.1,0-0.2,0.1-0.4,0.1h-0.5c-0.2,0-0.4,0-0.6-0.1
	c-0.2-0.1-0.3-0.2-0.5-0.3c-0.1-0.2-0.2-0.3-0.3-0.5c-0.1-0.2-0.1-0.5-0.1-0.7v-1.5h0.7v1.5c0,0.6,0.4,1,1,1h0.4
	c0.1,0,0.2-0.1,0.3-0.1s0.2-0.1,0.3-0.2v-2.1L245.5,327.6z"/>
<path class="st6" d="M247.5,332h-0.7v-4.4h0.7V332z M249.4,332l-1.9-2.3l1.7-2.1h0.8l-1.7,2.1l1.9,2.4h-0.8V332z"/>
<path class="st6" d="M254.6,329.8c0,0.3-0.1,0.6-0.2,0.9c-0.1,0.2-0.2,0.5-0.4,0.7c-0.2,0.2-0.4,0.4-0.7,0.5c-0.5,0.3-1.1,0.3-1.6,0
	c-0.3-0.1-0.5-0.3-0.7-0.5c-0.2-0.2-0.3-0.4-0.4-0.7c-0.3-0.6-0.3-1.2,0-1.8c0.1-0.2,0.2-0.5,0.4-0.7c0.2-0.2,0.4-0.4,0.7-0.5
	c0.5-0.3,1.1-0.3,1.6,0c0.3,0.1,0.5,0.3,0.7,0.5c0.2,0.2,0.3,0.4,0.4,0.7C254.6,329.1,254.6,329.4,254.6,329.8z M251.2,329.8
	c0,0.2,0,0.5,0.1,0.6c0.1,0.2,0.2,0.3,0.3,0.5c0.1,0.1,0.3,0.2,0.4,0.3c0.3,0.1,0.7,0.1,1,0c0.2-0.1,0.3-0.2,0.4-0.3
	c0.1-0.2,0.2-0.3,0.3-0.5c0.1-0.2,0.1-0.4,0.1-0.6c0-0.2,0-0.5-0.1-0.6c-0.1-0.2-0.2-0.3-0.3-0.5c-0.1-0.1-0.3-0.2-0.4-0.3
	c-0.3-0.1-0.7-0.1-1,0c-0.2,0.1-0.3,0.2-0.4,0.3c-0.1,0.2-0.2,0.3-0.3,0.5C251.2,329.4,251.2,329.6,251.2,329.8L251.2,329.8z"/>
<path class="st6" d="M258.3,329.7c0.1,0.1,0.2,0.1,0.3,0.2s0.2,0.2,0.2,0.3c0,0.2,0.1,0.3,0.1,0.5c0,0.3-0.1,0.7-0.4,0.9
	c-0.2,0.2-0.6,0.4-0.9,0.4h-2.1v-4.4h2c0.2,0,0.4,0,0.5,0.1c0.1,0.1,0.3,0.1,0.4,0.3s0.2,0.2,0.3,0.4c0.1,0.2,0.1,0.3,0.1,0.5
	c0,0.2,0,0.3-0.1,0.4s-0.1,0.2-0.2,0.3C258.4,329.6,258.4,329.6,258.3,329.7z M256.3,328.3v1.1h1.1c0.2,0,0.4-0.1,0.5-0.2
	c0.2-0.2,0.3-0.5,0.1-0.7c0,0-0.1-0.1-0.1-0.1c-0.1-0.1-0.3-0.2-0.5-0.2h-1.1V328.3z M257.6,331.3c0.2,0,0.3-0.1,0.4-0.2
	c0.1-0.1,0.2-0.2,0.2-0.4v-0.2c0-0.1-0.1-0.1-0.1-0.2s-0.1-0.1-0.2-0.1h-1.5v1.2L257.6,331.3L257.6,331.3z"/>
<path class="st7" d="M88.7,328.9c0,5.9-4.8,10.7-10.7,10.7c-5.9,0-10.7-4.8-10.7-10.7c0-5.9,4.8-10.7,10.7-10.7c0,0,0,0,0,0
	C83.9,318.2,88.7,323,88.7,328.9L88.7,328.9z"/>
<polyline class="st8" points="100.1,340.1 266.5,340.1 266.5,339.1 100.1,339.1 "/>
<path class="st6" d="M227.7,354.9c0.3,0,0.5,0.1,0.8,0.2c0.2,0.1,0.4,0.2,0.6,0.4c0.2,0.2,0.3,0.4,0.4,0.7c0.1,0.3,0.2,0.5,0.2,0.8
	c0,0.3-0.1,0.6-0.2,0.8c-0.1,0.5-0.6,1-1.1,1.1c-0.3,0.1-0.5,0.2-0.8,0.2c-0.3,0-0.5,0-0.8-0.1c-0.2-0.1-0.4-0.2-0.6-0.3
	c-0.2-0.1-0.3-0.3-0.4-0.5c-0.1-0.2-0.2-0.4-0.2-0.6h0.8c0.1,0.3,0.2,0.5,0.4,0.7c0.2,0.2,0.5,0.3,0.8,0.3c0.2,0,0.4,0,0.5-0.1
	c0.2-0.1,0.3-0.2,0.4-0.3c0.1-0.1,0.2-0.3,0.3-0.4c0.1-0.2,0.1-0.4,0.1-0.6c0-0.4-0.1-0.8-0.4-1c-0.4-0.4-1-0.5-1.5-0.3
	c-0.3,0.2-0.5,0.4-0.7,0.7h-0.7l0.4-3.5h3.1v0.7h-2.5l-0.2,1.8c0.1-0.1,0.2-0.1,0.3-0.2c0.1-0.1,0.2-0.1,0.3-0.1
	C227.1,355.3,227.6,354.9,227.7,354.9z"/>
<path class="st6" d="M235.2,355.9c0,0.4-0.1,0.9-0.2,1.3c-0.1,0.4-0.3,0.7-0.5,1c-0.2,0.3-0.5,0.5-0.8,0.6c-0.6,0.3-1.2,0.3-1.8,0
	c-0.3-0.1-0.6-0.3-0.8-0.6c-0.2-0.3-0.4-0.6-0.5-1c-0.1-0.4-0.2-0.9-0.2-1.3c0-0.4,0.1-0.9,0.2-1.3c0.1-0.4,0.3-0.7,0.5-1
	c0.2-0.3,0.5-0.5,0.8-0.6c0.6-0.3,1.2-0.3,1.8,0c0.3,0.1,0.6,0.3,0.8,0.6c0.3,0.3,0.4,0.6,0.5,1C235.2,355,235.2,355.5,235.2,355.9z
	 M231.2,355.9c0,0.4,0,0.7,0.1,1.1c0.1,0.3,0.2,0.6,0.4,0.8c0.2,0.2,0.3,0.4,0.5,0.5c0.4,0.1,0.8,0.1,1.2,0c0.2-0.1,0.4-0.3,0.5-0.5
	c0.2-0.2,0.3-0.5,0.4-0.8c0.1-0.7,0.1-1.5,0-2.2c-0.1-0.3-0.2-0.6-0.4-0.8c-0.2-0.2-0.3-0.4-0.5-0.5c-0.4-0.1-0.8-0.1-1.2,0
	c-0.2,0.1-0.4,0.3-0.5,0.5c-0.2,0.2-0.3,0.5-0.4,0.8C231.2,355.2,231.2,355.5,231.2,355.9z"/>
<path class="st6" d="M242.1,356.8c0,0.3-0.1,0.6-0.2,0.9c-0.1,0.2-0.2,0.5-0.4,0.7c-0.2,0.2-0.4,0.4-0.7,0.5c-0.5,0.3-1.1,0.3-1.6,0
	c-0.3-0.1-0.5-0.3-0.7-0.5c-0.2-0.2-0.3-0.4-0.4-0.7c-0.3-0.6-0.3-1.2,0-1.8c0.1-0.2,0.2-0.5,0.4-0.7c0.2-0.2,0.4-0.4,0.7-0.5
	c0.5-0.3,1.1-0.3,1.6,0c0.3,0.1,0.5,0.3,0.7,0.5c0.2,0.2,0.3,0.4,0.4,0.7C242.1,356.2,242.1,356.5,242.1,356.8z M238.7,356.8
	c0,0.2,0,0.5,0.1,0.6c0.1,0.2,0.2,0.3,0.3,0.5c0.1,0.1,0.3,0.2,0.4,0.3c0.3,0.1,0.7,0.1,1,0c0.2-0.1,0.3-0.2,0.4-0.3
	c0.1-0.2,0.2-0.3,0.3-0.5c0.1-0.2,0.1-0.4,0.1-0.6c0-0.2,0-0.5-0.1-0.6c-0.1-0.2-0.2-0.3-0.3-0.5c-0.1-0.1-0.3-0.2-0.4-0.3
	c-0.3-0.1-0.7-0.1-1,0c-0.2,0.1-0.3,0.2-0.4,0.3c-0.1,0.2-0.2,0.3-0.3,0.5C238.7,356.4,238.7,356.6,238.7,356.8L238.7,356.8z"/>
<path class="st6" d="M246.5,354.6v4.4h-0.7v-1.6c-0.1,0.1-0.2,0.1-0.3,0.1c-0.1,0-0.2,0.1-0.4,0.1h-0.5c-0.2,0-0.4,0-0.6-0.1
	c-0.2-0.1-0.3-0.2-0.5-0.3c-0.1-0.2-0.2-0.3-0.3-0.5c-0.1-0.2-0.1-0.5-0.1-0.7v-1.5h0.7v1.5c0,0.6,0.4,1,1,1h0.4
	c0.1,0,0.2-0.1,0.3-0.1s0.2-0.1,0.3-0.2v-2.1L246.5,354.6z"/>
<path class="st6" d="M248.5,359h-0.7v-4.4h0.7V359z M250.4,359l-1.9-2.3l1.7-2.1h0.8l-1.7,2.1l1.9,2.4h-0.8V359z"/>
<path class="st6" d="M255.7,356.8c0,0.3-0.1,0.6-0.2,0.9c-0.1,0.2-0.2,0.5-0.4,0.7c-0.2,0.2-0.4,0.4-0.7,0.5c-0.5,0.3-1.1,0.3-1.6,0
	c-0.3-0.1-0.5-0.3-0.7-0.5c-0.2-0.2-0.3-0.4-0.4-0.7c-0.3-0.6-0.3-1.2,0-1.8c0.1-0.2,0.2-0.5,0.4-0.7c0.2-0.2,0.4-0.4,0.7-0.5
	c0.5-0.3,1.1-0.3,1.6,0c0.3,0.1,0.5,0.3,0.7,0.5c0.2,0.2,0.3,0.4,0.4,0.7C255.6,356.2,255.7,356.5,255.7,356.8z M252.3,356.8
	c0,0.2,0,0.5,0.1,0.6c0.1,0.2,0.2,0.3,0.3,0.5c0.1,0.1,0.3,0.2,0.4,0.3c0.3,0.1,0.7,0.1,1,0c0.2-0.1,0.3-0.2,0.4-0.3
	c0.1-0.2,0.2-0.3,0.3-0.5c0.1-0.2,0.1-0.4,0.1-0.6c0-0.2,0-0.5-0.1-0.6c-0.1-0.2-0.2-0.3-0.3-0.5c-0.1-0.1-0.3-0.2-0.4-0.3
	c-0.3-0.1-0.7-0.1-1,0c-0.2,0.1-0.3,0.2-0.4,0.3c-0.1,0.2-0.2,0.3-0.3,0.5C252.3,356.4,252.3,356.6,252.3,356.8z"/>
<path class="st6" d="M259.3,356.7c0.1,0.1,0.2,0.1,0.3,0.2s0.2,0.2,0.2,0.3c0,0.2,0.1,0.3,0.1,0.5c0,0.3-0.1,0.7-0.4,0.9
	c-0.2,0.2-0.6,0.4-0.9,0.4h-2.1v-4.4h2c0.2,0,0.4,0,0.5,0.1c0.1,0.1,0.3,0.1,0.4,0.3s0.2,0.2,0.3,0.4c0.1,0.2,0.1,0.3,0.1,0.5
	c0,0.2,0,0.3-0.1,0.4s-0.1,0.2-0.2,0.3C259.4,356.7,259.4,356.7,259.3,356.7z M257.3,355.3v1.1h1.1c0.2,0,0.4-0.1,0.5-0.2
	c0.2-0.2,0.3-0.5,0.1-0.7c0,0-0.1-0.1-0.1-0.1c-0.1-0.1-0.3-0.2-0.5-0.2h-1.1V355.3z M258.6,358.3c0.2,0,0.3-0.1,0.4-0.2
	c0.1-0.1,0.2-0.2,0.2-0.4v-0.2c0-0.1-0.1-0.1-0.1-0.2s-0.1-0.1-0.2-0.1h-1.5v1.2L258.6,358.3L258.6,358.3z"/>
<path class="st4" d="M89.1,355.9c0,5.9-4.8,10.7-10.7,10.7s-10.7-4.8-10.7-10.7c0-5.9,4.8-10.7,10.7-10.7
	C84.3,345.2,89.1,350,89.1,355.9z"/>
<polyline class="st8" points="100.5,367.1 266.9,367.1 266.9,366.1 100.5,366.1 "/>
<path class="st6" d="M225.1,382.4c0-0.2,0.1-0.4,0.2-0.6c0.1-0.2,0.2-0.4,0.4-0.5c0.2-0.1,0.4-0.3,0.6-0.3c0.2-0.1,0.5-0.1,0.7-0.1
	c0.3,0,0.5,0,0.8,0.1c0.2,0.1,0.4,0.2,0.6,0.4c0.2,0.1,0.3,0.3,0.4,0.5c0.1,0.2,0.1,0.5,0.1,0.7c0,0.2,0,0.4-0.1,0.6
	c-0.1,0.2-0.2,0.3-0.3,0.4c-0.1,0.1-0.3,0.2-0.4,0.3c0.4,0.2,0.7,0.4,0.9,0.8c0.1,0.2,0.2,0.5,0.2,0.7c0,0.2,0,0.5-0.1,0.7
	c-0.1,0.2-0.2,0.4-0.4,0.6c-0.2,0.2-0.4,0.3-0.7,0.4c-0.5,0.1-1.1,0.1-1.6,0c-0.2-0.1-0.4-0.2-0.6-0.3c-0.2-0.1-0.3-0.3-0.4-0.5
	c-0.1-0.2-0.2-0.4-0.2-0.6h0.8c0.1,0.3,0.2,0.5,0.4,0.7c0.2,0.2,0.5,0.3,0.8,0.3c0.3,0,0.7-0.1,0.9-0.3c0.4-0.5,0.4-1.1,0-1.6
	c-0.2-0.2-0.6-0.3-0.9-0.3h-0.3v-0.7h0.3c0.3,0,0.6-0.1,0.8-0.3c0.4-0.4,0.4-1,0-1.4c-0.2-0.2-0.5-0.3-0.8-0.3c-0.2,0-0.3,0-0.4,0.1
	s-0.3,0.1-0.4,0.2s-0.2,0.2-0.2,0.3s-0.1,0.2-0.1,0.4h-1V382.4z"/>
<path class="st6" d="M231.9,380.7c0.3,0,0.6,0.1,0.8,0.2c0.3,0.1,0.5,0.3,0.7,0.5c0.2,0.2,0.4,0.5,0.5,0.7c0.1,0.3,0.2,0.5,0.2,0.8
	c0,0.2,0,0.4-0.1,0.6c-0.1,0.2-0.1,0.3-0.2,0.5c-0.1,0.2-0.2,0.3-0.3,0.4l-1.8,2.7h-0.8l1.4-2.1H232c-0.3,0-0.6-0.1-0.8-0.2
	c-0.3-0.1-0.5-0.3-0.7-0.5c-0.2-0.2-0.4-0.5-0.5-0.7c-0.1-0.3-0.2-0.5-0.2-0.8c0-0.3,0.1-0.6,0.2-0.8c0.1-0.3,0.3-0.5,0.5-0.7
	c0.2-0.2,0.5-0.4,0.7-0.5C231.4,380.8,231.7,380.7,231.9,380.7z M233.2,382.8c0-0.2,0-0.4-0.1-0.6c-0.1-0.2-0.2-0.3-0.3-0.5
	s-0.3-0.2-0.4-0.3c-0.2-0.1-0.3-0.1-0.5-0.1c-0.2,0-0.4,0-0.5,0.1c-0.2,0.1-0.3,0.2-0.4,0.3c-0.1,0.2-0.2,0.3-0.3,0.5
	c-0.1,0.2-0.1,0.4-0.1,0.6c0,0.2,0,0.4,0.1,0.5c0.1,0.2,0.2,0.3,0.3,0.4c0.1,0.1,0.3,0.2,0.4,0.3c0.2,0.1,0.3,0.1,0.5,0.1
	c0.2,0,0.4,0,0.5-0.1c0.2-0.1,0.3-0.2,0.4-0.3c0.1-0.1,0.2-0.3,0.3-0.4C233.2,383.2,233.2,383,233.2,382.8L233.2,382.8z"/>
<path class="st6" d="M240.9,384.8c0,0.3-0.1,0.6-0.2,0.9c-0.1,0.2-0.2,0.5-0.4,0.7c-0.2,0.2-0.4,0.4-0.7,0.5c-0.5,0.3-1.1,0.3-1.6,0
	c-0.3-0.1-0.5-0.3-0.7-0.5c-0.2-0.2-0.3-0.4-0.4-0.7c-0.3-0.6-0.3-1.2,0-1.8c0.1-0.2,0.2-0.5,0.4-0.7c0.2-0.2,0.4-0.4,0.7-0.5
	c0.5-0.3,1.1-0.3,1.6,0c0.3,0.1,0.5,0.3,0.7,0.5c0.2,0.2,0.3,0.4,0.4,0.7C240.8,384.2,240.9,384.5,240.9,384.8z M237.5,384.8
	c0,0.2,0,0.5,0.1,0.6c0.1,0.2,0.2,0.3,0.3,0.5c0.1,0.1,0.3,0.2,0.4,0.3c0.3,0.1,0.7,0.1,1,0c0.2-0.1,0.3-0.2,0.4-0.3
	c0.1-0.2,0.2-0.3,0.3-0.5c0.1-0.2,0.1-0.4,0.1-0.6c0-0.2,0-0.5-0.1-0.6c-0.1-0.2-0.2-0.3-0.3-0.5c-0.1-0.1-0.3-0.2-0.4-0.3
	c-0.3-0.1-0.7-0.1-1,0c-0.2,0.1-0.3,0.2-0.4,0.3c-0.1,0.2-0.2,0.3-0.3,0.5C237.5,384.3,237.5,384.5,237.5,384.8z"/>
<path class="st6" d="M245.3,382.6v4.4h-0.7v-1.6c-0.1,0.1-0.2,0.1-0.3,0.1c-0.1,0-0.2,0.1-0.4,0.1h-0.5c-0.2,0-0.4,0-0.6-0.1
	c-0.2-0.1-0.3-0.2-0.5-0.3c-0.1-0.2-0.2-0.3-0.3-0.5c-0.1-0.2-0.1-0.5-0.1-0.7v-1.5h0.7v1.5c0,0.6,0.4,1,1,1h0.4
	c0.1,0,0.2-0.1,0.3-0.1s0.2-0.1,0.3-0.2v-2.1L245.3,382.6z"/>
<path class="st6" d="M247.3,387h-0.7v-4.4h0.7V387z M249.1,387l-1.9-2.3l1.7-2.1h0.8l-1.7,2.1l1.9,2.4h-0.8V387z"/>
<path class="st6" d="M254.4,384.8c0,0.3-0.1,0.6-0.2,0.9c-0.1,0.2-0.2,0.5-0.4,0.7c-0.2,0.2-0.4,0.4-0.7,0.5c-0.5,0.3-1.1,0.3-1.6,0
	c-0.3-0.1-0.5-0.3-0.7-0.5c-0.2-0.2-0.3-0.4-0.4-0.7c-0.3-0.6-0.3-1.2,0-1.8c0.1-0.2,0.2-0.5,0.4-0.7c0.2-0.2,0.4-0.4,0.7-0.5
	c0.5-0.3,1.1-0.3,1.6,0c0.3,0.1,0.5,0.3,0.7,0.5c0.2,0.2,0.3,0.4,0.4,0.7C254.4,384.1,254.4,384.4,254.4,384.8z M251,384.8
	c0,0.2,0,0.5,0.1,0.6c0.1,0.2,0.2,0.3,0.3,0.5c0.1,0.1,0.3,0.2,0.4,0.3c0.3,0.1,0.7,0.1,1,0c0.2-0.1,0.3-0.2,0.4-0.3
	c0.1-0.2,0.2-0.3,0.3-0.5c0.1-0.2,0.1-0.4,0.1-0.6c0-0.2,0-0.5-0.1-0.6c-0.1-0.2-0.2-0.3-0.3-0.5c-0.1-0.1-0.3-0.2-0.4-0.3
	c-0.3-0.1-0.7-0.1-1,0c-0.2,0.1-0.3,0.2-0.4,0.3c-0.1,0.2-0.2,0.3-0.3,0.5C251,384.4,251,384.6,251,384.8z"/>
<path class="st6" d="M258.1,384.7c0.1,0.1,0.2,0.1,0.3,0.2s0.2,0.2,0.2,0.3c0,0.2,0.1,0.3,0.1,0.5c0,0.3-0.1,0.7-0.4,0.9
	c-0.2,0.2-0.6,0.4-0.9,0.4h-2.1v-4.4h2c0.2,0,0.4,0,0.5,0.1c0.1,0.1,0.3,0.1,0.4,0.3s0.2,0.2,0.3,0.4c0.1,0.2,0.1,0.3,0.1,0.5
	c0,0.2,0,0.3-0.1,0.4s-0.1,0.2-0.2,0.3C258.3,384.5,258.2,384.6,258.1,384.7z M256.1,383.2v1.1h1.1c0.2,0,0.4-0.1,0.5-0.2
	c0.2-0.2,0.3-0.5,0.1-0.7c0,0-0.1-0.1-0.1-0.1c-0.1-0.1-0.3-0.2-0.5-0.2h-1.1V383.2z M257.4,386.3c0.2,0,0.3-0.1,0.4-0.2
	c0.1-0.1,0.2-0.2,0.2-0.4v-0.2c0-0.1-0.1-0.1-0.1-0.2s-0.1-0.1-0.2-0.1h-1.5v1.2L257.4,386.3L257.4,386.3z"/>
<path class="st9" d="M88.7,383.8c0,5.9-4.8,10.7-10.7,10.7c-5.9,0-10.7-4.8-10.7-10.7c0-5.9,4.8-10.7,10.7-10.7c0,0,0,0,0,0
	C83.9,373.1,88.7,377.9,88.7,383.8L88.7,383.8z"/>
<polyline class="st8" points="100.1,395.1 266.5,395.1 266.5,394.1 100.1,394.1 "/>
<path class="st6" d="M225.7,410.3c0-0.2,0.1-0.4,0.2-0.6c0.1-0.2,0.2-0.4,0.4-0.5c0.2-0.1,0.4-0.3,0.6-0.3c0.2-0.1,0.5-0.1,0.7-0.1
	c0.3,0,0.5,0,0.8,0.1c0.2,0.1,0.4,0.2,0.6,0.4c0.2,0.1,0.3,0.3,0.4,0.5c0.1,0.2,0.1,0.5,0.1,0.7c0,0.2,0,0.4-0.1,0.6
	c-0.1,0.2-0.2,0.3-0.3,0.4c-0.1,0.1-0.3,0.2-0.4,0.3c0.4,0.2,0.7,0.4,0.9,0.8c0.1,0.2,0.2,0.5,0.2,0.7c0,0.2,0,0.5-0.1,0.7
	c-0.1,0.2-0.2,0.4-0.4,0.6c-0.2,0.2-0.4,0.3-0.7,0.4c-0.5,0.1-1.1,0.1-1.6,0c-0.2-0.1-0.4-0.2-0.6-0.3c-0.2-0.1-0.3-0.3-0.4-0.5
	c-0.1-0.2-0.2-0.4-0.2-0.6h0.8c0.1,0.3,0.2,0.5,0.4,0.7c0.2,0.2,0.5,0.3,0.8,0.3c0.3,0,0.7-0.1,0.9-0.3c0.4-0.5,0.4-1.1,0-1.6
	c-0.2-0.2-0.6-0.3-0.9-0.3h-0.3v-0.7h0.3c0.3,0,0.6-0.1,0.8-0.3c0.4-0.4,0.4-1,0-1.4c-0.2-0.2-0.5-0.3-0.8-0.3c-0.2,0-0.3,0-0.4,0.1
	s-0.3,0.1-0.4,0.2s-0.2,0.2-0.2,0.3s-0.1,0.2-0.1,0.4h-1V410.3z"/>
<path class="st6" d="M234.1,408.8v0.5l-2.6,5.7h-0.8l2.6-5.5h-2.9v-0.7H234.1z"/>
<path class="st6" d="M240.9,412.7c0,0.3-0.1,0.6-0.2,0.9c-0.1,0.2-0.2,0.5-0.4,0.7c-0.2,0.2-0.4,0.4-0.7,0.5c-0.5,0.3-1.1,0.3-1.6,0
	c-0.3-0.1-0.5-0.3-0.7-0.5c-0.2-0.2-0.3-0.4-0.4-0.7c-0.3-0.6-0.3-1.2,0-1.8c0.1-0.2,0.2-0.5,0.4-0.7c0.2-0.2,0.4-0.4,0.7-0.5
	c0.5-0.3,1.1-0.3,1.6,0c0.3,0.1,0.5,0.3,0.7,0.5c0.2,0.2,0.3,0.4,0.4,0.7C240.9,412.1,240.9,412.4,240.9,412.7z M237.5,412.7
	c0,0.2,0,0.5,0.1,0.6c0.1,0.2,0.2,0.3,0.3,0.5c0.1,0.1,0.3,0.2,0.4,0.3c0.3,0.1,0.7,0.1,1,0c0.2-0.1,0.3-0.2,0.4-0.3
	c0.1-0.2,0.2-0.3,0.3-0.5c0.1-0.2,0.1-0.4,0.1-0.6c0-0.2,0-0.5-0.1-0.6c-0.1-0.2-0.2-0.3-0.3-0.5c-0.1-0.1-0.3-0.2-0.4-0.3
	c-0.3-0.1-0.7-0.1-1,0c-0.2,0.1-0.3,0.2-0.4,0.3c-0.1,0.2-0.2,0.3-0.3,0.5C237.6,412.3,237.5,412.5,237.5,412.7z"/>
<path class="st6" d="M245.3,410.5v4.4h-0.7v-1.6c-0.1,0.1-0.2,0.1-0.3,0.1c-0.1,0-0.2,0.1-0.4,0.1h-0.5c-0.2,0-0.4,0-0.6-0.1
	c-0.2-0.1-0.3-0.2-0.5-0.3c-0.1-0.2-0.2-0.3-0.3-0.5c-0.1-0.2-0.1-0.5-0.1-0.7v-1.5h0.7v1.5c0,0.6,0.4,1,1,1h0.4
	c0.1,0,0.2-0.1,0.3-0.1s0.2-0.1,0.3-0.2v-2.1L245.3,410.5z"/>
<path class="st6" d="M247.3,415h-0.7v-4.4h0.7V415z M249.2,415l-1.9-2.3l1.7-2.1h0.8l-1.7,2.1l1.9,2.4h-0.8V415z"/>
<path class="st6" d="M254.5,412.7c0,0.3-0.1,0.6-0.2,0.9c-0.1,0.2-0.2,0.5-0.4,0.7c-0.2,0.2-0.4,0.4-0.7,0.5c-0.5,0.3-1.1,0.3-1.6,0
	c-0.3-0.1-0.5-0.3-0.7-0.5c-0.2-0.2-0.3-0.4-0.4-0.7c-0.3-0.6-0.3-1.2,0-1.8c0.1-0.2,0.2-0.5,0.4-0.7c0.2-0.2,0.4-0.4,0.7-0.5
	c0.5-0.3,1.1-0.3,1.6,0c0.3,0.1,0.5,0.3,0.7,0.5c0.2,0.2,0.3,0.4,0.4,0.7C254.4,412.1,254.5,412.4,254.5,412.7z M251.1,412.7
	c0,0.2,0,0.5,0.1,0.6c0.1,0.2,0.2,0.3,0.3,0.5c0.1,0.1,0.3,0.2,0.4,0.3c0.3,0.1,0.7,0.1,1,0c0.2-0.1,0.3-0.2,0.4-0.3
	c0.1-0.2,0.2-0.3,0.3-0.5c0.1-0.2,0.1-0.4,0.1-0.6c0-0.2,0-0.5-0.1-0.6c-0.1-0.2-0.2-0.3-0.3-0.5c-0.1-0.1-0.3-0.2-0.4-0.3
	c-0.3-0.1-0.7-0.1-1,0c-0.2,0.1-0.3,0.2-0.4,0.3c-0.1,0.2-0.2,0.3-0.3,0.5C251.1,412.3,251.1,412.5,251.1,412.7z"/>
<path class="st6" d="M258.1,412.6c0.1,0.1,0.2,0.1,0.3,0.2s0.2,0.2,0.2,0.3c0,0.2,0.1,0.3,0.1,0.5c0,0.3-0.1,0.7-0.4,0.9
	c-0.2,0.2-0.6,0.4-0.9,0.4h-2.1v-4.4h2c0.2,0,0.4,0,0.5,0.1c0.1,0.1,0.3,0.1,0.4,0.3s0.2,0.2,0.3,0.4c0.1,0.2,0.1,0.3,0.1,0.5
	c0,0.2,0,0.3-0.1,0.4s-0.1,0.2-0.2,0.3C258.2,412.6,258.2,412.6,258.1,412.6z M256.2,411.2v1.1h1.1c0.2,0,0.4-0.1,0.5-0.2
	c0.2-0.2,0.3-0.5,0.1-0.7c0,0-0.1-0.1-0.1-0.1c-0.1-0.1-0.3-0.2-0.5-0.2h-1.1V411.2z M257.4,414.3c0.2,0,0.3-0.1,0.4-0.2
	c0.1-0.1,0.2-0.2,0.2-0.4v-0.2c0-0.1-0.1-0.1-0.1-0.2s-0.1-0.1-0.2-0.1h-1.5v1.2L257.4,414.3L257.4,414.3z"/>
<path class="st4" d="M89.3,411.8c0,5.9-4.8,10.7-10.7,10.7s-10.7-4.8-10.7-10.7c0-5.9,4.8-10.7,10.7-10.7
	C84.5,401.1,89.3,405.9,89.3,411.8z"/>
<polyline class="st8" points="100.6,423 267.1,423 267.1,422 100.6,422 "/>
<path class="st6" d="M225.1,437.8c0-0.2,0.1-0.4,0.2-0.6c0.1-0.2,0.2-0.4,0.4-0.5c0.2-0.1,0.4-0.3,0.6-0.3c0.2-0.1,0.5-0.1,0.7-0.1
	c0.3,0,0.5,0,0.8,0.1c0.2,0.1,0.4,0.2,0.6,0.4c0.2,0.1,0.3,0.3,0.4,0.5c0.1,0.2,0.1,0.5,0.1,0.7c0,0.2,0,0.4-0.1,0.6
	c-0.1,0.2-0.2,0.3-0.3,0.4c-0.1,0.1-0.3,0.2-0.4,0.3c0.4,0.2,0.7,0.4,0.9,0.8c0.1,0.2,0.2,0.5,0.2,0.7c0,0.2,0,0.5-0.1,0.7
	c-0.1,0.2-0.2,0.4-0.4,0.6c-0.2,0.2-0.4,0.3-0.7,0.4c-0.5,0.1-1.1,0.1-1.6,0c-0.2-0.1-0.4-0.2-0.6-0.3c-0.2-0.1-0.3-0.3-0.4-0.5
	c-0.1-0.2-0.2-0.4-0.2-0.6h0.8c0.1,0.3,0.2,0.5,0.4,0.7c0.2,0.2,0.5,0.3,0.8,0.3c0.3,0,0.7-0.1,0.9-0.3c0.4-0.5,0.4-1.1,0-1.6
	c-0.2-0.2-0.6-0.3-0.9-0.3h-0.3V439h0.3c0.3,0,0.6-0.1,0.8-0.3c0.4-0.4,0.4-1,0-1.4c-0.2-0.2-0.5-0.3-0.8-0.3c-0.2,0-0.3,0-0.4,0.1
	s-0.3,0.1-0.4,0.2s-0.2,0.2-0.2,0.3s-0.1,0.2-0.1,0.4h-1V437.8z"/>
<path class="st6" d="M232,438.4c0.3,0,0.5,0.1,0.8,0.2c0.2,0.1,0.4,0.2,0.6,0.4c0.2,0.2,0.3,0.4,0.4,0.7c0.1,0.3,0.2,0.5,0.2,0.8
	c0,0.3-0.1,0.6-0.2,0.8c-0.1,0.5-0.6,1-1.1,1.1c-0.3,0.1-0.5,0.2-0.8,0.2c-0.3,0-0.5,0-0.8-0.1c-0.2-0.1-0.4-0.2-0.6-0.3
	c-0.2-0.1-0.3-0.3-0.4-0.5c-0.1-0.2-0.2-0.4-0.2-0.6h0.8c0.1,0.3,0.2,0.5,0.4,0.7c0.2,0.2,0.5,0.3,0.8,0.3c0.2,0,0.4,0,0.5-0.1
	c0.2-0.1,0.3-0.2,0.4-0.3c0.1-0.1,0.2-0.3,0.3-0.4c0.1-0.2,0.1-0.4,0.1-0.6c0-0.4-0.1-0.8-0.4-1c-0.4-0.4-1-0.5-1.5-0.3
	c-0.3,0.2-0.5,0.4-0.7,0.7h-0.7l0.4-3.5h3.1v0.7h-2.5l-0.2,1.8c0.1-0.1,0.2-0.1,0.3-0.2c0.1-0.1,0.2-0.1,0.3-0.1
	C231.4,438.8,231.9,438.4,232,438.4z"/>
<path class="st6" d="M240.9,440.2c0,0.3-0.1,0.6-0.2,0.9c-0.1,0.2-0.2,0.5-0.4,0.7c-0.2,0.2-0.4,0.4-0.7,0.5c-0.5,0.3-1.1,0.3-1.6,0
	c-0.3-0.1-0.5-0.3-0.7-0.5c-0.2-0.2-0.3-0.4-0.4-0.7c-0.3-0.6-0.3-1.2,0-1.8c0.1-0.2,0.2-0.5,0.4-0.7c0.2-0.2,0.4-0.4,0.7-0.5
	c0.5-0.3,1.1-0.3,1.6,0c0.3,0.1,0.5,0.3,0.7,0.5c0.2,0.2,0.3,0.4,0.4,0.7C240.9,439.6,240.9,439.9,240.9,440.2z M237.5,440.2
	c0,0.2,0,0.5,0.1,0.6c0.1,0.2,0.2,0.3,0.3,0.5c0.1,0.1,0.3,0.2,0.4,0.3c0.3,0.1,0.7,0.1,1,0c0.2-0.1,0.3-0.2,0.4-0.3
	c0.1-0.2,0.2-0.3,0.3-0.5c0.1-0.2,0.1-0.4,0.1-0.6c0-0.2,0-0.5-0.1-0.6c-0.1-0.2-0.2-0.3-0.3-0.5c-0.1-0.1-0.3-0.2-0.4-0.3
	c-0.3-0.1-0.7-0.1-1,0c-0.2,0.1-0.3,0.2-0.4,0.3c-0.1,0.2-0.2,0.3-0.3,0.5C237.6,439.8,237.5,440,237.5,440.2z"/>
<path class="st6" d="M245.3,438v4.4h-0.7v-1.6c-0.1,0.1-0.2,0.1-0.3,0.1c-0.1,0-0.2,0.1-0.4,0.1h-0.5c-0.2,0-0.4,0-0.6-0.1
	c-0.2-0.1-0.3-0.2-0.5-0.3c-0.1-0.2-0.2-0.3-0.3-0.5c-0.1-0.2-0.1-0.5-0.1-0.7V438h0.7v1.5c0,0.6,0.4,1,1,1h0.4
	c0.1,0,0.2-0.1,0.3-0.1s0.2-0.1,0.3-0.2V438H245.3z"/>
<path class="st6" d="M247.3,442.5h-0.7V438h0.7V442.5z M249.2,442.5l-1.9-2.3l1.7-2.1h0.8l-1.7,2.1l1.9,2.4h-0.8V442.5z"/>
<path class="st6" d="M254.5,440.2c0,0.3-0.1,0.6-0.2,0.9c-0.1,0.2-0.2,0.5-0.4,0.7c-0.2,0.2-0.4,0.4-0.7,0.5c-0.5,0.3-1.1,0.3-1.6,0
	c-0.3-0.1-0.5-0.3-0.7-0.5c-0.2-0.2-0.3-0.4-0.4-0.7c-0.3-0.6-0.3-1.2,0-1.8c0.1-0.2,0.2-0.5,0.4-0.7c0.2-0.2,0.4-0.4,0.7-0.5
	c0.5-0.3,1.1-0.3,1.6,0c0.3,0.1,0.5,0.3,0.7,0.5c0.2,0.2,0.3,0.4,0.4,0.7C254.4,439.6,254.5,439.9,254.5,440.2z M251.1,440.2
	c0,0.2,0,0.5,0.1,0.6c0.1,0.2,0.2,0.3,0.3,0.5c0.1,0.1,0.3,0.2,0.4,0.3c0.3,0.1,0.7,0.1,1,0c0.2-0.1,0.3-0.2,0.4-0.3
	c0.1-0.2,0.2-0.3,0.3-0.5c0.1-0.2,0.1-0.4,0.1-0.6c0-0.2,0-0.5-0.1-0.6c-0.1-0.2-0.2-0.3-0.3-0.5c-0.1-0.1-0.3-0.2-0.4-0.3
	c-0.3-0.1-0.7-0.1-1,0c-0.2,0.1-0.3,0.2-0.4,0.3c-0.1,0.2-0.2,0.3-0.3,0.5C251.1,439.8,251.1,440,251.1,440.2z"/>
<path class="st6" d="M258.1,440.1c0.1,0.1,0.2,0.1,0.3,0.2s0.2,0.2,0.2,0.3c0,0.2,0.1,0.3,0.1,0.5c0,0.3-0.1,0.7-0.4,0.9
	c-0.2,0.2-0.6,0.4-0.9,0.4h-2.1V438h2c0.2,0,0.4,0,0.5,0.1c0.1,0.1,0.3,0.1,0.4,0.3s0.2,0.2,0.3,0.4c0.1,0.2,0.1,0.3,0.1,0.5
	c0,0.2,0,0.3-0.1,0.4s-0.1,0.2-0.2,0.3C258.2,440.1,258.2,440.1,258.1,440.1z M256.2,438.7v1.1h1.1c0.2,0,0.4-0.1,0.5-0.2
	c0.2-0.2,0.3-0.5,0.1-0.7c0,0-0.1-0.1-0.1-0.1c-0.1-0.1-0.3-0.2-0.5-0.2h-1.1V438.7z M257.5,441.8c0.2,0,0.3-0.1,0.4-0.2
	c0.1-0.1,0.2-0.2,0.2-0.4V441c0-0.1-0.1-0.1-0.1-0.2s-0.1-0.1-0.2-0.1h-1.5v1.2L257.5,441.8L257.5,441.8z"/>
<path class="st7" d="M88.7,439.3c0,5.9-4.8,10.7-10.7,10.7c-5.9,0-10.7-4.8-10.7-10.7c0-5.9,4.8-10.7,10.7-10.7c0,0,0,0,0,0
	C83.9,428.6,88.7,433.4,88.7,439.3L88.7,439.3z"/>
<polyline class="st8" points="100.1,450.5 267.1,450.5 267.1,449.5 100.1,449.5 "/>
<image style="overflow:visible;opacity:0.51;enable-background:new    ;" width="90" height="108" xlink:href="B334F671.png"  transform="matrix(0.979 0 0 0.979 183.99 224.979)">
</image>
<g>
	<defs>
		<polygon id="SVGID_2_" points="237.6,265.2 232.9,269.9 234,276.4 228.2,273.3 222.3,276.4 223.4,269.9 218.7,265.2 225.2,264.3 
			228.2,258.4 231.1,264.3 		"/>
	</defs>
	<clipPath id="SVGID_3_">
		<use xlink:href="#SVGID_2_"  style="overflow:visible;"/>
	</clipPath>
	<g class="st10">
		<g>
			<defs>
				<rect id="SVGID_4_" x="218.7" y="258.4" width="19" height="18"/>
			</defs>
			<clipPath id="SVGID_5_">
				<use xlink:href="#SVGID_4_"  style="overflow:visible;"/>
			</clipPath>
			<g class="st11">
				
					<image style="overflow:visible;enable-background:new    ;" width="51" height="45" xlink:href="B334F673.png"  transform="matrix(0.4498 0 0 -0.4498 217.3407 277.62)">
				</image>
			</g>
		</g>
	</g>
</g>
<g>
	<defs>
		<path id="SVGID_6_" d="M239.3,290.4v22l-11.2-9l-11,8.9v-21.8h2.8c1.1,0,2.1,0.5,2.8,1.3l3.8,4.3c1.4,1.6,3.8,1.7,5.3,0.3
			c0.1-0.1,0.2-0.2,0.3-0.2l4.1-4.5c0.7-0.8,1.7-1.2,2.7-1.2L239.3,290.4L239.3,290.4z"/>
	</defs>
	<clipPath id="SVGID_7_">
		<use xlink:href="#SVGID_6_"  style="overflow:visible;"/>
	</clipPath>
	<g class="st12">
		
			<linearGradient id="SVGID_8_" gradientUnits="userSpaceOnUse" x1="202.08" y1="515.3" x2="224.38" y2="515.3" gradientTransform="matrix(1 0 0 1 14.92 -214)">
			<stop  offset="0" style="stop-color:#FAA928"/>
			<stop  offset="1" style="stop-color:#FA9316"/>
		</linearGradient>
		<rect id="SVGID" x="217" y="290.3" class="st13" width="22.3" height="22"/>
		<g>
			<defs>
				<rect id="SVGID_9_" x="217" y="290.3" width="22.3" height="22"/>
			</defs>
			<clipPath id="SVGID_10_">
				<use xlink:href="#SVGID_9_"  style="overflow:visible;"/>
			</clipPath>
			<g class="st14">
				
					<image style="overflow:visible;enable-background:new    ;" width="55" height="53" xlink:href="B334F670.png"  transform="matrix(0.4513 0 0 -0.4513 215.8287 313.51)">
				</image>
			</g>
		</g>
	</g>
</g>
<path class="st15" d="M217,312.2l-3.3,2.7c-0.4,0.3-1.1,0.2-1.4-0.2c-0.1-0.1-0.2-0.3-0.2-0.5v-23.8h4.9V312.2L217,312.2z"/>
<linearGradient id="SVGID-2_1_" gradientUnits="userSpaceOnUse" x1="184.1024" y1="482.7803" x2="241.8824" y2="482.7803" gradientTransform="matrix(1 0 0 1 14.92 -214)">
	<stop  offset="0" style="stop-color:#0055CF"/>
	<stop  offset="1" style="stop-color:#00BBEE"/>
</linearGradient>
<path id="SVGID-2" class="st16" d="M244.2,268.4c0-8.8-7.2-16-16-16s-16,7.2-16,16s7.2,16,16,16S244.2,277.2,244.2,268.4z
	 M256,266.4c1.2,1.5,1.2,3.6-0.1,5l-4.8,5.3c-0.6,0.7-1,1.6-1,2.5v7.1c0,2-1.6,3.7-3.6,3.8l-2.4,0.1l-4.7,0.1h-0.5
	c-1,0-2,0.5-2.7,1.2L232,296c-1.4,1.5-3.8,1.6-5.4,0.2c-0.1-0.1-0.2-0.2-0.2-0.3l-3.8-4.3c-0.7-0.8-1.7-1.3-2.8-1.3h-9.6
	c-2.1,0-3.8-1.6-3.8-3.7l-0.2-7.7c0-1-0.4-1.9-1.1-2.6l-4.9-4.7c-1.5-1.4-1.6-3.7-0.2-5.2c0,0,0.1-0.1,0.1-0.1l5.1-5.2
	c0.7-0.7,1-1.6,1-2.6v-7.3c0-2.1,1.7-3.8,3.8-3.8l0,0h7.5c1,0,2-0.4,2.7-1.1l4.6-4.8c1.5-1.5,3.9-1.5,5.4,0c0,0,0,0,0,0l5.2,5.2
	c0.8,0.7,1.8,1.1,2.8,1.1l8.1-0.3c2.1-0.1,3.8,1.5,3.9,3.5c0,0,0,0,0,0.1l0.3,7.6c0.1,0.8,0.4,1.6,0.9,2.3L256,266.4L256,266.4z"/>
<linearGradient id="SVGID_11_" gradientUnits="userSpaceOnUse" x1="197.22" y1="482.4" x2="229.22" y2="482.4" gradientTransform="matrix(1 0 0 1 14.92 -214)">
	<stop  offset="0" style="stop-color:#32AAF5"/>
	<stop  offset="1" style="stop-color:#58CDFF"/>
</linearGradient>
<path class="st17" d="M232.9,269.9l4.7-4.6l-6.6-1l-2.9-5.9l-2.9,5.9l-6.6,1l4.8,4.6l-1.1,6.5l5.9-3.1l5.9,3.1L232.9,269.9
	L232.9,269.9z M228.2,252.4c8.8,0,16,7.2,16,16s-7.2,16-16,16s-16-7.2-16-16S219.4,252.4,228.2,252.4z"/>
<path class="st15" d="M239.3,312.4v-22.1l4.7-0.1v24c0,0.6-0.4,1-1,1c-0.2,0-0.4-0.1-0.6-0.2L239.3,312.4L239.3,312.4z"/>
<path class="st8" d="M142.6,332h-39.5c-1.7,0-3.1-1.4-3.1-3.1l0,0c0-1.7,1.4-3.1,3.1-3.1h39.5c1.7,0,3.1,1.4,3.1,3.1l0,0
	C145.7,330.6,144.3,332,142.6,332z"/>
<path class="st8" d="M203.2,332h-51.7c-1.7,0-3.1-1.4-3.1-3.1l0,0c0-1.7,1.4-3.1,3.1-3.1h51.7c1.7,0,3.1,1.4,3.1,3.1l0,0
	C206.3,330.6,204.9,332,203.2,332z"/>
<path class="st8" d="M152.1,359h-49.6c-1.7,0-3.1-1.4-3.1-3.1l0,0c0-1.7,1.4-3.1,3.1-3.1h49.6c1.7,0,3.1,1.4,3.1,3.1l0,0
	C155.2,357.6,153.8,359,152.1,359z"/>
<path class="st8" d="M216,359h-54.8c-1.7,0-3.1-1.4-3.1-3.1l0,0c0-1.7,1.4-3.1,3.1-3.1H216c1.7,0,3.1,1.4,3.1,3.1l0,0
	C219.1,357.6,217.7,359,216,359z"/>
<path class="st8" d="M142,386.9h-38.4c-1.7,0-3.1-1.4-3.1-3.1l0,0c0-1.7,1.4-3.1,3.1-3.1H142c1.7,0,3.1,1.4,3.1,3.1l0,0
	C145.1,385.5,143.7,386.9,142,386.9z"/>
<path class="st8" d="M210.8,386.9h-58.2c-1.7,0-3.1-1.4-3.1-3.1l0,0c0-1.7,1.4-3.1,3.1-3.1h58.2c1.7,0,3.1,1.4,3.1,3.1l0,0
	C213.9,385.5,212.5,386.9,210.8,386.9z"/>
<path class="st8" d="M150,414.9h-47.5c-1.7,0-3.1-1.4-3.1-3.1l0,0c0-1.7,1.4-3.1,3.1-3.1H150c1.7,0,3.1,1.4,3.1,3.1l0,0
	C153.1,413.5,151.7,414.9,150,414.9z"/>
<path class="st8" d="M216.5,414.9h-55.7c-1.7,0-3.1-1.4-3.1-3.1l0,0c0-1.7,1.4-3.1,3.1-3.1h55.7c1.7,0,3.1,1.4,3.1,3.1l0,0
	C219.6,413.5,218.2,414.9,216.5,414.9z"/>
<path class="st8" d="M141.5,442.4h-39c-1.7,0-3.1-1.4-3.1-3.1l0,0c0-1.7,1.4-3.1,3.1-3.1h39c1.7,0,3.1,1.4,3.1,3.1l0,0
	C144.6,441,143.2,442.4,141.5,442.4z"/>
<path class="st8" d="M216.5,442.4h-64.2c-1.7,0-3.1-1.4-3.1-3.1l0,0c0-1.7,1.4-3.1,3.1-3.1h64.2c1.7,0,3.1,1.4,3.1,3.1l0,0
	C219.6,441,218.2,442.4,216.5,442.4z"/>
</svg>
