<?xml version="1.0" encoding="iso-8859-1"?>
<!-- Generator: Adobe Illustrator 19.0.0, SVG Export Plug-In . SVG Version: 6.00 Build 0)  -->
<svg version="1.1" id="Capa_1" xmlns="http://www.w3.org/2000/svg" xmlns:xlink="http://www.w3.org/1999/xlink" x="0px" y="0px"
	 viewBox="0 0 512.018 512.018" style="enable-background:new 0 0 512.018 512.018;" xml:space="preserve">
<path style="fill:#1976D2;" d="M464.009,192.018c-26.464,0-48-21.536-48-48v-16c0-8.832-7.168-16-16-16h-288
	c-8.832,0-16,7.168-16,16v16c0,26.464-21.536,48-48,48c-8.832,0-16,7.168-16,16v288c0,8.832,7.168,16,16,16h416
	c8.832,0,16-7.168,16-16v-288C480.009,199.186,472.841,192.018,464.009,192.018z"/>
<path style="fill:#2196F3;" d="M446.089,8.466c-2.752-5.216-8.16-8.448-14.08-8.448h-96c0,0-22.656,47.296-80,48s-80-48-80-48h-96
	c-5.888,0-11.328,3.232-14.08,8.448c-2.816,5.184-2.528,11.488,0.736,16.384c19.2,28.96,29.344,62.4,29.344,96.768v390.4h320v-390.4
	c0-34.368,10.144-67.84,29.344-96.736C448.617,19.954,448.873,13.65,446.089,8.466z"/>
<path style="fill:#ECEFF1;" d="M256.009,128.018c-52.928,0-96-43.072-96-96v-16c0-6.4,3.808-12.192,9.696-14.688
	c5.888-2.592,12.704-1.312,17.344,3.104c38.688,36.832,99.264,36.832,137.952,0c4.64-4.416,11.456-5.664,17.312-3.104
	c5.888,2.496,9.696,8.288,9.696,14.688v16C352.009,84.946,308.937,128.018,256.009,128.018z M194.217,48.722
	c7.36,27.232,32.288,47.296,61.792,47.296s54.4-20.064,61.792-47.296C279.241,69.202,232.809,69.234,194.217,48.722z"/>
<g>
</g>
<g>
</g>
<g>
</g>
<g>
</g>
<g>
</g>
<g>
</g>
<g>
</g>
<g>
</g>
<g>
</g>
<g>
</g>
<g>
</g>
<g>
</g>
<g>
</g>
<g>
</g>
<g>
</g>
</svg>
